%TF.GenerationSoftware,KiCad,Pcbnew,9.0.4*%
%TF.CreationDate,2026-04-13T15:36:15-04:00*%
%TF.ProjectId,MotorDriver2,4d6f746f-7244-4726-9976-6572322e6b69,rev?*%
%TF.SameCoordinates,Original*%
%TF.FileFunction,Copper,L2,Inr*%
%TF.FilePolarity,Positive*%
%FSLAX46Y46*%
G04 Gerber Fmt 4.6, Leading zero omitted, Abs format (unit mm)*
G04 Created by KiCad (PCBNEW 9.0.4) date 2026-04-13 15:36:15*
%MOMM*%
%LPD*%
G01*
G04 APERTURE LIST*
%TA.AperFunction,ComponentPad*%
%ADD10R,1.700000X1.700000*%
%TD*%
%TA.AperFunction,ComponentPad*%
%ADD11C,1.700000*%
%TD*%
%TA.AperFunction,ComponentPad*%
%ADD12C,1.524000*%
%TD*%
%TA.AperFunction,ViaPad*%
%ADD13C,0.400000*%
%TD*%
%TA.AperFunction,ViaPad*%
%ADD14C,0.500000*%
%TD*%
G04 APERTURE END LIST*
D10*
%TO.N,SWDIO*%
%TO.C,J6*%
X115250000Y-76920000D03*
D11*
%TO.N,GND*%
X115250000Y-79460000D03*
%TO.N,BOOT*%
X115250000Y-82000000D03*
%TO.N,3V3*%
X115250000Y-84540000D03*
%TD*%
D10*
%TO.N,5V*%
%TO.C,Conn7*%
X129225000Y-53000000D03*
D11*
%TO.N,/motors2/Motor4a-*%
X131765000Y-53000000D03*
%TD*%
D10*
%TO.N,SensorAIn*%
%TO.C,J2*%
X135315000Y-128500000D03*
D11*
%TO.N,GND*%
X132775000Y-128500000D03*
%TD*%
D10*
%TO.N,Net-(VBAT1-Pin_1)*%
%TO.C,VBAT1*%
X184500000Y-55460000D03*
D11*
%TO.N,GND*%
X184500000Y-58000000D03*
%TD*%
D12*
%TO.N,unconnected-(U3-GPIO2_A0_D0-Pad1)_1*%
%TO.C,U3*%
X141380000Y-55635000D03*
%TO.N,unconnected-(U3-GPIO3_A1_D1-Pad2)_1*%
X141380000Y-58175000D03*
%TO.N,CS*%
X141380000Y-60715000D03*
%TO.N,unconnected-(U3-GPIO5_A3_D3-Pad4)*%
X141380000Y-63255000D03*
%TO.N,unconnected-(U3-GPIO6_D4_SDA-Pad5)_1*%
X141380000Y-65795000D03*
%TO.N,unconnected-(U3-GPIO7_D5_SCL-Pad6)*%
X141380000Y-68335000D03*
%TO.N,unconnected-(U3-GPIO21_D6_TX-Pad7)_1*%
X141380000Y-70875000D03*
%TO.N,unconnected-(U3-GPIO20_D7_RX-Pad8)_1*%
X156620000Y-70875000D03*
%TO.N,SPI2_SCK*%
X156620000Y-68335000D03*
%TO.N,SPI2_MISO*%
X156620000Y-65795000D03*
%TO.N,SPI2_MOSI*%
X156620000Y-63255000D03*
%TO.N,3V3*%
X156620000Y-60715000D03*
%TO.N,GND*%
X156620000Y-58175000D03*
%TO.N,Net-(U2-OUT)*%
X156620000Y-55635000D03*
%TD*%
D10*
%TO.N,SensorBIn*%
%TO.C,J4*%
X143025000Y-128500000D03*
D11*
%TO.N,GND*%
X140485000Y-128500000D03*
%TD*%
D10*
%TO.N,SensorCIn*%
%TO.C,J5*%
X151000000Y-128500000D03*
D11*
%TO.N,GND*%
X148460000Y-128500000D03*
%TD*%
D10*
%TO.N,SensorDIn*%
%TO.C,J3*%
X159040000Y-128500000D03*
D11*
%TO.N,GND*%
X156500000Y-128500000D03*
%TD*%
D10*
%TO.N,5V*%
%TO.C,Conn3*%
X184500000Y-116750000D03*
D11*
%TO.N,/motors1/Motor2a-*%
X184500000Y-119290000D03*
%TD*%
D10*
%TO.N,5V*%
%TO.C,Conn1*%
X184500000Y-78500000D03*
D11*
%TO.N,/motors1/Motor1a-*%
X184500000Y-81040000D03*
%TD*%
D10*
%TO.N,5V*%
%TO.C,Conn2*%
X184500000Y-71446600D03*
D11*
%TO.N,/motors1/Motor1b-*%
X184500000Y-68906600D03*
%TD*%
D10*
%TO.N,5V*%
%TO.C,Conn6*%
X184500000Y-86475000D03*
D11*
%TO.N,/motors2/Motor3b-*%
X184500000Y-89015000D03*
%TD*%
D10*
%TO.N,5V*%
%TO.C,Conn4*%
X184500000Y-107500000D03*
D11*
%TO.N,/motors1/Motor2b-*%
X184500000Y-110040000D03*
%TD*%
D10*
%TO.N,5V*%
%TO.C,Conn5*%
X184500000Y-95975000D03*
D11*
%TO.N,/motors2/Motor3a-*%
X184500000Y-98515000D03*
%TD*%
D10*
%TO.N,5V*%
%TO.C,Conn8*%
X121225000Y-53000000D03*
D11*
%TO.N,/motors2/Motor4b-*%
X123765000Y-53000000D03*
%TD*%
D13*
%TO.N,GND*%
X161000000Y-95000000D03*
X163250000Y-92500000D03*
%TO.N,3V3*%
X147500000Y-79250000D03*
%TO.N,GND*%
X122460000Y-110500000D03*
X122250000Y-108200000D03*
X139500000Y-95500000D03*
X124250000Y-108200000D03*
D14*
X116000000Y-106000000D03*
D13*
X126000000Y-111000000D03*
D14*
X119500000Y-108500000D03*
X168000000Y-124500000D03*
X116000000Y-118500000D03*
D13*
X125250000Y-98250000D03*
X151286200Y-106500000D03*
X141500000Y-90480000D03*
X154286200Y-111500000D03*
D14*
X168000000Y-87000000D03*
X117500000Y-81250000D03*
X168000000Y-103500000D03*
X129000000Y-75500000D03*
X162500000Y-117500000D03*
D13*
X137250000Y-96500000D03*
X156000000Y-105500000D03*
X139750000Y-112000000D03*
D14*
X161500000Y-73500000D03*
D13*
X119618325Y-115839401D03*
X115500000Y-59000000D03*
D14*
X170500000Y-55000000D03*
D13*
X137000000Y-111000000D03*
D14*
X168500000Y-106000000D03*
D13*
X143536200Y-115750000D03*
X134500000Y-110250000D03*
D14*
X125000000Y-78000000D03*
D13*
X122888400Y-114250000D03*
X135750000Y-91250000D03*
X150000000Y-104500000D03*
X138750000Y-115500000D03*
X145000000Y-93750000D03*
X146036200Y-113000000D03*
D14*
X136500000Y-74500000D03*
D13*
X141500000Y-91500000D03*
X132000000Y-110000000D03*
X158286200Y-113000000D03*
D14*
X168000000Y-64000000D03*
D13*
X138750000Y-102500000D03*
X161000000Y-70750000D03*
X153000000Y-104500000D03*
X143036200Y-113750000D03*
X138000000Y-94250000D03*
X122460000Y-109500000D03*
X131250000Y-113500000D03*
D14*
X168000000Y-82500000D03*
D13*
X139500000Y-96500000D03*
D14*
X162500000Y-113000000D03*
D13*
X129750000Y-107750000D03*
X130250000Y-115000000D03*
D14*
%TO.N,5V*%
X170500000Y-54000000D03*
X172500000Y-55500000D03*
X170500000Y-56000000D03*
X177500000Y-62500000D03*
D13*
%TO.N,3V3*%
X137500000Y-113500000D03*
X144786200Y-111500000D03*
D14*
X122500000Y-88500000D03*
X136000000Y-92000000D03*
D13*
X156786200Y-116500000D03*
D14*
X133500000Y-82500000D03*
D13*
X133750000Y-114000000D03*
X158286200Y-109500000D03*
D14*
X124500000Y-92500000D03*
D13*
X131990000Y-104010000D03*
X143786200Y-110000000D03*
X125250000Y-114250000D03*
X135990000Y-106510000D03*
%TO.N,VBUS*%
X134000000Y-115000000D03*
X129500000Y-113250000D03*
%TO.N,SensorAIn*%
X136500000Y-123750000D03*
X144536200Y-109250000D03*
%TO.N,SensorDIn*%
X156500000Y-118000000D03*
X155546200Y-109990000D03*
%TO.N,BOOT*%
X155500000Y-91000000D03*
X127000000Y-95500000D03*
%TO.N,USART2_TX*%
X147500000Y-102500000D03*
X143250000Y-103500000D03*
%TO.N,USART2_RX*%
X138905555Y-104155555D03*
X148033550Y-103000000D03*
%TO.N,SensorAOut*%
X136000000Y-120000000D03*
X144536200Y-108250000D03*
%TO.N,SensorDOut*%
X155786200Y-109250000D03*
X157750000Y-122500000D03*
D14*
%TO.N,Net-(Q2-S)*%
X164000000Y-66500000D03*
%TO.N,Net-(Q4-S)*%
X165000000Y-106000000D03*
%TO.N,Motor3b_PWM*%
X167000000Y-92500000D03*
D13*
%TO.N,Motor1b_PWM*%
X162500000Y-72500000D03*
X152000000Y-85500000D03*
D14*
%TO.N,Motor2b_PWM*%
X163000000Y-111250000D03*
D13*
%TO.N,SensorCOut*%
X152000000Y-107500000D03*
X151500000Y-115500000D03*
D14*
%TO.N,Motor4b_PWM*%
X139000000Y-86500000D03*
X125500000Y-75500000D03*
%TO.N,Net-(Q7-S)*%
X164500000Y-85000000D03*
D13*
%TO.N,Net-(Q8-S)*%
X120000000Y-76000000D03*
D14*
%TO.N,/motors1/Motor1b-*%
X180500000Y-69500000D03*
D13*
%TO.N,/motors2/Motor4b-*%
X122500000Y-57000000D03*
D14*
%TO.N,/motors1/Motor2b-*%
X180500000Y-108750000D03*
%TO.N,/motors2/Motor3b-*%
X180500000Y-88000000D03*
%TD*%
%TA.AperFunction,Conductor*%
%TO.N,GND*%
G36*
X188006922Y-50401279D02*
G01*
X188119518Y-50413966D01*
X188146583Y-50420143D01*
X188246927Y-50455255D01*
X188271941Y-50467301D01*
X188361955Y-50523860D01*
X188383662Y-50541172D01*
X188458827Y-50616337D01*
X188476140Y-50638046D01*
X188532697Y-50728056D01*
X188544745Y-50753074D01*
X188579855Y-50853414D01*
X188586033Y-50880484D01*
X188598720Y-50993077D01*
X188599500Y-51006961D01*
X188599500Y-130993038D01*
X188598720Y-131006921D01*
X188598720Y-131006922D01*
X188586033Y-131119515D01*
X188579855Y-131146585D01*
X188544745Y-131246925D01*
X188532697Y-131271943D01*
X188476140Y-131361953D01*
X188458827Y-131383662D01*
X188383662Y-131458827D01*
X188361953Y-131476140D01*
X188271943Y-131532697D01*
X188246925Y-131544745D01*
X188146585Y-131579855D01*
X188119516Y-131586033D01*
X188034855Y-131595572D01*
X188006921Y-131598720D01*
X187993039Y-131599500D01*
X113006961Y-131599500D01*
X112993077Y-131598720D01*
X112880484Y-131586033D01*
X112853414Y-131579855D01*
X112753074Y-131544745D01*
X112728056Y-131532697D01*
X112638046Y-131476140D01*
X112616337Y-131458827D01*
X112541172Y-131383662D01*
X112523859Y-131361953D01*
X112467302Y-131271943D01*
X112455254Y-131246925D01*
X112420144Y-131146585D01*
X112413966Y-131119514D01*
X112401280Y-131006921D01*
X112400500Y-130993038D01*
X112400500Y-128393753D01*
X131425000Y-128393753D01*
X131425000Y-128606246D01*
X131458242Y-128816127D01*
X131458242Y-128816130D01*
X131523904Y-129018217D01*
X131620375Y-129207550D01*
X131659728Y-129261716D01*
X132292037Y-128629408D01*
X132309075Y-128692993D01*
X132374901Y-128807007D01*
X132467993Y-128900099D01*
X132582007Y-128965925D01*
X132645590Y-128982962D01*
X132013282Y-129615269D01*
X132013282Y-129615270D01*
X132067449Y-129654624D01*
X132256782Y-129751095D01*
X132458870Y-129816757D01*
X132668754Y-129850000D01*
X132881246Y-129850000D01*
X133091127Y-129816757D01*
X133091130Y-129816757D01*
X133293217Y-129751095D01*
X133482554Y-129654622D01*
X133536716Y-129615270D01*
X133536717Y-129615270D01*
X132904408Y-128982962D01*
X132967993Y-128965925D01*
X133082007Y-128900099D01*
X133175099Y-128807007D01*
X133240925Y-128692993D01*
X133257962Y-128629408D01*
X133928181Y-129299628D01*
X133961666Y-129360951D01*
X133964500Y-129387300D01*
X133964500Y-129397865D01*
X133964501Y-129397876D01*
X133970908Y-129457483D01*
X134021202Y-129592328D01*
X134021206Y-129592335D01*
X134107452Y-129707544D01*
X134107455Y-129707547D01*
X134222664Y-129793793D01*
X134222671Y-129793797D01*
X134357517Y-129844091D01*
X134357516Y-129844091D01*
X134364444Y-129844835D01*
X134417127Y-129850500D01*
X136212872Y-129850499D01*
X136272483Y-129844091D01*
X136407331Y-129793796D01*
X136522546Y-129707546D01*
X136608796Y-129592331D01*
X136659091Y-129457483D01*
X136665500Y-129397873D01*
X136665499Y-128393753D01*
X139135000Y-128393753D01*
X139135000Y-128606246D01*
X139168242Y-128816127D01*
X139168242Y-128816130D01*
X139233904Y-129018217D01*
X139330375Y-129207550D01*
X139369728Y-129261716D01*
X140002037Y-128629408D01*
X140019075Y-128692993D01*
X140084901Y-128807007D01*
X140177993Y-128900099D01*
X140292007Y-128965925D01*
X140355590Y-128982962D01*
X139723282Y-129615269D01*
X139723282Y-129615270D01*
X139777449Y-129654624D01*
X139966782Y-129751095D01*
X140168870Y-129816757D01*
X140378754Y-129850000D01*
X140591246Y-129850000D01*
X140801127Y-129816757D01*
X140801130Y-129816757D01*
X141003217Y-129751095D01*
X141192554Y-129654622D01*
X141246716Y-129615270D01*
X141246717Y-129615270D01*
X140614408Y-128982962D01*
X140677993Y-128965925D01*
X140792007Y-128900099D01*
X140885099Y-128807007D01*
X140950925Y-128692993D01*
X140967962Y-128629408D01*
X141638181Y-129299628D01*
X141671666Y-129360951D01*
X141674500Y-129387300D01*
X141674500Y-129397865D01*
X141674501Y-129397876D01*
X141680908Y-129457483D01*
X141731202Y-129592328D01*
X141731206Y-129592335D01*
X141817452Y-129707544D01*
X141817455Y-129707547D01*
X141932664Y-129793793D01*
X141932671Y-129793797D01*
X142067517Y-129844091D01*
X142067516Y-129844091D01*
X142074444Y-129844835D01*
X142127127Y-129850500D01*
X143922872Y-129850499D01*
X143982483Y-129844091D01*
X144117331Y-129793796D01*
X144232546Y-129707546D01*
X144318796Y-129592331D01*
X144369091Y-129457483D01*
X144375500Y-129397873D01*
X144375499Y-128393753D01*
X147110000Y-128393753D01*
X147110000Y-128606246D01*
X147143242Y-128816127D01*
X147143242Y-128816130D01*
X147208904Y-129018217D01*
X147305375Y-129207550D01*
X147344728Y-129261716D01*
X147977037Y-128629408D01*
X147994075Y-128692993D01*
X148059901Y-128807007D01*
X148152993Y-128900099D01*
X148267007Y-128965925D01*
X148330590Y-128982962D01*
X147698282Y-129615269D01*
X147698282Y-129615270D01*
X147752449Y-129654624D01*
X147941782Y-129751095D01*
X148143870Y-129816757D01*
X148353754Y-129850000D01*
X148566246Y-129850000D01*
X148776127Y-129816757D01*
X148776130Y-129816757D01*
X148978217Y-129751095D01*
X149167554Y-129654622D01*
X149221716Y-129615270D01*
X149221717Y-129615270D01*
X148589408Y-128982962D01*
X148652993Y-128965925D01*
X148767007Y-128900099D01*
X148860099Y-128807007D01*
X148925925Y-128692993D01*
X148942962Y-128629408D01*
X149613181Y-129299628D01*
X149646666Y-129360951D01*
X149649500Y-129387300D01*
X149649500Y-129397865D01*
X149649501Y-129397876D01*
X149655908Y-129457483D01*
X149706202Y-129592328D01*
X149706206Y-129592335D01*
X149792452Y-129707544D01*
X149792455Y-129707547D01*
X149907664Y-129793793D01*
X149907671Y-129793797D01*
X150042517Y-129844091D01*
X150042516Y-129844091D01*
X150049444Y-129844835D01*
X150102127Y-129850500D01*
X151897872Y-129850499D01*
X151957483Y-129844091D01*
X152092331Y-129793796D01*
X152207546Y-129707546D01*
X152293796Y-129592331D01*
X152344091Y-129457483D01*
X152350500Y-129397873D01*
X152350499Y-128393753D01*
X155150000Y-128393753D01*
X155150000Y-128606246D01*
X155183242Y-128816127D01*
X155183242Y-128816130D01*
X155248904Y-129018217D01*
X155345375Y-129207550D01*
X155384728Y-129261716D01*
X156017037Y-128629408D01*
X156034075Y-128692993D01*
X156099901Y-128807007D01*
X156192993Y-128900099D01*
X156307007Y-128965925D01*
X156370590Y-128982962D01*
X155738282Y-129615269D01*
X155738282Y-129615270D01*
X155792449Y-129654624D01*
X155981782Y-129751095D01*
X156183870Y-129816757D01*
X156393754Y-129850000D01*
X156606246Y-129850000D01*
X156816127Y-129816757D01*
X156816130Y-129816757D01*
X157018217Y-129751095D01*
X157207554Y-129654622D01*
X157261716Y-129615270D01*
X157261717Y-129615270D01*
X156629408Y-128982962D01*
X156692993Y-128965925D01*
X156807007Y-128900099D01*
X156900099Y-128807007D01*
X156965925Y-128692993D01*
X156982962Y-128629408D01*
X157653181Y-129299628D01*
X157686666Y-129360951D01*
X157689500Y-129387300D01*
X157689500Y-129397865D01*
X157689501Y-129397876D01*
X157695908Y-129457483D01*
X157746202Y-129592328D01*
X157746206Y-129592335D01*
X157832452Y-129707544D01*
X157832455Y-129707547D01*
X157947664Y-129793793D01*
X157947671Y-129793797D01*
X158082517Y-129844091D01*
X158082516Y-129844091D01*
X158089444Y-129844835D01*
X158142127Y-129850500D01*
X159937872Y-129850499D01*
X159997483Y-129844091D01*
X160132331Y-129793796D01*
X160247546Y-129707546D01*
X160333796Y-129592331D01*
X160384091Y-129457483D01*
X160390500Y-129397873D01*
X160390499Y-127602128D01*
X160384091Y-127542517D01*
X160359027Y-127475318D01*
X160333797Y-127407671D01*
X160333793Y-127407664D01*
X160247547Y-127292455D01*
X160247544Y-127292452D01*
X160132335Y-127206206D01*
X160132328Y-127206202D01*
X159997482Y-127155908D01*
X159997483Y-127155908D01*
X159937883Y-127149501D01*
X159937881Y-127149500D01*
X159937873Y-127149500D01*
X159937864Y-127149500D01*
X158142129Y-127149500D01*
X158142123Y-127149501D01*
X158082516Y-127155908D01*
X157947671Y-127206202D01*
X157947664Y-127206206D01*
X157832455Y-127292452D01*
X157832452Y-127292455D01*
X157746206Y-127407664D01*
X157746202Y-127407671D01*
X157695908Y-127542517D01*
X157689501Y-127602116D01*
X157689501Y-127602123D01*
X157689500Y-127602135D01*
X157689500Y-127612690D01*
X157669815Y-127679729D01*
X157653181Y-127700371D01*
X156982962Y-128370590D01*
X156965925Y-128307007D01*
X156900099Y-128192993D01*
X156807007Y-128099901D01*
X156692993Y-128034075D01*
X156629409Y-128017037D01*
X157261716Y-127384728D01*
X157207550Y-127345375D01*
X157018217Y-127248904D01*
X156816129Y-127183242D01*
X156606246Y-127150000D01*
X156393754Y-127150000D01*
X156183872Y-127183242D01*
X156183869Y-127183242D01*
X155981782Y-127248904D01*
X155792439Y-127345380D01*
X155738282Y-127384727D01*
X155738282Y-127384728D01*
X156370591Y-128017037D01*
X156307007Y-128034075D01*
X156192993Y-128099901D01*
X156099901Y-128192993D01*
X156034075Y-128307007D01*
X156017037Y-128370591D01*
X155384728Y-127738282D01*
X155384727Y-127738282D01*
X155345380Y-127792439D01*
X155248904Y-127981782D01*
X155183242Y-128183869D01*
X155183242Y-128183872D01*
X155150000Y-128393753D01*
X152350499Y-128393753D01*
X152350499Y-127602128D01*
X152344091Y-127542517D01*
X152307617Y-127444726D01*
X152293798Y-127407673D01*
X152293793Y-127407664D01*
X152207547Y-127292455D01*
X152207544Y-127292452D01*
X152092335Y-127206206D01*
X152092328Y-127206202D01*
X151957482Y-127155908D01*
X151957483Y-127155908D01*
X151897883Y-127149501D01*
X151897881Y-127149500D01*
X151897873Y-127149500D01*
X151897864Y-127149500D01*
X150102129Y-127149500D01*
X150102123Y-127149501D01*
X150042516Y-127155908D01*
X149907671Y-127206202D01*
X149907664Y-127206206D01*
X149792455Y-127292452D01*
X149792452Y-127292455D01*
X149706206Y-127407664D01*
X149706202Y-127407671D01*
X149655908Y-127542517D01*
X149649501Y-127602116D01*
X149649501Y-127602123D01*
X149649500Y-127602135D01*
X149649500Y-127612690D01*
X149629815Y-127679729D01*
X149613181Y-127700371D01*
X148942962Y-128370590D01*
X148925925Y-128307007D01*
X148860099Y-128192993D01*
X148767007Y-128099901D01*
X148652993Y-128034075D01*
X148589409Y-128017037D01*
X149221716Y-127384728D01*
X149167550Y-127345375D01*
X148978217Y-127248904D01*
X148776129Y-127183242D01*
X148566246Y-127150000D01*
X148353754Y-127150000D01*
X148143872Y-127183242D01*
X148143869Y-127183242D01*
X147941782Y-127248904D01*
X147752439Y-127345380D01*
X147698282Y-127384727D01*
X147698282Y-127384728D01*
X148330591Y-128017037D01*
X148267007Y-128034075D01*
X148152993Y-128099901D01*
X148059901Y-128192993D01*
X147994075Y-128307007D01*
X147977037Y-128370591D01*
X147344728Y-127738282D01*
X147344727Y-127738282D01*
X147305380Y-127792439D01*
X147208904Y-127981782D01*
X147143242Y-128183869D01*
X147143242Y-128183872D01*
X147110000Y-128393753D01*
X144375499Y-128393753D01*
X144375499Y-127602128D01*
X144369091Y-127542517D01*
X144332617Y-127444726D01*
X144318798Y-127407673D01*
X144318793Y-127407664D01*
X144232547Y-127292455D01*
X144232544Y-127292452D01*
X144117335Y-127206206D01*
X144117328Y-127206202D01*
X143982482Y-127155908D01*
X143982483Y-127155908D01*
X143922883Y-127149501D01*
X143922881Y-127149500D01*
X143922873Y-127149500D01*
X143922864Y-127149500D01*
X142127129Y-127149500D01*
X142127123Y-127149501D01*
X142067516Y-127155908D01*
X141932671Y-127206202D01*
X141932664Y-127206206D01*
X141817455Y-127292452D01*
X141817452Y-127292455D01*
X141731206Y-127407664D01*
X141731202Y-127407671D01*
X141680908Y-127542517D01*
X141674501Y-127602116D01*
X141674501Y-127602123D01*
X141674500Y-127602135D01*
X141674500Y-127612690D01*
X141654815Y-127679729D01*
X141638181Y-127700371D01*
X140967962Y-128370590D01*
X140950925Y-128307007D01*
X140885099Y-128192993D01*
X140792007Y-128099901D01*
X140677993Y-128034075D01*
X140614409Y-128017037D01*
X141246716Y-127384728D01*
X141192550Y-127345375D01*
X141003217Y-127248904D01*
X140801129Y-127183242D01*
X140591246Y-127150000D01*
X140378754Y-127150000D01*
X140168872Y-127183242D01*
X140168869Y-127183242D01*
X139966782Y-127248904D01*
X139777439Y-127345380D01*
X139723282Y-127384727D01*
X139723282Y-127384728D01*
X140355591Y-128017037D01*
X140292007Y-128034075D01*
X140177993Y-128099901D01*
X140084901Y-128192993D01*
X140019075Y-128307007D01*
X140002037Y-128370591D01*
X139369728Y-127738282D01*
X139369727Y-127738282D01*
X139330380Y-127792439D01*
X139233904Y-127981782D01*
X139168242Y-128183869D01*
X139168242Y-128183872D01*
X139135000Y-128393753D01*
X136665499Y-128393753D01*
X136665499Y-127602128D01*
X136659091Y-127542517D01*
X136622617Y-127444726D01*
X136608798Y-127407673D01*
X136608793Y-127407664D01*
X136522547Y-127292455D01*
X136522544Y-127292452D01*
X136407335Y-127206206D01*
X136407328Y-127206202D01*
X136272482Y-127155908D01*
X136272483Y-127155908D01*
X136212883Y-127149501D01*
X136212881Y-127149500D01*
X136212873Y-127149500D01*
X136212864Y-127149500D01*
X134417129Y-127149500D01*
X134417123Y-127149501D01*
X134357516Y-127155908D01*
X134222671Y-127206202D01*
X134222664Y-127206206D01*
X134107455Y-127292452D01*
X134107452Y-127292455D01*
X134021206Y-127407664D01*
X134021202Y-127407671D01*
X133970908Y-127542517D01*
X133964501Y-127602116D01*
X133964501Y-127602123D01*
X133964500Y-127602135D01*
X133964500Y-127612690D01*
X133944815Y-127679729D01*
X133928181Y-127700371D01*
X133257962Y-128370590D01*
X133240925Y-128307007D01*
X133175099Y-128192993D01*
X133082007Y-128099901D01*
X132967993Y-128034075D01*
X132904409Y-128017037D01*
X133536716Y-127384728D01*
X133482550Y-127345375D01*
X133293217Y-127248904D01*
X133091129Y-127183242D01*
X132881246Y-127150000D01*
X132668754Y-127150000D01*
X132458872Y-127183242D01*
X132458869Y-127183242D01*
X132256782Y-127248904D01*
X132067439Y-127345380D01*
X132013282Y-127384727D01*
X132013282Y-127384728D01*
X132645591Y-128017037D01*
X132582007Y-128034075D01*
X132467993Y-128099901D01*
X132374901Y-128192993D01*
X132309075Y-128307007D01*
X132292037Y-128370591D01*
X131659728Y-127738282D01*
X131659727Y-127738282D01*
X131620380Y-127792439D01*
X131523904Y-127981782D01*
X131458242Y-128183869D01*
X131458242Y-128183872D01*
X131425000Y-128393753D01*
X112400500Y-128393753D01*
X112400500Y-124076481D01*
X114223499Y-124076481D01*
X114253339Y-124226491D01*
X114253342Y-124226501D01*
X114311873Y-124367809D01*
X114311875Y-124367812D01*
X114396849Y-124494985D01*
X114396855Y-124494993D01*
X114505006Y-124603144D01*
X114505014Y-124603150D01*
X114632187Y-124688124D01*
X114632190Y-124688126D01*
X114773498Y-124746657D01*
X114773503Y-124746659D01*
X114773507Y-124746659D01*
X114773508Y-124746660D01*
X114923518Y-124776500D01*
X114923521Y-124776500D01*
X115076481Y-124776500D01*
X115177404Y-124756424D01*
X115226497Y-124746659D01*
X115367811Y-124688125D01*
X115494990Y-124603147D01*
X115603147Y-124494990D01*
X115688125Y-124367811D01*
X115746659Y-124226497D01*
X115756424Y-124177404D01*
X115776500Y-124076481D01*
X115776500Y-123923518D01*
X115755708Y-123818995D01*
X135799499Y-123818995D01*
X135826418Y-123954322D01*
X135826421Y-123954332D01*
X135879221Y-124081804D01*
X135879228Y-124081817D01*
X135955885Y-124196541D01*
X135955888Y-124196545D01*
X136053454Y-124294111D01*
X136053458Y-124294114D01*
X136168182Y-124370771D01*
X136168195Y-124370778D01*
X136295667Y-124423578D01*
X136295672Y-124423580D01*
X136295676Y-124423580D01*
X136295677Y-124423581D01*
X136431004Y-124450500D01*
X136431007Y-124450500D01*
X136568995Y-124450500D01*
X136660041Y-124432389D01*
X136704328Y-124423580D01*
X136831811Y-124370775D01*
X136946542Y-124294114D01*
X137044114Y-124196542D01*
X137120775Y-124081811D01*
X137122983Y-124076481D01*
X185223499Y-124076481D01*
X185253339Y-124226491D01*
X185253342Y-124226501D01*
X185311873Y-124367809D01*
X185311875Y-124367812D01*
X185396849Y-124494985D01*
X185396855Y-124494993D01*
X185505006Y-124603144D01*
X185505014Y-124603150D01*
X185632187Y-124688124D01*
X185632190Y-124688126D01*
X185773498Y-124746657D01*
X185773503Y-124746659D01*
X185773507Y-124746659D01*
X185773508Y-124746660D01*
X185923518Y-124776500D01*
X185923521Y-124776500D01*
X186076481Y-124776500D01*
X186177404Y-124756424D01*
X186226497Y-124746659D01*
X186367811Y-124688125D01*
X186494990Y-124603147D01*
X186603147Y-124494990D01*
X186688125Y-124367811D01*
X186746659Y-124226497D01*
X186756424Y-124177404D01*
X186776500Y-124076481D01*
X186776500Y-123923518D01*
X186746660Y-123773508D01*
X186746659Y-123773507D01*
X186746659Y-123773503D01*
X186746657Y-123773498D01*
X186688126Y-123632190D01*
X186688124Y-123632187D01*
X186603150Y-123505014D01*
X186603144Y-123505006D01*
X186494993Y-123396855D01*
X186494985Y-123396849D01*
X186367812Y-123311875D01*
X186367809Y-123311873D01*
X186226501Y-123253342D01*
X186226491Y-123253339D01*
X186076481Y-123223500D01*
X186076479Y-123223500D01*
X185923521Y-123223500D01*
X185923519Y-123223500D01*
X185773508Y-123253339D01*
X185773498Y-123253342D01*
X185632190Y-123311873D01*
X185632187Y-123311875D01*
X185505014Y-123396849D01*
X185505006Y-123396855D01*
X185396855Y-123505006D01*
X185396849Y-123505014D01*
X185311875Y-123632187D01*
X185311873Y-123632190D01*
X185253342Y-123773498D01*
X185253339Y-123773508D01*
X185223500Y-123923518D01*
X185223500Y-123923521D01*
X185223500Y-124076479D01*
X185223500Y-124076481D01*
X185223499Y-124076481D01*
X137122983Y-124076481D01*
X137173580Y-123954328D01*
X137200500Y-123818993D01*
X137200500Y-123681007D01*
X137200500Y-123681004D01*
X137173581Y-123545677D01*
X137173580Y-123545676D01*
X137173580Y-123545672D01*
X137156739Y-123505014D01*
X137120778Y-123418195D01*
X137120771Y-123418182D01*
X137044114Y-123303458D01*
X137044111Y-123303454D01*
X136946545Y-123205888D01*
X136946541Y-123205885D01*
X136831817Y-123129228D01*
X136831804Y-123129221D01*
X136704332Y-123076421D01*
X136704322Y-123076418D01*
X136568995Y-123049500D01*
X136568993Y-123049500D01*
X136431007Y-123049500D01*
X136431005Y-123049500D01*
X136295677Y-123076418D01*
X136295667Y-123076421D01*
X136168195Y-123129221D01*
X136168182Y-123129228D01*
X136053458Y-123205885D01*
X136053454Y-123205888D01*
X135955888Y-123303454D01*
X135955885Y-123303458D01*
X135879228Y-123418182D01*
X135879221Y-123418195D01*
X135826421Y-123545667D01*
X135826418Y-123545677D01*
X135799500Y-123681004D01*
X135799500Y-123681007D01*
X135799500Y-123818993D01*
X135799500Y-123818995D01*
X135799499Y-123818995D01*
X115755708Y-123818995D01*
X115746660Y-123773508D01*
X115746659Y-123773507D01*
X115746659Y-123773503D01*
X115708345Y-123681004D01*
X115688126Y-123632190D01*
X115688124Y-123632187D01*
X115603150Y-123505014D01*
X115603144Y-123505006D01*
X115494993Y-123396855D01*
X115494985Y-123396849D01*
X115367812Y-123311875D01*
X115367809Y-123311873D01*
X115226501Y-123253342D01*
X115226491Y-123253339D01*
X115076481Y-123223500D01*
X115076479Y-123223500D01*
X114923521Y-123223500D01*
X114923519Y-123223500D01*
X114773508Y-123253339D01*
X114773498Y-123253342D01*
X114632190Y-123311873D01*
X114632187Y-123311875D01*
X114505014Y-123396849D01*
X114505006Y-123396855D01*
X114396855Y-123505006D01*
X114396849Y-123505014D01*
X114311875Y-123632187D01*
X114311873Y-123632190D01*
X114253342Y-123773498D01*
X114253339Y-123773508D01*
X114223500Y-123923518D01*
X114223500Y-123923521D01*
X114223500Y-124076479D01*
X114223500Y-124076481D01*
X114223499Y-124076481D01*
X112400500Y-124076481D01*
X112400500Y-122568995D01*
X157049499Y-122568995D01*
X157076418Y-122704322D01*
X157076421Y-122704332D01*
X157129221Y-122831804D01*
X157129228Y-122831817D01*
X157205885Y-122946541D01*
X157205888Y-122946545D01*
X157303454Y-123044111D01*
X157303458Y-123044114D01*
X157418182Y-123120771D01*
X157418195Y-123120778D01*
X157545667Y-123173578D01*
X157545672Y-123173580D01*
X157545676Y-123173580D01*
X157545677Y-123173581D01*
X157681004Y-123200500D01*
X157681007Y-123200500D01*
X157818995Y-123200500D01*
X157910041Y-123182389D01*
X157954328Y-123173580D01*
X158061411Y-123129225D01*
X158081804Y-123120778D01*
X158081804Y-123120777D01*
X158081811Y-123120775D01*
X158196542Y-123044114D01*
X158294114Y-122946542D01*
X158370775Y-122831811D01*
X158423580Y-122704328D01*
X158450500Y-122568993D01*
X158450500Y-122431007D01*
X158450500Y-122431004D01*
X158423581Y-122295677D01*
X158423580Y-122295676D01*
X158423580Y-122295672D01*
X158423578Y-122295667D01*
X158370778Y-122168195D01*
X158370771Y-122168182D01*
X158294114Y-122053458D01*
X158294111Y-122053454D01*
X158196545Y-121955888D01*
X158196541Y-121955885D01*
X158081817Y-121879228D01*
X158081804Y-121879221D01*
X157954332Y-121826421D01*
X157954322Y-121826418D01*
X157818995Y-121799500D01*
X157818993Y-121799500D01*
X157681007Y-121799500D01*
X157681005Y-121799500D01*
X157545677Y-121826418D01*
X157545667Y-121826421D01*
X157418195Y-121879221D01*
X157418182Y-121879228D01*
X157303458Y-121955885D01*
X157303454Y-121955888D01*
X157205888Y-122053454D01*
X157205885Y-122053458D01*
X157129228Y-122168182D01*
X157129221Y-122168195D01*
X157076421Y-122295667D01*
X157076418Y-122295677D01*
X157049500Y-122431004D01*
X157049500Y-122431007D01*
X157049500Y-122568993D01*
X157049500Y-122568995D01*
X157049499Y-122568995D01*
X112400500Y-122568995D01*
X112400500Y-120068995D01*
X135299499Y-120068995D01*
X135326418Y-120204322D01*
X135326421Y-120204332D01*
X135379221Y-120331804D01*
X135379228Y-120331817D01*
X135455885Y-120446541D01*
X135455888Y-120446545D01*
X135553454Y-120544111D01*
X135553458Y-120544114D01*
X135668182Y-120620771D01*
X135668195Y-120620778D01*
X135795667Y-120673578D01*
X135795672Y-120673580D01*
X135795676Y-120673580D01*
X135795677Y-120673581D01*
X135931004Y-120700500D01*
X135931007Y-120700500D01*
X136068995Y-120700500D01*
X136160041Y-120682389D01*
X136204328Y-120673580D01*
X136331811Y-120620775D01*
X136446542Y-120544114D01*
X136544114Y-120446542D01*
X136620775Y-120331811D01*
X136673580Y-120204328D01*
X136700500Y-120068993D01*
X136700500Y-119931007D01*
X136700500Y-119931004D01*
X136673581Y-119795677D01*
X136673580Y-119795676D01*
X136673580Y-119795672D01*
X136673578Y-119795667D01*
X136620778Y-119668195D01*
X136620771Y-119668182D01*
X136544114Y-119553458D01*
X136544111Y-119553454D01*
X136446545Y-119455888D01*
X136446541Y-119455885D01*
X136331817Y-119379228D01*
X136331804Y-119379221D01*
X136204332Y-119326421D01*
X136204322Y-119326418D01*
X136068995Y-119299500D01*
X136068993Y-119299500D01*
X135931007Y-119299500D01*
X135931005Y-119299500D01*
X135795677Y-119326418D01*
X135795667Y-119326421D01*
X135668195Y-119379221D01*
X135668182Y-119379228D01*
X135553458Y-119455885D01*
X135553454Y-119455888D01*
X135455888Y-119553454D01*
X135455885Y-119553458D01*
X135379228Y-119668182D01*
X135379221Y-119668195D01*
X135326421Y-119795667D01*
X135326418Y-119795677D01*
X135299500Y-119931004D01*
X135299500Y-119931007D01*
X135299500Y-120068993D01*
X135299500Y-120068995D01*
X135299499Y-120068995D01*
X112400500Y-120068995D01*
X112400500Y-118068995D01*
X155799499Y-118068995D01*
X155826418Y-118204322D01*
X155826421Y-118204332D01*
X155879221Y-118331804D01*
X155879228Y-118331817D01*
X155955885Y-118446541D01*
X155955888Y-118446545D01*
X156053454Y-118544111D01*
X156053458Y-118544114D01*
X156168182Y-118620771D01*
X156168195Y-118620778D01*
X156295667Y-118673578D01*
X156295672Y-118673580D01*
X156295676Y-118673580D01*
X156295677Y-118673581D01*
X156431004Y-118700500D01*
X156431007Y-118700500D01*
X156568995Y-118700500D01*
X156660041Y-118682389D01*
X156704328Y-118673580D01*
X156831811Y-118620775D01*
X156946542Y-118544114D01*
X157044114Y-118446542D01*
X157120775Y-118331811D01*
X157173580Y-118204328D01*
X157182389Y-118160041D01*
X157200500Y-118068995D01*
X157200500Y-117931004D01*
X157173581Y-117795677D01*
X157173580Y-117795676D01*
X157173580Y-117795672D01*
X157137051Y-117707482D01*
X157120778Y-117668195D01*
X157120771Y-117668182D01*
X157044114Y-117553458D01*
X157044111Y-117553454D01*
X156946545Y-117455888D01*
X156946541Y-117455885D01*
X156879965Y-117411400D01*
X156835160Y-117357788D01*
X156826453Y-117288463D01*
X156856608Y-117225435D01*
X156916051Y-117188716D01*
X156924642Y-117186685D01*
X156990528Y-117173580D01*
X157118011Y-117120775D01*
X157232742Y-117044114D01*
X157330314Y-116946542D01*
X157406975Y-116831811D01*
X157459780Y-116704328D01*
X157486700Y-116568993D01*
X157486700Y-116431007D01*
X157486700Y-116431004D01*
X157459781Y-116295677D01*
X157459780Y-116295676D01*
X157459780Y-116295672D01*
X157420359Y-116200500D01*
X157406978Y-116168195D01*
X157406971Y-116168182D01*
X157330314Y-116053458D01*
X157330311Y-116053454D01*
X157232745Y-115955888D01*
X157232741Y-115955885D01*
X157226789Y-115951908D01*
X157118017Y-115879228D01*
X157118004Y-115879221D01*
X157052612Y-115852135D01*
X183149500Y-115852135D01*
X183149500Y-117647870D01*
X183149501Y-117647876D01*
X183155908Y-117707483D01*
X183206202Y-117842328D01*
X183206206Y-117842335D01*
X183292452Y-117957544D01*
X183292455Y-117957547D01*
X183407664Y-118043793D01*
X183407671Y-118043797D01*
X183539082Y-118092810D01*
X183595016Y-118134681D01*
X183619433Y-118200145D01*
X183604582Y-118268418D01*
X183583431Y-118296673D01*
X183469889Y-118410215D01*
X183344951Y-118582179D01*
X183248444Y-118771585D01*
X183182753Y-118973760D01*
X183149500Y-119183713D01*
X183149500Y-119396286D01*
X183174393Y-119553458D01*
X183182754Y-119606243D01*
X183202879Y-119668182D01*
X183248444Y-119808414D01*
X183344951Y-119997820D01*
X183469890Y-120169786D01*
X183620213Y-120320109D01*
X183792179Y-120445048D01*
X183792181Y-120445049D01*
X183792184Y-120445051D01*
X183981588Y-120541557D01*
X184183757Y-120607246D01*
X184393713Y-120640500D01*
X184393714Y-120640500D01*
X184606286Y-120640500D01*
X184606287Y-120640500D01*
X184816243Y-120607246D01*
X185018412Y-120541557D01*
X185207816Y-120445051D01*
X185229789Y-120429086D01*
X185379786Y-120320109D01*
X185379788Y-120320106D01*
X185379792Y-120320104D01*
X185530104Y-120169792D01*
X185530106Y-120169788D01*
X185530109Y-120169786D01*
X185655048Y-119997820D01*
X185655047Y-119997820D01*
X185655051Y-119997816D01*
X185751557Y-119808412D01*
X185817246Y-119606243D01*
X185850500Y-119396287D01*
X185850500Y-119183713D01*
X185817246Y-118973757D01*
X185751557Y-118771588D01*
X185655051Y-118582184D01*
X185655049Y-118582181D01*
X185655048Y-118582179D01*
X185530109Y-118410213D01*
X185416569Y-118296673D01*
X185383084Y-118235350D01*
X185388068Y-118165658D01*
X185429940Y-118109725D01*
X185460915Y-118092810D01*
X185592331Y-118043796D01*
X185707546Y-117957546D01*
X185793796Y-117842331D01*
X185844091Y-117707483D01*
X185850500Y-117647873D01*
X185850499Y-115852128D01*
X185844091Y-115792517D01*
X185811196Y-115704322D01*
X185793797Y-115657671D01*
X185793793Y-115657664D01*
X185707547Y-115542455D01*
X185707544Y-115542452D01*
X185592335Y-115456206D01*
X185592328Y-115456202D01*
X185457482Y-115405908D01*
X185457483Y-115405908D01*
X185397883Y-115399501D01*
X185397881Y-115399500D01*
X185397873Y-115399500D01*
X185397864Y-115399500D01*
X183602129Y-115399500D01*
X183602123Y-115399501D01*
X183542516Y-115405908D01*
X183407671Y-115456202D01*
X183407664Y-115456206D01*
X183292455Y-115542452D01*
X183292452Y-115542455D01*
X183206206Y-115657664D01*
X183206202Y-115657671D01*
X183155908Y-115792517D01*
X183149501Y-115852116D01*
X183149501Y-115852123D01*
X183149500Y-115852135D01*
X157052612Y-115852135D01*
X156990532Y-115826421D01*
X156990522Y-115826418D01*
X156855195Y-115799500D01*
X156855193Y-115799500D01*
X156717207Y-115799500D01*
X156717205Y-115799500D01*
X156581877Y-115826418D01*
X156581867Y-115826421D01*
X156454395Y-115879221D01*
X156454382Y-115879228D01*
X156339658Y-115955885D01*
X156339654Y-115955888D01*
X156242088Y-116053454D01*
X156242085Y-116053458D01*
X156165428Y-116168182D01*
X156165421Y-116168195D01*
X156112621Y-116295667D01*
X156112618Y-116295677D01*
X156085700Y-116431004D01*
X156085700Y-116431007D01*
X156085700Y-116568993D01*
X156085700Y-116568995D01*
X156085699Y-116568995D01*
X156112618Y-116704322D01*
X156112621Y-116704332D01*
X156165421Y-116831804D01*
X156165428Y-116831817D01*
X156242085Y-116946541D01*
X156242088Y-116946545D01*
X156339654Y-117044111D01*
X156339658Y-117044114D01*
X156406234Y-117088599D01*
X156451039Y-117142211D01*
X156459746Y-117211536D01*
X156429592Y-117274563D01*
X156370149Y-117311283D01*
X156361535Y-117313318D01*
X156295677Y-117326418D01*
X156295667Y-117326421D01*
X156168195Y-117379221D01*
X156168182Y-117379228D01*
X156053458Y-117455885D01*
X156053454Y-117455888D01*
X155955888Y-117553454D01*
X155955885Y-117553458D01*
X155879228Y-117668182D01*
X155879221Y-117668195D01*
X155826421Y-117795667D01*
X155826418Y-117795677D01*
X155799500Y-117931004D01*
X155799500Y-117931007D01*
X155799500Y-118068993D01*
X155799500Y-118068995D01*
X155799499Y-118068995D01*
X112400500Y-118068995D01*
X112400500Y-115098684D01*
X116757100Y-115098684D01*
X116757100Y-115238420D01*
X116772440Y-115295667D01*
X116793267Y-115373396D01*
X116793268Y-115373397D01*
X116842377Y-115458455D01*
X116863135Y-115494409D01*
X116961943Y-115593217D01*
X117047004Y-115642327D01*
X117082954Y-115663083D01*
X117082955Y-115663084D01*
X117082957Y-115663084D01*
X117082958Y-115663085D01*
X117217932Y-115699252D01*
X117217934Y-115699252D01*
X117357666Y-115699252D01*
X117357668Y-115699252D01*
X117492642Y-115663085D01*
X117613657Y-115593217D01*
X117712465Y-115494409D01*
X117782333Y-115373394D01*
X117818500Y-115238420D01*
X117818500Y-115098684D01*
X117782333Y-114963710D01*
X117782332Y-114963709D01*
X117782332Y-114963707D01*
X117782331Y-114963706D01*
X117761575Y-114927756D01*
X117712465Y-114842695D01*
X117613657Y-114743887D01*
X117545745Y-114704678D01*
X117492645Y-114674020D01*
X117492644Y-114674019D01*
X117425155Y-114655935D01*
X117357668Y-114637852D01*
X117217932Y-114637852D01*
X117163942Y-114652318D01*
X117082955Y-114674019D01*
X117082954Y-114674020D01*
X116961946Y-114743885D01*
X116961940Y-114743889D01*
X116863137Y-114842692D01*
X116863133Y-114842698D01*
X116793268Y-114963706D01*
X116793267Y-114963707D01*
X116766141Y-115064940D01*
X116757100Y-115098684D01*
X112400500Y-115098684D01*
X112400500Y-114318995D01*
X124549499Y-114318995D01*
X124576418Y-114454322D01*
X124576421Y-114454332D01*
X124629221Y-114581804D01*
X124629228Y-114581817D01*
X124705885Y-114696541D01*
X124705888Y-114696545D01*
X124803454Y-114794111D01*
X124803458Y-114794114D01*
X124918182Y-114870771D01*
X124918195Y-114870778D01*
X125045667Y-114923578D01*
X125045672Y-114923580D01*
X125045676Y-114923580D01*
X125045677Y-114923581D01*
X125181004Y-114950500D01*
X125181007Y-114950500D01*
X125318995Y-114950500D01*
X125417005Y-114931004D01*
X125454328Y-114923580D01*
X125561411Y-114879225D01*
X125581804Y-114870778D01*
X125581804Y-114870777D01*
X125581811Y-114870775D01*
X125696542Y-114794114D01*
X125794114Y-114696542D01*
X125870775Y-114581811D01*
X125923580Y-114454328D01*
X125947949Y-114331817D01*
X125950500Y-114318995D01*
X125950500Y-114181004D01*
X125928219Y-114068995D01*
X133049499Y-114068995D01*
X133076418Y-114204322D01*
X133076421Y-114204332D01*
X133129221Y-114331804D01*
X133129228Y-114331817D01*
X133205885Y-114446541D01*
X133205888Y-114446545D01*
X133303454Y-114544111D01*
X133303457Y-114544113D01*
X133303458Y-114544114D01*
X133318437Y-114554123D01*
X133363243Y-114607732D01*
X133371953Y-114677057D01*
X133364110Y-114704678D01*
X133326421Y-114795667D01*
X133326418Y-114795677D01*
X133299500Y-114931004D01*
X133299500Y-114931007D01*
X133299500Y-115068993D01*
X133299500Y-115068995D01*
X133299499Y-115068995D01*
X133326418Y-115204322D01*
X133326421Y-115204332D01*
X133379221Y-115331804D01*
X133379228Y-115331817D01*
X133455885Y-115446541D01*
X133455888Y-115446545D01*
X133553454Y-115544111D01*
X133553458Y-115544114D01*
X133668182Y-115620771D01*
X133668195Y-115620778D01*
X133795667Y-115673578D01*
X133795672Y-115673580D01*
X133795676Y-115673580D01*
X133795677Y-115673581D01*
X133931004Y-115700500D01*
X133931007Y-115700500D01*
X134068995Y-115700500D01*
X134160041Y-115682389D01*
X134204328Y-115673580D01*
X134331811Y-115620775D01*
X134409305Y-115568995D01*
X150799499Y-115568995D01*
X150826418Y-115704322D01*
X150826421Y-115704332D01*
X150879221Y-115831804D01*
X150879228Y-115831817D01*
X150955885Y-115946541D01*
X150955888Y-115946545D01*
X151053454Y-116044111D01*
X151053458Y-116044114D01*
X151168182Y-116120771D01*
X151168195Y-116120778D01*
X151282640Y-116168182D01*
X151295672Y-116173580D01*
X151295676Y-116173580D01*
X151295677Y-116173581D01*
X151431004Y-116200500D01*
X151431007Y-116200500D01*
X151568995Y-116200500D01*
X151660041Y-116182389D01*
X151704328Y-116173580D01*
X151831811Y-116120775D01*
X151946542Y-116044114D01*
X152044114Y-115946542D01*
X152120775Y-115831811D01*
X152173580Y-115704328D01*
X152190201Y-115620771D01*
X152200500Y-115568995D01*
X152200500Y-115431004D01*
X152173581Y-115295677D01*
X152173580Y-115295676D01*
X152173580Y-115295672D01*
X152135746Y-115204332D01*
X152120778Y-115168195D01*
X152120771Y-115168182D01*
X152044114Y-115053458D01*
X152044111Y-115053454D01*
X151946545Y-114955888D01*
X151946541Y-114955885D01*
X151831817Y-114879228D01*
X151831804Y-114879221D01*
X151704332Y-114826421D01*
X151704322Y-114826418D01*
X151568995Y-114799500D01*
X151568993Y-114799500D01*
X151431007Y-114799500D01*
X151431005Y-114799500D01*
X151295677Y-114826418D01*
X151295667Y-114826421D01*
X151168195Y-114879221D01*
X151168182Y-114879228D01*
X151053458Y-114955885D01*
X151053454Y-114955888D01*
X150955888Y-115053454D01*
X150955885Y-115053458D01*
X150879228Y-115168182D01*
X150879221Y-115168195D01*
X150826421Y-115295667D01*
X150826418Y-115295677D01*
X150799500Y-115431004D01*
X150799500Y-115431007D01*
X150799500Y-115568993D01*
X150799500Y-115568995D01*
X150799499Y-115568995D01*
X134409305Y-115568995D01*
X134446542Y-115544114D01*
X134544114Y-115446542D01*
X134592990Y-115373394D01*
X134604597Y-115356024D01*
X134620771Y-115331817D01*
X134620771Y-115331816D01*
X134620775Y-115331811D01*
X134673580Y-115204328D01*
X134700500Y-115068993D01*
X134700500Y-114931007D01*
X134700500Y-114931004D01*
X134673581Y-114795677D01*
X134673580Y-114795676D01*
X134673580Y-114795672D01*
X134652129Y-114743885D01*
X134620778Y-114668195D01*
X134620771Y-114668182D01*
X134544114Y-114553458D01*
X134544111Y-114553454D01*
X134446545Y-114455888D01*
X134446541Y-114455885D01*
X134431560Y-114445875D01*
X134386755Y-114392263D01*
X134378048Y-114322938D01*
X134385890Y-114295321D01*
X134423578Y-114204332D01*
X134423580Y-114204328D01*
X134450500Y-114068993D01*
X134450500Y-113931007D01*
X134450500Y-113931004D01*
X134423581Y-113795677D01*
X134423580Y-113795676D01*
X134423580Y-113795672D01*
X134422933Y-113794111D01*
X134370778Y-113668195D01*
X134370771Y-113668182D01*
X134304496Y-113568995D01*
X136799499Y-113568995D01*
X136826418Y-113704322D01*
X136826421Y-113704332D01*
X136879221Y-113831804D01*
X136879228Y-113831817D01*
X136955885Y-113946541D01*
X136955888Y-113946545D01*
X137053454Y-114044111D01*
X137053458Y-114044114D01*
X137168182Y-114120771D01*
X137168195Y-114120778D01*
X137295667Y-114173578D01*
X137295672Y-114173580D01*
X137295676Y-114173580D01*
X137295677Y-114173581D01*
X137431004Y-114200500D01*
X137431007Y-114200500D01*
X137568995Y-114200500D01*
X137667005Y-114181004D01*
X137704328Y-114173580D01*
X137831811Y-114120775D01*
X137946542Y-114044114D01*
X138044114Y-113946542D01*
X138120775Y-113831811D01*
X138173580Y-113704328D01*
X138182389Y-113660041D01*
X138200500Y-113568995D01*
X138200500Y-113431004D01*
X138173581Y-113295677D01*
X138173580Y-113295676D01*
X138173580Y-113295672D01*
X138173578Y-113295667D01*
X138120778Y-113168195D01*
X138120771Y-113168182D01*
X138044114Y-113053458D01*
X138044111Y-113053454D01*
X137946545Y-112955888D01*
X137946541Y-112955885D01*
X137831817Y-112879228D01*
X137831804Y-112879221D01*
X137704332Y-112826421D01*
X137704322Y-112826418D01*
X137568995Y-112799500D01*
X137568993Y-112799500D01*
X137431007Y-112799500D01*
X137431005Y-112799500D01*
X137295677Y-112826418D01*
X137295667Y-112826421D01*
X137168195Y-112879221D01*
X137168182Y-112879228D01*
X137053458Y-112955885D01*
X137053454Y-112955888D01*
X136955888Y-113053454D01*
X136955885Y-113053458D01*
X136879228Y-113168182D01*
X136879221Y-113168195D01*
X136826421Y-113295667D01*
X136826418Y-113295677D01*
X136799500Y-113431004D01*
X136799500Y-113431007D01*
X136799500Y-113568993D01*
X136799500Y-113568995D01*
X136799499Y-113568995D01*
X134304496Y-113568995D01*
X134294114Y-113553458D01*
X134294111Y-113553454D01*
X134196545Y-113455888D01*
X134196541Y-113455885D01*
X134081817Y-113379228D01*
X134081804Y-113379221D01*
X133954332Y-113326421D01*
X133954322Y-113326418D01*
X133818995Y-113299500D01*
X133818993Y-113299500D01*
X133681007Y-113299500D01*
X133681005Y-113299500D01*
X133545677Y-113326418D01*
X133545667Y-113326421D01*
X133418195Y-113379221D01*
X133418182Y-113379228D01*
X133303458Y-113455885D01*
X133303454Y-113455888D01*
X133205888Y-113553454D01*
X133205885Y-113553458D01*
X133129228Y-113668182D01*
X133129221Y-113668195D01*
X133076421Y-113795667D01*
X133076418Y-113795677D01*
X133049500Y-113931004D01*
X133049500Y-113931007D01*
X133049500Y-114068993D01*
X133049500Y-114068995D01*
X133049499Y-114068995D01*
X125928219Y-114068995D01*
X125923581Y-114045677D01*
X125923580Y-114045676D01*
X125923580Y-114045672D01*
X125884159Y-113950500D01*
X125870778Y-113918195D01*
X125870771Y-113918182D01*
X125794114Y-113803458D01*
X125794111Y-113803454D01*
X125696545Y-113705888D01*
X125696541Y-113705885D01*
X125581817Y-113629228D01*
X125581804Y-113629221D01*
X125454332Y-113576421D01*
X125454322Y-113576418D01*
X125318995Y-113549500D01*
X125318993Y-113549500D01*
X125181007Y-113549500D01*
X125181005Y-113549500D01*
X125045677Y-113576418D01*
X125045667Y-113576421D01*
X124918195Y-113629221D01*
X124918182Y-113629228D01*
X124803458Y-113705885D01*
X124803454Y-113705888D01*
X124705888Y-113803454D01*
X124705885Y-113803458D01*
X124629228Y-113918182D01*
X124629221Y-113918195D01*
X124576421Y-114045667D01*
X124576418Y-114045677D01*
X124549500Y-114181004D01*
X124549500Y-114181007D01*
X124549500Y-114318993D01*
X124549500Y-114318995D01*
X124549499Y-114318995D01*
X112400500Y-114318995D01*
X112400500Y-113318995D01*
X128799499Y-113318995D01*
X128826418Y-113454322D01*
X128826421Y-113454332D01*
X128879221Y-113581804D01*
X128879228Y-113581817D01*
X128955885Y-113696541D01*
X128955888Y-113696545D01*
X129053454Y-113794111D01*
X129053458Y-113794114D01*
X129168182Y-113870771D01*
X129168195Y-113870778D01*
X129282640Y-113918182D01*
X129295672Y-113923580D01*
X129295676Y-113923580D01*
X129295677Y-113923581D01*
X129431004Y-113950500D01*
X129431007Y-113950500D01*
X129568995Y-113950500D01*
X129667005Y-113931004D01*
X129704328Y-113923580D01*
X129831811Y-113870775D01*
X129946542Y-113794114D01*
X130044114Y-113696542D01*
X130120775Y-113581811D01*
X130173580Y-113454328D01*
X130182389Y-113410041D01*
X130200500Y-113318995D01*
X130200500Y-113181004D01*
X130173581Y-113045677D01*
X130173580Y-113045676D01*
X130173580Y-113045672D01*
X130173578Y-113045667D01*
X130120778Y-112918195D01*
X130120771Y-112918182D01*
X130044114Y-112803458D01*
X130044111Y-112803454D01*
X129946545Y-112705888D01*
X129946541Y-112705885D01*
X129831817Y-112629228D01*
X129831804Y-112629221D01*
X129704332Y-112576421D01*
X129704322Y-112576418D01*
X129568995Y-112549500D01*
X129568993Y-112549500D01*
X129431007Y-112549500D01*
X129431005Y-112549500D01*
X129295677Y-112576418D01*
X129295667Y-112576421D01*
X129168195Y-112629221D01*
X129168182Y-112629228D01*
X129053458Y-112705885D01*
X129053454Y-112705888D01*
X128955888Y-112803454D01*
X128955885Y-112803458D01*
X128879228Y-112918182D01*
X128879221Y-112918195D01*
X128826421Y-113045667D01*
X128826418Y-113045677D01*
X128799500Y-113181004D01*
X128799500Y-113181007D01*
X128799500Y-113318993D01*
X128799500Y-113318995D01*
X128799499Y-113318995D01*
X112400500Y-113318995D01*
X112400500Y-111568995D01*
X144085699Y-111568995D01*
X144112618Y-111704322D01*
X144112621Y-111704332D01*
X144165421Y-111831804D01*
X144165428Y-111831817D01*
X144242085Y-111946541D01*
X144242088Y-111946545D01*
X144339654Y-112044111D01*
X144339658Y-112044114D01*
X144454382Y-112120771D01*
X144454395Y-112120778D01*
X144581867Y-112173578D01*
X144581872Y-112173580D01*
X144581876Y-112173580D01*
X144581877Y-112173581D01*
X144717204Y-112200500D01*
X144717207Y-112200500D01*
X144855195Y-112200500D01*
X144946241Y-112182389D01*
X144990528Y-112173580D01*
X145118011Y-112120775D01*
X145232742Y-112044114D01*
X145330314Y-111946542D01*
X145406975Y-111831811D01*
X145459780Y-111704328D01*
X145486700Y-111568993D01*
X145486700Y-111431007D01*
X145486700Y-111431004D01*
X145465399Y-111323920D01*
X162249499Y-111323920D01*
X162278340Y-111468907D01*
X162278343Y-111468917D01*
X162334912Y-111605488D01*
X162334919Y-111605501D01*
X162417048Y-111728415D01*
X162417051Y-111728419D01*
X162521580Y-111832948D01*
X162521584Y-111832951D01*
X162644498Y-111915080D01*
X162644511Y-111915087D01*
X162781082Y-111971656D01*
X162781087Y-111971658D01*
X162781091Y-111971658D01*
X162781092Y-111971659D01*
X162926079Y-112000500D01*
X162926082Y-112000500D01*
X163073920Y-112000500D01*
X163171462Y-111981096D01*
X163218913Y-111971658D01*
X163355495Y-111915084D01*
X163478416Y-111832951D01*
X163582951Y-111728416D01*
X163665084Y-111605495D01*
X163721658Y-111468913D01*
X163737256Y-111390500D01*
X163750500Y-111323920D01*
X163750500Y-111176079D01*
X163721659Y-111031092D01*
X163721658Y-111031091D01*
X163721658Y-111031087D01*
X163690509Y-110955886D01*
X163665087Y-110894511D01*
X163665080Y-110894498D01*
X163582951Y-110771584D01*
X163582948Y-110771580D01*
X163478419Y-110667051D01*
X163478415Y-110667048D01*
X163355501Y-110584919D01*
X163355488Y-110584912D01*
X163218917Y-110528343D01*
X163218907Y-110528340D01*
X163073920Y-110499500D01*
X163073918Y-110499500D01*
X162926082Y-110499500D01*
X162926080Y-110499500D01*
X162781092Y-110528340D01*
X162781082Y-110528343D01*
X162644511Y-110584912D01*
X162644498Y-110584919D01*
X162521584Y-110667048D01*
X162521580Y-110667051D01*
X162417051Y-110771580D01*
X162417048Y-110771584D01*
X162334919Y-110894498D01*
X162334912Y-110894511D01*
X162278343Y-111031082D01*
X162278340Y-111031092D01*
X162249500Y-111176079D01*
X162249500Y-111176082D01*
X162249500Y-111323918D01*
X162249500Y-111323920D01*
X162249499Y-111323920D01*
X145465399Y-111323920D01*
X145459781Y-111295677D01*
X145459780Y-111295676D01*
X145459780Y-111295672D01*
X145458075Y-111291555D01*
X145427377Y-111217442D01*
X145406976Y-111168192D01*
X145406975Y-111168189D01*
X145406973Y-111168186D01*
X145406971Y-111168182D01*
X145330314Y-111053458D01*
X145330311Y-111053454D01*
X145232745Y-110955888D01*
X145232741Y-110955885D01*
X145118017Y-110879228D01*
X145118004Y-110879221D01*
X144990532Y-110826421D01*
X144990522Y-110826418D01*
X144855195Y-110799500D01*
X144855193Y-110799500D01*
X144717207Y-110799500D01*
X144717205Y-110799500D01*
X144581877Y-110826418D01*
X144581867Y-110826421D01*
X144454395Y-110879221D01*
X144454382Y-110879228D01*
X144339658Y-110955885D01*
X144339654Y-110955888D01*
X144242088Y-111053454D01*
X144242085Y-111053458D01*
X144165428Y-111168182D01*
X144165421Y-111168195D01*
X144112621Y-111295667D01*
X144112618Y-111295677D01*
X144085700Y-111431004D01*
X144085700Y-111431007D01*
X144085700Y-111568993D01*
X144085700Y-111568995D01*
X144085699Y-111568995D01*
X112400500Y-111568995D01*
X112400500Y-110068995D01*
X143085699Y-110068995D01*
X143112618Y-110204322D01*
X143112621Y-110204332D01*
X143165421Y-110331804D01*
X143165428Y-110331817D01*
X143242085Y-110446541D01*
X143242088Y-110446545D01*
X143339654Y-110544111D01*
X143339658Y-110544114D01*
X143454382Y-110620771D01*
X143454395Y-110620778D01*
X143581867Y-110673578D01*
X143581872Y-110673580D01*
X143581876Y-110673580D01*
X143581877Y-110673581D01*
X143717204Y-110700500D01*
X143717207Y-110700500D01*
X143855195Y-110700500D01*
X143946241Y-110682389D01*
X143990528Y-110673580D01*
X144118011Y-110620775D01*
X144232742Y-110544114D01*
X144330314Y-110446542D01*
X144406975Y-110331811D01*
X144459780Y-110204328D01*
X144486700Y-110068993D01*
X144487297Y-110062933D01*
X144490017Y-110063200D01*
X144491252Y-110058995D01*
X154845699Y-110058995D01*
X154872618Y-110194322D01*
X154872621Y-110194332D01*
X154925421Y-110321804D01*
X154925428Y-110321817D01*
X155002085Y-110436541D01*
X155002088Y-110436545D01*
X155099654Y-110534111D01*
X155099658Y-110534114D01*
X155214382Y-110610771D01*
X155214395Y-110610778D01*
X155341867Y-110663578D01*
X155341872Y-110663580D01*
X155341876Y-110663580D01*
X155341877Y-110663581D01*
X155477204Y-110690500D01*
X155477207Y-110690500D01*
X155615195Y-110690500D01*
X155733093Y-110667048D01*
X155750528Y-110663580D01*
X155878011Y-110610775D01*
X155992742Y-110534114D01*
X156090314Y-110436542D01*
X156166975Y-110321811D01*
X156219780Y-110194328D01*
X156234412Y-110120771D01*
X156246700Y-110058995D01*
X156246700Y-109921007D01*
X156239156Y-109883083D01*
X156236261Y-109868530D01*
X156242487Y-109798941D01*
X156270194Y-109756661D01*
X156330314Y-109696542D01*
X156406975Y-109581811D01*
X156412284Y-109568995D01*
X157585699Y-109568995D01*
X157612618Y-109704322D01*
X157612621Y-109704332D01*
X157665421Y-109831804D01*
X157665428Y-109831817D01*
X157742085Y-109946541D01*
X157742088Y-109946545D01*
X157839654Y-110044111D01*
X157839658Y-110044114D01*
X157954382Y-110120771D01*
X157954395Y-110120778D01*
X158081867Y-110173578D01*
X158081872Y-110173580D01*
X158081876Y-110173580D01*
X158081877Y-110173581D01*
X158217204Y-110200500D01*
X158217207Y-110200500D01*
X158355195Y-110200500D01*
X158446241Y-110182389D01*
X158490528Y-110173580D01*
X158618011Y-110120775D01*
X158732742Y-110044114D01*
X158830314Y-109946542D01*
X158906975Y-109831811D01*
X158959780Y-109704328D01*
X158981846Y-109593395D01*
X158986700Y-109568995D01*
X158986700Y-109431004D01*
X158959781Y-109295677D01*
X158959780Y-109295676D01*
X158959780Y-109295672D01*
X158931922Y-109228416D01*
X158906978Y-109168195D01*
X158906971Y-109168182D01*
X158830314Y-109053458D01*
X158830311Y-109053454D01*
X158732745Y-108955888D01*
X158732741Y-108955885D01*
X158618017Y-108879228D01*
X158618004Y-108879221D01*
X158490532Y-108826421D01*
X158490522Y-108826418D01*
X158477964Y-108823920D01*
X179749499Y-108823920D01*
X179778340Y-108968907D01*
X179778343Y-108968917D01*
X179834912Y-109105488D01*
X179834919Y-109105501D01*
X179917048Y-109228415D01*
X179917051Y-109228419D01*
X180021580Y-109332948D01*
X180021584Y-109332951D01*
X180144498Y-109415080D01*
X180144511Y-109415087D01*
X180281082Y-109471656D01*
X180281087Y-109471658D01*
X180281091Y-109471658D01*
X180281092Y-109471659D01*
X180426079Y-109500500D01*
X180426082Y-109500500D01*
X180573920Y-109500500D01*
X180671462Y-109481096D01*
X180718913Y-109471658D01*
X180855495Y-109415084D01*
X180978416Y-109332951D01*
X181082951Y-109228416D01*
X181165084Y-109105495D01*
X181221658Y-108968913D01*
X181239498Y-108879228D01*
X181250500Y-108823920D01*
X181250500Y-108676079D01*
X181221659Y-108531092D01*
X181221658Y-108531091D01*
X181221658Y-108531087D01*
X181221656Y-108531082D01*
X181165087Y-108394511D01*
X181165080Y-108394498D01*
X181082951Y-108271584D01*
X181082948Y-108271580D01*
X180978419Y-108167051D01*
X180978415Y-108167048D01*
X180855501Y-108084919D01*
X180855488Y-108084912D01*
X180718917Y-108028343D01*
X180718907Y-108028340D01*
X180573920Y-107999500D01*
X180573918Y-107999500D01*
X180426082Y-107999500D01*
X180426080Y-107999500D01*
X180281092Y-108028340D01*
X180281082Y-108028343D01*
X180144511Y-108084912D01*
X180144498Y-108084919D01*
X180021584Y-108167048D01*
X180021580Y-108167051D01*
X179917051Y-108271580D01*
X179917048Y-108271584D01*
X179834919Y-108394498D01*
X179834912Y-108394511D01*
X179778343Y-108531082D01*
X179778340Y-108531092D01*
X179749500Y-108676079D01*
X179749500Y-108676082D01*
X179749500Y-108823918D01*
X179749500Y-108823920D01*
X179749499Y-108823920D01*
X158477964Y-108823920D01*
X158355195Y-108799500D01*
X158355193Y-108799500D01*
X158217207Y-108799500D01*
X158217205Y-108799500D01*
X158081877Y-108826418D01*
X158081867Y-108826421D01*
X157954395Y-108879221D01*
X157954382Y-108879228D01*
X157839658Y-108955885D01*
X157839654Y-108955888D01*
X157742088Y-109053454D01*
X157742085Y-109053458D01*
X157665428Y-109168182D01*
X157665421Y-109168195D01*
X157612621Y-109295667D01*
X157612618Y-109295677D01*
X157585700Y-109431004D01*
X157585700Y-109431007D01*
X157585700Y-109568993D01*
X157585700Y-109568995D01*
X157585699Y-109568995D01*
X156412284Y-109568995D01*
X156459780Y-109454328D01*
X156470443Y-109400723D01*
X156486700Y-109318995D01*
X156486700Y-109181004D01*
X156459781Y-109045677D01*
X156459780Y-109045676D01*
X156459780Y-109045672D01*
X156427987Y-108968917D01*
X156406978Y-108918195D01*
X156406971Y-108918182D01*
X156330314Y-108803458D01*
X156330311Y-108803454D01*
X156232745Y-108705888D01*
X156232741Y-108705885D01*
X156118017Y-108629228D01*
X156118004Y-108629221D01*
X155990532Y-108576421D01*
X155990522Y-108576418D01*
X155855195Y-108549500D01*
X155855193Y-108549500D01*
X155717207Y-108549500D01*
X155717205Y-108549500D01*
X155581877Y-108576418D01*
X155581867Y-108576421D01*
X155454395Y-108629221D01*
X155454382Y-108629228D01*
X155339658Y-108705885D01*
X155339654Y-108705888D01*
X155242088Y-108803454D01*
X155242085Y-108803458D01*
X155165428Y-108918182D01*
X155165421Y-108918195D01*
X155112621Y-109045667D01*
X155112618Y-109045677D01*
X155085700Y-109181004D01*
X155085700Y-109181007D01*
X155085700Y-109318993D01*
X155087177Y-109326418D01*
X155096138Y-109371470D01*
X155089909Y-109441061D01*
X155062202Y-109483341D01*
X155002085Y-109543458D01*
X154925428Y-109658182D01*
X154925421Y-109658195D01*
X154872621Y-109785667D01*
X154872618Y-109785677D01*
X154845700Y-109921004D01*
X154845700Y-109921007D01*
X154845700Y-110058993D01*
X154845700Y-110058995D01*
X154845699Y-110058995D01*
X144491252Y-110058995D01*
X144506385Y-110007461D01*
X144559189Y-109961706D01*
X144599318Y-109952976D01*
X144599133Y-109951097D01*
X144605195Y-109950500D01*
X144703205Y-109931004D01*
X144740528Y-109923580D01*
X144868011Y-109870775D01*
X144954154Y-109813216D01*
X144956254Y-109811813D01*
X144982742Y-109794114D01*
X145080311Y-109696545D01*
X145080314Y-109696542D01*
X145156975Y-109581811D01*
X145209780Y-109454328D01*
X145220443Y-109400723D01*
X145236700Y-109318995D01*
X145236700Y-109181004D01*
X145209781Y-109045677D01*
X145209780Y-109045676D01*
X145209780Y-109045672D01*
X145177987Y-108968917D01*
X145156978Y-108918195D01*
X145156976Y-108918191D01*
X145156975Y-108918189D01*
X145090625Y-108818890D01*
X145069748Y-108752214D01*
X145088232Y-108684834D01*
X145090626Y-108681109D01*
X145125294Y-108629225D01*
X145156975Y-108581811D01*
X145209780Y-108454328D01*
X145221010Y-108397870D01*
X145236700Y-108318995D01*
X145236700Y-108181004D01*
X145209781Y-108045677D01*
X145209780Y-108045676D01*
X145209780Y-108045672D01*
X145190655Y-107999500D01*
X145156978Y-107918195D01*
X145156971Y-107918182D01*
X145080314Y-107803458D01*
X145080311Y-107803454D01*
X144982745Y-107705888D01*
X144982741Y-107705885D01*
X144868017Y-107629228D01*
X144868004Y-107629221D01*
X144740532Y-107576421D01*
X144740522Y-107576418D01*
X144703204Y-107568995D01*
X151299499Y-107568995D01*
X151326418Y-107704322D01*
X151326421Y-107704332D01*
X151379221Y-107831804D01*
X151379228Y-107831817D01*
X151455885Y-107946541D01*
X151455888Y-107946545D01*
X151553454Y-108044111D01*
X151553458Y-108044114D01*
X151668182Y-108120771D01*
X151668195Y-108120778D01*
X151795667Y-108173578D01*
X151795672Y-108173580D01*
X151795676Y-108173580D01*
X151795677Y-108173581D01*
X151931004Y-108200500D01*
X151931007Y-108200500D01*
X152068995Y-108200500D01*
X152167005Y-108181004D01*
X152204328Y-108173580D01*
X152331811Y-108120775D01*
X152446542Y-108044114D01*
X152544114Y-107946542D01*
X152620775Y-107831811D01*
X152673580Y-107704328D01*
X152682389Y-107660041D01*
X152700500Y-107568995D01*
X152700500Y-107431004D01*
X152673581Y-107295677D01*
X152673580Y-107295676D01*
X152673580Y-107295672D01*
X152627151Y-107183581D01*
X152620778Y-107168195D01*
X152620771Y-107168182D01*
X152544114Y-107053458D01*
X152544111Y-107053454D01*
X152446545Y-106955888D01*
X152446541Y-106955885D01*
X152331817Y-106879228D01*
X152331804Y-106879221D01*
X152204332Y-106826421D01*
X152204322Y-106826418D01*
X152068995Y-106799500D01*
X152068993Y-106799500D01*
X151931007Y-106799500D01*
X151931005Y-106799500D01*
X151795677Y-106826418D01*
X151795667Y-106826421D01*
X151668195Y-106879221D01*
X151668182Y-106879228D01*
X151553458Y-106955885D01*
X151553454Y-106955888D01*
X151455888Y-107053454D01*
X151455885Y-107053458D01*
X151379228Y-107168182D01*
X151379221Y-107168195D01*
X151326421Y-107295667D01*
X151326418Y-107295677D01*
X151299500Y-107431004D01*
X151299500Y-107431007D01*
X151299500Y-107568993D01*
X151299500Y-107568995D01*
X151299499Y-107568995D01*
X144703204Y-107568995D01*
X144605195Y-107549500D01*
X144605193Y-107549500D01*
X144467207Y-107549500D01*
X144467205Y-107549500D01*
X144331877Y-107576418D01*
X144331867Y-107576421D01*
X144204395Y-107629221D01*
X144204382Y-107629228D01*
X144089658Y-107705885D01*
X144089654Y-107705888D01*
X143992088Y-107803454D01*
X143992085Y-107803458D01*
X143915428Y-107918182D01*
X143915421Y-107918195D01*
X143862621Y-108045667D01*
X143862618Y-108045677D01*
X143835700Y-108181004D01*
X143835700Y-108181007D01*
X143835700Y-108318993D01*
X143835700Y-108318995D01*
X143835699Y-108318995D01*
X143862618Y-108454322D01*
X143862621Y-108454332D01*
X143915421Y-108581804D01*
X143915428Y-108581817D01*
X143981773Y-108681109D01*
X144002651Y-108747787D01*
X143984166Y-108815167D01*
X143981773Y-108818891D01*
X143915428Y-108918182D01*
X143915421Y-108918195D01*
X143862621Y-109045667D01*
X143862618Y-109045677D01*
X143835699Y-109181004D01*
X143835103Y-109187067D01*
X143832382Y-109186799D01*
X143816015Y-109242539D01*
X143763211Y-109288294D01*
X143723081Y-109297023D01*
X143723267Y-109298903D01*
X143717204Y-109299499D01*
X143581877Y-109326418D01*
X143581867Y-109326421D01*
X143454395Y-109379221D01*
X143454382Y-109379228D01*
X143339658Y-109455885D01*
X143339654Y-109455888D01*
X143242088Y-109553454D01*
X143242085Y-109553458D01*
X143165428Y-109668182D01*
X143165421Y-109668195D01*
X143112621Y-109795667D01*
X143112618Y-109795677D01*
X143085700Y-109931004D01*
X143085700Y-109931007D01*
X143085700Y-110068993D01*
X143085700Y-110068995D01*
X143085699Y-110068995D01*
X112400500Y-110068995D01*
X112400500Y-109318682D01*
X116757100Y-109318682D01*
X116757100Y-109458418D01*
X116768376Y-109500500D01*
X116793267Y-109593394D01*
X116793268Y-109593395D01*
X116842377Y-109678453D01*
X116863135Y-109714407D01*
X116961943Y-109813215D01*
X116994163Y-109831817D01*
X117082954Y-109883081D01*
X117082955Y-109883082D01*
X117082957Y-109883082D01*
X117082958Y-109883083D01*
X117217932Y-109919250D01*
X117217934Y-109919250D01*
X117357666Y-109919250D01*
X117357668Y-109919250D01*
X117492642Y-109883083D01*
X117558201Y-109845232D01*
X117606187Y-109817528D01*
X117606188Y-109817527D01*
X117613657Y-109813215D01*
X117712465Y-109714407D01*
X117782333Y-109593392D01*
X117818500Y-109458418D01*
X117818500Y-109318682D01*
X117782333Y-109183708D01*
X117782332Y-109183707D01*
X117782332Y-109183705D01*
X117782331Y-109183704D01*
X117737180Y-109105501D01*
X117712465Y-109062693D01*
X117613657Y-108963885D01*
X117534520Y-108918195D01*
X117492645Y-108894018D01*
X117492644Y-108894017D01*
X117425155Y-108875933D01*
X117357668Y-108857850D01*
X117217932Y-108857850D01*
X117163942Y-108872316D01*
X117082955Y-108894017D01*
X117082954Y-108894018D01*
X116961946Y-108963883D01*
X116961940Y-108963887D01*
X116863137Y-109062690D01*
X116863133Y-109062696D01*
X116793268Y-109183704D01*
X116793267Y-109183705D01*
X116781287Y-109228416D01*
X116757100Y-109318682D01*
X112400500Y-109318682D01*
X112400500Y-106578995D01*
X135289499Y-106578995D01*
X135316418Y-106714322D01*
X135316421Y-106714332D01*
X135369221Y-106841804D01*
X135369228Y-106841817D01*
X135445885Y-106956541D01*
X135445888Y-106956545D01*
X135543454Y-107054111D01*
X135543458Y-107054114D01*
X135658182Y-107130771D01*
X135658195Y-107130778D01*
X135748529Y-107168195D01*
X135785672Y-107183580D01*
X135785676Y-107183580D01*
X135785677Y-107183581D01*
X135921004Y-107210500D01*
X135921007Y-107210500D01*
X136058995Y-107210500D01*
X136150041Y-107192389D01*
X136194328Y-107183580D01*
X136321811Y-107130775D01*
X136436542Y-107054114D01*
X136534114Y-106956542D01*
X136610775Y-106841811D01*
X136663580Y-106714328D01*
X136685898Y-106602128D01*
X136690500Y-106578995D01*
X136690500Y-106441004D01*
X136663581Y-106305677D01*
X136663580Y-106305676D01*
X136663580Y-106305672D01*
X136627645Y-106218917D01*
X136610778Y-106178195D01*
X136610771Y-106178182D01*
X136541105Y-106073920D01*
X164249499Y-106073920D01*
X164278340Y-106218907D01*
X164278343Y-106218917D01*
X164334912Y-106355488D01*
X164334919Y-106355501D01*
X164417048Y-106478415D01*
X164417051Y-106478419D01*
X164521580Y-106582948D01*
X164521584Y-106582951D01*
X164644498Y-106665080D01*
X164644511Y-106665087D01*
X164763400Y-106714332D01*
X164781087Y-106721658D01*
X164781091Y-106721658D01*
X164781092Y-106721659D01*
X164926079Y-106750500D01*
X164926082Y-106750500D01*
X165073920Y-106750500D01*
X165171462Y-106731096D01*
X165218913Y-106721658D01*
X165355495Y-106665084D01*
X165449705Y-106602135D01*
X183149500Y-106602135D01*
X183149500Y-108397870D01*
X183149501Y-108397876D01*
X183155908Y-108457483D01*
X183206202Y-108592328D01*
X183206206Y-108592335D01*
X183292452Y-108707544D01*
X183292455Y-108707547D01*
X183407664Y-108793793D01*
X183407671Y-108793797D01*
X183539082Y-108842810D01*
X183595016Y-108884681D01*
X183619433Y-108950145D01*
X183604582Y-109018418D01*
X183583431Y-109046673D01*
X183469889Y-109160215D01*
X183344951Y-109332179D01*
X183248444Y-109521585D01*
X183182753Y-109723760D01*
X183159469Y-109870771D01*
X183149500Y-109933713D01*
X183149500Y-110146287D01*
X183182754Y-110356243D01*
X183243797Y-110544114D01*
X183248444Y-110558414D01*
X183344951Y-110747820D01*
X183469890Y-110919786D01*
X183620213Y-111070109D01*
X183792179Y-111195048D01*
X183792181Y-111195049D01*
X183792184Y-111195051D01*
X183981588Y-111291557D01*
X184183757Y-111357246D01*
X184393713Y-111390500D01*
X184393714Y-111390500D01*
X184606286Y-111390500D01*
X184606287Y-111390500D01*
X184816243Y-111357246D01*
X185018412Y-111291557D01*
X185207816Y-111195051D01*
X185244798Y-111168182D01*
X185379786Y-111070109D01*
X185379788Y-111070106D01*
X185379792Y-111070104D01*
X185530104Y-110919792D01*
X185530106Y-110919788D01*
X185530109Y-110919786D01*
X185655048Y-110747820D01*
X185655047Y-110747820D01*
X185655051Y-110747816D01*
X185751557Y-110558412D01*
X185817246Y-110356243D01*
X185850500Y-110146287D01*
X185850500Y-109933713D01*
X185817246Y-109723757D01*
X185751557Y-109521588D01*
X185655051Y-109332184D01*
X185655049Y-109332181D01*
X185655048Y-109332179D01*
X185530109Y-109160213D01*
X185416569Y-109046673D01*
X185383084Y-108985350D01*
X185388068Y-108915658D01*
X185429940Y-108859725D01*
X185460915Y-108842810D01*
X185592331Y-108793796D01*
X185707546Y-108707546D01*
X185793796Y-108592331D01*
X185844091Y-108457483D01*
X185850500Y-108397873D01*
X185850499Y-106602128D01*
X185844091Y-106542517D01*
X185806230Y-106441007D01*
X185793797Y-106407671D01*
X185793793Y-106407664D01*
X185707547Y-106292455D01*
X185707544Y-106292452D01*
X185592335Y-106206206D01*
X185592328Y-106206202D01*
X185457482Y-106155908D01*
X185457483Y-106155908D01*
X185397883Y-106149501D01*
X185397881Y-106149500D01*
X185397873Y-106149500D01*
X185397864Y-106149500D01*
X183602129Y-106149500D01*
X183602123Y-106149501D01*
X183542516Y-106155908D01*
X183407671Y-106206202D01*
X183407664Y-106206206D01*
X183292455Y-106292452D01*
X183292452Y-106292455D01*
X183206206Y-106407664D01*
X183206202Y-106407671D01*
X183155908Y-106542517D01*
X183149501Y-106602116D01*
X183149501Y-106602123D01*
X183149500Y-106602135D01*
X165449705Y-106602135D01*
X165478416Y-106582951D01*
X165482374Y-106578993D01*
X165550243Y-106511125D01*
X165582948Y-106478419D01*
X165582951Y-106478416D01*
X165665084Y-106355495D01*
X165721658Y-106218913D01*
X165735465Y-106149501D01*
X165750500Y-106073920D01*
X165750500Y-105926079D01*
X165721659Y-105781092D01*
X165721658Y-105781091D01*
X165721658Y-105781087D01*
X165721656Y-105781082D01*
X165665087Y-105644511D01*
X165665080Y-105644498D01*
X165582951Y-105521584D01*
X165582948Y-105521580D01*
X165478419Y-105417051D01*
X165478415Y-105417048D01*
X165355501Y-105334919D01*
X165355488Y-105334912D01*
X165218917Y-105278343D01*
X165218907Y-105278340D01*
X165073920Y-105249500D01*
X165073918Y-105249500D01*
X164926082Y-105249500D01*
X164926080Y-105249500D01*
X164781092Y-105278340D01*
X164781082Y-105278343D01*
X164644511Y-105334912D01*
X164644498Y-105334919D01*
X164521584Y-105417048D01*
X164521580Y-105417051D01*
X164417051Y-105521580D01*
X164417048Y-105521584D01*
X164334919Y-105644498D01*
X164334912Y-105644511D01*
X164278343Y-105781082D01*
X164278340Y-105781092D01*
X164249500Y-105926079D01*
X164249500Y-105926082D01*
X164249500Y-106073918D01*
X164249500Y-106073920D01*
X164249499Y-106073920D01*
X136541105Y-106073920D01*
X136534114Y-106063458D01*
X136534111Y-106063454D01*
X136436545Y-105965888D01*
X136436541Y-105965885D01*
X136321817Y-105889228D01*
X136321804Y-105889221D01*
X136194332Y-105836421D01*
X136194322Y-105836418D01*
X136058995Y-105809500D01*
X136058993Y-105809500D01*
X135921007Y-105809500D01*
X135921005Y-105809500D01*
X135785677Y-105836418D01*
X135785667Y-105836421D01*
X135658195Y-105889221D01*
X135658182Y-105889228D01*
X135543458Y-105965885D01*
X135543454Y-105965888D01*
X135445888Y-106063454D01*
X135445885Y-106063458D01*
X135369228Y-106178182D01*
X135369221Y-106178195D01*
X135316421Y-106305667D01*
X135316418Y-106305677D01*
X135289500Y-106441004D01*
X135289500Y-106441007D01*
X135289500Y-106578993D01*
X135289500Y-106578995D01*
X135289499Y-106578995D01*
X112400500Y-106578995D01*
X112400500Y-104078995D01*
X131289499Y-104078995D01*
X131316418Y-104214322D01*
X131316421Y-104214332D01*
X131369221Y-104341804D01*
X131369228Y-104341817D01*
X131445885Y-104456541D01*
X131445888Y-104456545D01*
X131543454Y-104554111D01*
X131543458Y-104554114D01*
X131658182Y-104630771D01*
X131658195Y-104630778D01*
X131785667Y-104683578D01*
X131785672Y-104683580D01*
X131785676Y-104683580D01*
X131785677Y-104683581D01*
X131921004Y-104710500D01*
X131921007Y-104710500D01*
X132058995Y-104710500D01*
X132150041Y-104692389D01*
X132194328Y-104683580D01*
X132321811Y-104630775D01*
X132436542Y-104554114D01*
X132534114Y-104456542D01*
X132610775Y-104341811D01*
X132659346Y-104224550D01*
X138205054Y-104224550D01*
X138231973Y-104359877D01*
X138231976Y-104359887D01*
X138284776Y-104487359D01*
X138284783Y-104487372D01*
X138361440Y-104602096D01*
X138361443Y-104602100D01*
X138459009Y-104699666D01*
X138459013Y-104699669D01*
X138573737Y-104776326D01*
X138573750Y-104776333D01*
X138701222Y-104829133D01*
X138701227Y-104829135D01*
X138701231Y-104829135D01*
X138701232Y-104829136D01*
X138836559Y-104856055D01*
X138836562Y-104856055D01*
X138974550Y-104856055D01*
X139065596Y-104837944D01*
X139109883Y-104829135D01*
X139237366Y-104776330D01*
X139352097Y-104699669D01*
X139449669Y-104602097D01*
X139526330Y-104487366D01*
X139579135Y-104359883D01*
X139606055Y-104224548D01*
X139606055Y-104086562D01*
X139606055Y-104086559D01*
X139579136Y-103951232D01*
X139579135Y-103951231D01*
X139579135Y-103951227D01*
X139577196Y-103946545D01*
X139526333Y-103823750D01*
X139526326Y-103823737D01*
X139449669Y-103709013D01*
X139449666Y-103709009D01*
X139352100Y-103611443D01*
X139352096Y-103611440D01*
X139288574Y-103568995D01*
X142549499Y-103568995D01*
X142576418Y-103704322D01*
X142576421Y-103704332D01*
X142629221Y-103831804D01*
X142629228Y-103831817D01*
X142705885Y-103946541D01*
X142705888Y-103946545D01*
X142803454Y-104044111D01*
X142803458Y-104044114D01*
X142918182Y-104120771D01*
X142918195Y-104120778D01*
X143045667Y-104173578D01*
X143045672Y-104173580D01*
X143045676Y-104173580D01*
X143045677Y-104173581D01*
X143181004Y-104200500D01*
X143181007Y-104200500D01*
X143318995Y-104200500D01*
X143410041Y-104182389D01*
X143454328Y-104173580D01*
X143581811Y-104120775D01*
X143696542Y-104044114D01*
X143794114Y-103946542D01*
X143870775Y-103831811D01*
X143874117Y-103823744D01*
X143923578Y-103704332D01*
X143923580Y-103704328D01*
X143950500Y-103568993D01*
X143950500Y-103431007D01*
X143950500Y-103431004D01*
X143923581Y-103295677D01*
X143923580Y-103295676D01*
X143923580Y-103295672D01*
X143902861Y-103245651D01*
X143870778Y-103168195D01*
X143870771Y-103168182D01*
X143794114Y-103053458D01*
X143794111Y-103053454D01*
X143696545Y-102955888D01*
X143696541Y-102955885D01*
X143581817Y-102879228D01*
X143581804Y-102879221D01*
X143454332Y-102826421D01*
X143454322Y-102826418D01*
X143318995Y-102799500D01*
X143318993Y-102799500D01*
X143181007Y-102799500D01*
X143181005Y-102799500D01*
X143045677Y-102826418D01*
X143045667Y-102826421D01*
X142918195Y-102879221D01*
X142918182Y-102879228D01*
X142803458Y-102955885D01*
X142803454Y-102955888D01*
X142705888Y-103053454D01*
X142705885Y-103053458D01*
X142629228Y-103168182D01*
X142629221Y-103168195D01*
X142576421Y-103295667D01*
X142576418Y-103295677D01*
X142549500Y-103431004D01*
X142549500Y-103431007D01*
X142549500Y-103568993D01*
X142549500Y-103568995D01*
X142549499Y-103568995D01*
X139288574Y-103568995D01*
X139237368Y-103534780D01*
X139237364Y-103534778D01*
X139109887Y-103481976D01*
X139109877Y-103481973D01*
X138974550Y-103455055D01*
X138974548Y-103455055D01*
X138836562Y-103455055D01*
X138836560Y-103455055D01*
X138701232Y-103481973D01*
X138701222Y-103481976D01*
X138573750Y-103534776D01*
X138573737Y-103534783D01*
X138459013Y-103611440D01*
X138459009Y-103611443D01*
X138361443Y-103709009D01*
X138361440Y-103709013D01*
X138284783Y-103823737D01*
X138284776Y-103823750D01*
X138231976Y-103951222D01*
X138231973Y-103951232D01*
X138205055Y-104086559D01*
X138205055Y-104086562D01*
X138205055Y-104224548D01*
X138205055Y-104224550D01*
X138205054Y-104224550D01*
X132659346Y-104224550D01*
X132663580Y-104214328D01*
X132672389Y-104170041D01*
X132690500Y-104078995D01*
X132690500Y-103941004D01*
X132663581Y-103805677D01*
X132663580Y-103805676D01*
X132663580Y-103805672D01*
X132621604Y-103704332D01*
X132610778Y-103678195D01*
X132610771Y-103678182D01*
X132534114Y-103563458D01*
X132534111Y-103563454D01*
X132436545Y-103465888D01*
X132436541Y-103465885D01*
X132321817Y-103389228D01*
X132321804Y-103389221D01*
X132194332Y-103336421D01*
X132194322Y-103336418D01*
X132058995Y-103309500D01*
X132058993Y-103309500D01*
X131921007Y-103309500D01*
X131921005Y-103309500D01*
X131785677Y-103336418D01*
X131785667Y-103336421D01*
X131658195Y-103389221D01*
X131658182Y-103389228D01*
X131543458Y-103465885D01*
X131543454Y-103465888D01*
X131445888Y-103563454D01*
X131445885Y-103563458D01*
X131369228Y-103678182D01*
X131369221Y-103678195D01*
X131316421Y-103805667D01*
X131316418Y-103805677D01*
X131289500Y-103941004D01*
X131289500Y-103941007D01*
X131289500Y-104078993D01*
X131289500Y-104078995D01*
X131289499Y-104078995D01*
X112400500Y-104078995D01*
X112400500Y-102568995D01*
X146799499Y-102568995D01*
X146826418Y-102704322D01*
X146826421Y-102704332D01*
X146879221Y-102831804D01*
X146879228Y-102831817D01*
X146955885Y-102946541D01*
X146955888Y-102946545D01*
X147053454Y-103044111D01*
X147053458Y-103044114D01*
X147168182Y-103120771D01*
X147168195Y-103120778D01*
X147244678Y-103152458D01*
X147295672Y-103173580D01*
X147295679Y-103173581D01*
X147298519Y-103174443D01*
X147299829Y-103175302D01*
X147301300Y-103175911D01*
X147301184Y-103176189D01*
X147356958Y-103212739D01*
X147377086Y-103245651D01*
X147412773Y-103331807D01*
X147412778Y-103331817D01*
X147489435Y-103446541D01*
X147489438Y-103446545D01*
X147587004Y-103544111D01*
X147587008Y-103544114D01*
X147701732Y-103620771D01*
X147701745Y-103620778D01*
X147829217Y-103673578D01*
X147829222Y-103673580D01*
X147829226Y-103673580D01*
X147829227Y-103673581D01*
X147964554Y-103700500D01*
X147964557Y-103700500D01*
X148102545Y-103700500D01*
X148214742Y-103678182D01*
X148237878Y-103673580D01*
X148365361Y-103620775D01*
X148480092Y-103544114D01*
X148577664Y-103446542D01*
X148654325Y-103331811D01*
X148663567Y-103309500D01*
X148669296Y-103295667D01*
X148707130Y-103204328D01*
X148734050Y-103068993D01*
X148734050Y-102931007D01*
X148734050Y-102931004D01*
X148707131Y-102795677D01*
X148707130Y-102795676D01*
X148707130Y-102795672D01*
X148669296Y-102704332D01*
X148654328Y-102668195D01*
X148654321Y-102668182D01*
X148577664Y-102553458D01*
X148577661Y-102553454D01*
X148480095Y-102455888D01*
X148480091Y-102455885D01*
X148365367Y-102379228D01*
X148365354Y-102379221D01*
X148237875Y-102326418D01*
X148235016Y-102325551D01*
X148233703Y-102324690D01*
X148232251Y-102324089D01*
X148232365Y-102323813D01*
X148176581Y-102287248D01*
X148156464Y-102254352D01*
X148120775Y-102168189D01*
X148120773Y-102168186D01*
X148120771Y-102168182D01*
X148044114Y-102053458D01*
X148044111Y-102053454D01*
X147946545Y-101955888D01*
X147946541Y-101955885D01*
X147831817Y-101879228D01*
X147831804Y-101879221D01*
X147704332Y-101826421D01*
X147704322Y-101826418D01*
X147568995Y-101799500D01*
X147568993Y-101799500D01*
X147431007Y-101799500D01*
X147431005Y-101799500D01*
X147295677Y-101826418D01*
X147295667Y-101826421D01*
X147168195Y-101879221D01*
X147168182Y-101879228D01*
X147053458Y-101955885D01*
X147053454Y-101955888D01*
X146955888Y-102053454D01*
X146955885Y-102053458D01*
X146879228Y-102168182D01*
X146879221Y-102168195D01*
X146826421Y-102295667D01*
X146826418Y-102295677D01*
X146799500Y-102431004D01*
X146799500Y-102431007D01*
X146799500Y-102568993D01*
X146799500Y-102568995D01*
X146799499Y-102568995D01*
X112400500Y-102568995D01*
X112400500Y-95568995D01*
X126299499Y-95568995D01*
X126326418Y-95704322D01*
X126326421Y-95704332D01*
X126379221Y-95831804D01*
X126379228Y-95831817D01*
X126455885Y-95946541D01*
X126455888Y-95946545D01*
X126553454Y-96044111D01*
X126553458Y-96044114D01*
X126668182Y-96120771D01*
X126668195Y-96120778D01*
X126795667Y-96173578D01*
X126795672Y-96173580D01*
X126795676Y-96173580D01*
X126795677Y-96173581D01*
X126931004Y-96200500D01*
X126931007Y-96200500D01*
X127068995Y-96200500D01*
X127160041Y-96182389D01*
X127204328Y-96173580D01*
X127331811Y-96120775D01*
X127446542Y-96044114D01*
X127544114Y-95946542D01*
X127620775Y-95831811D01*
X127673580Y-95704328D01*
X127700500Y-95568993D01*
X127700500Y-95431007D01*
X127700500Y-95431004D01*
X127673581Y-95295677D01*
X127673580Y-95295676D01*
X127673580Y-95295672D01*
X127673578Y-95295667D01*
X127620778Y-95168195D01*
X127620774Y-95168188D01*
X127603742Y-95142698D01*
X127603741Y-95142696D01*
X127559934Y-95077135D01*
X183149500Y-95077135D01*
X183149500Y-96872870D01*
X183149501Y-96872876D01*
X183155908Y-96932483D01*
X183206202Y-97067328D01*
X183206206Y-97067335D01*
X183292452Y-97182544D01*
X183292455Y-97182547D01*
X183407664Y-97268793D01*
X183407671Y-97268797D01*
X183539082Y-97317810D01*
X183595016Y-97359681D01*
X183619433Y-97425145D01*
X183604582Y-97493418D01*
X183583431Y-97521673D01*
X183469889Y-97635215D01*
X183344951Y-97807179D01*
X183248444Y-97996585D01*
X183182753Y-98198760D01*
X183149500Y-98408713D01*
X183149500Y-98621286D01*
X183182753Y-98831239D01*
X183248444Y-99033414D01*
X183344951Y-99222820D01*
X183469890Y-99394786D01*
X183620213Y-99545109D01*
X183792179Y-99670048D01*
X183792181Y-99670049D01*
X183792184Y-99670051D01*
X183981588Y-99766557D01*
X184183757Y-99832246D01*
X184393713Y-99865500D01*
X184393714Y-99865500D01*
X184606286Y-99865500D01*
X184606287Y-99865500D01*
X184816243Y-99832246D01*
X185018412Y-99766557D01*
X185207816Y-99670051D01*
X185229789Y-99654086D01*
X185379786Y-99545109D01*
X185379788Y-99545106D01*
X185379792Y-99545104D01*
X185530104Y-99394792D01*
X185530106Y-99394788D01*
X185530109Y-99394786D01*
X185655048Y-99222820D01*
X185655047Y-99222820D01*
X185655051Y-99222816D01*
X185751557Y-99033412D01*
X185817246Y-98831243D01*
X185850500Y-98621287D01*
X185850500Y-98408713D01*
X185817246Y-98198757D01*
X185751557Y-97996588D01*
X185655051Y-97807184D01*
X185655049Y-97807181D01*
X185655048Y-97807179D01*
X185530109Y-97635213D01*
X185416569Y-97521673D01*
X185383084Y-97460350D01*
X185388068Y-97390658D01*
X185429940Y-97334725D01*
X185460915Y-97317810D01*
X185592331Y-97268796D01*
X185707546Y-97182546D01*
X185793796Y-97067331D01*
X185844091Y-96932483D01*
X185850500Y-96872873D01*
X185850499Y-95077128D01*
X185844091Y-95017517D01*
X185793796Y-94882669D01*
X185793795Y-94882668D01*
X185793793Y-94882664D01*
X185707547Y-94767455D01*
X185707544Y-94767452D01*
X185592335Y-94681206D01*
X185592328Y-94681202D01*
X185457482Y-94630908D01*
X185457483Y-94630908D01*
X185397883Y-94624501D01*
X185397881Y-94624500D01*
X185397873Y-94624500D01*
X185397864Y-94624500D01*
X183602129Y-94624500D01*
X183602123Y-94624501D01*
X183542516Y-94630908D01*
X183407671Y-94681202D01*
X183407664Y-94681206D01*
X183292455Y-94767452D01*
X183292452Y-94767455D01*
X183206206Y-94882664D01*
X183206202Y-94882671D01*
X183155908Y-95017517D01*
X183149501Y-95077116D01*
X183149501Y-95077123D01*
X183149500Y-95077135D01*
X127559934Y-95077135D01*
X127544114Y-95053458D01*
X127544111Y-95053454D01*
X127446545Y-94955888D01*
X127446541Y-94955885D01*
X127331817Y-94879228D01*
X127331804Y-94879221D01*
X127204332Y-94826421D01*
X127204322Y-94826418D01*
X127068995Y-94799500D01*
X127068993Y-94799500D01*
X126931007Y-94799500D01*
X126931005Y-94799500D01*
X126795677Y-94826418D01*
X126795667Y-94826421D01*
X126668195Y-94879221D01*
X126668182Y-94879228D01*
X126553458Y-94955885D01*
X126553454Y-94955888D01*
X126455888Y-95053454D01*
X126455885Y-95053458D01*
X126379228Y-95168182D01*
X126379221Y-95168195D01*
X126326421Y-95295667D01*
X126326418Y-95295677D01*
X126299500Y-95431004D01*
X126299500Y-95431007D01*
X126299500Y-95568993D01*
X126299500Y-95568995D01*
X126299499Y-95568995D01*
X112400500Y-95568995D01*
X112400500Y-92573920D01*
X123749499Y-92573920D01*
X123778340Y-92718907D01*
X123778343Y-92718917D01*
X123834912Y-92855488D01*
X123834919Y-92855501D01*
X123917048Y-92978415D01*
X123917051Y-92978419D01*
X124021580Y-93082948D01*
X124021584Y-93082951D01*
X124144498Y-93165080D01*
X124144511Y-93165087D01*
X124281082Y-93221656D01*
X124281087Y-93221658D01*
X124281091Y-93221658D01*
X124281092Y-93221659D01*
X124426079Y-93250500D01*
X124426082Y-93250500D01*
X124573920Y-93250500D01*
X124671462Y-93231096D01*
X124718913Y-93221658D01*
X124855495Y-93165084D01*
X124978416Y-93082951D01*
X125082951Y-92978416D01*
X125165084Y-92855495D01*
X125221658Y-92718913D01*
X125232366Y-92665080D01*
X125250500Y-92573920D01*
X125250500Y-92426079D01*
X125221659Y-92281092D01*
X125221658Y-92281091D01*
X125221658Y-92281087D01*
X125221656Y-92281082D01*
X125165087Y-92144511D01*
X125165080Y-92144498D01*
X125117921Y-92073920D01*
X135249499Y-92073920D01*
X135278340Y-92218907D01*
X135278343Y-92218917D01*
X135334912Y-92355488D01*
X135334919Y-92355501D01*
X135417048Y-92478415D01*
X135417051Y-92478419D01*
X135521580Y-92582948D01*
X135521584Y-92582951D01*
X135644498Y-92665080D01*
X135644511Y-92665087D01*
X135781082Y-92721656D01*
X135781087Y-92721658D01*
X135781091Y-92721658D01*
X135781092Y-92721659D01*
X135926079Y-92750500D01*
X135926082Y-92750500D01*
X136073920Y-92750500D01*
X136171462Y-92731096D01*
X136218913Y-92721658D01*
X136355495Y-92665084D01*
X136478416Y-92582951D01*
X136487447Y-92573920D01*
X166249499Y-92573920D01*
X166278340Y-92718907D01*
X166278343Y-92718917D01*
X166334912Y-92855488D01*
X166334919Y-92855501D01*
X166417048Y-92978415D01*
X166417051Y-92978419D01*
X166521580Y-93082948D01*
X166521584Y-93082951D01*
X166644498Y-93165080D01*
X166644511Y-93165087D01*
X166781082Y-93221656D01*
X166781087Y-93221658D01*
X166781091Y-93221658D01*
X166781092Y-93221659D01*
X166926079Y-93250500D01*
X166926082Y-93250500D01*
X167073920Y-93250500D01*
X167171462Y-93231096D01*
X167218913Y-93221658D01*
X167355495Y-93165084D01*
X167478416Y-93082951D01*
X167582951Y-92978416D01*
X167665084Y-92855495D01*
X167721658Y-92718913D01*
X167732366Y-92665080D01*
X167750500Y-92573920D01*
X167750500Y-92426079D01*
X167721659Y-92281092D01*
X167721658Y-92281091D01*
X167721658Y-92281087D01*
X167721656Y-92281082D01*
X167665087Y-92144511D01*
X167665080Y-92144498D01*
X167582951Y-92021584D01*
X167582948Y-92021580D01*
X167478419Y-91917051D01*
X167478415Y-91917048D01*
X167355501Y-91834919D01*
X167355488Y-91834912D01*
X167218917Y-91778343D01*
X167218907Y-91778340D01*
X167073920Y-91749500D01*
X167073918Y-91749500D01*
X166926082Y-91749500D01*
X166926080Y-91749500D01*
X166781092Y-91778340D01*
X166781082Y-91778343D01*
X166644511Y-91834912D01*
X166644498Y-91834919D01*
X166521584Y-91917048D01*
X166521580Y-91917051D01*
X166417051Y-92021580D01*
X166417048Y-92021584D01*
X166334919Y-92144498D01*
X166334912Y-92144511D01*
X166278343Y-92281082D01*
X166278340Y-92281092D01*
X166249500Y-92426079D01*
X166249500Y-92426082D01*
X166249500Y-92573918D01*
X166249500Y-92573920D01*
X166249499Y-92573920D01*
X136487447Y-92573920D01*
X136582951Y-92478416D01*
X136665084Y-92355495D01*
X136721658Y-92218913D01*
X136736459Y-92144505D01*
X136750500Y-92073920D01*
X136750500Y-91926079D01*
X136721659Y-91781092D01*
X136721658Y-91781091D01*
X136721658Y-91781087D01*
X136677128Y-91673581D01*
X136665087Y-91644511D01*
X136665080Y-91644498D01*
X136582951Y-91521584D01*
X136582948Y-91521580D01*
X136478419Y-91417051D01*
X136478415Y-91417048D01*
X136355501Y-91334919D01*
X136355488Y-91334912D01*
X136218917Y-91278343D01*
X136218907Y-91278340D01*
X136073920Y-91249500D01*
X136073918Y-91249500D01*
X135926082Y-91249500D01*
X135926080Y-91249500D01*
X135781092Y-91278340D01*
X135781082Y-91278343D01*
X135644511Y-91334912D01*
X135644498Y-91334919D01*
X135521584Y-91417048D01*
X135521580Y-91417051D01*
X135417051Y-91521580D01*
X135417048Y-91521584D01*
X135334919Y-91644498D01*
X135334912Y-91644511D01*
X135278343Y-91781082D01*
X135278340Y-91781092D01*
X135249500Y-91926079D01*
X135249500Y-91926082D01*
X135249500Y-92073918D01*
X135249500Y-92073920D01*
X135249499Y-92073920D01*
X125117921Y-92073920D01*
X125082951Y-92021584D01*
X125082948Y-92021580D01*
X124978419Y-91917051D01*
X124978415Y-91917048D01*
X124855501Y-91834919D01*
X124855488Y-91834912D01*
X124718917Y-91778343D01*
X124718907Y-91778340D01*
X124573920Y-91749500D01*
X124573918Y-91749500D01*
X124426082Y-91749500D01*
X124426080Y-91749500D01*
X124281092Y-91778340D01*
X124281082Y-91778343D01*
X124144511Y-91834912D01*
X124144498Y-91834919D01*
X124021584Y-91917048D01*
X124021580Y-91917051D01*
X123917051Y-92021580D01*
X123917048Y-92021584D01*
X123834919Y-92144498D01*
X123834912Y-92144511D01*
X123778343Y-92281082D01*
X123778340Y-92281092D01*
X123749500Y-92426079D01*
X123749500Y-92426082D01*
X123749500Y-92573918D01*
X123749500Y-92573920D01*
X123749499Y-92573920D01*
X112400500Y-92573920D01*
X112400500Y-91068995D01*
X154799499Y-91068995D01*
X154826418Y-91204322D01*
X154826421Y-91204332D01*
X154879221Y-91331804D01*
X154879228Y-91331817D01*
X154955885Y-91446541D01*
X154955888Y-91446545D01*
X155053454Y-91544111D01*
X155053458Y-91544114D01*
X155168182Y-91620771D01*
X155168195Y-91620778D01*
X155295667Y-91673578D01*
X155295672Y-91673580D01*
X155295676Y-91673580D01*
X155295677Y-91673581D01*
X155431004Y-91700500D01*
X155431007Y-91700500D01*
X155568995Y-91700500D01*
X155660041Y-91682389D01*
X155704328Y-91673580D01*
X155831811Y-91620775D01*
X155946542Y-91544114D01*
X156044114Y-91446542D01*
X156120775Y-91331811D01*
X156173580Y-91204328D01*
X156200500Y-91068993D01*
X156200500Y-90931007D01*
X156200500Y-90931004D01*
X156173581Y-90795677D01*
X156173580Y-90795676D01*
X156173580Y-90795672D01*
X156173578Y-90795667D01*
X156120778Y-90668195D01*
X156120771Y-90668182D01*
X156044114Y-90553458D01*
X156044111Y-90553454D01*
X155946545Y-90455888D01*
X155946541Y-90455885D01*
X155831817Y-90379228D01*
X155831804Y-90379221D01*
X155704332Y-90326421D01*
X155704322Y-90326418D01*
X155568995Y-90299500D01*
X155568993Y-90299500D01*
X155431007Y-90299500D01*
X155431005Y-90299500D01*
X155295677Y-90326418D01*
X155295667Y-90326421D01*
X155168195Y-90379221D01*
X155168182Y-90379228D01*
X155053458Y-90455885D01*
X155053454Y-90455888D01*
X154955888Y-90553454D01*
X154955885Y-90553458D01*
X154879228Y-90668182D01*
X154879221Y-90668195D01*
X154826421Y-90795667D01*
X154826418Y-90795677D01*
X154799500Y-90931004D01*
X154799500Y-90931007D01*
X154799500Y-91068993D01*
X154799500Y-91068995D01*
X154799499Y-91068995D01*
X112400500Y-91068995D01*
X112400500Y-88573920D01*
X121749499Y-88573920D01*
X121778340Y-88718907D01*
X121778343Y-88718917D01*
X121834912Y-88855488D01*
X121834919Y-88855501D01*
X121917048Y-88978415D01*
X121917051Y-88978419D01*
X122021580Y-89082948D01*
X122021584Y-89082951D01*
X122144498Y-89165080D01*
X122144511Y-89165087D01*
X122281082Y-89221656D01*
X122281087Y-89221658D01*
X122281091Y-89221658D01*
X122281092Y-89221659D01*
X122426079Y-89250500D01*
X122426082Y-89250500D01*
X122573920Y-89250500D01*
X122671462Y-89231096D01*
X122718913Y-89221658D01*
X122855495Y-89165084D01*
X122978416Y-89082951D01*
X123082951Y-88978416D01*
X123165084Y-88855495D01*
X123221658Y-88718913D01*
X123232366Y-88665080D01*
X123250500Y-88573920D01*
X123250500Y-88426079D01*
X123221659Y-88281092D01*
X123221658Y-88281091D01*
X123221658Y-88281087D01*
X123221656Y-88281082D01*
X123165087Y-88144511D01*
X123165080Y-88144498D01*
X123117921Y-88073920D01*
X179749499Y-88073920D01*
X179778340Y-88218907D01*
X179778343Y-88218917D01*
X179834912Y-88355488D01*
X179834919Y-88355501D01*
X179917048Y-88478415D01*
X179917051Y-88478419D01*
X180021580Y-88582948D01*
X180021584Y-88582951D01*
X180144498Y-88665080D01*
X180144511Y-88665087D01*
X180281082Y-88721656D01*
X180281087Y-88721658D01*
X180281091Y-88721658D01*
X180281092Y-88721659D01*
X180426079Y-88750500D01*
X180426082Y-88750500D01*
X180573920Y-88750500D01*
X180671462Y-88731096D01*
X180718913Y-88721658D01*
X180855495Y-88665084D01*
X180978416Y-88582951D01*
X181082951Y-88478416D01*
X181165084Y-88355495D01*
X181221658Y-88218913D01*
X181236459Y-88144505D01*
X181250500Y-88073920D01*
X181250500Y-87926079D01*
X181221659Y-87781092D01*
X181221658Y-87781091D01*
X181221658Y-87781087D01*
X181208574Y-87749500D01*
X181165087Y-87644511D01*
X181165080Y-87644498D01*
X181082951Y-87521584D01*
X181082948Y-87521580D01*
X180978419Y-87417051D01*
X180978415Y-87417048D01*
X180855501Y-87334919D01*
X180855488Y-87334912D01*
X180718917Y-87278343D01*
X180718907Y-87278340D01*
X180573920Y-87249500D01*
X180573918Y-87249500D01*
X180426082Y-87249500D01*
X180426080Y-87249500D01*
X180281092Y-87278340D01*
X180281082Y-87278343D01*
X180144511Y-87334912D01*
X180144498Y-87334919D01*
X180021584Y-87417048D01*
X180021580Y-87417051D01*
X179917051Y-87521580D01*
X179917048Y-87521584D01*
X179834919Y-87644498D01*
X179834912Y-87644511D01*
X179778343Y-87781082D01*
X179778340Y-87781092D01*
X179749500Y-87926079D01*
X179749500Y-87926082D01*
X179749500Y-88073918D01*
X179749500Y-88073920D01*
X179749499Y-88073920D01*
X123117921Y-88073920D01*
X123082951Y-88021584D01*
X123082948Y-88021580D01*
X122978419Y-87917051D01*
X122978415Y-87917048D01*
X122855501Y-87834919D01*
X122855488Y-87834912D01*
X122718917Y-87778343D01*
X122718907Y-87778340D01*
X122573920Y-87749500D01*
X122573918Y-87749500D01*
X122426082Y-87749500D01*
X122426080Y-87749500D01*
X122281092Y-87778340D01*
X122281082Y-87778343D01*
X122144511Y-87834912D01*
X122144498Y-87834919D01*
X122021584Y-87917048D01*
X122021580Y-87917051D01*
X121917051Y-88021580D01*
X121917048Y-88021584D01*
X121834919Y-88144498D01*
X121834912Y-88144511D01*
X121778343Y-88281082D01*
X121778340Y-88281092D01*
X121749500Y-88426079D01*
X121749500Y-88426082D01*
X121749500Y-88573918D01*
X121749500Y-88573920D01*
X121749499Y-88573920D01*
X112400500Y-88573920D01*
X112400500Y-86573920D01*
X138249499Y-86573920D01*
X138278340Y-86718907D01*
X138278343Y-86718917D01*
X138334912Y-86855488D01*
X138334919Y-86855501D01*
X138417048Y-86978415D01*
X138417051Y-86978419D01*
X138521580Y-87082948D01*
X138521584Y-87082951D01*
X138644498Y-87165080D01*
X138644511Y-87165087D01*
X138781082Y-87221656D01*
X138781087Y-87221658D01*
X138781091Y-87221658D01*
X138781092Y-87221659D01*
X138926079Y-87250500D01*
X138926082Y-87250500D01*
X139073920Y-87250500D01*
X139171462Y-87231096D01*
X139218913Y-87221658D01*
X139355495Y-87165084D01*
X139478416Y-87082951D01*
X139582951Y-86978416D01*
X139665084Y-86855495D01*
X139721658Y-86718913D01*
X139750500Y-86573918D01*
X139750500Y-86426082D01*
X139750500Y-86426079D01*
X139721659Y-86281092D01*
X139721658Y-86281091D01*
X139721658Y-86281087D01*
X139677128Y-86173581D01*
X139665087Y-86144511D01*
X139665080Y-86144498D01*
X139582951Y-86021584D01*
X139582948Y-86021580D01*
X139478419Y-85917051D01*
X139478415Y-85917048D01*
X139355501Y-85834919D01*
X139355488Y-85834912D01*
X139218917Y-85778343D01*
X139218907Y-85778340D01*
X139073920Y-85749500D01*
X139073918Y-85749500D01*
X138926082Y-85749500D01*
X138926080Y-85749500D01*
X138781092Y-85778340D01*
X138781082Y-85778343D01*
X138644511Y-85834912D01*
X138644498Y-85834919D01*
X138521584Y-85917048D01*
X138521580Y-85917051D01*
X138417051Y-86021580D01*
X138417048Y-86021584D01*
X138334919Y-86144498D01*
X138334912Y-86144511D01*
X138278343Y-86281082D01*
X138278340Y-86281092D01*
X138249500Y-86426079D01*
X138249500Y-86426082D01*
X138249500Y-86573918D01*
X138249500Y-86573920D01*
X138249499Y-86573920D01*
X112400500Y-86573920D01*
X112400500Y-76022135D01*
X113899500Y-76022135D01*
X113899500Y-77817870D01*
X113899501Y-77817876D01*
X113905908Y-77877483D01*
X113956202Y-78012328D01*
X113956206Y-78012335D01*
X114042452Y-78127544D01*
X114042455Y-78127547D01*
X114157664Y-78213793D01*
X114157671Y-78213797D01*
X114202618Y-78230561D01*
X114292517Y-78264091D01*
X114352127Y-78270500D01*
X114362685Y-78270499D01*
X114429723Y-78290179D01*
X114450372Y-78306818D01*
X115120591Y-78977037D01*
X115057007Y-78994075D01*
X114942993Y-79059901D01*
X114849901Y-79152993D01*
X114784075Y-79267007D01*
X114767037Y-79330591D01*
X114134728Y-78698282D01*
X114134727Y-78698282D01*
X114095380Y-78752439D01*
X113998904Y-78941782D01*
X113933242Y-79143869D01*
X113933242Y-79143872D01*
X113900000Y-79353753D01*
X113900000Y-79566246D01*
X113933242Y-79776127D01*
X113933242Y-79776130D01*
X113998904Y-79978217D01*
X114095375Y-80167550D01*
X114134728Y-80221716D01*
X114767037Y-79589408D01*
X114784075Y-79652993D01*
X114849901Y-79767007D01*
X114942993Y-79860099D01*
X115057007Y-79925925D01*
X115120590Y-79942962D01*
X114488282Y-80575269D01*
X114488282Y-80575270D01*
X114542452Y-80614626D01*
X114542451Y-80614626D01*
X114551495Y-80619234D01*
X114602292Y-80667208D01*
X114619087Y-80735029D01*
X114596550Y-80801164D01*
X114551499Y-80840202D01*
X114542182Y-80844949D01*
X114370213Y-80969890D01*
X114219890Y-81120213D01*
X114094951Y-81292179D01*
X113998444Y-81481585D01*
X113932753Y-81683760D01*
X113899500Y-81893713D01*
X113899500Y-82106286D01*
X113928843Y-82291555D01*
X113932754Y-82316243D01*
X113954013Y-82381672D01*
X113998444Y-82518414D01*
X114094951Y-82707820D01*
X114219890Y-82879786D01*
X114370213Y-83030109D01*
X114542182Y-83155050D01*
X114550946Y-83159516D01*
X114601742Y-83207491D01*
X114618536Y-83275312D01*
X114595998Y-83341447D01*
X114550946Y-83380484D01*
X114542182Y-83384949D01*
X114370213Y-83509890D01*
X114219890Y-83660213D01*
X114094951Y-83832179D01*
X113998444Y-84021585D01*
X113932753Y-84223760D01*
X113899500Y-84433713D01*
X113899500Y-84646286D01*
X113928030Y-84826421D01*
X113932754Y-84856243D01*
X113996833Y-85053458D01*
X113998444Y-85058414D01*
X114094951Y-85247820D01*
X114219890Y-85419786D01*
X114370213Y-85570109D01*
X114542179Y-85695048D01*
X114542181Y-85695049D01*
X114542184Y-85695051D01*
X114731588Y-85791557D01*
X114933757Y-85857246D01*
X115143713Y-85890500D01*
X115143714Y-85890500D01*
X115356286Y-85890500D01*
X115356287Y-85890500D01*
X115566243Y-85857246D01*
X115768412Y-85791557D01*
X115957816Y-85695051D01*
X115999068Y-85665080D01*
X116129786Y-85570109D01*
X116129788Y-85570106D01*
X116129792Y-85570104D01*
X116130901Y-85568995D01*
X151299499Y-85568995D01*
X151326418Y-85704322D01*
X151326421Y-85704332D01*
X151379221Y-85831804D01*
X151379228Y-85831817D01*
X151455885Y-85946541D01*
X151455888Y-85946545D01*
X151553454Y-86044111D01*
X151553458Y-86044114D01*
X151668182Y-86120771D01*
X151668195Y-86120778D01*
X151795667Y-86173578D01*
X151795672Y-86173580D01*
X151795676Y-86173580D01*
X151795677Y-86173581D01*
X151931004Y-86200500D01*
X151931007Y-86200500D01*
X152068995Y-86200500D01*
X152160041Y-86182389D01*
X152204328Y-86173580D01*
X152331811Y-86120775D01*
X152446542Y-86044114D01*
X152544114Y-85946542D01*
X152620775Y-85831811D01*
X152673580Y-85704328D01*
X152697724Y-85582948D01*
X152700500Y-85568995D01*
X152700500Y-85431004D01*
X152673581Y-85295677D01*
X152673580Y-85295676D01*
X152673580Y-85295672D01*
X152653759Y-85247820D01*
X152620778Y-85168195D01*
X152620771Y-85168182D01*
X152557786Y-85073920D01*
X163749499Y-85073920D01*
X163778340Y-85218907D01*
X163778343Y-85218917D01*
X163834912Y-85355488D01*
X163834919Y-85355501D01*
X163917048Y-85478415D01*
X163917051Y-85478419D01*
X164021580Y-85582948D01*
X164021584Y-85582951D01*
X164144498Y-85665080D01*
X164144511Y-85665087D01*
X164239258Y-85704332D01*
X164281087Y-85721658D01*
X164281091Y-85721658D01*
X164281092Y-85721659D01*
X164426079Y-85750500D01*
X164426082Y-85750500D01*
X164573920Y-85750500D01*
X164671462Y-85731096D01*
X164718913Y-85721658D01*
X164855495Y-85665084D01*
X164978416Y-85582951D01*
X164984232Y-85577135D01*
X183149500Y-85577135D01*
X183149500Y-87372870D01*
X183149501Y-87372876D01*
X183155908Y-87432483D01*
X183206202Y-87567328D01*
X183206206Y-87567335D01*
X183292452Y-87682544D01*
X183292455Y-87682547D01*
X183407664Y-87768793D01*
X183407671Y-87768797D01*
X183539082Y-87817810D01*
X183595016Y-87859681D01*
X183619433Y-87925145D01*
X183604582Y-87993418D01*
X183583431Y-88021673D01*
X183469889Y-88135215D01*
X183344951Y-88307179D01*
X183248444Y-88496585D01*
X183182753Y-88698760D01*
X183149500Y-88908713D01*
X183149500Y-89121286D01*
X183182753Y-89331239D01*
X183248444Y-89533414D01*
X183344951Y-89722820D01*
X183469890Y-89894786D01*
X183620213Y-90045109D01*
X183792179Y-90170048D01*
X183792181Y-90170049D01*
X183792184Y-90170051D01*
X183981588Y-90266557D01*
X184183757Y-90332246D01*
X184393713Y-90365500D01*
X184393714Y-90365500D01*
X184606286Y-90365500D01*
X184606287Y-90365500D01*
X184816243Y-90332246D01*
X185018412Y-90266557D01*
X185207816Y-90170051D01*
X185229789Y-90154086D01*
X185379786Y-90045109D01*
X185379788Y-90045106D01*
X185379792Y-90045104D01*
X185530104Y-89894792D01*
X185530106Y-89894788D01*
X185530109Y-89894786D01*
X185655048Y-89722820D01*
X185655047Y-89722820D01*
X185655051Y-89722816D01*
X185751557Y-89533412D01*
X185817246Y-89331243D01*
X185850500Y-89121287D01*
X185850500Y-88908713D01*
X185817246Y-88698757D01*
X185751557Y-88496588D01*
X185655051Y-88307184D01*
X185655049Y-88307181D01*
X185655048Y-88307179D01*
X185530109Y-88135213D01*
X185416569Y-88021673D01*
X185383084Y-87960350D01*
X185388068Y-87890658D01*
X185429940Y-87834725D01*
X185460915Y-87817810D01*
X185592331Y-87768796D01*
X185707546Y-87682546D01*
X185793796Y-87567331D01*
X185844091Y-87432483D01*
X185850500Y-87372873D01*
X185850499Y-85577128D01*
X185844091Y-85517517D01*
X185829508Y-85478419D01*
X185793797Y-85382671D01*
X185793793Y-85382664D01*
X185707547Y-85267455D01*
X185707544Y-85267452D01*
X185592335Y-85181206D01*
X185592328Y-85181202D01*
X185457482Y-85130908D01*
X185457483Y-85130908D01*
X185397883Y-85124501D01*
X185397881Y-85124500D01*
X185397873Y-85124500D01*
X185397864Y-85124500D01*
X183602129Y-85124500D01*
X183602123Y-85124501D01*
X183542516Y-85130908D01*
X183407671Y-85181202D01*
X183407664Y-85181206D01*
X183292455Y-85267452D01*
X183292452Y-85267455D01*
X183206206Y-85382664D01*
X183206202Y-85382671D01*
X183155908Y-85517517D01*
X183149501Y-85577116D01*
X183149501Y-85577123D01*
X183149500Y-85577135D01*
X164984232Y-85577135D01*
X164992374Y-85568993D01*
X165075243Y-85486125D01*
X165082948Y-85478419D01*
X165082951Y-85478416D01*
X165165084Y-85355495D01*
X165221658Y-85218913D01*
X165240438Y-85124501D01*
X165250500Y-85073920D01*
X165250500Y-84926079D01*
X165221659Y-84781092D01*
X165221658Y-84781091D01*
X165221658Y-84781087D01*
X165221656Y-84781082D01*
X165165087Y-84644511D01*
X165165080Y-84644498D01*
X165082951Y-84521584D01*
X165082948Y-84521580D01*
X164978419Y-84417051D01*
X164978415Y-84417048D01*
X164855501Y-84334919D01*
X164855488Y-84334912D01*
X164718917Y-84278343D01*
X164718907Y-84278340D01*
X164573920Y-84249500D01*
X164573918Y-84249500D01*
X164426082Y-84249500D01*
X164426080Y-84249500D01*
X164281092Y-84278340D01*
X164281082Y-84278343D01*
X164144511Y-84334912D01*
X164144498Y-84334919D01*
X164021584Y-84417048D01*
X164021580Y-84417051D01*
X163917051Y-84521580D01*
X163917048Y-84521584D01*
X163834919Y-84644498D01*
X163834912Y-84644511D01*
X163778343Y-84781082D01*
X163778340Y-84781092D01*
X163749500Y-84926079D01*
X163749500Y-84926082D01*
X163749500Y-85073918D01*
X163749500Y-85073920D01*
X163749499Y-85073920D01*
X152557786Y-85073920D01*
X152544114Y-85053458D01*
X152544111Y-85053454D01*
X152446545Y-84955888D01*
X152446541Y-84955885D01*
X152331817Y-84879228D01*
X152331804Y-84879221D01*
X152204332Y-84826421D01*
X152204322Y-84826418D01*
X152068995Y-84799500D01*
X152068993Y-84799500D01*
X151931007Y-84799500D01*
X151931005Y-84799500D01*
X151795677Y-84826418D01*
X151795667Y-84826421D01*
X151668195Y-84879221D01*
X151668182Y-84879228D01*
X151553458Y-84955885D01*
X151553454Y-84955888D01*
X151455888Y-85053454D01*
X151455885Y-85053458D01*
X151379228Y-85168182D01*
X151379221Y-85168195D01*
X151326421Y-85295667D01*
X151326418Y-85295677D01*
X151299500Y-85431004D01*
X151299500Y-85431007D01*
X151299500Y-85568993D01*
X151299500Y-85568995D01*
X151299499Y-85568995D01*
X116130901Y-85568995D01*
X116280104Y-85419792D01*
X116307074Y-85382671D01*
X116329334Y-85352033D01*
X116329336Y-85352030D01*
X116370285Y-85295667D01*
X116405051Y-85247816D01*
X116501557Y-85058412D01*
X116567246Y-84856243D01*
X116600500Y-84646287D01*
X116600500Y-84433713D01*
X116567246Y-84223757D01*
X116501557Y-84021588D01*
X116405051Y-83832184D01*
X116405049Y-83832181D01*
X116405048Y-83832179D01*
X116280109Y-83660213D01*
X116129786Y-83509890D01*
X115957820Y-83384951D01*
X115957115Y-83384591D01*
X115949054Y-83380485D01*
X115898259Y-83332512D01*
X115881463Y-83264692D01*
X115903999Y-83198556D01*
X115949054Y-83159515D01*
X115957816Y-83155051D01*
X116057058Y-83082948D01*
X116129786Y-83030109D01*
X116129788Y-83030106D01*
X116129792Y-83030104D01*
X116280104Y-82879792D01*
X116280106Y-82879788D01*
X116280109Y-82879786D01*
X116405048Y-82707820D01*
X116405047Y-82707820D01*
X116405051Y-82707816D01*
X116473274Y-82573920D01*
X132749499Y-82573920D01*
X132778340Y-82718907D01*
X132778343Y-82718917D01*
X132834912Y-82855488D01*
X132834919Y-82855501D01*
X132917048Y-82978415D01*
X132917051Y-82978419D01*
X133021580Y-83082948D01*
X133021584Y-83082951D01*
X133144498Y-83165080D01*
X133144511Y-83165087D01*
X133281082Y-83221656D01*
X133281087Y-83221658D01*
X133281091Y-83221658D01*
X133281092Y-83221659D01*
X133426079Y-83250500D01*
X133426082Y-83250500D01*
X133573920Y-83250500D01*
X133671462Y-83231096D01*
X133718913Y-83221658D01*
X133855495Y-83165084D01*
X133978416Y-83082951D01*
X134082951Y-82978416D01*
X134165084Y-82855495D01*
X134221658Y-82718913D01*
X134250500Y-82573918D01*
X134250500Y-82426082D01*
X134250500Y-82426079D01*
X134221659Y-82281092D01*
X134221658Y-82281091D01*
X134221658Y-82281087D01*
X134186020Y-82195048D01*
X134165087Y-82144511D01*
X134165080Y-82144498D01*
X134082951Y-82021584D01*
X134082948Y-82021580D01*
X133978419Y-81917051D01*
X133978415Y-81917048D01*
X133855501Y-81834919D01*
X133855488Y-81834912D01*
X133718917Y-81778343D01*
X133718907Y-81778340D01*
X133573920Y-81749500D01*
X133573918Y-81749500D01*
X133426082Y-81749500D01*
X133426080Y-81749500D01*
X133281092Y-81778340D01*
X133281082Y-81778343D01*
X133144511Y-81834912D01*
X133144498Y-81834919D01*
X133021584Y-81917048D01*
X133021580Y-81917051D01*
X132917051Y-82021580D01*
X132917048Y-82021584D01*
X132834919Y-82144498D01*
X132834912Y-82144511D01*
X132778343Y-82281082D01*
X132778340Y-82281092D01*
X132749500Y-82426079D01*
X132749500Y-82426082D01*
X132749500Y-82573918D01*
X132749500Y-82573920D01*
X132749499Y-82573920D01*
X116473274Y-82573920D01*
X116501557Y-82518412D01*
X116567246Y-82316243D01*
X116600500Y-82106287D01*
X116600500Y-81893713D01*
X116567246Y-81683757D01*
X116501557Y-81481588D01*
X116405051Y-81292184D01*
X116405049Y-81292181D01*
X116405048Y-81292179D01*
X116280109Y-81120213D01*
X116129786Y-80969890D01*
X115957817Y-80844949D01*
X115948504Y-80840204D01*
X115897707Y-80792230D01*
X115880912Y-80724409D01*
X115903449Y-80658274D01*
X115948507Y-80619232D01*
X115957555Y-80614622D01*
X116011716Y-80575270D01*
X116011717Y-80575270D01*
X115379408Y-79942962D01*
X115442993Y-79925925D01*
X115557007Y-79860099D01*
X115650099Y-79767007D01*
X115715925Y-79652993D01*
X115732962Y-79589408D01*
X116365270Y-80221717D01*
X116365270Y-80221716D01*
X116404622Y-80167554D01*
X116501095Y-79978217D01*
X116566757Y-79776130D01*
X116566757Y-79776127D01*
X116600000Y-79566246D01*
X116600000Y-79353753D01*
X116594495Y-79318995D01*
X146799499Y-79318995D01*
X146826418Y-79454322D01*
X146826421Y-79454332D01*
X146879221Y-79581804D01*
X146879228Y-79581817D01*
X146955885Y-79696541D01*
X146955888Y-79696545D01*
X147053454Y-79794111D01*
X147053458Y-79794114D01*
X147168182Y-79870771D01*
X147168195Y-79870778D01*
X147295667Y-79923578D01*
X147295672Y-79923580D01*
X147295676Y-79923580D01*
X147295677Y-79923581D01*
X147431004Y-79950500D01*
X147431007Y-79950500D01*
X147568995Y-79950500D01*
X147660041Y-79932389D01*
X147704328Y-79923580D01*
X147831811Y-79870775D01*
X147946542Y-79794114D01*
X148044114Y-79696542D01*
X148120775Y-79581811D01*
X148173580Y-79454328D01*
X148184810Y-79397870D01*
X148200500Y-79318995D01*
X148200500Y-79181004D01*
X148173581Y-79045677D01*
X148173580Y-79045676D01*
X148173580Y-79045672D01*
X148130548Y-78941782D01*
X148120778Y-78918195D01*
X148120771Y-78918182D01*
X148044114Y-78803458D01*
X148044111Y-78803454D01*
X147946545Y-78705888D01*
X147946541Y-78705885D01*
X147831817Y-78629228D01*
X147831804Y-78629221D01*
X147704332Y-78576421D01*
X147704322Y-78576418D01*
X147568995Y-78549500D01*
X147568993Y-78549500D01*
X147431007Y-78549500D01*
X147431005Y-78549500D01*
X147295677Y-78576418D01*
X147295667Y-78576421D01*
X147168195Y-78629221D01*
X147168182Y-78629228D01*
X147053458Y-78705885D01*
X147053454Y-78705888D01*
X146955888Y-78803454D01*
X146955885Y-78803458D01*
X146879228Y-78918182D01*
X146879221Y-78918195D01*
X146826421Y-79045667D01*
X146826418Y-79045677D01*
X146799500Y-79181004D01*
X146799500Y-79181007D01*
X146799500Y-79318993D01*
X146799500Y-79318995D01*
X146799499Y-79318995D01*
X116594495Y-79318995D01*
X116574747Y-79194313D01*
X116566757Y-79143872D01*
X116566757Y-79143869D01*
X116501095Y-78941782D01*
X116404624Y-78752449D01*
X116365270Y-78698282D01*
X116365269Y-78698282D01*
X115732962Y-79330590D01*
X115715925Y-79267007D01*
X115650099Y-79152993D01*
X115557007Y-79059901D01*
X115442993Y-78994075D01*
X115379409Y-78977037D01*
X116049627Y-78306818D01*
X116110950Y-78273333D01*
X116137307Y-78270499D01*
X116147872Y-78270499D01*
X116207483Y-78264091D01*
X116342331Y-78213796D01*
X116457546Y-78127546D01*
X116543796Y-78012331D01*
X116594091Y-77877483D01*
X116600500Y-77817873D01*
X116600500Y-77602135D01*
X183149500Y-77602135D01*
X183149500Y-79397870D01*
X183149501Y-79397876D01*
X183155908Y-79457483D01*
X183206202Y-79592328D01*
X183206206Y-79592335D01*
X183292452Y-79707544D01*
X183292455Y-79707547D01*
X183407664Y-79793793D01*
X183407671Y-79793797D01*
X183539082Y-79842810D01*
X183595016Y-79884681D01*
X183619433Y-79950145D01*
X183604582Y-80018418D01*
X183583431Y-80046673D01*
X183469889Y-80160215D01*
X183344951Y-80332179D01*
X183248444Y-80521585D01*
X183182753Y-80723760D01*
X183178844Y-80748443D01*
X183149500Y-80933713D01*
X183149500Y-81146287D01*
X183182754Y-81356243D01*
X183223481Y-81481588D01*
X183248444Y-81558414D01*
X183344951Y-81747820D01*
X183469890Y-81919786D01*
X183620213Y-82070109D01*
X183792179Y-82195048D01*
X183792181Y-82195049D01*
X183792184Y-82195051D01*
X183981588Y-82291557D01*
X184183757Y-82357246D01*
X184393713Y-82390500D01*
X184393714Y-82390500D01*
X184606286Y-82390500D01*
X184606287Y-82390500D01*
X184816243Y-82357246D01*
X185018412Y-82291557D01*
X185207816Y-82195051D01*
X185277397Y-82144498D01*
X185379786Y-82070109D01*
X185379788Y-82070106D01*
X185379792Y-82070104D01*
X185530104Y-81919792D01*
X185530106Y-81919788D01*
X185530109Y-81919786D01*
X185639086Y-81769789D01*
X185655051Y-81747816D01*
X185751557Y-81558412D01*
X185817246Y-81356243D01*
X185850500Y-81146287D01*
X185850500Y-80933713D01*
X185817246Y-80723757D01*
X185751557Y-80521588D01*
X185655051Y-80332184D01*
X185655049Y-80332181D01*
X185655048Y-80332179D01*
X185530109Y-80160213D01*
X185416569Y-80046673D01*
X185383084Y-79985350D01*
X185388068Y-79915658D01*
X185429940Y-79859725D01*
X185460915Y-79842810D01*
X185592331Y-79793796D01*
X185707546Y-79707546D01*
X185793796Y-79592331D01*
X185844091Y-79457483D01*
X185850500Y-79397873D01*
X185850499Y-77602128D01*
X185844091Y-77542517D01*
X185793796Y-77407669D01*
X185793795Y-77407668D01*
X185793793Y-77407664D01*
X185707547Y-77292455D01*
X185707544Y-77292452D01*
X185592335Y-77206206D01*
X185592328Y-77206202D01*
X185457482Y-77155908D01*
X185457483Y-77155908D01*
X185397883Y-77149501D01*
X185397881Y-77149500D01*
X185397873Y-77149500D01*
X185397864Y-77149500D01*
X183602129Y-77149500D01*
X183602123Y-77149501D01*
X183542516Y-77155908D01*
X183407671Y-77206202D01*
X183407664Y-77206206D01*
X183292455Y-77292452D01*
X183292452Y-77292455D01*
X183206206Y-77407664D01*
X183206202Y-77407671D01*
X183155908Y-77542517D01*
X183149857Y-77598805D01*
X183149501Y-77602123D01*
X183149500Y-77602135D01*
X116600500Y-77602135D01*
X116600499Y-76068995D01*
X119299499Y-76068995D01*
X119326418Y-76204322D01*
X119326421Y-76204332D01*
X119379221Y-76331804D01*
X119379228Y-76331817D01*
X119455885Y-76446541D01*
X119455888Y-76446545D01*
X119553454Y-76544111D01*
X119553458Y-76544114D01*
X119668182Y-76620771D01*
X119668195Y-76620778D01*
X119795667Y-76673578D01*
X119795672Y-76673580D01*
X119795676Y-76673580D01*
X119795677Y-76673581D01*
X119931004Y-76700500D01*
X119931007Y-76700500D01*
X120068995Y-76700500D01*
X120160041Y-76682389D01*
X120204328Y-76673580D01*
X120331811Y-76620775D01*
X120446542Y-76544114D01*
X120544114Y-76446542D01*
X120620775Y-76331811D01*
X120673580Y-76204328D01*
X120700500Y-76068993D01*
X120700500Y-75931007D01*
X120700500Y-75931004D01*
X120673581Y-75795677D01*
X120673580Y-75795676D01*
X120673580Y-75795672D01*
X120641787Y-75718917D01*
X120620778Y-75668195D01*
X120620771Y-75668182D01*
X120557786Y-75573920D01*
X124749499Y-75573920D01*
X124778340Y-75718907D01*
X124778343Y-75718917D01*
X124834912Y-75855488D01*
X124834919Y-75855501D01*
X124917048Y-75978415D01*
X124917051Y-75978419D01*
X125021580Y-76082948D01*
X125021584Y-76082951D01*
X125144498Y-76165080D01*
X125144511Y-76165087D01*
X125239258Y-76204332D01*
X125281087Y-76221658D01*
X125281091Y-76221658D01*
X125281092Y-76221659D01*
X125426079Y-76250500D01*
X125426082Y-76250500D01*
X125573920Y-76250500D01*
X125671462Y-76231096D01*
X125718913Y-76221658D01*
X125855495Y-76165084D01*
X125978416Y-76082951D01*
X126082951Y-75978416D01*
X126165084Y-75855495D01*
X126221658Y-75718913D01*
X126240099Y-75626206D01*
X126250500Y-75573920D01*
X126250500Y-75426079D01*
X126221659Y-75281092D01*
X126221658Y-75281091D01*
X126221658Y-75281087D01*
X126221656Y-75281082D01*
X126165087Y-75144511D01*
X126165080Y-75144498D01*
X126082951Y-75021584D01*
X126082948Y-75021580D01*
X125978419Y-74917051D01*
X125978415Y-74917048D01*
X125855501Y-74834919D01*
X125855488Y-74834912D01*
X125718917Y-74778343D01*
X125718907Y-74778340D01*
X125573920Y-74749500D01*
X125573918Y-74749500D01*
X125426082Y-74749500D01*
X125426080Y-74749500D01*
X125281092Y-74778340D01*
X125281082Y-74778343D01*
X125144511Y-74834912D01*
X125144498Y-74834919D01*
X125021584Y-74917048D01*
X125021580Y-74917051D01*
X124917051Y-75021580D01*
X124917048Y-75021584D01*
X124834919Y-75144498D01*
X124834912Y-75144511D01*
X124778343Y-75281082D01*
X124778340Y-75281092D01*
X124749500Y-75426079D01*
X124749500Y-75426082D01*
X124749500Y-75573918D01*
X124749500Y-75573920D01*
X124749499Y-75573920D01*
X120557786Y-75573920D01*
X120544114Y-75553458D01*
X120544111Y-75553454D01*
X120446545Y-75455888D01*
X120446541Y-75455885D01*
X120331817Y-75379228D01*
X120331804Y-75379221D01*
X120204332Y-75326421D01*
X120204322Y-75326418D01*
X120068995Y-75299500D01*
X120068993Y-75299500D01*
X119931007Y-75299500D01*
X119931005Y-75299500D01*
X119795677Y-75326418D01*
X119795667Y-75326421D01*
X119668195Y-75379221D01*
X119668182Y-75379228D01*
X119553458Y-75455885D01*
X119553454Y-75455888D01*
X119455888Y-75553454D01*
X119455885Y-75553458D01*
X119379228Y-75668182D01*
X119379221Y-75668195D01*
X119326421Y-75795667D01*
X119326418Y-75795677D01*
X119299500Y-75931004D01*
X119299500Y-75931007D01*
X119299500Y-76068993D01*
X119299500Y-76068995D01*
X119299499Y-76068995D01*
X116600499Y-76068995D01*
X116600499Y-76022128D01*
X116594091Y-75962517D01*
X116554177Y-75855501D01*
X116543797Y-75827671D01*
X116543793Y-75827664D01*
X116457547Y-75712455D01*
X116457544Y-75712452D01*
X116342335Y-75626206D01*
X116342328Y-75626202D01*
X116207482Y-75575908D01*
X116207483Y-75575908D01*
X116147883Y-75569501D01*
X116147881Y-75569500D01*
X116147873Y-75569500D01*
X116147864Y-75569500D01*
X114352129Y-75569500D01*
X114352123Y-75569501D01*
X114292516Y-75575908D01*
X114157671Y-75626202D01*
X114157664Y-75626206D01*
X114042455Y-75712452D01*
X114042452Y-75712455D01*
X113956206Y-75827664D01*
X113956202Y-75827671D01*
X113905908Y-75962517D01*
X113904199Y-75978419D01*
X113899501Y-76022123D01*
X113899500Y-76022135D01*
X112400500Y-76022135D01*
X112400500Y-72568995D01*
X161799499Y-72568995D01*
X161826418Y-72704322D01*
X161826421Y-72704332D01*
X161879221Y-72831804D01*
X161879228Y-72831817D01*
X161955885Y-72946541D01*
X161955888Y-72946545D01*
X162053454Y-73044111D01*
X162053458Y-73044114D01*
X162168182Y-73120771D01*
X162168195Y-73120778D01*
X162295667Y-73173578D01*
X162295672Y-73173580D01*
X162295676Y-73173580D01*
X162295677Y-73173581D01*
X162431004Y-73200500D01*
X162431007Y-73200500D01*
X162568995Y-73200500D01*
X162660041Y-73182389D01*
X162704328Y-73173580D01*
X162831811Y-73120775D01*
X162946542Y-73044114D01*
X163044114Y-72946542D01*
X163120775Y-72831811D01*
X163173580Y-72704328D01*
X163200500Y-72568993D01*
X163200500Y-72431007D01*
X163200500Y-72431004D01*
X163173581Y-72295677D01*
X163173580Y-72295676D01*
X163173580Y-72295672D01*
X163173578Y-72295667D01*
X163120778Y-72168195D01*
X163120771Y-72168182D01*
X163044114Y-72053458D01*
X163044111Y-72053454D01*
X162946545Y-71955888D01*
X162946541Y-71955885D01*
X162831817Y-71879228D01*
X162831804Y-71879221D01*
X162704332Y-71826421D01*
X162704322Y-71826418D01*
X162568995Y-71799500D01*
X162568993Y-71799500D01*
X162431007Y-71799500D01*
X162431005Y-71799500D01*
X162295677Y-71826418D01*
X162295667Y-71826421D01*
X162168195Y-71879221D01*
X162168182Y-71879228D01*
X162053458Y-71955885D01*
X162053454Y-71955888D01*
X161955888Y-72053454D01*
X161955885Y-72053458D01*
X161879228Y-72168182D01*
X161879221Y-72168195D01*
X161826421Y-72295667D01*
X161826418Y-72295677D01*
X161799500Y-72431004D01*
X161799500Y-72431007D01*
X161799500Y-72568993D01*
X161799500Y-72568995D01*
X161799499Y-72568995D01*
X112400500Y-72568995D01*
X112400500Y-57068995D01*
X121799499Y-57068995D01*
X121826418Y-57204322D01*
X121826421Y-57204332D01*
X121879221Y-57331804D01*
X121879228Y-57331817D01*
X121955885Y-57446541D01*
X121955888Y-57446545D01*
X122053454Y-57544111D01*
X122053458Y-57544114D01*
X122168182Y-57620771D01*
X122168195Y-57620778D01*
X122230164Y-57646446D01*
X122295672Y-57673580D01*
X122295676Y-57673580D01*
X122295677Y-57673581D01*
X122431004Y-57700500D01*
X122431007Y-57700500D01*
X122568995Y-57700500D01*
X122660041Y-57682389D01*
X122704328Y-57673580D01*
X122831811Y-57620775D01*
X122946542Y-57544114D01*
X123044114Y-57446542D01*
X123120775Y-57331811D01*
X123173580Y-57204328D01*
X123189811Y-57122729D01*
X123200500Y-57068995D01*
X123200500Y-56931004D01*
X123173581Y-56795677D01*
X123173580Y-56795676D01*
X123173580Y-56795672D01*
X123156235Y-56753797D01*
X123120778Y-56668195D01*
X123120771Y-56668182D01*
X123044114Y-56553458D01*
X123044111Y-56553454D01*
X122946545Y-56455888D01*
X122946541Y-56455885D01*
X122831817Y-56379228D01*
X122831804Y-56379221D01*
X122704332Y-56326421D01*
X122704322Y-56326418D01*
X122568995Y-56299500D01*
X122568993Y-56299500D01*
X122431007Y-56299500D01*
X122431005Y-56299500D01*
X122295677Y-56326418D01*
X122295667Y-56326421D01*
X122168195Y-56379221D01*
X122168182Y-56379228D01*
X122053458Y-56455885D01*
X122053454Y-56455888D01*
X121955888Y-56553454D01*
X121955885Y-56553458D01*
X121879228Y-56668182D01*
X121879221Y-56668195D01*
X121826421Y-56795667D01*
X121826418Y-56795677D01*
X121799500Y-56931004D01*
X121799500Y-56931007D01*
X121799500Y-57068993D01*
X121799500Y-57068995D01*
X121799499Y-57068995D01*
X112400500Y-57068995D01*
X112400500Y-55076481D01*
X115223499Y-55076481D01*
X115253339Y-55226491D01*
X115253342Y-55226501D01*
X115311873Y-55367809D01*
X115311875Y-55367812D01*
X115396849Y-55494985D01*
X115396855Y-55494993D01*
X115505006Y-55603144D01*
X115505014Y-55603150D01*
X115632187Y-55688124D01*
X115632190Y-55688126D01*
X115773498Y-55746657D01*
X115773503Y-55746659D01*
X115773507Y-55746659D01*
X115773508Y-55746660D01*
X115923518Y-55776500D01*
X115923521Y-55776500D01*
X116076481Y-55776500D01*
X116177404Y-55756424D01*
X116226497Y-55746659D01*
X116367811Y-55688125D01*
X116494990Y-55603147D01*
X116562498Y-55535639D01*
X140117500Y-55535639D01*
X140117500Y-55734361D01*
X140133043Y-55832498D01*
X140148587Y-55930637D01*
X140209993Y-56119629D01*
X140209994Y-56119632D01*
X140276676Y-56250500D01*
X140300213Y-56296694D01*
X140417019Y-56457464D01*
X140557536Y-56597981D01*
X140718306Y-56714787D01*
X140794865Y-56753796D01*
X140874780Y-56794515D01*
X140925576Y-56842490D01*
X140942371Y-56910311D01*
X140919833Y-56976446D01*
X140874780Y-57015485D01*
X140718305Y-57095213D01*
X140557533Y-57212021D01*
X140417021Y-57352533D01*
X140300213Y-57513305D01*
X140209994Y-57690367D01*
X140209993Y-57690370D01*
X140148587Y-57879362D01*
X140117500Y-58075639D01*
X140117500Y-58274360D01*
X140148587Y-58470637D01*
X140209993Y-58659629D01*
X140209994Y-58659632D01*
X140262010Y-58761717D01*
X140300213Y-58836694D01*
X140417019Y-58997464D01*
X140557536Y-59137981D01*
X140718306Y-59254787D01*
X140836832Y-59315179D01*
X140874780Y-59334515D01*
X140925576Y-59382490D01*
X140942371Y-59450311D01*
X140919833Y-59516446D01*
X140874780Y-59555485D01*
X140718305Y-59635213D01*
X140557533Y-59752021D01*
X140417021Y-59892533D01*
X140300213Y-60053305D01*
X140209994Y-60230367D01*
X140209993Y-60230370D01*
X140148587Y-60419362D01*
X140117500Y-60615639D01*
X140117500Y-60814360D01*
X140148587Y-61010637D01*
X140209993Y-61199629D01*
X140209994Y-61199632D01*
X140300213Y-61376694D01*
X140417019Y-61537464D01*
X140557536Y-61677981D01*
X140718306Y-61794787D01*
X140797069Y-61834919D01*
X140874780Y-61874515D01*
X140925576Y-61922490D01*
X140942371Y-61990311D01*
X140919833Y-62056446D01*
X140874780Y-62095485D01*
X140718305Y-62175213D01*
X140557533Y-62292021D01*
X140417021Y-62432533D01*
X140300213Y-62593305D01*
X140209994Y-62770367D01*
X140209993Y-62770370D01*
X140148587Y-62959362D01*
X140117500Y-63155639D01*
X140117500Y-63354360D01*
X140148587Y-63550637D01*
X140209993Y-63739629D01*
X140209994Y-63739632D01*
X140300213Y-63916694D01*
X140417019Y-64077464D01*
X140557536Y-64217981D01*
X140718306Y-64334787D01*
X140836832Y-64395179D01*
X140874780Y-64414515D01*
X140925576Y-64462490D01*
X140942371Y-64530311D01*
X140919833Y-64596446D01*
X140874780Y-64635485D01*
X140718305Y-64715213D01*
X140557533Y-64832021D01*
X140417021Y-64972533D01*
X140300213Y-65133305D01*
X140209994Y-65310367D01*
X140209993Y-65310370D01*
X140148587Y-65499362D01*
X140148587Y-65499364D01*
X140117500Y-65695639D01*
X140117500Y-65894361D01*
X140121094Y-65917051D01*
X140148587Y-66090637D01*
X140209993Y-66279629D01*
X140209994Y-66279632D01*
X140284614Y-66426079D01*
X140300213Y-66456694D01*
X140417019Y-66617464D01*
X140557536Y-66757981D01*
X140718306Y-66874787D01*
X140836832Y-66935179D01*
X140874780Y-66954515D01*
X140925576Y-67002490D01*
X140942371Y-67070311D01*
X140919833Y-67136446D01*
X140874780Y-67175485D01*
X140718305Y-67255213D01*
X140557533Y-67372021D01*
X140417021Y-67512533D01*
X140300213Y-67673305D01*
X140209994Y-67850367D01*
X140209993Y-67850370D01*
X140148587Y-68039362D01*
X140117500Y-68235639D01*
X140117500Y-68434360D01*
X140148587Y-68630637D01*
X140209993Y-68819629D01*
X140209994Y-68819632D01*
X140300213Y-68996694D01*
X140417019Y-69157464D01*
X140557536Y-69297981D01*
X140718306Y-69414787D01*
X140738374Y-69425012D01*
X140874780Y-69494515D01*
X140925576Y-69542490D01*
X140942371Y-69610311D01*
X140919833Y-69676446D01*
X140874780Y-69715485D01*
X140718305Y-69795213D01*
X140557533Y-69912021D01*
X140417021Y-70052533D01*
X140300213Y-70213305D01*
X140209994Y-70390367D01*
X140209993Y-70390370D01*
X140148587Y-70579362D01*
X140117500Y-70775639D01*
X140117500Y-70974360D01*
X140148587Y-71170637D01*
X140209993Y-71359629D01*
X140209994Y-71359632D01*
X140300213Y-71536694D01*
X140417019Y-71697464D01*
X140557536Y-71837981D01*
X140718306Y-71954787D01*
X140805149Y-71999035D01*
X140895367Y-72045005D01*
X140895370Y-72045006D01*
X140989866Y-72075709D01*
X141084364Y-72106413D01*
X141280639Y-72137500D01*
X141280640Y-72137500D01*
X141479360Y-72137500D01*
X141479361Y-72137500D01*
X141675636Y-72106413D01*
X141864632Y-72045005D01*
X142041694Y-71954787D01*
X142202464Y-71837981D01*
X142342981Y-71697464D01*
X142459787Y-71536694D01*
X142550005Y-71359632D01*
X142611413Y-71170636D01*
X142642500Y-70974361D01*
X142642500Y-70775639D01*
X142611413Y-70579364D01*
X142550005Y-70390368D01*
X142550005Y-70390367D01*
X142478738Y-70250500D01*
X142459787Y-70213306D01*
X142342981Y-70052536D01*
X142202464Y-69912019D01*
X142041694Y-69795213D01*
X141885218Y-69715484D01*
X141834423Y-69667510D01*
X141817628Y-69599689D01*
X141840165Y-69533554D01*
X141885218Y-69494515D01*
X142041694Y-69414787D01*
X142202464Y-69297981D01*
X142342981Y-69157464D01*
X142459787Y-68996694D01*
X142550005Y-68819632D01*
X142611413Y-68630636D01*
X142642500Y-68434361D01*
X142642500Y-68235639D01*
X142611413Y-68039364D01*
X142580709Y-67944866D01*
X142550006Y-67850370D01*
X142550005Y-67850367D01*
X142459786Y-67673305D01*
X142398792Y-67589354D01*
X142342981Y-67512536D01*
X142202464Y-67372019D01*
X142041694Y-67255213D01*
X141885218Y-67175484D01*
X141834423Y-67127510D01*
X141817628Y-67059689D01*
X141840165Y-66993554D01*
X141885218Y-66954515D01*
X142041694Y-66874787D01*
X142202464Y-66757981D01*
X142342981Y-66617464D01*
X142459787Y-66456694D01*
X142550005Y-66279632D01*
X142611413Y-66090636D01*
X142642500Y-65894361D01*
X142642500Y-65695639D01*
X142611413Y-65499364D01*
X142550005Y-65310368D01*
X142550005Y-65310367D01*
X142459786Y-65133305D01*
X142342981Y-64972536D01*
X142202464Y-64832019D01*
X142041694Y-64715213D01*
X141885218Y-64635484D01*
X141834423Y-64587510D01*
X141817628Y-64519689D01*
X141840165Y-64453554D01*
X141885218Y-64414515D01*
X142041694Y-64334787D01*
X142202464Y-64217981D01*
X142342981Y-64077464D01*
X142459787Y-63916694D01*
X142550005Y-63739632D01*
X142611413Y-63550636D01*
X142642500Y-63354361D01*
X142642500Y-63155639D01*
X142611413Y-62959364D01*
X142550005Y-62770368D01*
X142550005Y-62770367D01*
X142459786Y-62593305D01*
X142445702Y-62573920D01*
X142342981Y-62432536D01*
X142202464Y-62292019D01*
X142041694Y-62175213D01*
X141885218Y-62095484D01*
X141834423Y-62047510D01*
X141817628Y-61979689D01*
X141840165Y-61913554D01*
X141885218Y-61874515D01*
X142041694Y-61794787D01*
X142202464Y-61677981D01*
X142342981Y-61537464D01*
X142459787Y-61376694D01*
X142550005Y-61199632D01*
X142611413Y-61010636D01*
X142642500Y-60814361D01*
X142642500Y-60615639D01*
X142611413Y-60419364D01*
X142550005Y-60230368D01*
X142550005Y-60230367D01*
X142459786Y-60053305D01*
X142342981Y-59892536D01*
X142202464Y-59752019D01*
X142041694Y-59635213D01*
X141885218Y-59555484D01*
X141834423Y-59507510D01*
X141817628Y-59439689D01*
X141840165Y-59373554D01*
X141885218Y-59334515D01*
X142041694Y-59254787D01*
X142202464Y-59137981D01*
X142342981Y-58997464D01*
X142459787Y-58836694D01*
X142550005Y-58659632D01*
X142611413Y-58470636D01*
X142642500Y-58274361D01*
X142642500Y-58075639D01*
X142611413Y-57879364D01*
X142550005Y-57690368D01*
X142550005Y-57690367D01*
X142503910Y-57599901D01*
X142459787Y-57513306D01*
X142342981Y-57352536D01*
X142202464Y-57212019D01*
X142041694Y-57095213D01*
X141885218Y-57015484D01*
X141834423Y-56967510D01*
X141817628Y-56899689D01*
X141840165Y-56833554D01*
X141885218Y-56794515D01*
X142041694Y-56714787D01*
X142202464Y-56597981D01*
X142342981Y-56457464D01*
X142459787Y-56296694D01*
X142550005Y-56119632D01*
X142611413Y-55930636D01*
X142642500Y-55734361D01*
X142642500Y-55535639D01*
X155357500Y-55535639D01*
X155357500Y-55734361D01*
X155373043Y-55832498D01*
X155388587Y-55930637D01*
X155449993Y-56119629D01*
X155449994Y-56119632D01*
X155516676Y-56250500D01*
X155540213Y-56296694D01*
X155657019Y-56457464D01*
X155797536Y-56597981D01*
X155958306Y-56714787D01*
X156115332Y-56794796D01*
X156166127Y-56842769D01*
X156182922Y-56910590D01*
X156160385Y-56976725D01*
X156115332Y-57015764D01*
X155958566Y-57095641D01*
X155921283Y-57122729D01*
X155921282Y-57122730D01*
X156535906Y-57737352D01*
X156448429Y-57760792D01*
X156347070Y-57819311D01*
X156264311Y-57902070D01*
X156205792Y-58003429D01*
X156182352Y-58090905D01*
X155567730Y-57476282D01*
X155567729Y-57476283D01*
X155540643Y-57513564D01*
X155450457Y-57690562D01*
X155389075Y-57879476D01*
X155389075Y-57879479D01*
X155358000Y-58075678D01*
X155358000Y-58274321D01*
X155389075Y-58470520D01*
X155389075Y-58470523D01*
X155450457Y-58659437D01*
X155540641Y-58836432D01*
X155567730Y-58873715D01*
X155567731Y-58873716D01*
X156182352Y-58259094D01*
X156205792Y-58346571D01*
X156264311Y-58447930D01*
X156347070Y-58530689D01*
X156448429Y-58589208D01*
X156535905Y-58612647D01*
X155921283Y-59227268D01*
X155921283Y-59227269D01*
X155958567Y-59254358D01*
X156115331Y-59334234D01*
X156166127Y-59382209D01*
X156182922Y-59450030D01*
X156160384Y-59516165D01*
X156115331Y-59555204D01*
X155958305Y-59635213D01*
X155797533Y-59752021D01*
X155657021Y-59892533D01*
X155540213Y-60053305D01*
X155449994Y-60230367D01*
X155449993Y-60230370D01*
X155388587Y-60419362D01*
X155357500Y-60615639D01*
X155357500Y-60814360D01*
X155388587Y-61010637D01*
X155449993Y-61199629D01*
X155449994Y-61199632D01*
X155540213Y-61376694D01*
X155657019Y-61537464D01*
X155797536Y-61677981D01*
X155958306Y-61794787D01*
X156037069Y-61834919D01*
X156114780Y-61874515D01*
X156165576Y-61922490D01*
X156182371Y-61990311D01*
X156159833Y-62056446D01*
X156114780Y-62095485D01*
X155958305Y-62175213D01*
X155797533Y-62292021D01*
X155657021Y-62432533D01*
X155540213Y-62593305D01*
X155449994Y-62770367D01*
X155449993Y-62770370D01*
X155388587Y-62959362D01*
X155357500Y-63155639D01*
X155357500Y-63354360D01*
X155388587Y-63550637D01*
X155449993Y-63739629D01*
X155449994Y-63739632D01*
X155540213Y-63916694D01*
X155657019Y-64077464D01*
X155797536Y-64217981D01*
X155958306Y-64334787D01*
X156076832Y-64395179D01*
X156114780Y-64414515D01*
X156165576Y-64462490D01*
X156182371Y-64530311D01*
X156159833Y-64596446D01*
X156114780Y-64635485D01*
X155958305Y-64715213D01*
X155797533Y-64832021D01*
X155657021Y-64972533D01*
X155540213Y-65133305D01*
X155449994Y-65310367D01*
X155449993Y-65310370D01*
X155388587Y-65499362D01*
X155388587Y-65499364D01*
X155357500Y-65695639D01*
X155357500Y-65894361D01*
X155361094Y-65917051D01*
X155388587Y-66090637D01*
X155449993Y-66279629D01*
X155449994Y-66279632D01*
X155524614Y-66426079D01*
X155540213Y-66456694D01*
X155657019Y-66617464D01*
X155797536Y-66757981D01*
X155958306Y-66874787D01*
X156076832Y-66935179D01*
X156114780Y-66954515D01*
X156165576Y-67002490D01*
X156182371Y-67070311D01*
X156159833Y-67136446D01*
X156114780Y-67175485D01*
X155958305Y-67255213D01*
X155797533Y-67372021D01*
X155657021Y-67512533D01*
X155540213Y-67673305D01*
X155449994Y-67850367D01*
X155449993Y-67850370D01*
X155388587Y-68039362D01*
X155357500Y-68235639D01*
X155357500Y-68434360D01*
X155388587Y-68630637D01*
X155449993Y-68819629D01*
X155449994Y-68819632D01*
X155540213Y-68996694D01*
X155657019Y-69157464D01*
X155797536Y-69297981D01*
X155958306Y-69414787D01*
X155978374Y-69425012D01*
X156114780Y-69494515D01*
X156165576Y-69542490D01*
X156182371Y-69610311D01*
X156159833Y-69676446D01*
X156114780Y-69715485D01*
X155958305Y-69795213D01*
X155797533Y-69912021D01*
X155657021Y-70052533D01*
X155540213Y-70213305D01*
X155449994Y-70390367D01*
X155449993Y-70390370D01*
X155388587Y-70579362D01*
X155357500Y-70775639D01*
X155357500Y-70974360D01*
X155388587Y-71170637D01*
X155449993Y-71359629D01*
X155449994Y-71359632D01*
X155540213Y-71536694D01*
X155657019Y-71697464D01*
X155797536Y-71837981D01*
X155958306Y-71954787D01*
X156045149Y-71999035D01*
X156135367Y-72045005D01*
X156135370Y-72045006D01*
X156229866Y-72075709D01*
X156324364Y-72106413D01*
X156520639Y-72137500D01*
X156520640Y-72137500D01*
X156719360Y-72137500D01*
X156719361Y-72137500D01*
X156915636Y-72106413D01*
X157104632Y-72045005D01*
X157281694Y-71954787D01*
X157442464Y-71837981D01*
X157582981Y-71697464D01*
X157699787Y-71536694D01*
X157790005Y-71359632D01*
X157851413Y-71170636D01*
X157882500Y-70974361D01*
X157882500Y-70775639D01*
X157851413Y-70579364D01*
X157790005Y-70390368D01*
X157790005Y-70390367D01*
X157718738Y-70250500D01*
X157699787Y-70213306D01*
X157582981Y-70052536D01*
X157442464Y-69912019D01*
X157281694Y-69795213D01*
X157125218Y-69715484D01*
X157074423Y-69667510D01*
X157057628Y-69599689D01*
X157066409Y-69573920D01*
X179749499Y-69573920D01*
X179778340Y-69718907D01*
X179778343Y-69718917D01*
X179834912Y-69855488D01*
X179834919Y-69855501D01*
X179917048Y-69978415D01*
X179917051Y-69978419D01*
X180021580Y-70082948D01*
X180021584Y-70082951D01*
X180144498Y-70165080D01*
X180144511Y-70165087D01*
X180260921Y-70213305D01*
X180281087Y-70221658D01*
X180281091Y-70221658D01*
X180281092Y-70221659D01*
X180426079Y-70250500D01*
X180426082Y-70250500D01*
X180573920Y-70250500D01*
X180671462Y-70231096D01*
X180718913Y-70221658D01*
X180855495Y-70165084D01*
X180978416Y-70082951D01*
X181082951Y-69978416D01*
X181165084Y-69855495D01*
X181221658Y-69718913D01*
X181236642Y-69643587D01*
X181250500Y-69573920D01*
X181250500Y-69426079D01*
X181221659Y-69281092D01*
X181221658Y-69281091D01*
X181221658Y-69281087D01*
X181170452Y-69157464D01*
X181165087Y-69144511D01*
X181165080Y-69144498D01*
X181082951Y-69021584D01*
X181082948Y-69021580D01*
X180978418Y-68917050D01*
X180950721Y-68898544D01*
X180950720Y-68898543D01*
X180855501Y-68834919D01*
X180855488Y-68834912D01*
X180771958Y-68800313D01*
X183149500Y-68800313D01*
X183149500Y-69012887D01*
X183182754Y-69222843D01*
X183245120Y-69414786D01*
X183248444Y-69425014D01*
X183344951Y-69614420D01*
X183469890Y-69786386D01*
X183583430Y-69899926D01*
X183616915Y-69961249D01*
X183611931Y-70030941D01*
X183570059Y-70086874D01*
X183539083Y-70103789D01*
X183407669Y-70152803D01*
X183407664Y-70152806D01*
X183292455Y-70239052D01*
X183292452Y-70239055D01*
X183206206Y-70354264D01*
X183206202Y-70354271D01*
X183155908Y-70489117D01*
X183149501Y-70548716D01*
X183149501Y-70548723D01*
X183149500Y-70548735D01*
X183149500Y-72344470D01*
X183149501Y-72344476D01*
X183155908Y-72404083D01*
X183206202Y-72538928D01*
X183206206Y-72538935D01*
X183292452Y-72654144D01*
X183292455Y-72654147D01*
X183407664Y-72740393D01*
X183407671Y-72740397D01*
X183542517Y-72790691D01*
X183542516Y-72790691D01*
X183549444Y-72791435D01*
X183602127Y-72797100D01*
X185397872Y-72797099D01*
X185457483Y-72790691D01*
X185592331Y-72740396D01*
X185707546Y-72654146D01*
X185793796Y-72538931D01*
X185844091Y-72404083D01*
X185850500Y-72344473D01*
X185850499Y-70548728D01*
X185844091Y-70489117D01*
X185793796Y-70354269D01*
X185793795Y-70354268D01*
X185793793Y-70354264D01*
X185707547Y-70239055D01*
X185707544Y-70239052D01*
X185592335Y-70152806D01*
X185592328Y-70152802D01*
X185460917Y-70103789D01*
X185404983Y-70061918D01*
X185380566Y-69996453D01*
X185395418Y-69928180D01*
X185416563Y-69899932D01*
X185530104Y-69786392D01*
X185655051Y-69614416D01*
X185751557Y-69425012D01*
X185817246Y-69222843D01*
X185850500Y-69012887D01*
X185850500Y-68800313D01*
X185817246Y-68590357D01*
X185751557Y-68388188D01*
X185655051Y-68198784D01*
X185655049Y-68198781D01*
X185655048Y-68198779D01*
X185530109Y-68026813D01*
X185379786Y-67876490D01*
X185207820Y-67751551D01*
X185018414Y-67655044D01*
X185018413Y-67655043D01*
X185018412Y-67655043D01*
X184816243Y-67589354D01*
X184816241Y-67589353D01*
X184816240Y-67589353D01*
X184654957Y-67563808D01*
X184606287Y-67556100D01*
X184393713Y-67556100D01*
X184345042Y-67563808D01*
X184183760Y-67589353D01*
X183981585Y-67655044D01*
X183792179Y-67751551D01*
X183620213Y-67876490D01*
X183469890Y-68026813D01*
X183344951Y-68198779D01*
X183248444Y-68388185D01*
X183182753Y-68590360D01*
X183176374Y-68630636D01*
X183149500Y-68800313D01*
X180771958Y-68800313D01*
X180718917Y-68778343D01*
X180718907Y-68778340D01*
X180573920Y-68749500D01*
X180573918Y-68749500D01*
X180426082Y-68749500D01*
X180426080Y-68749500D01*
X180281092Y-68778340D01*
X180281082Y-68778343D01*
X180144511Y-68834912D01*
X180144498Y-68834919D01*
X180021584Y-68917048D01*
X180021580Y-68917051D01*
X179917051Y-69021580D01*
X179917048Y-69021584D01*
X179834919Y-69144498D01*
X179834912Y-69144511D01*
X179778343Y-69281082D01*
X179778340Y-69281092D01*
X179749500Y-69426079D01*
X179749500Y-69426082D01*
X179749500Y-69573918D01*
X179749500Y-69573920D01*
X179749499Y-69573920D01*
X157066409Y-69573920D01*
X157080165Y-69533554D01*
X157125218Y-69494515D01*
X157281694Y-69414787D01*
X157442464Y-69297981D01*
X157582981Y-69157464D01*
X157699787Y-68996694D01*
X157790005Y-68819632D01*
X157851413Y-68630636D01*
X157882500Y-68434361D01*
X157882500Y-68235639D01*
X157851413Y-68039364D01*
X157820709Y-67944866D01*
X157790006Y-67850370D01*
X157790005Y-67850367D01*
X157699786Y-67673305D01*
X157638792Y-67589354D01*
X157582981Y-67512536D01*
X157442464Y-67372019D01*
X157281694Y-67255213D01*
X157125218Y-67175484D01*
X157074423Y-67127510D01*
X157057628Y-67059689D01*
X157080165Y-66993554D01*
X157125218Y-66954515D01*
X157281694Y-66874787D01*
X157442464Y-66757981D01*
X157582981Y-66617464D01*
X157614618Y-66573920D01*
X163249499Y-66573920D01*
X163278340Y-66718907D01*
X163278343Y-66718917D01*
X163334912Y-66855488D01*
X163334919Y-66855501D01*
X163417048Y-66978415D01*
X163417051Y-66978419D01*
X163521580Y-67082948D01*
X163521584Y-67082951D01*
X163644498Y-67165080D01*
X163644511Y-67165087D01*
X163781082Y-67221656D01*
X163781087Y-67221658D01*
X163781091Y-67221658D01*
X163781092Y-67221659D01*
X163926079Y-67250500D01*
X163926082Y-67250500D01*
X164073920Y-67250500D01*
X164171462Y-67231096D01*
X164218913Y-67221658D01*
X164355495Y-67165084D01*
X164478416Y-67082951D01*
X164582951Y-66978416D01*
X164665084Y-66855495D01*
X164721658Y-66718913D01*
X164750500Y-66573918D01*
X164750500Y-66426082D01*
X164750500Y-66426079D01*
X164721659Y-66281092D01*
X164721658Y-66281091D01*
X164721658Y-66281087D01*
X164721054Y-66279629D01*
X164665087Y-66144511D01*
X164665080Y-66144498D01*
X164582951Y-66021584D01*
X164582948Y-66021580D01*
X164478419Y-65917051D01*
X164478415Y-65917048D01*
X164355501Y-65834919D01*
X164355488Y-65834912D01*
X164218917Y-65778343D01*
X164218907Y-65778340D01*
X164073920Y-65749500D01*
X164073918Y-65749500D01*
X163926082Y-65749500D01*
X163926080Y-65749500D01*
X163781092Y-65778340D01*
X163781082Y-65778343D01*
X163644511Y-65834912D01*
X163644498Y-65834919D01*
X163521584Y-65917048D01*
X163521580Y-65917051D01*
X163417051Y-66021580D01*
X163417048Y-66021584D01*
X163334919Y-66144498D01*
X163334912Y-66144511D01*
X163278343Y-66281082D01*
X163278340Y-66281092D01*
X163249500Y-66426079D01*
X163249500Y-66426082D01*
X163249500Y-66573918D01*
X163249500Y-66573920D01*
X163249499Y-66573920D01*
X157614618Y-66573920D01*
X157699787Y-66456694D01*
X157715386Y-66426079D01*
X157747174Y-66363694D01*
X157767703Y-66323401D01*
X157790005Y-66279632D01*
X157851413Y-66090636D01*
X157882500Y-65894361D01*
X157882500Y-65695639D01*
X157851413Y-65499364D01*
X157790005Y-65310368D01*
X157790005Y-65310367D01*
X157699786Y-65133305D01*
X157582981Y-64972536D01*
X157442464Y-64832019D01*
X157281694Y-64715213D01*
X157125218Y-64635484D01*
X157074423Y-64587510D01*
X157057628Y-64519689D01*
X157080165Y-64453554D01*
X157125218Y-64414515D01*
X157281694Y-64334787D01*
X157442464Y-64217981D01*
X157582981Y-64077464D01*
X157699787Y-63916694D01*
X157790005Y-63739632D01*
X157851413Y-63550636D01*
X157882500Y-63354361D01*
X157882500Y-63155639D01*
X157851413Y-62959364D01*
X157790005Y-62770368D01*
X157790005Y-62770367D01*
X157699786Y-62593305D01*
X157685702Y-62573920D01*
X176749499Y-62573920D01*
X176778340Y-62718907D01*
X176778343Y-62718917D01*
X176834912Y-62855488D01*
X176834919Y-62855501D01*
X176917048Y-62978415D01*
X176917051Y-62978419D01*
X177021580Y-63082948D01*
X177021584Y-63082951D01*
X177144498Y-63165080D01*
X177144511Y-63165087D01*
X177281082Y-63221656D01*
X177281087Y-63221658D01*
X177281091Y-63221658D01*
X177281092Y-63221659D01*
X177426079Y-63250500D01*
X177426082Y-63250500D01*
X177573920Y-63250500D01*
X177671462Y-63231096D01*
X177718913Y-63221658D01*
X177855495Y-63165084D01*
X177978416Y-63082951D01*
X178082951Y-62978416D01*
X178165084Y-62855495D01*
X178221658Y-62718913D01*
X178231096Y-62671462D01*
X178250500Y-62573920D01*
X178250500Y-62426079D01*
X178221659Y-62281092D01*
X178221658Y-62281091D01*
X178221658Y-62281087D01*
X178177804Y-62175213D01*
X178165087Y-62144511D01*
X178165080Y-62144498D01*
X178082951Y-62021584D01*
X178082948Y-62021580D01*
X177978419Y-61917051D01*
X177978415Y-61917048D01*
X177855501Y-61834919D01*
X177855488Y-61834912D01*
X177718917Y-61778343D01*
X177718907Y-61778340D01*
X177573920Y-61749500D01*
X177573918Y-61749500D01*
X177426082Y-61749500D01*
X177426080Y-61749500D01*
X177281092Y-61778340D01*
X177281082Y-61778343D01*
X177144511Y-61834912D01*
X177144498Y-61834919D01*
X177021584Y-61917048D01*
X177021580Y-61917051D01*
X176917051Y-62021580D01*
X176917048Y-62021584D01*
X176834919Y-62144498D01*
X176834912Y-62144511D01*
X176778343Y-62281082D01*
X176778340Y-62281092D01*
X176749500Y-62426079D01*
X176749500Y-62426082D01*
X176749500Y-62573918D01*
X176749500Y-62573920D01*
X176749499Y-62573920D01*
X157685702Y-62573920D01*
X157626820Y-62492876D01*
X157626819Y-62492874D01*
X157582983Y-62432539D01*
X157582978Y-62432533D01*
X157442466Y-62292021D01*
X157442464Y-62292019D01*
X157281694Y-62175213D01*
X157125218Y-62095484D01*
X157074423Y-62047510D01*
X157057628Y-61979689D01*
X157080165Y-61913554D01*
X157125218Y-61874515D01*
X157281694Y-61794787D01*
X157442464Y-61677981D01*
X157582981Y-61537464D01*
X157699787Y-61376694D01*
X157790005Y-61199632D01*
X157851413Y-61010636D01*
X157882500Y-60814361D01*
X157882500Y-60615639D01*
X157851413Y-60419364D01*
X157790005Y-60230368D01*
X157790005Y-60230367D01*
X157699786Y-60053305D01*
X157582981Y-59892536D01*
X157442464Y-59752019D01*
X157281694Y-59635213D01*
X157124667Y-59555203D01*
X157073872Y-59507229D01*
X157057077Y-59439408D01*
X157079614Y-59373273D01*
X157124669Y-59334234D01*
X157281422Y-59254364D01*
X157318715Y-59227268D01*
X157247139Y-59155692D01*
X156704095Y-58612647D01*
X156791571Y-58589208D01*
X156892930Y-58530689D01*
X156975689Y-58447930D01*
X157034208Y-58346571D01*
X157057647Y-58259094D01*
X157672268Y-58873715D01*
X157699362Y-58836425D01*
X157789542Y-58659437D01*
X157850924Y-58470523D01*
X157850924Y-58470520D01*
X157882000Y-58274321D01*
X157882000Y-58075679D01*
X157855486Y-57908283D01*
X157855485Y-57908278D01*
X157850922Y-57879472D01*
X157789542Y-57690562D01*
X157699358Y-57513567D01*
X157672268Y-57476283D01*
X157057647Y-58090904D01*
X157034208Y-58003429D01*
X156975689Y-57902070D01*
X156892930Y-57819311D01*
X156791571Y-57760792D01*
X156704094Y-57737352D01*
X157318716Y-57122731D01*
X157318715Y-57122730D01*
X157281432Y-57095641D01*
X157124668Y-57015765D01*
X157073872Y-56967790D01*
X157057077Y-56899969D01*
X157079615Y-56833834D01*
X157124667Y-56794796D01*
X157281694Y-56714787D01*
X157442464Y-56597981D01*
X157582981Y-56457464D01*
X157699787Y-56296694D01*
X157790005Y-56119632D01*
X157804858Y-56073920D01*
X169749499Y-56073920D01*
X169778340Y-56218907D01*
X169778343Y-56218917D01*
X169834912Y-56355488D01*
X169834919Y-56355501D01*
X169917048Y-56478415D01*
X169917051Y-56478419D01*
X170021580Y-56582948D01*
X170021584Y-56582951D01*
X170144498Y-56665080D01*
X170144511Y-56665087D01*
X170264496Y-56714786D01*
X170281087Y-56721658D01*
X170281091Y-56721658D01*
X170281092Y-56721659D01*
X170426079Y-56750500D01*
X170426082Y-56750500D01*
X170573920Y-56750500D01*
X170671462Y-56731096D01*
X170718913Y-56721658D01*
X170824547Y-56677902D01*
X170855488Y-56665087D01*
X170855488Y-56665086D01*
X170855495Y-56665084D01*
X170978416Y-56582951D01*
X171082951Y-56478416D01*
X171165084Y-56355495D01*
X171221658Y-56218913D01*
X171241407Y-56119632D01*
X171250500Y-56073920D01*
X171250500Y-55926079D01*
X171221659Y-55781092D01*
X171221658Y-55781091D01*
X171221658Y-55781087D01*
X171207398Y-55746660D01*
X171165087Y-55644511D01*
X171165080Y-55644498D01*
X171117921Y-55573920D01*
X171749499Y-55573920D01*
X171778340Y-55718907D01*
X171778343Y-55718917D01*
X171834912Y-55855488D01*
X171834919Y-55855501D01*
X171917048Y-55978415D01*
X171917051Y-55978419D01*
X172021580Y-56082948D01*
X172021584Y-56082951D01*
X172144498Y-56165080D01*
X172144511Y-56165087D01*
X172281082Y-56221656D01*
X172281087Y-56221658D01*
X172281091Y-56221658D01*
X172281092Y-56221659D01*
X172426079Y-56250500D01*
X172426082Y-56250500D01*
X172573920Y-56250500D01*
X172671462Y-56231096D01*
X172718913Y-56221658D01*
X172855495Y-56165084D01*
X172978416Y-56082951D01*
X173082951Y-55978416D01*
X173165084Y-55855495D01*
X173221658Y-55718913D01*
X173236459Y-55644505D01*
X173250500Y-55573920D01*
X173250500Y-55426079D01*
X173221659Y-55281092D01*
X173221658Y-55281091D01*
X173221658Y-55281087D01*
X173199044Y-55226491D01*
X173165087Y-55144511D01*
X173165080Y-55144498D01*
X173082951Y-55021584D01*
X173082948Y-55021580D01*
X172978419Y-54917051D01*
X172978415Y-54917048D01*
X172855501Y-54834919D01*
X172855488Y-54834912D01*
X172718917Y-54778343D01*
X172718907Y-54778340D01*
X172573920Y-54749500D01*
X172573918Y-54749500D01*
X172426082Y-54749500D01*
X172426080Y-54749500D01*
X172281092Y-54778340D01*
X172281082Y-54778343D01*
X172144511Y-54834912D01*
X172144498Y-54834919D01*
X172021584Y-54917048D01*
X172021580Y-54917051D01*
X171917051Y-55021580D01*
X171917048Y-55021584D01*
X171834919Y-55144498D01*
X171834912Y-55144511D01*
X171778343Y-55281082D01*
X171778340Y-55281092D01*
X171749500Y-55426079D01*
X171749500Y-55426082D01*
X171749500Y-55573918D01*
X171749500Y-55573920D01*
X171749499Y-55573920D01*
X171117921Y-55573920D01*
X171082951Y-55521584D01*
X171082948Y-55521580D01*
X170978419Y-55417051D01*
X170978415Y-55417048D01*
X170855501Y-55334919D01*
X170855488Y-55334912D01*
X170718917Y-55278343D01*
X170718907Y-55278340D01*
X170573920Y-55249500D01*
X170573918Y-55249500D01*
X170426082Y-55249500D01*
X170426080Y-55249500D01*
X170281092Y-55278340D01*
X170281082Y-55278343D01*
X170144511Y-55334912D01*
X170144498Y-55334919D01*
X170021584Y-55417048D01*
X170021580Y-55417051D01*
X169917051Y-55521580D01*
X169917048Y-55521584D01*
X169834919Y-55644498D01*
X169834912Y-55644511D01*
X169778343Y-55781082D01*
X169778340Y-55781092D01*
X169749500Y-55926079D01*
X169749500Y-55926082D01*
X169749500Y-56073918D01*
X169749500Y-56073920D01*
X169749499Y-56073920D01*
X157804858Y-56073920D01*
X157851413Y-55930636D01*
X157882500Y-55734361D01*
X157882500Y-55535639D01*
X157851413Y-55339364D01*
X157790005Y-55150368D01*
X157790005Y-55150367D01*
X157699786Y-54973305D01*
X157658913Y-54917048D01*
X157582981Y-54812536D01*
X157442464Y-54672019D01*
X157281694Y-54555213D01*
X157104632Y-54464994D01*
X157104629Y-54464993D01*
X156915637Y-54403587D01*
X156817498Y-54388043D01*
X156719361Y-54372500D01*
X156520639Y-54372500D01*
X156455214Y-54382862D01*
X156324362Y-54403587D01*
X156135370Y-54464993D01*
X156135367Y-54464994D01*
X155958305Y-54555213D01*
X155797533Y-54672021D01*
X155657021Y-54812533D01*
X155540213Y-54973305D01*
X155449994Y-55150367D01*
X155449993Y-55150370D01*
X155388587Y-55339362D01*
X155374852Y-55426082D01*
X155357500Y-55535639D01*
X142642500Y-55535639D01*
X142611413Y-55339364D01*
X142550005Y-55150368D01*
X142550005Y-55150367D01*
X142459786Y-54973305D01*
X142418913Y-54917048D01*
X142342981Y-54812536D01*
X142202464Y-54672019D01*
X142041694Y-54555213D01*
X141864632Y-54464994D01*
X141864629Y-54464993D01*
X141675637Y-54403587D01*
X141577498Y-54388043D01*
X141479361Y-54372500D01*
X141280639Y-54372500D01*
X141215214Y-54382862D01*
X141084362Y-54403587D01*
X140895370Y-54464993D01*
X140895367Y-54464994D01*
X140718305Y-54555213D01*
X140557533Y-54672021D01*
X140417021Y-54812533D01*
X140300213Y-54973305D01*
X140209994Y-55150367D01*
X140209993Y-55150370D01*
X140148587Y-55339362D01*
X140134852Y-55426082D01*
X140117500Y-55535639D01*
X116562498Y-55535639D01*
X116603147Y-55494990D01*
X116688125Y-55367811D01*
X116746659Y-55226497D01*
X116761802Y-55150368D01*
X116776500Y-55076481D01*
X116776500Y-54923518D01*
X116746660Y-54773508D01*
X116746659Y-54773507D01*
X116746659Y-54773503D01*
X116725184Y-54721658D01*
X116688126Y-54632190D01*
X116688124Y-54632187D01*
X116603150Y-54505014D01*
X116603144Y-54505006D01*
X116494993Y-54396855D01*
X116494985Y-54396849D01*
X116367812Y-54311875D01*
X116367809Y-54311873D01*
X116226501Y-54253342D01*
X116226491Y-54253339D01*
X116076481Y-54223500D01*
X116076479Y-54223500D01*
X115923521Y-54223500D01*
X115923519Y-54223500D01*
X115773508Y-54253339D01*
X115773498Y-54253342D01*
X115632190Y-54311873D01*
X115632187Y-54311875D01*
X115505014Y-54396849D01*
X115505006Y-54396855D01*
X115396855Y-54505006D01*
X115396849Y-54505014D01*
X115311875Y-54632187D01*
X115311873Y-54632190D01*
X115253342Y-54773498D01*
X115253339Y-54773508D01*
X115223500Y-54923518D01*
X115223500Y-54923521D01*
X115223500Y-55076479D01*
X115223500Y-55076481D01*
X115223499Y-55076481D01*
X112400500Y-55076481D01*
X112400500Y-52102135D01*
X119874500Y-52102135D01*
X119874500Y-53897870D01*
X119874501Y-53897876D01*
X119880908Y-53957483D01*
X119931202Y-54092328D01*
X119931206Y-54092335D01*
X120017452Y-54207544D01*
X120017455Y-54207547D01*
X120132664Y-54293793D01*
X120132671Y-54293797D01*
X120267517Y-54344091D01*
X120267516Y-54344091D01*
X120274444Y-54344835D01*
X120327127Y-54350500D01*
X122122872Y-54350499D01*
X122182483Y-54344091D01*
X122317331Y-54293796D01*
X122432546Y-54207546D01*
X122518796Y-54092331D01*
X122567810Y-53960916D01*
X122609681Y-53904984D01*
X122675145Y-53880566D01*
X122743418Y-53895417D01*
X122771673Y-53916569D01*
X122885213Y-54030109D01*
X123057179Y-54155048D01*
X123057181Y-54155049D01*
X123057184Y-54155051D01*
X123246588Y-54251557D01*
X123448757Y-54317246D01*
X123658713Y-54350500D01*
X123658714Y-54350500D01*
X123871286Y-54350500D01*
X123871287Y-54350500D01*
X124081243Y-54317246D01*
X124283412Y-54251557D01*
X124472816Y-54155051D01*
X124559138Y-54092335D01*
X124644786Y-54030109D01*
X124644788Y-54030106D01*
X124644792Y-54030104D01*
X124795104Y-53879792D01*
X124795106Y-53879788D01*
X124795109Y-53879786D01*
X124920048Y-53707820D01*
X124920049Y-53707819D01*
X124920051Y-53707816D01*
X125016557Y-53518412D01*
X125082246Y-53316243D01*
X125115500Y-53106287D01*
X125115500Y-52893713D01*
X125082246Y-52683757D01*
X125016557Y-52481588D01*
X124920051Y-52292184D01*
X124795104Y-52120208D01*
X124777031Y-52102135D01*
X127874500Y-52102135D01*
X127874500Y-53897870D01*
X127874501Y-53897876D01*
X127880908Y-53957483D01*
X127931202Y-54092328D01*
X127931206Y-54092335D01*
X128017452Y-54207544D01*
X128017455Y-54207547D01*
X128132664Y-54293793D01*
X128132671Y-54293797D01*
X128267517Y-54344091D01*
X128267516Y-54344091D01*
X128274444Y-54344835D01*
X128327127Y-54350500D01*
X130122872Y-54350499D01*
X130182483Y-54344091D01*
X130317331Y-54293796D01*
X130432546Y-54207546D01*
X130518796Y-54092331D01*
X130567810Y-53960916D01*
X130609681Y-53904984D01*
X130675145Y-53880566D01*
X130743418Y-53895417D01*
X130771673Y-53916569D01*
X130885213Y-54030109D01*
X131057179Y-54155048D01*
X131057181Y-54155049D01*
X131057184Y-54155051D01*
X131246588Y-54251557D01*
X131448757Y-54317246D01*
X131658713Y-54350500D01*
X131658714Y-54350500D01*
X131871286Y-54350500D01*
X131871287Y-54350500D01*
X132081243Y-54317246D01*
X132283412Y-54251557D01*
X132472816Y-54155051D01*
X132559138Y-54092335D01*
X132584484Y-54073920D01*
X169749499Y-54073920D01*
X169778340Y-54218907D01*
X169778343Y-54218917D01*
X169834912Y-54355488D01*
X169834919Y-54355501D01*
X169917048Y-54478415D01*
X169917051Y-54478419D01*
X170021580Y-54582948D01*
X170021584Y-54582951D01*
X170144498Y-54665080D01*
X170144511Y-54665087D01*
X170281082Y-54721656D01*
X170281087Y-54721658D01*
X170281091Y-54721658D01*
X170281092Y-54721659D01*
X170426079Y-54750500D01*
X170426082Y-54750500D01*
X170573920Y-54750500D01*
X170671462Y-54731096D01*
X170718913Y-54721658D01*
X170838748Y-54672021D01*
X170855488Y-54665087D01*
X170855488Y-54665086D01*
X170855495Y-54665084D01*
X170978416Y-54582951D01*
X170999232Y-54562135D01*
X183149500Y-54562135D01*
X183149500Y-56357870D01*
X183149501Y-56357876D01*
X183155908Y-56417483D01*
X183206202Y-56552328D01*
X183206206Y-56552335D01*
X183292452Y-56667544D01*
X183292455Y-56667547D01*
X183407664Y-56753793D01*
X183407671Y-56753797D01*
X183452618Y-56770561D01*
X183542517Y-56804091D01*
X183602127Y-56810500D01*
X183612685Y-56810499D01*
X183679723Y-56830179D01*
X183700372Y-56846818D01*
X184370591Y-57517037D01*
X184307007Y-57534075D01*
X184192993Y-57599901D01*
X184099901Y-57692993D01*
X184034075Y-57807007D01*
X184017037Y-57870591D01*
X183384728Y-57238282D01*
X183384727Y-57238282D01*
X183345380Y-57292439D01*
X183248904Y-57481782D01*
X183183242Y-57683869D01*
X183183242Y-57683872D01*
X183150000Y-57893753D01*
X183150000Y-58106246D01*
X183183242Y-58316127D01*
X183183242Y-58316130D01*
X183248904Y-58518217D01*
X183345375Y-58707550D01*
X183384728Y-58761716D01*
X184017037Y-58129408D01*
X184034075Y-58192993D01*
X184099901Y-58307007D01*
X184192993Y-58400099D01*
X184307007Y-58465925D01*
X184370590Y-58482962D01*
X183738282Y-59115269D01*
X183738282Y-59115270D01*
X183792449Y-59154624D01*
X183981782Y-59251095D01*
X184183870Y-59316757D01*
X184393754Y-59350000D01*
X184606246Y-59350000D01*
X184816127Y-59316757D01*
X184816130Y-59316757D01*
X185018217Y-59251095D01*
X185207554Y-59154622D01*
X185261716Y-59115270D01*
X185261717Y-59115270D01*
X184629408Y-58482962D01*
X184692993Y-58465925D01*
X184807007Y-58400099D01*
X184900099Y-58307007D01*
X184965925Y-58192993D01*
X184982962Y-58129408D01*
X185615270Y-58761717D01*
X185615270Y-58761716D01*
X185654622Y-58707554D01*
X185751095Y-58518217D01*
X185816757Y-58316130D01*
X185816757Y-58316127D01*
X185850000Y-58106246D01*
X185850000Y-57893753D01*
X185816757Y-57683872D01*
X185816757Y-57683869D01*
X185751095Y-57481782D01*
X185654624Y-57292449D01*
X185615270Y-57238282D01*
X185615269Y-57238282D01*
X184982962Y-57870590D01*
X184965925Y-57807007D01*
X184900099Y-57692993D01*
X184807007Y-57599901D01*
X184692993Y-57534075D01*
X184629409Y-57517037D01*
X185299627Y-56846818D01*
X185360950Y-56813333D01*
X185387307Y-56810499D01*
X185397872Y-56810499D01*
X185457483Y-56804091D01*
X185592331Y-56753796D01*
X185707546Y-56667546D01*
X185793796Y-56552331D01*
X185844091Y-56417483D01*
X185850500Y-56357873D01*
X185850499Y-54562128D01*
X185845299Y-54513757D01*
X185844091Y-54502516D01*
X185793797Y-54367671D01*
X185793793Y-54367664D01*
X185707547Y-54252455D01*
X185707544Y-54252452D01*
X185592335Y-54166206D01*
X185592328Y-54166202D01*
X185457482Y-54115908D01*
X185457483Y-54115908D01*
X185397883Y-54109501D01*
X185397881Y-54109500D01*
X185397873Y-54109500D01*
X185397864Y-54109500D01*
X183602129Y-54109500D01*
X183602123Y-54109501D01*
X183542516Y-54115908D01*
X183407671Y-54166202D01*
X183407664Y-54166206D01*
X183292455Y-54252452D01*
X183292452Y-54252455D01*
X183206206Y-54367664D01*
X183206202Y-54367671D01*
X183155908Y-54502517D01*
X183150243Y-54555213D01*
X183149501Y-54562123D01*
X183149500Y-54562135D01*
X170999232Y-54562135D01*
X171082951Y-54478416D01*
X171165084Y-54355495D01*
X171221658Y-54218913D01*
X171242147Y-54115909D01*
X171250500Y-54073920D01*
X171250500Y-53926079D01*
X171221659Y-53781092D01*
X171221658Y-53781091D01*
X171221658Y-53781087D01*
X171191310Y-53707820D01*
X171165087Y-53644511D01*
X171165080Y-53644498D01*
X171082951Y-53521584D01*
X171082948Y-53521580D01*
X170978419Y-53417051D01*
X170978415Y-53417048D01*
X170855501Y-53334919D01*
X170855488Y-53334912D01*
X170718917Y-53278343D01*
X170718907Y-53278340D01*
X170573920Y-53249500D01*
X170573918Y-53249500D01*
X170426082Y-53249500D01*
X170426080Y-53249500D01*
X170281092Y-53278340D01*
X170281082Y-53278343D01*
X170144511Y-53334912D01*
X170144498Y-53334919D01*
X170021584Y-53417048D01*
X170021580Y-53417051D01*
X169917051Y-53521580D01*
X169917048Y-53521584D01*
X169834919Y-53644498D01*
X169834912Y-53644511D01*
X169778343Y-53781082D01*
X169778340Y-53781092D01*
X169749500Y-53926079D01*
X169749500Y-53926082D01*
X169749500Y-54073918D01*
X169749500Y-54073920D01*
X169749499Y-54073920D01*
X132584484Y-54073920D01*
X132644786Y-54030109D01*
X132644788Y-54030106D01*
X132644792Y-54030104D01*
X132795104Y-53879792D01*
X132920051Y-53707816D01*
X133016557Y-53518412D01*
X133082246Y-53316243D01*
X133115500Y-53106287D01*
X133115500Y-52893713D01*
X133082246Y-52683757D01*
X133016557Y-52481588D01*
X132920051Y-52292184D01*
X132920049Y-52292181D01*
X132920048Y-52292179D01*
X132795109Y-52120213D01*
X132644786Y-51969890D01*
X132472820Y-51844951D01*
X132283414Y-51748444D01*
X132283413Y-51748443D01*
X132283412Y-51748443D01*
X132081243Y-51682754D01*
X132081241Y-51682753D01*
X132081240Y-51682753D01*
X131919957Y-51657208D01*
X131871287Y-51649500D01*
X131658713Y-51649500D01*
X131610042Y-51657208D01*
X131448760Y-51682753D01*
X131246585Y-51748444D01*
X131057179Y-51844951D01*
X130885215Y-51969889D01*
X130771673Y-52083431D01*
X130710350Y-52116915D01*
X130640658Y-52111931D01*
X130584725Y-52070059D01*
X130567810Y-52039082D01*
X130518797Y-51907671D01*
X130518793Y-51907664D01*
X130432547Y-51792455D01*
X130432544Y-51792452D01*
X130317335Y-51706206D01*
X130317328Y-51706202D01*
X130182482Y-51655908D01*
X130182483Y-51655908D01*
X130122883Y-51649501D01*
X130122881Y-51649500D01*
X130122873Y-51649500D01*
X130122864Y-51649500D01*
X128327129Y-51649500D01*
X128327123Y-51649501D01*
X128267516Y-51655908D01*
X128132671Y-51706202D01*
X128132664Y-51706206D01*
X128017455Y-51792452D01*
X128017452Y-51792455D01*
X127931206Y-51907664D01*
X127931202Y-51907671D01*
X127880908Y-52042517D01*
X127874501Y-52102116D01*
X127874500Y-52102135D01*
X124777031Y-52102135D01*
X124644792Y-51969896D01*
X124644786Y-51969890D01*
X124472820Y-51844951D01*
X124283414Y-51748444D01*
X124283413Y-51748443D01*
X124283412Y-51748443D01*
X124081243Y-51682754D01*
X124081241Y-51682753D01*
X124081240Y-51682753D01*
X123919957Y-51657208D01*
X123871287Y-51649500D01*
X123658713Y-51649500D01*
X123610042Y-51657208D01*
X123448760Y-51682753D01*
X123246585Y-51748444D01*
X123057179Y-51844951D01*
X122885215Y-51969889D01*
X122771673Y-52083431D01*
X122710350Y-52116915D01*
X122640658Y-52111931D01*
X122584725Y-52070059D01*
X122567810Y-52039082D01*
X122518797Y-51907671D01*
X122518793Y-51907664D01*
X122432547Y-51792455D01*
X122432544Y-51792452D01*
X122317335Y-51706206D01*
X122317328Y-51706202D01*
X122182482Y-51655908D01*
X122182483Y-51655908D01*
X122122883Y-51649501D01*
X122122881Y-51649500D01*
X122122873Y-51649500D01*
X122122864Y-51649500D01*
X120327129Y-51649500D01*
X120327123Y-51649501D01*
X120267516Y-51655908D01*
X120132671Y-51706202D01*
X120132664Y-51706206D01*
X120017455Y-51792452D01*
X120017452Y-51792455D01*
X119931206Y-51907664D01*
X119931202Y-51907671D01*
X119880908Y-52042517D01*
X119874501Y-52102116D01*
X119874500Y-52102135D01*
X112400500Y-52102135D01*
X112400500Y-51006961D01*
X112401280Y-50993078D01*
X112413966Y-50880485D01*
X112413966Y-50880479D01*
X112420142Y-50853418D01*
X112455256Y-50753068D01*
X112467299Y-50728062D01*
X112523863Y-50638040D01*
X112541168Y-50616341D01*
X112616341Y-50541168D01*
X112638040Y-50523863D01*
X112728062Y-50467299D01*
X112753068Y-50455256D01*
X112853418Y-50420142D01*
X112880481Y-50413966D01*
X112977769Y-50403004D01*
X112993078Y-50401280D01*
X113006961Y-50400500D01*
X113057583Y-50400500D01*
X187942417Y-50400500D01*
X187993039Y-50400500D01*
X188006922Y-50401279D01*
G37*
%TD.AperFunction*%
%TD*%
M02*
