%TF.GenerationSoftware,KiCad,Pcbnew,9.0.4*%
%TF.CreationDate,2026-04-13T15:36:15-04:00*%
%TF.ProjectId,MotorDriver2,4d6f746f-7244-4726-9976-6572322e6b69,rev?*%
%TF.SameCoordinates,Original*%
%TF.FileFunction,Copper,L1,Top*%
%TF.FilePolarity,Positive*%
%FSLAX46Y46*%
G04 Gerber Fmt 4.6, Leading zero omitted, Abs format (unit mm)*
G04 Created by KiCad (PCBNEW 9.0.4) date 2026-04-13 15:36:15*
%MOMM*%
%LPD*%
G01*
G04 APERTURE LIST*
G04 Aperture macros list*
%AMRoundRect*
0 Rectangle with rounded corners*
0 $1 Rounding radius*
0 $2 $3 $4 $5 $6 $7 $8 $9 X,Y pos of 4 corners*
0 Add a 4 corners polygon primitive as box body*
4,1,4,$2,$3,$4,$5,$6,$7,$8,$9,$2,$3,0*
0 Add four circle primitives for the rounded corners*
1,1,$1+$1,$2,$3*
1,1,$1+$1,$4,$5*
1,1,$1+$1,$6,$7*
1,1,$1+$1,$8,$9*
0 Add four rect primitives between the rounded corners*
20,1,$1+$1,$2,$3,$4,$5,0*
20,1,$1+$1,$4,$5,$6,$7,0*
20,1,$1+$1,$6,$7,$8,$9,0*
20,1,$1+$1,$8,$9,$2,$3,0*%
G04 Aperture macros list end*
%TA.AperFunction,SMDPad,CuDef*%
%ADD10R,1.000000X1.000000*%
%TD*%
%TA.AperFunction,SMDPad,CuDef*%
%ADD11RoundRect,0.250000X-1.150000X-0.250000X1.150000X-0.250000X1.150000X0.250000X-1.150000X0.250000X0*%
%TD*%
%TA.AperFunction,SMDPad,CuDef*%
%ADD12RoundRect,0.250000X-0.312500X-0.625000X0.312500X-0.625000X0.312500X0.625000X-0.312500X0.625000X0*%
%TD*%
%TA.AperFunction,ComponentPad*%
%ADD13R,1.700000X1.700000*%
%TD*%
%TA.AperFunction,ComponentPad*%
%ADD14C,1.700000*%
%TD*%
%TA.AperFunction,SMDPad,CuDef*%
%ADD15R,1.300000X2.000000*%
%TD*%
%TA.AperFunction,SMDPad,CuDef*%
%ADD16R,2.000000X2.000000*%
%TD*%
%TA.AperFunction,SMDPad,CuDef*%
%ADD17R,1.041400X3.505200*%
%TD*%
%TA.AperFunction,SMDPad,CuDef*%
%ADD18R,10.718800X7.696200*%
%TD*%
%TA.AperFunction,SMDPad,CuDef*%
%ADD19RoundRect,0.135000X-0.135000X-0.185000X0.135000X-0.185000X0.135000X0.185000X-0.135000X0.185000X0*%
%TD*%
%TA.AperFunction,SMDPad,CuDef*%
%ADD20RoundRect,0.140000X0.170000X-0.140000X0.170000X0.140000X-0.170000X0.140000X-0.170000X-0.140000X0*%
%TD*%
%TA.AperFunction,SMDPad,CuDef*%
%ADD21RoundRect,0.135000X-0.185000X0.135000X-0.185000X-0.135000X0.185000X-0.135000X0.185000X0.135000X0*%
%TD*%
%TA.AperFunction,SMDPad,CuDef*%
%ADD22RoundRect,0.135000X0.135000X0.185000X-0.135000X0.185000X-0.135000X-0.185000X0.135000X-0.185000X0*%
%TD*%
%TA.AperFunction,SMDPad,CuDef*%
%ADD23RoundRect,0.147500X0.172500X-0.147500X0.172500X0.147500X-0.172500X0.147500X-0.172500X-0.147500X0*%
%TD*%
%TA.AperFunction,SMDPad,CuDef*%
%ADD24R,3.505200X1.041400*%
%TD*%
%TA.AperFunction,SMDPad,CuDef*%
%ADD25R,7.696200X10.718800*%
%TD*%
%TA.AperFunction,SMDPad,CuDef*%
%ADD26RoundRect,0.140000X-0.170000X0.140000X-0.170000X-0.140000X0.170000X-0.140000X0.170000X0.140000X0*%
%TD*%
%TA.AperFunction,SMDPad,CuDef*%
%ADD27RoundRect,0.135000X0.185000X-0.135000X0.185000X0.135000X-0.185000X0.135000X-0.185000X-0.135000X0*%
%TD*%
%TA.AperFunction,SMDPad,CuDef*%
%ADD28RoundRect,0.225000X0.250000X-0.225000X0.250000X0.225000X-0.250000X0.225000X-0.250000X-0.225000X0*%
%TD*%
%TA.AperFunction,SMDPad,CuDef*%
%ADD29RoundRect,0.140000X0.140000X0.170000X-0.140000X0.170000X-0.140000X-0.170000X0.140000X-0.170000X0*%
%TD*%
%TA.AperFunction,SMDPad,CuDef*%
%ADD30RoundRect,0.147500X0.147500X0.172500X-0.147500X0.172500X-0.147500X-0.172500X0.147500X-0.172500X0*%
%TD*%
%TA.AperFunction,SMDPad,CuDef*%
%ADD31R,0.609600X0.304800*%
%TD*%
%TA.AperFunction,SMDPad,CuDef*%
%ADD32RoundRect,0.250000X-0.625000X0.312500X-0.625000X-0.312500X0.625000X-0.312500X0.625000X0.312500X0*%
%TD*%
%TA.AperFunction,SMDPad,CuDef*%
%ADD33RoundRect,0.150000X-0.512500X-0.150000X0.512500X-0.150000X0.512500X0.150000X-0.512500X0.150000X0*%
%TD*%
%TA.AperFunction,SMDPad,CuDef*%
%ADD34R,1.250000X0.600000*%
%TD*%
%TA.AperFunction,SMDPad,CuDef*%
%ADD35R,3.500000X1.950000*%
%TD*%
%TA.AperFunction,SMDPad,CuDef*%
%ADD36RoundRect,0.147500X-0.172500X0.147500X-0.172500X-0.147500X0.172500X-0.147500X0.172500X0.147500X0*%
%TD*%
%TA.AperFunction,SMDPad,CuDef*%
%ADD37R,1.981200X0.558800*%
%TD*%
%TA.AperFunction,SMDPad,CuDef*%
%ADD38R,1.200000X1.000000*%
%TD*%
%TA.AperFunction,SMDPad,CuDef*%
%ADD39RoundRect,0.225000X-0.225000X-0.250000X0.225000X-0.250000X0.225000X0.250000X-0.225000X0.250000X0*%
%TD*%
%TA.AperFunction,SMDPad,CuDef*%
%ADD40RoundRect,0.140000X-0.140000X-0.170000X0.140000X-0.170000X0.140000X0.170000X-0.140000X0.170000X0*%
%TD*%
%TA.AperFunction,SMDPad,CuDef*%
%ADD41R,0.304800X0.609600*%
%TD*%
%TA.AperFunction,SMDPad,CuDef*%
%ADD42RoundRect,0.152400X1.063600X0.609600X-1.063600X0.609600X-1.063600X-0.609600X1.063600X-0.609600X0*%
%TD*%
%TA.AperFunction,ComponentPad*%
%ADD43C,1.524000*%
%TD*%
%TA.AperFunction,SMDPad,CuDef*%
%ADD44RoundRect,0.152400X-1.063600X-0.609600X1.063600X-0.609600X1.063600X0.609600X-1.063600X0.609600X0*%
%TD*%
%TA.AperFunction,SMDPad,CuDef*%
%ADD45R,2.000000X1.300000*%
%TD*%
%TA.AperFunction,SMDPad,CuDef*%
%ADD46R,2.006600X2.159000*%
%TD*%
%TA.AperFunction,SMDPad,CuDef*%
%ADD47R,1.143000X0.609600*%
%TD*%
%TA.AperFunction,SMDPad,CuDef*%
%ADD48R,1.143000X0.304800*%
%TD*%
%TA.AperFunction,SMDPad,CuDef*%
%ADD49RoundRect,0.150000X0.512500X0.150000X-0.512500X0.150000X-0.512500X-0.150000X0.512500X-0.150000X0*%
%TD*%
%TA.AperFunction,SMDPad,CuDef*%
%ADD50R,1.475000X0.300000*%
%TD*%
%TA.AperFunction,SMDPad,CuDef*%
%ADD51R,0.300000X1.475000*%
%TD*%
%TA.AperFunction,SMDPad,CuDef*%
%ADD52RoundRect,0.250000X0.312500X1.450000X-0.312500X1.450000X-0.312500X-1.450000X0.312500X-1.450000X0*%
%TD*%
%TA.AperFunction,SMDPad,CuDef*%
%ADD53R,0.300000X0.300000*%
%TD*%
%TA.AperFunction,SMDPad,CuDef*%
%ADD54R,0.900000X0.300000*%
%TD*%
%TA.AperFunction,SMDPad,CuDef*%
%ADD55R,0.300000X0.900000*%
%TD*%
%TA.AperFunction,SMDPad,CuDef*%
%ADD56R,1.800000X1.800000*%
%TD*%
%TA.AperFunction,ViaPad*%
%ADD57C,0.400000*%
%TD*%
%TA.AperFunction,ViaPad*%
%ADD58C,0.500000*%
%TD*%
%TA.AperFunction,Conductor*%
%ADD59C,0.400000*%
%TD*%
%TA.AperFunction,Conductor*%
%ADD60C,0.200000*%
%TD*%
%TA.AperFunction,Conductor*%
%ADD61C,0.300000*%
%TD*%
%TA.AperFunction,Conductor*%
%ADD62C,0.328000*%
%TD*%
G04 APERTURE END LIST*
D10*
%TO.P,TP1,1,1*%
%TO.N,SPI2_MOSI*%
X152500000Y-79500000D03*
%TD*%
D11*
%TO.P,SW2,1,1*%
%TO.N,unconnected-(SW2-Pad1)*%
X129200000Y-96500000D03*
%TO.P,SW2,2,2*%
%TO.N,GND*%
X135000000Y-96500000D03*
%TO.P,SW2,3,3*%
%TO.N,unconnected-(SW2-Pad3)*%
X129200000Y-100500000D03*
%TO.P,SW2,4,4*%
%TO.N,NRST*%
X135000000Y-100500000D03*
%TD*%
D12*
%TO.P,R7,1*%
%TO.N,Net-(Q2-S)*%
X163233740Y-64500000D03*
%TO.P,R7,2*%
%TO.N,GND*%
X166158740Y-64500000D03*
%TD*%
D13*
%TO.P,J6,1,Pin_1*%
%TO.N,SWDIO*%
X115250000Y-76920000D03*
D14*
%TO.P,J6,2,Pin_2*%
%TO.N,GND*%
X115250000Y-79460000D03*
%TO.P,J6,3,Pin_3*%
%TO.N,BOOT*%
X115250000Y-82000000D03*
%TO.P,J6,4,Pin_4*%
%TO.N,3V3*%
X115250000Y-84540000D03*
%TD*%
D15*
%TO.P,VR3,A1,CCW*%
%TO.N,SensorBIn*%
X140600000Y-120000000D03*
D16*
%TO.P,VR3,B1,WIPER*%
%TO.N,SensorBOut*%
X141750000Y-124000000D03*
D15*
%TO.P,VR3,C1,CW*%
%TO.N,unconnected-(VR3-CW-PadC1)*%
X142900000Y-120000000D03*
%TD*%
D17*
%TO.P,Q5,1,G*%
%TO.N,Motor4a_PWM*%
X127460000Y-73128900D03*
D18*
%TO.P,Q5,2,D*%
%TO.N,/motors2/Motor4a-*%
X130000000Y-61966600D03*
D17*
%TO.P,Q5,3,S*%
%TO.N,Net-(Q5-S)*%
X132540000Y-73128900D03*
%TD*%
D19*
%TO.P,R14,1*%
%TO.N,SensorBOut*%
X149266200Y-106500000D03*
%TO.P,R14,2*%
%TO.N,SensorBFilt*%
X150286200Y-106500000D03*
%TD*%
D20*
%TO.P,C3,1*%
%TO.N,GND*%
X140531600Y-95497700D03*
%TO.P,C3,2*%
%TO.N,/stm32/PF0*%
X140531600Y-94537700D03*
%TD*%
D21*
%TO.P,R16,1*%
%TO.N,3V3*%
X157286200Y-109230000D03*
%TO.P,R16,2*%
%TO.N,SensorD_0.5V*%
X157286200Y-110250000D03*
%TD*%
D22*
%TO.P,R41,1*%
%TO.N,Motor3b_PWM*%
X165510000Y-92500000D03*
%TO.P,R41,2*%
%TO.N,GND*%
X164490000Y-92500000D03*
%TD*%
%TO.P,R13,1*%
%TO.N,SensorAOut*%
X148296200Y-106500000D03*
%TO.P,R13,2*%
%TO.N,SensorAFilt*%
X147276200Y-106500000D03*
%TD*%
D23*
%TO.P,D9,1,K*%
%TO.N,Net-(D9-K)*%
X133490000Y-106495000D03*
%TO.P,D9,2,A*%
%TO.N,Net-(D9-A)*%
X133490000Y-105525000D03*
%TD*%
D21*
%TO.P,R31,1*%
%TO.N,SensorB_0.5V*%
X144036200Y-113990000D03*
%TO.P,R31,2*%
%TO.N,GND*%
X144036200Y-115010000D03*
%TD*%
%TO.P,R42,1*%
%TO.N,Motor4b_PWM*%
X125990000Y-76490000D03*
%TO.P,R42,2*%
%TO.N,GND*%
X125990000Y-77510000D03*
%TD*%
D24*
%TO.P,Q1,1,G*%
%TO.N,Motor3a_PWM*%
X164999000Y-93960000D03*
D25*
%TO.P,Q1,2,D*%
%TO.N,/motors2/Motor3a-*%
X176161300Y-96500000D03*
D24*
%TO.P,Q1,3,S*%
%TO.N,Net-(Q1-S)*%
X164999000Y-99040000D03*
%TD*%
D20*
%TO.P,C_A2,1*%
%TO.N,SensorBOut*%
X145286200Y-115730000D03*
%TO.P,C_A2,2*%
%TO.N,SensorBIn*%
X145286200Y-114770000D03*
%TD*%
D26*
%TO.P,C9,1*%
%TO.N,3V3*%
X139000000Y-93040000D03*
%TO.P,C9,2*%
%TO.N,GND*%
X139000000Y-94000000D03*
%TD*%
D27*
%TO.P,R32,1*%
%TO.N,3V3*%
X156036200Y-115760000D03*
%TO.P,R32,2*%
%TO.N,SensorC_0.5V*%
X156036200Y-114740000D03*
%TD*%
D28*
%TO.P,C8,1*%
%TO.N,GND*%
X137131600Y-93612700D03*
%TO.P,C8,2*%
%TO.N,3V3*%
X137131600Y-92062700D03*
%TD*%
D21*
%TO.P,R18,1*%
%TO.N,SensorD_0.5V*%
X157296200Y-111470000D03*
%TO.P,R18,2*%
%TO.N,GND*%
X157296200Y-112490000D03*
%TD*%
D29*
%TO.P,C23,1*%
%TO.N,GND*%
X152480000Y-104000000D03*
%TO.P,C23,2*%
%TO.N,SensorCFilt*%
X151520000Y-104000000D03*
%TD*%
D27*
%TO.P,R25,1*%
%TO.N,SensorCOut*%
X153000000Y-106510000D03*
%TO.P,R25,2*%
%TO.N,SensorCFilt*%
X153000000Y-105490000D03*
%TD*%
D30*
%TO.P,D10,1,K*%
%TO.N,Net-(D10-K)*%
X131975000Y-106510000D03*
%TO.P,D10,2,A*%
%TO.N,Net-(D10-A)*%
X131005000Y-106510000D03*
%TD*%
D31*
%TO.P,D11,1,K*%
%TO.N,5V*%
X181500000Y-96669800D03*
%TO.P,D11,2,A*%
%TO.N,/motors2/Motor3a-*%
X181500000Y-97330200D03*
%TD*%
D26*
%TO.P,C17,1*%
%TO.N,3V3*%
X145286200Y-112020000D03*
%TO.P,C17,2*%
%TO.N,GND*%
X145286200Y-112980000D03*
%TD*%
D12*
%TO.P,R43,1*%
%TO.N,Net-(Q7-S)*%
X163787500Y-83750000D03*
%TO.P,R43,2*%
%TO.N,GND*%
X166712500Y-83750000D03*
%TD*%
D21*
%TO.P,R11,1*%
%TO.N,BOOT*%
X126000000Y-96490000D03*
%TO.P,R11,2*%
%TO.N,GND*%
X126000000Y-97510000D03*
%TD*%
%TO.P,R19,1*%
%TO.N,SensorA_0.5V*%
X142786200Y-111990000D03*
%TO.P,R19,2*%
%TO.N,GND*%
X142786200Y-113010000D03*
%TD*%
D19*
%TO.P,R27,1*%
%TO.N,Net-(IC2-VBUS)*%
X136980000Y-115510000D03*
%TO.P,R27,2*%
%TO.N,GND*%
X138000000Y-115510000D03*
%TD*%
D28*
%TO.P,C13,1*%
%TO.N,GND*%
X122250000Y-107275000D03*
%TO.P,C13,2*%
%TO.N,VBUS*%
X122250000Y-105725000D03*
%TD*%
D32*
%TO.P,R3,1*%
%TO.N,Net-(Q5-S)*%
X135000000Y-71514100D03*
%TO.P,R3,2*%
%TO.N,GND*%
X135000000Y-74439100D03*
%TD*%
D20*
%TO.P,C4,1*%
%TO.N,/stm32/PF1*%
X140531600Y-97387700D03*
%TO.P,C4,2*%
%TO.N,GND*%
X140531600Y-96427700D03*
%TD*%
D13*
%TO.P,Conn7,1,Pin_1*%
%TO.N,5V*%
X129225000Y-53000000D03*
D14*
%TO.P,Conn7,2,Pin_2*%
%TO.N,/motors2/Motor4a-*%
X131765000Y-53000000D03*
%TD*%
D22*
%TO.P,R28,1*%
%TO.N,Net-(IC2-VBUS)*%
X135500000Y-114010000D03*
%TO.P,R28,2*%
%TO.N,VBUS*%
X134480000Y-114010000D03*
%TD*%
D33*
%TO.P,U7,1,I/O1*%
%TO.N,USB_D+*%
X127362500Y-110050000D03*
%TO.P,U7,2,GND*%
%TO.N,GND*%
X127362500Y-111000000D03*
%TO.P,U7,3,I/O2*%
%TO.N,USB_D-*%
X127362500Y-111950000D03*
%TO.P,U7,4,I/O2*%
X129637500Y-111950000D03*
%TO.P,U7,5,VBUS*%
%TO.N,VBUS*%
X129637500Y-111000000D03*
%TO.P,U7,6,I/O1*%
%TO.N,USB_D+*%
X129637500Y-110050000D03*
%TD*%
D20*
%TO.P,C6,1*%
%TO.N,/stm32/PC15*%
X142500000Y-92460000D03*
%TO.P,C6,2*%
%TO.N,GND*%
X142500000Y-91500000D03*
%TD*%
D34*
%TO.P,U1,1,IN*%
%TO.N,VBUS*%
X124250000Y-105550000D03*
%TO.P,U1,2,GND*%
%TO.N,GND*%
X124250000Y-106500000D03*
%TO.P,U1,3,~{EN}*%
X124250000Y-107450000D03*
%TO.P,U1,4,~{FLAG}*%
%TO.N,unconnected-(U1-~{FLAG}-Pad4)*%
X126750000Y-107450000D03*
%TO.P,U1,5,OUT*%
%TO.N,5V_USB*%
X126750000Y-105550000D03*
%TD*%
D12*
%TO.P,R40,1*%
%TO.N,Net-(Q6-S)*%
X163787500Y-123750000D03*
%TO.P,R40,2*%
%TO.N,GND*%
X166712500Y-123750000D03*
%TD*%
D35*
%TO.P,C11,1,+*%
%TO.N,5V*%
X175750000Y-86000000D03*
%TO.P,C11,2,-*%
%TO.N,GND*%
X170250000Y-86000000D03*
%TD*%
%TO.P,C10,1,+*%
%TO.N,5V*%
X121250000Y-61000000D03*
%TO.P,C10,2,-*%
%TO.N,GND*%
X115750000Y-61000000D03*
%TD*%
D36*
%TO.P,D6,1,K*%
%TO.N,USER_BTN*%
X136600000Y-89515000D03*
%TO.P,D6,2,A*%
%TO.N,GND*%
X136600000Y-90485000D03*
%TD*%
D22*
%TO.P,R15,1*%
%TO.N,GND*%
X122020000Y-114000000D03*
%TO.P,R15,2*%
%TO.N,Net-(J1-CC2)*%
X121000000Y-114000000D03*
%TD*%
D11*
%TO.P,SW3,1,1*%
%TO.N,unconnected-(SW3-Pad1)*%
X116100000Y-92500000D03*
%TO.P,SW3,2,2*%
%TO.N,3V3*%
X121900000Y-92500000D03*
%TO.P,SW3,3,3*%
%TO.N,unconnected-(SW3-Pad3)*%
X116100000Y-96500000D03*
%TO.P,SW3,4,4*%
%TO.N,BOOT*%
X121900000Y-96500000D03*
%TD*%
D13*
%TO.P,J2,1,Pin_1*%
%TO.N,SensorAIn*%
X135315000Y-128500000D03*
D14*
%TO.P,J2,2,Pin_2*%
%TO.N,GND*%
X132775000Y-128500000D03*
%TD*%
D31*
%TO.P,D2,1,K*%
%TO.N,5V*%
X181500000Y-70010400D03*
%TO.P,D2,2,A*%
%TO.N,/motors1/Motor1b-*%
X181500000Y-69350000D03*
%TD*%
D37*
%TO.P,U6,1,1OUT*%
%TO.N,SensorAOut*%
X147572400Y-108190000D03*
%TO.P,U6,2,1IN-*%
%TO.N,SensorAIn*%
X147572400Y-109460000D03*
%TO.P,U6,3,1IN+*%
%TO.N,SensorA_0.5V*%
X147572400Y-110730000D03*
%TO.P,U6,4,VCC*%
%TO.N,3V3*%
X147572400Y-112000000D03*
%TO.P,U6,5,2IN+*%
%TO.N,SensorB_0.5V*%
X147572400Y-113270000D03*
%TO.P,U6,6,2IN-*%
%TO.N,SensorBIn*%
X147572400Y-114540000D03*
%TO.P,U6,7,2OUT*%
%TO.N,SensorBOut*%
X147572400Y-115810000D03*
%TO.P,U6,8,3OUT*%
%TO.N,SensorCOut*%
X152500000Y-115810000D03*
%TO.P,U6,9,3IN-*%
%TO.N,SensorCIn*%
X152500000Y-114540000D03*
%TO.P,U6,10,3IN+*%
%TO.N,SensorC_0.5V*%
X152500000Y-113270000D03*
%TO.P,U6,11,GND*%
%TO.N,GND*%
X152500000Y-112000000D03*
%TO.P,U6,12,4IN+*%
%TO.N,SensorD_0.5V*%
X152500000Y-110730000D03*
%TO.P,U6,13,4IN-*%
%TO.N,SensorDIn*%
X152500000Y-109460000D03*
%TO.P,U6,14,4OUT*%
%TO.N,SensorDOut*%
X152500000Y-108190000D03*
%TD*%
D38*
%TO.P,Y2,1,1*%
%TO.N,/stm32/PC15*%
X143950000Y-91730000D03*
%TO.P,Y2,2,2*%
%TO.N,/stm32/PC14*%
X143950000Y-90230000D03*
%TD*%
D21*
%TO.P,R38,1*%
%TO.N,Motor2a_PWM*%
X162000000Y-115490000D03*
%TO.P,R38,2*%
%TO.N,GND*%
X162000000Y-116510000D03*
%TD*%
D20*
%TO.P,C5,1*%
%TO.N,GND*%
X142500000Y-90480000D03*
%TO.P,C5,2*%
%TO.N,/stm32/PC14*%
X142500000Y-89520000D03*
%TD*%
D35*
%TO.P,C2,1,+*%
%TO.N,5V*%
X175750000Y-107500000D03*
%TO.P,C2,2,-*%
%TO.N,GND*%
X170250000Y-107500000D03*
%TD*%
D31*
%TO.P,D13,1,K*%
%TO.N,5V*%
X181500000Y-87419800D03*
%TO.P,D13,2,A*%
%TO.N,/motors2/Motor3b-*%
X181500000Y-88080200D03*
%TD*%
D12*
%TO.P,R4,1*%
%TO.N,Net-(Q3-S)*%
X163787500Y-80750000D03*
%TO.P,R4,2*%
%TO.N,GND*%
X166712500Y-80750000D03*
%TD*%
D39*
%TO.P,C25,1*%
%TO.N,GND*%
X131215000Y-115010000D03*
%TO.P,C25,2*%
%TO.N,3V3*%
X132765000Y-115010000D03*
%TD*%
D13*
%TO.P,VBAT1,1,Pin_1*%
%TO.N,Net-(VBAT1-Pin_1)*%
X184500000Y-55460000D03*
D14*
%TO.P,VBAT1,2,Pin_2*%
%TO.N,GND*%
X184500000Y-58000000D03*
%TD*%
D24*
%TO.P,Q6,1,G*%
%TO.N,Motor2a_PWM*%
X165050300Y-115672600D03*
D25*
%TO.P,Q6,2,D*%
%TO.N,/motors1/Motor2a-*%
X176212600Y-118212600D03*
D24*
%TO.P,Q6,3,S*%
%TO.N,Net-(Q6-S)*%
X165050300Y-120752600D03*
%TD*%
D27*
%TO.P,R35,1*%
%TO.N,3V3*%
X124450000Y-113470000D03*
%TO.P,R35,2*%
%TO.N,USB_D+*%
X124450000Y-112450000D03*
%TD*%
%TO.P,R2,1*%
%TO.N,Motor1a_PWM*%
X162000000Y-75010000D03*
%TO.P,R2,2*%
%TO.N,GND*%
X162000000Y-73990000D03*
%TD*%
D24*
%TO.P,Q3,1,G*%
%TO.N,Motor1a_PWM*%
X164999000Y-73460000D03*
D25*
%TO.P,Q3,2,D*%
%TO.N,/motors1/Motor1a-*%
X176161300Y-76000000D03*
D24*
%TO.P,Q3,3,S*%
%TO.N,Net-(Q3-S)*%
X164999000Y-78540000D03*
%TD*%
D27*
%TO.P,R24,1*%
%TO.N,SensorDOut*%
X154500000Y-107010000D03*
%TO.P,R24,2*%
%TO.N,SensorDFilt*%
X154500000Y-105990000D03*
%TD*%
D12*
%TO.P,R8,1*%
%TO.N,Net-(Q4-S)*%
X163787500Y-105000000D03*
%TO.P,R8,2*%
%TO.N,GND*%
X166712500Y-105000000D03*
%TD*%
D27*
%TO.P,R33,1*%
%TO.N,SensorC_0.5V*%
X154786200Y-113260000D03*
%TO.P,R33,2*%
%TO.N,GND*%
X154786200Y-112240000D03*
%TD*%
D40*
%TO.P,C26,1*%
%TO.N,GND*%
X132010000Y-113510000D03*
%TO.P,C26,2*%
%TO.N,3V3*%
X132970000Y-113510000D03*
%TD*%
D21*
%TO.P,R17,1*%
%TO.N,3V3*%
X142786200Y-109230000D03*
%TO.P,R17,2*%
%TO.N,SensorA_0.5V*%
X142786200Y-110250000D03*
%TD*%
%TO.P,R30,1*%
%TO.N,3V3*%
X144036200Y-111990000D03*
%TO.P,R30,2*%
%TO.N,SensorB_0.5V*%
X144036200Y-113010000D03*
%TD*%
D41*
%TO.P,D8,1,K*%
%TO.N,5V*%
X130169800Y-56000000D03*
%TO.P,D8,2,A*%
%TO.N,/motors2/Motor4a-*%
X130830200Y-56000000D03*
%TD*%
D36*
%TO.P,D7,1,K*%
%TO.N,BOOT*%
X124500000Y-96500000D03*
%TO.P,D7,2,A*%
%TO.N,GND*%
X124500000Y-97470000D03*
%TD*%
D42*
%TO.P,U3,1,GPIO2_A0_D0*%
%TO.N,unconnected-(U3-GPIO2_A0_D0-Pad1)*%
X140545000Y-55635000D03*
D43*
%TO.N,unconnected-(U3-GPIO2_A0_D0-Pad1)_1*%
X141380000Y-55635000D03*
D42*
%TO.P,U3,2,GPIO3_A1_D1*%
%TO.N,unconnected-(U3-GPIO3_A1_D1-Pad2)*%
X140545000Y-58175000D03*
D43*
%TO.N,unconnected-(U3-GPIO3_A1_D1-Pad2)_1*%
X141380000Y-58175000D03*
D42*
%TO.P,U3,3,GPIO4_A2_D2*%
%TO.N,CS*%
X140545000Y-60715000D03*
D43*
X141380000Y-60715000D03*
D42*
%TO.P,U3,4,GPIO5_A3_D3*%
%TO.N,unconnected-(U3-GPIO5_A3_D3-Pad4)_1*%
X140545000Y-63255000D03*
D43*
%TO.N,unconnected-(U3-GPIO5_A3_D3-Pad4)*%
X141380000Y-63255000D03*
D42*
%TO.P,U3,5,GPIO6_D4_SDA*%
%TO.N,unconnected-(U3-GPIO6_D4_SDA-Pad5)*%
X140545000Y-65795000D03*
D43*
%TO.N,unconnected-(U3-GPIO6_D4_SDA-Pad5)_1*%
X141380000Y-65795000D03*
D42*
%TO.P,U3,6,GPIO7_D5_SCL*%
%TO.N,unconnected-(U3-GPIO7_D5_SCL-Pad6)_1*%
X140545000Y-68335000D03*
D43*
%TO.N,unconnected-(U3-GPIO7_D5_SCL-Pad6)*%
X141380000Y-68335000D03*
D42*
%TO.P,U3,7,GPIO21_D6_TX*%
%TO.N,unconnected-(U3-GPIO21_D6_TX-Pad7)*%
X140545000Y-70875000D03*
D43*
%TO.N,unconnected-(U3-GPIO21_D6_TX-Pad7)_1*%
X141380000Y-70875000D03*
%TO.P,U3,8,GPIO20_D7_RX*%
%TO.N,unconnected-(U3-GPIO20_D7_RX-Pad8)_1*%
X156620000Y-70875000D03*
D44*
%TO.N,unconnected-(U3-GPIO20_D7_RX-Pad8)*%
X157455000Y-70875000D03*
D43*
%TO.P,U3,9,GPIO8_D8_SCK*%
%TO.N,SPI2_SCK*%
X156620000Y-68335000D03*
D44*
X157455000Y-68335000D03*
D43*
%TO.P,U3,10,GPIO9_D9_MISO*%
%TO.N,SPI2_MISO*%
X156620000Y-65795000D03*
D44*
X157455000Y-65795000D03*
D43*
%TO.P,U3,11,GPIO10_D10_MOSI*%
%TO.N,SPI2_MOSI*%
X156620000Y-63255000D03*
D44*
X157455000Y-63255000D03*
D43*
%TO.P,U3,12,3V3*%
%TO.N,3V3*%
X156620000Y-60715000D03*
D44*
X157455000Y-60715000D03*
D43*
%TO.P,U3,13,GND*%
%TO.N,GND*%
X156620000Y-58175000D03*
D44*
X157455000Y-58175000D03*
D43*
%TO.P,U3,14,VBUS*%
%TO.N,Net-(U2-OUT)*%
X156620000Y-55635000D03*
D44*
X157455000Y-55635000D03*
%TD*%
D19*
%TO.P,R26,1*%
%TO.N,Net-(IC2-RSTB)*%
X136980000Y-114010000D03*
%TO.P,R26,2*%
%TO.N,3V3*%
X138000000Y-114010000D03*
%TD*%
D35*
%TO.P,C1,1,+*%
%TO.N,5V*%
X175750000Y-65500000D03*
%TO.P,C1,2,-*%
%TO.N,GND*%
X170250000Y-65500000D03*
%TD*%
D45*
%TO.P,Y1,1,1*%
%TO.N,/stm32/PF1*%
X142881600Y-97850000D03*
%TO.P,Y1,2,2*%
%TO.N,/stm32/PF0*%
X142881600Y-94150000D03*
%TD*%
D28*
%TO.P,C14,1*%
%TO.N,GND*%
X128750000Y-107275000D03*
%TO.P,C14,2*%
%TO.N,5V_USB*%
X128750000Y-105725000D03*
%TD*%
D13*
%TO.P,J4,1,Pin_1*%
%TO.N,SensorBIn*%
X143025000Y-128500000D03*
D14*
%TO.P,J4,2,Pin_2*%
%TO.N,GND*%
X140485000Y-128500000D03*
%TD*%
D29*
%TO.P,C22,1*%
%TO.N,GND*%
X155500000Y-105000000D03*
%TO.P,C22,2*%
%TO.N,SensorDFilt*%
X154540000Y-105000000D03*
%TD*%
D21*
%TO.P,R29,1*%
%TO.N,Motor3a_PWM*%
X162000000Y-93990000D03*
%TO.P,R29,2*%
%TO.N,GND*%
X162000000Y-95010000D03*
%TD*%
D22*
%TO.P,R12,1*%
%TO.N,GND*%
X121970000Y-110500000D03*
%TO.P,R12,2*%
%TO.N,Net-(J1-CC1)*%
X120950000Y-110500000D03*
%TD*%
D29*
%TO.P,C20,1*%
%TO.N,GND*%
X149266200Y-105500000D03*
%TO.P,C20,2*%
%TO.N,SensorAFilt*%
X148306200Y-105500000D03*
%TD*%
D12*
%TO.P,R44,1*%
%TO.N,Net-(Q8-S)*%
X121037500Y-77000000D03*
%TO.P,R44,2*%
%TO.N,GND*%
X123962500Y-77000000D03*
%TD*%
D21*
%TO.P,R6,1*%
%TO.N,Motor2b_PWM*%
X162000000Y-111240000D03*
%TO.P,R6,2*%
%TO.N,GND*%
X162000000Y-112260000D03*
%TD*%
D13*
%TO.P,J5,1,Pin_1*%
%TO.N,SensorCIn*%
X151000000Y-128500000D03*
D14*
%TO.P,J5,2,Pin_2*%
%TO.N,GND*%
X148460000Y-128500000D03*
%TD*%
D41*
%TO.P,D14,1,K*%
%TO.N,5V*%
X121894800Y-56000000D03*
%TO.P,D14,2,A*%
%TO.N,/motors2/Motor4b-*%
X122555200Y-56000000D03*
%TD*%
D15*
%TO.P,VR2,A1,CCW*%
%TO.N,SensorDIn*%
X156500000Y-120000000D03*
D16*
%TO.P,VR2,B1,WIPER*%
%TO.N,SensorDOut*%
X157650000Y-124000000D03*
D15*
%TO.P,VR2,C1,CW*%
%TO.N,unconnected-(VR2-CW-PadC1)*%
X158800000Y-120000000D03*
%TD*%
%TO.P,VR4,A1,CCW*%
%TO.N,SensorCIn*%
X148600000Y-120000000D03*
D16*
%TO.P,VR4,B1,WIPER*%
%TO.N,SensorCOut*%
X149750000Y-124000000D03*
D15*
%TO.P,VR4,C1,CW*%
%TO.N,unconnected-(VR4-CW-PadC1)*%
X150900000Y-120000000D03*
%TD*%
D22*
%TO.P,R37,1*%
%TO.N,3V3*%
X132000000Y-105010000D03*
%TO.P,R37,2*%
%TO.N,Net-(D10-A)*%
X130980000Y-105010000D03*
%TD*%
D26*
%TO.P,C7,1*%
%TO.N,NRST*%
X139500000Y-101020000D03*
%TO.P,C7,2*%
%TO.N,GND*%
X139500000Y-101980000D03*
%TD*%
D11*
%TO.P,SW1,1,1*%
%TO.N,unconnected-(SW1-Pad1)*%
X128200000Y-85500000D03*
%TO.P,SW1,2,2*%
%TO.N,Net-(R9-Pad2)*%
X134000000Y-85500000D03*
%TO.P,SW1,3,3*%
%TO.N,unconnected-(SW1-Pad3)*%
X128200000Y-89500000D03*
%TO.P,SW1,4,4*%
%TO.N,USER_BTN*%
X134000000Y-89500000D03*
%TD*%
D22*
%TO.P,R1,1*%
%TO.N,Motor4a_PWM*%
X130510000Y-76000000D03*
%TO.P,R1,2*%
%TO.N,GND*%
X129490000Y-76000000D03*
%TD*%
D27*
%TO.P,R36,1*%
%TO.N,3V3*%
X134990000Y-106520000D03*
%TO.P,R36,2*%
%TO.N,Net-(D9-A)*%
X134990000Y-105500000D03*
%TD*%
D26*
%TO.P,C_D2,1*%
%TO.N,SensorCIn*%
X154786200Y-114770000D03*
%TO.P,C_D2,2*%
%TO.N,SensorCOut*%
X154786200Y-115730000D03*
%TD*%
D31*
%TO.P,D3,1,K*%
%TO.N,5V*%
X181388340Y-77659600D03*
%TO.P,D3,2,A*%
%TO.N,/motors1/Motor1a-*%
X181388340Y-78320000D03*
%TD*%
D36*
%TO.P,D5,1,K*%
%TO.N,NRST*%
X138000000Y-100855000D03*
%TO.P,D5,2,A*%
%TO.N,GND*%
X138000000Y-101825000D03*
%TD*%
D31*
%TO.P,D4,1,K*%
%TO.N,5V*%
X181362300Y-108040000D03*
%TO.P,D4,2,A*%
%TO.N,/motors1/Motor2b-*%
X181362300Y-108700400D03*
%TD*%
D46*
%TO.P,J1,15,GND*%
%TO.N,GND*%
X117787800Y-107168551D03*
%TO.P,J1,16,GND*%
X117787800Y-117388551D03*
%TO.P,J1,17,GND*%
X113857800Y-107168551D03*
%TO.P,J1,18,GND*%
X113857800Y-117388551D03*
D47*
%TO.P,J1,A1-B12,GND*%
X118362800Y-109078550D03*
%TO.P,J1,A4-B9,VBUS*%
%TO.N,VBUS*%
X118362800Y-109878551D03*
D48*
%TO.P,J1,A5,CC1*%
%TO.N,Net-(J1-CC1)*%
X118362800Y-111028551D03*
%TO.P,J1,A6,DP1*%
%TO.N,USB_D+*%
X118362800Y-112028551D03*
%TO.P,J1,A7,DN1*%
%TO.N,USB_D-*%
X118362800Y-112528551D03*
%TO.P,J1,A8,SBU1*%
%TO.N,unconnected-(J1-SBU1-PadA8)*%
X118362800Y-113528551D03*
D47*
%TO.P,J1,A9-B4,VBUS*%
%TO.N,VBUS*%
X118362800Y-114678551D03*
%TO.P,J1,A12-B1,GND*%
%TO.N,GND*%
X118362800Y-115478550D03*
D48*
%TO.P,J1,B5,CC2*%
%TO.N,Net-(J1-CC2)*%
X118362800Y-114028550D03*
%TO.P,J1,B6,DP2*%
%TO.N,USB_D+*%
X118362800Y-113028552D03*
%TO.P,J1,B7,DN2*%
%TO.N,USB_D-*%
X118362800Y-111528550D03*
%TO.P,J1,B8,SBU2*%
%TO.N,unconnected-(J1-SBU2-PadB8)*%
X118362800Y-110528552D03*
%TD*%
D29*
%TO.P,C12,1*%
%TO.N,GND*%
X121960000Y-109500000D03*
%TO.P,C12,2*%
%TO.N,VBUS*%
X121000000Y-109500000D03*
%TD*%
D22*
%TO.P,R34,1*%
%TO.N,GND*%
X139000000Y-112010000D03*
%TO.P,R34,2*%
%TO.N,Net-(IC2-SUSPENDB)*%
X137980000Y-112010000D03*
%TD*%
D49*
%TO.P,U2,1,VDD*%
%TO.N,5V*%
X169137500Y-55950000D03*
%TO.P,U2,2,GND*%
%TO.N,GND*%
X169137500Y-55000000D03*
%TO.P,U2,3,EN*%
%TO.N,5V*%
X169137500Y-54050000D03*
%TO.P,U2,4,NC*%
%TO.N,unconnected-(U2-NC-Pad4)*%
X166862500Y-54050000D03*
%TO.P,U2,5,OUT*%
%TO.N,Net-(U2-OUT)*%
X166862500Y-55950000D03*
%TD*%
D12*
%TO.P,R39,1*%
%TO.N,Net-(Q1-S)*%
X163787500Y-101500000D03*
%TO.P,R39,2*%
%TO.N,GND*%
X166712500Y-101500000D03*
%TD*%
D13*
%TO.P,J3,1,Pin_1*%
%TO.N,SensorDIn*%
X159040000Y-128500000D03*
D14*
%TO.P,J3,2,Pin_2*%
%TO.N,GND*%
X156500000Y-128500000D03*
%TD*%
D31*
%TO.P,D12,1,K*%
%TO.N,5V*%
X181500000Y-117877000D03*
%TO.P,D12,2,A*%
%TO.N,/motors1/Motor2a-*%
X181500000Y-118537400D03*
%TD*%
D15*
%TO.P,VR1,A1,CCW*%
%TO.N,SensorAIn*%
X135050000Y-124000000D03*
D16*
%TO.P,VR1,B1,WIPER*%
%TO.N,SensorAOut*%
X133900000Y-120000000D03*
D15*
%TO.P,VR1,C1,CW*%
%TO.N,unconnected-(VR1-CW-PadC1)*%
X132750000Y-124000000D03*
%TD*%
D13*
%TO.P,Conn3,1,Pin_1*%
%TO.N,5V*%
X184500000Y-116750000D03*
D14*
%TO.P,Conn3,2,Pin_2*%
%TO.N,/motors1/Motor2a-*%
X184500000Y-119290000D03*
%TD*%
D26*
%TO.P,C_A1,1*%
%TO.N,SensorAOut*%
X145451600Y-108270000D03*
%TO.P,C_A1,2*%
%TO.N,SensorAIn*%
X145451600Y-109230000D03*
%TD*%
D50*
%TO.P,IC1,1,PC11*%
%TO.N,USER_BTN*%
X146262000Y-89750000D03*
%TO.P,IC1,2,PC12*%
%TO.N,unconnected-(IC1-PC12-Pad2)*%
X146262000Y-90250000D03*
%TO.P,IC1,3,PC13*%
%TO.N,unconnected-(IC1-PC13-Pad3)*%
X146262000Y-90750000D03*
%TO.P,IC1,4,PC14-OSCX_IN*%
%TO.N,/stm32/PC14*%
X146262000Y-91250000D03*
%TO.P,IC1,5,PC15-OSCX_OUT*%
%TO.N,/stm32/PC15*%
X146262000Y-91750000D03*
%TO.P,IC1,6,PF3*%
%TO.N,unconnected-(IC1-PF3-Pad6)*%
X146262000Y-92250000D03*
%TO.P,IC1,7,VREF+*%
%TO.N,unconnected-(IC1-VREF+-Pad7)*%
X146262000Y-92750000D03*
%TO.P,IC1,8,VDD/VDDA*%
%TO.N,3V3*%
X146262000Y-93250000D03*
%TO.P,IC1,9,VSS/VSSA*%
%TO.N,GND*%
X146262000Y-93750000D03*
%TO.P,IC1,10,PF0-OSC_IN*%
%TO.N,/stm32/PF0*%
X146262000Y-94250000D03*
%TO.P,IC1,11,PF1-OSC_OUT*%
%TO.N,/stm32/PF1*%
X146262000Y-94750000D03*
%TO.P,IC1,12,PF2-NRST*%
%TO.N,NRST*%
X146262000Y-95250000D03*
%TO.P,IC1,13,PC0*%
%TO.N,unconnected-(IC1-PC0-Pad13)*%
X146262000Y-95750000D03*
%TO.P,IC1,14,PC1*%
%TO.N,unconnected-(IC1-PC1-Pad14)*%
X146262000Y-96250000D03*
%TO.P,IC1,15,PC2*%
%TO.N,unconnected-(IC1-PC2-Pad15)*%
X146262000Y-96750000D03*
%TO.P,IC1,16,PC3*%
%TO.N,unconnected-(IC1-PC3-Pad16)*%
X146262000Y-97250000D03*
D51*
%TO.P,IC1,17,PA0*%
%TO.N,!CTS_STM*%
X148250000Y-99238000D03*
%TO.P,IC1,18,PA1*%
%TO.N,!RTS_STM*%
X148750000Y-99238000D03*
%TO.P,IC1,19,PA2*%
%TO.N,USART2_TX*%
X149250000Y-99238000D03*
%TO.P,IC1,20,PA3*%
%TO.N,USART2_RX*%
X149750000Y-99238000D03*
%TO.P,IC1,21,PA4*%
%TO.N,SensorAFilt*%
X150250000Y-99238000D03*
%TO.P,IC1,22,PA5*%
%TO.N,SensorBFilt*%
X150750000Y-99238000D03*
%TO.P,IC1,23,PA6*%
%TO.N,SensorCFilt*%
X151250000Y-99238000D03*
%TO.P,IC1,24,PA7*%
%TO.N,SensorDFilt*%
X151750000Y-99238000D03*
%TO.P,IC1,25,PC4*%
%TO.N,Motor2a_PWM*%
X152250000Y-99238000D03*
%TO.P,IC1,26,PC5*%
%TO.N,Motor2b_PWM*%
X152750000Y-99238000D03*
%TO.P,IC1,27,PB0*%
%TO.N,unconnected-(IC1-PB0-Pad27)*%
X153250000Y-99238000D03*
%TO.P,IC1,28,PB1*%
%TO.N,unconnected-(IC1-PB1-Pad28)*%
X153750000Y-99238000D03*
%TO.P,IC1,29,PB2*%
%TO.N,unconnected-(IC1-PB2-Pad29)*%
X154250000Y-99238000D03*
%TO.P,IC1,30,PB10*%
%TO.N,unconnected-(IC1-PB10-Pad30)*%
X154750000Y-99238000D03*
%TO.P,IC1,31,PB11*%
%TO.N,unconnected-(IC1-PB11-Pad31)*%
X155250000Y-99238000D03*
%TO.P,IC1,32,PB12*%
%TO.N,unconnected-(IC1-PB12-Pad32)*%
X155750000Y-99238000D03*
D50*
%TO.P,IC1,33,PB13*%
%TO.N,unconnected-(IC1-PB13-Pad33)*%
X157738000Y-97250000D03*
%TO.P,IC1,34,PB14*%
%TO.N,unconnected-(IC1-PB14-Pad34)*%
X157738000Y-96750000D03*
%TO.P,IC1,35,PB15*%
%TO.N,unconnected-(IC1-PB15-Pad35)*%
X157738000Y-96250000D03*
%TO.P,IC1,36,PA8*%
%TO.N,unconnected-(IC1-PA8-Pad36)*%
X157738000Y-95750000D03*
%TO.P,IC1,37,PA9*%
%TO.N,unconnected-(IC1-PA9-Pad37)*%
X157738000Y-95250000D03*
%TO.P,IC1,38,PC6*%
%TO.N,Motor3b_PWM*%
X157738000Y-94750000D03*
%TO.P,IC1,39,PC7*%
%TO.N,Motor3a_PWM*%
X157738000Y-94250000D03*
%TO.P,IC1,40,PD8*%
%TO.N,unconnected-(IC1-PD8-Pad40)*%
X157738000Y-93750000D03*
%TO.P,IC1,41,PD9*%
%TO.N,unconnected-(IC1-PD9-Pad41)*%
X157738000Y-93250000D03*
%TO.P,IC1,42,PA10*%
%TO.N,SPI1_CS*%
X157738000Y-92750000D03*
%TO.P,IC1,43,PA11_[PA9]*%
%TO.N,unconnected-(IC1-PA11_[PA9]-Pad43)*%
X157738000Y-92250000D03*
%TO.P,IC1,44,PA12_[PA10]*%
%TO.N,unconnected-(IC1-PA12_[PA10]-Pad44)*%
X157738000Y-91750000D03*
%TO.P,IC1,45,PA13*%
%TO.N,SWDIO*%
X157738000Y-91250000D03*
%TO.P,IC1,46,PA14-BOOT0*%
%TO.N,BOOT*%
X157738000Y-90750000D03*
%TO.P,IC1,47,PA15*%
%TO.N,Motor1a_PWM*%
X157738000Y-90250000D03*
%TO.P,IC1,48,PC8*%
%TO.N,unconnected-(IC1-PC8-Pad48)*%
X157738000Y-89750000D03*
D51*
%TO.P,IC1,49,PC9*%
%TO.N,unconnected-(IC1-PC9-Pad49)*%
X155750000Y-87762000D03*
%TO.P,IC1,50,PD0*%
%TO.N,unconnected-(IC1-PD0-Pad50)*%
X155250000Y-87762000D03*
%TO.P,IC1,51,PD1*%
%TO.N,SPI2_SCK*%
X154750000Y-87762000D03*
%TO.P,IC1,52,PD2*%
%TO.N,unconnected-(IC1-PD2-Pad52)*%
X154250000Y-87762000D03*
%TO.P,IC1,53,PD3*%
%TO.N,SPI2_MISO*%
X153750000Y-87762000D03*
%TO.P,IC1,54,PD4*%
%TO.N,SPI2_MOSI*%
X153250000Y-87762000D03*
%TO.P,IC1,55,PD5*%
%TO.N,unconnected-(IC1-PD5-Pad55)*%
X152750000Y-87762000D03*
%TO.P,IC1,56,PD6*%
%TO.N,unconnected-(IC1-PD6-Pad56)*%
X152250000Y-87762000D03*
%TO.P,IC1,57,PB3*%
%TO.N,Motor1b_PWM*%
X151750000Y-87762000D03*
%TO.P,IC1,58,PB4*%
%TO.N,unconnected-(IC1-PB4-Pad58)*%
X151250000Y-87762000D03*
%TO.P,IC1,59,PB5*%
%TO.N,CS*%
X150750000Y-87762000D03*
%TO.P,IC1,60,PB6*%
%TO.N,Motor4a_PWM*%
X150250000Y-87762000D03*
%TO.P,IC1,61,PB7*%
%TO.N,Motor4b_PWM*%
X149750000Y-87762000D03*
%TO.P,IC1,62,PB8*%
%TO.N,unconnected-(IC1-PB8-Pad62)*%
X149250000Y-87762000D03*
%TO.P,IC1,63,PB9*%
%TO.N,unconnected-(IC1-PB9-Pad63)*%
X148750000Y-87762000D03*
%TO.P,IC1,64,PC10*%
%TO.N,unconnected-(IC1-PC10-Pad64)*%
X148250000Y-87762000D03*
%TD*%
D52*
%TO.P,F2,1*%
%TO.N,Net-(VBAT1-Pin_1)*%
X178137500Y-55500000D03*
%TO.P,F2,2*%
%TO.N,5V*%
X173862500Y-55500000D03*
%TD*%
D29*
%TO.P,C21,1*%
%TO.N,GND*%
X151786200Y-105500000D03*
%TO.P,C21,2*%
%TO.N,SensorBFilt*%
X150826200Y-105500000D03*
%TD*%
D27*
%TO.P,R5,1*%
%TO.N,Motor1b_PWM*%
X161510000Y-72510000D03*
%TO.P,R5,2*%
%TO.N,GND*%
X161510000Y-71490000D03*
%TD*%
D13*
%TO.P,Conn1,1,Pin_1*%
%TO.N,5V*%
X184500000Y-78500000D03*
D14*
%TO.P,Conn1,2,Pin_2*%
%TO.N,/motors1/Motor1a-*%
X184500000Y-81040000D03*
%TD*%
D21*
%TO.P,R9,1*%
%TO.N,3V3*%
X134500000Y-82480000D03*
%TO.P,R9,2*%
%TO.N,Net-(R9-Pad2)*%
X134500000Y-83500000D03*
%TD*%
D53*
%TO.P,IC2,1,GPIO.1_/_RS485*%
%TO.N,unconnected-(IC2-GPIO.1_{slash}_RS485-Pad1)*%
X133240000Y-109010000D03*
D54*
%TO.P,IC2,2,GPIO.0_/_CLK*%
%TO.N,unconnected-(IC2-GPIO.0_{slash}_CLK-Pad2)*%
X132940000Y-109510000D03*
%TO.P,IC2,3,GND_1*%
%TO.N,GND*%
X132940000Y-110010000D03*
%TO.P,IC2,4,D+*%
%TO.N,USB_D+*%
X132940000Y-110510000D03*
%TO.P,IC2,5,D-*%
%TO.N,USB_D-*%
X132940000Y-111010000D03*
D53*
%TO.P,IC2,6,VDD*%
%TO.N,3V3*%
X133240000Y-111510000D03*
D55*
%TO.P,IC2,7,VREGIN*%
X133740000Y-111810000D03*
%TO.P,IC2,8,VBUS*%
%TO.N,Net-(IC2-VBUS)*%
X134240000Y-111810000D03*
%TO.P,IC2,9,RSTB*%
%TO.N,Net-(IC2-RSTB)*%
X134740000Y-111810000D03*
%TO.P,IC2,10,NC*%
%TO.N,unconnected-(IC2-NC-Pad10)*%
X135240000Y-111810000D03*
D53*
%TO.P,IC2,11,SUSPENDB*%
%TO.N,Net-(IC2-SUSPENDB)*%
X135740000Y-111510000D03*
D54*
%TO.P,IC2,12,GND_2*%
%TO.N,GND*%
X136040000Y-111010000D03*
%TO.P,IC2,13,WAKEUP*%
%TO.N,unconnected-(IC2-WAKEUP-Pad13)*%
X136040000Y-110510000D03*
%TO.P,IC2,14,SUSPEND*%
%TO.N,unconnected-(IC2-SUSPEND-Pad14)*%
X136040000Y-110010000D03*
%TO.P,IC2,15,CTS*%
%TO.N,!RTS_STM*%
X136040000Y-109510000D03*
D53*
%TO.P,IC2,16,RTS*%
%TO.N,!CTS_STM*%
X135740000Y-109010000D03*
D55*
%TO.P,IC2,17,RXD*%
%TO.N,USART2_TX*%
X135240000Y-108710000D03*
%TO.P,IC2,18,TXD*%
%TO.N,USART2_RX*%
X134740000Y-108710000D03*
%TO.P,IC2,19,GPIO.3_/_RXT*%
%TO.N,Net-(D9-K)*%
X134240000Y-108710000D03*
%TO.P,IC2,20,GPIO.2_/_TXT*%
%TO.N,Net-(D10-K)*%
X133740000Y-108710000D03*
D56*
%TO.P,IC2,21,EP_GND*%
%TO.N,GND*%
X134490000Y-110260000D03*
%TD*%
D20*
%TO.P,C_D1,1*%
%TO.N,SensorDIn*%
X154786200Y-109230000D03*
%TO.P,C_D1,2*%
%TO.N,SensorDOut*%
X154786200Y-108270000D03*
%TD*%
D13*
%TO.P,Conn2,1,Pin_1*%
%TO.N,5V*%
X184500000Y-71446600D03*
D14*
%TO.P,Conn2,2,Pin_2*%
%TO.N,/motors1/Motor1b-*%
X184500000Y-68906600D03*
%TD*%
D10*
%TO.P,TP2,1,1*%
%TO.N,SPI2_MISO*%
X153750000Y-82000000D03*
%TD*%
D13*
%TO.P,Conn6,1,Pin_1*%
%TO.N,5V*%
X184500000Y-86475000D03*
D14*
%TO.P,Conn6,2,Pin_2*%
%TO.N,/motors2/Motor3b-*%
X184500000Y-89015000D03*
%TD*%
D13*
%TO.P,Conn4,1,Pin_1*%
%TO.N,5V*%
X184500000Y-107500000D03*
D14*
%TO.P,Conn4,2,Pin_2*%
%TO.N,/motors1/Motor2b-*%
X184500000Y-110040000D03*
%TD*%
D10*
%TO.P,TP3,1,1*%
%TO.N,SPI2_SCK*%
X154750000Y-84750000D03*
%TD*%
D13*
%TO.P,Conn5,1,Pin_1*%
%TO.N,5V*%
X184500000Y-95975000D03*
D14*
%TO.P,Conn5,2,Pin_2*%
%TO.N,/motors2/Motor3a-*%
X184500000Y-98515000D03*
%TD*%
D13*
%TO.P,Conn8,1,Pin_1*%
%TO.N,5V*%
X121225000Y-53000000D03*
D14*
%TO.P,Conn8,2,Pin_2*%
%TO.N,/motors2/Motor4b-*%
X123765000Y-53000000D03*
%TD*%
D57*
%TO.N,GND*%
X161000000Y-95000000D03*
X163250000Y-92500000D03*
%TO.N,3V3*%
X147500000Y-79250000D03*
%TO.N,GND*%
X122460000Y-110500000D03*
X122250000Y-108200000D03*
X139500000Y-95500000D03*
X124250000Y-108200000D03*
D58*
X116000000Y-106000000D03*
D57*
X126000000Y-111000000D03*
D58*
X119500000Y-108500000D03*
X168000000Y-124500000D03*
X116000000Y-118500000D03*
D57*
X125250000Y-98250000D03*
X151286200Y-106500000D03*
X141500000Y-90480000D03*
X154286200Y-111500000D03*
D58*
X168000000Y-87000000D03*
X117500000Y-81250000D03*
X168000000Y-103500000D03*
X129000000Y-75500000D03*
X162500000Y-117500000D03*
D57*
X137250000Y-96500000D03*
X156000000Y-105500000D03*
X139750000Y-112000000D03*
D58*
X161500000Y-73500000D03*
D57*
X119618325Y-115839401D03*
X115500000Y-59000000D03*
D58*
X170500000Y-55000000D03*
D57*
X137000000Y-111000000D03*
D58*
X168500000Y-106000000D03*
D57*
X143536200Y-115750000D03*
X134500000Y-110250000D03*
D58*
X125000000Y-78000000D03*
D57*
X122888400Y-114250000D03*
X135750000Y-91250000D03*
X150000000Y-104500000D03*
X138750000Y-115500000D03*
X145000000Y-93750000D03*
X146036200Y-113000000D03*
D58*
X136500000Y-74500000D03*
D57*
X141500000Y-91500000D03*
X132000000Y-110000000D03*
X158286200Y-113000000D03*
D58*
X168000000Y-64000000D03*
D57*
X138750000Y-102500000D03*
X161000000Y-70750000D03*
X153000000Y-104500000D03*
X143036200Y-113750000D03*
X138000000Y-94250000D03*
X122460000Y-109500000D03*
X131250000Y-113500000D03*
D58*
X168000000Y-82500000D03*
D57*
X139500000Y-96500000D03*
D58*
X162500000Y-113000000D03*
D57*
X129750000Y-107750000D03*
X130250000Y-115000000D03*
D58*
%TO.N,5V*%
X170500000Y-54000000D03*
X172500000Y-55500000D03*
X170500000Y-56000000D03*
X177500000Y-62500000D03*
D57*
%TO.N,3V3*%
X137500000Y-113500000D03*
X144786200Y-111500000D03*
D58*
X122500000Y-88500000D03*
X136000000Y-92000000D03*
D57*
X156786200Y-116500000D03*
D58*
X133500000Y-82500000D03*
D57*
X133750000Y-114000000D03*
X158286200Y-109500000D03*
D58*
X124500000Y-92500000D03*
D57*
X131990000Y-104010000D03*
X143786200Y-110000000D03*
X125250000Y-114250000D03*
X135990000Y-106510000D03*
%TO.N,VBUS*%
X134000000Y-115000000D03*
X129500000Y-113250000D03*
%TO.N,SensorAIn*%
X136500000Y-123750000D03*
X144536200Y-109250000D03*
%TO.N,SensorDIn*%
X156500000Y-118000000D03*
X155546200Y-109990000D03*
%TO.N,BOOT*%
X155500000Y-91000000D03*
X127000000Y-95500000D03*
%TO.N,USART2_TX*%
X147500000Y-102500000D03*
X143250000Y-103500000D03*
%TO.N,USART2_RX*%
X138905555Y-104155555D03*
X148033550Y-103000000D03*
%TO.N,SensorAOut*%
X136000000Y-120000000D03*
X144536200Y-108250000D03*
%TO.N,SensorDOut*%
X155786200Y-109250000D03*
X157750000Y-122500000D03*
D58*
%TO.N,Net-(Q2-S)*%
X164000000Y-66500000D03*
%TO.N,Net-(Q4-S)*%
X165000000Y-106000000D03*
%TO.N,Motor3b_PWM*%
X167000000Y-92500000D03*
D57*
%TO.N,Motor1b_PWM*%
X162500000Y-72500000D03*
X152000000Y-85500000D03*
D58*
%TO.N,Motor2b_PWM*%
X163000000Y-111250000D03*
D57*
%TO.N,SensorCOut*%
X152000000Y-107500000D03*
X151500000Y-115500000D03*
D58*
%TO.N,Motor4b_PWM*%
X139000000Y-86500000D03*
X125500000Y-75500000D03*
%TO.N,Net-(Q7-S)*%
X164500000Y-85000000D03*
D57*
%TO.N,Net-(Q8-S)*%
X120000000Y-76000000D03*
D58*
%TO.N,/motors1/Motor1b-*%
X180500000Y-69500000D03*
D57*
%TO.N,/motors2/Motor4b-*%
X122500000Y-57000000D03*
D58*
%TO.N,/motors1/Motor2b-*%
X180500000Y-108750000D03*
%TO.N,/motors2/Motor3b-*%
X180500000Y-88000000D03*
%TD*%
D59*
%TO.N,3V3*%
X147500000Y-79250000D02*
X147500000Y-70670000D01*
X147500000Y-70670000D02*
X157455000Y-60715000D01*
%TO.N,GND*%
X161010000Y-95010000D02*
X161000000Y-95000000D01*
X163750000Y-92500000D02*
X163250000Y-92500000D01*
X163500000Y-92500000D02*
X163750000Y-92500000D01*
D60*
%TO.N,SPI2_MOSI*%
X152500000Y-79500000D02*
X152500000Y-86222500D01*
X152500000Y-86222500D02*
X153250000Y-86972500D01*
X153250000Y-86972500D02*
X153250000Y-87762000D01*
X156620000Y-63255000D02*
X152500000Y-67375000D01*
X152500000Y-67375000D02*
X152500000Y-79500000D01*
%TO.N,CS*%
X141380000Y-60715000D02*
X145250000Y-64585000D01*
X150651000Y-86333900D02*
X150651000Y-87663000D01*
X145250000Y-64585000D02*
X145250000Y-80932900D01*
X145250000Y-80932900D02*
X150651000Y-86333900D01*
X150651000Y-87663000D02*
X150750000Y-87762000D01*
%TO.N,SPI2_MISO*%
X153750000Y-87762000D02*
X153750000Y-67750000D01*
X153750000Y-67750000D02*
X155705000Y-65795000D01*
X155705000Y-65795000D02*
X156620000Y-65795000D01*
%TO.N,SPI2_SCK*%
X156620000Y-68335000D02*
X154750000Y-70205000D01*
X154750000Y-70205000D02*
X154750000Y-87762000D01*
%TO.N,GND*%
X125960000Y-97470000D02*
X126000000Y-97510000D01*
D59*
X162000000Y-112500000D02*
X162500000Y-113000000D01*
X113857800Y-107168551D02*
X116000000Y-107168551D01*
X166712500Y-82500000D02*
X168000000Y-82500000D01*
X166712500Y-82500000D02*
X166712500Y-83750000D01*
D60*
X139502300Y-95497700D02*
X139500000Y-95500000D01*
X135000000Y-96500000D02*
X137250000Y-96500000D01*
D59*
X118362800Y-109078550D02*
X118921450Y-109078550D01*
X115750000Y-61000000D02*
X115750000Y-59250000D01*
D60*
X141500000Y-90480000D02*
X142500000Y-90480000D01*
X139572300Y-96427700D02*
X139500000Y-96500000D01*
D59*
X116000000Y-117388551D02*
X117787800Y-117388551D01*
X164490000Y-92500000D02*
X163500000Y-92500000D01*
X162000000Y-95010000D02*
X161010000Y-95010000D01*
X167500000Y-64500000D02*
X168000000Y-64000000D01*
X125000000Y-77510000D02*
X125000000Y-78000000D01*
D60*
X136990000Y-111010000D02*
X137000000Y-111000000D01*
D59*
X115750000Y-59250000D02*
X115500000Y-59000000D01*
D60*
X157296200Y-112490000D02*
X157776200Y-112490000D01*
D59*
X166712500Y-80750000D02*
X166712500Y-82500000D01*
D60*
X121861600Y-114000000D02*
X121833050Y-114028550D01*
D59*
X119257474Y-115478550D02*
X119618325Y-115839401D01*
D60*
X139345000Y-101825000D02*
X139500000Y-101980000D01*
X137131600Y-93612700D02*
X138000000Y-93612700D01*
X139740000Y-112010000D02*
X139750000Y-112000000D01*
X138750000Y-101825000D02*
X138750000Y-102500000D01*
X149286200Y-105500000D02*
X149786200Y-105000000D01*
D59*
X116000000Y-107168551D02*
X116000000Y-106000000D01*
D60*
X149786200Y-104713800D02*
X150000000Y-104500000D01*
X121970000Y-110500000D02*
X122460000Y-110500000D01*
D59*
X166712500Y-103500000D02*
X166712500Y-105000000D01*
D60*
X144036200Y-115010000D02*
X144036200Y-115250000D01*
X152500000Y-112000000D02*
X153786200Y-112000000D01*
D59*
X113857800Y-117388551D02*
X116000000Y-117388551D01*
D60*
X153786200Y-112000000D02*
X154286200Y-111500000D01*
X127362500Y-111000000D02*
X126000000Y-111000000D01*
D59*
X162000000Y-117000000D02*
X162500000Y-117500000D01*
D60*
X138740000Y-115510000D02*
X138750000Y-115500000D01*
X138750000Y-101825000D02*
X139345000Y-101825000D01*
X142786200Y-113010000D02*
X142786200Y-113500000D01*
X155500000Y-105000000D02*
X156000000Y-105500000D01*
D59*
X170250000Y-107500000D02*
X170000000Y-107500000D01*
D60*
X131260000Y-113510000D02*
X131250000Y-113500000D01*
X125250000Y-97470000D02*
X125960000Y-97470000D01*
D59*
X136439100Y-74439100D02*
X136500000Y-74500000D01*
D60*
X138000000Y-93612700D02*
X138000000Y-94250000D01*
X149786200Y-105000000D02*
X149786200Y-104713800D01*
X149266200Y-105500000D02*
X149286200Y-105500000D01*
D59*
X162000000Y-112260000D02*
X162000000Y-112500000D01*
D60*
X134490000Y-110260000D02*
X134500000Y-110250000D01*
D59*
X135000000Y-74439100D02*
X136439100Y-74439100D01*
X166712500Y-123750000D02*
X167250000Y-123750000D01*
D60*
X153786200Y-112000000D02*
X154546200Y-112000000D01*
D59*
X170000000Y-107500000D02*
X168500000Y-106000000D01*
D60*
X122638400Y-114000000D02*
X122888400Y-114250000D01*
X136515000Y-90485000D02*
X135750000Y-91250000D01*
X116540000Y-81250000D02*
X117500000Y-81250000D01*
D59*
X170250000Y-65500000D02*
X167500000Y-65500000D01*
D60*
X125250000Y-97470000D02*
X125250000Y-98250000D01*
D59*
X166712500Y-103500000D02*
X168000000Y-103500000D01*
D60*
X138000000Y-115510000D02*
X138740000Y-115510000D01*
D59*
X129490000Y-76000000D02*
X129490000Y-75990000D01*
D60*
X122020000Y-114000000D02*
X122638400Y-114000000D01*
D59*
X162000000Y-116510000D02*
X162000000Y-117000000D01*
D60*
X139000000Y-112010000D02*
X139740000Y-112010000D01*
D59*
X124472500Y-77510000D02*
X123962500Y-77000000D01*
D60*
X151786200Y-105500000D02*
X151786200Y-106000000D01*
X129275000Y-107275000D02*
X129750000Y-107750000D01*
X152500000Y-104000000D02*
X153000000Y-104500000D01*
X121960000Y-109500000D02*
X122460000Y-109500000D01*
X128750000Y-107275000D02*
X129275000Y-107275000D01*
X140531600Y-96427700D02*
X139572300Y-96427700D01*
X138000000Y-101825000D02*
X138750000Y-101825000D01*
X124250000Y-106500000D02*
X124250000Y-107450000D01*
D59*
X129490000Y-75990000D02*
X129000000Y-75500000D01*
D60*
X124500000Y-97470000D02*
X125250000Y-97470000D01*
X154546200Y-112000000D02*
X154786200Y-112240000D01*
X152480000Y-104000000D02*
X152500000Y-104000000D01*
X132940000Y-110010000D02*
X132010000Y-110010000D01*
X136040000Y-111010000D02*
X136990000Y-111010000D01*
D59*
X166712500Y-101500000D02*
X166712500Y-103500000D01*
X170250000Y-86000000D02*
X169000000Y-86000000D01*
X167500000Y-65500000D02*
X167500000Y-64500000D01*
X169137500Y-55000000D02*
X170500000Y-55000000D01*
X167250000Y-123750000D02*
X168000000Y-124500000D01*
X169000000Y-86000000D02*
X168000000Y-87000000D01*
D60*
X146016200Y-112980000D02*
X146036200Y-113000000D01*
X144036200Y-115250000D02*
X143536200Y-115750000D01*
X132010000Y-110010000D02*
X132000000Y-110000000D01*
X141500000Y-91500000D02*
X142500000Y-91500000D01*
X136600000Y-90485000D02*
X136515000Y-90485000D01*
X161510000Y-71260000D02*
X161000000Y-70750000D01*
D59*
X167500000Y-65500000D02*
X167158740Y-65500000D01*
D60*
X157776200Y-112490000D02*
X158286200Y-113000000D01*
X128750000Y-107275000D02*
X129025000Y-107275000D01*
X114750000Y-79460000D02*
X116540000Y-81250000D01*
D59*
X116000000Y-107168551D02*
X117787800Y-107168551D01*
X161990000Y-73990000D02*
X161500000Y-73500000D01*
X125990000Y-77510000D02*
X125000000Y-77510000D01*
D60*
X138000000Y-93612700D02*
X138612700Y-93612700D01*
X131215000Y-115010000D02*
X130260000Y-115010000D01*
X132010000Y-113510000D02*
X131260000Y-113510000D01*
X138612700Y-93612700D02*
X139000000Y-94000000D01*
X146262000Y-93750000D02*
X145000000Y-93750000D01*
D59*
X167158740Y-65500000D02*
X166158740Y-64500000D01*
D60*
X140531600Y-95497700D02*
X139502300Y-95497700D01*
X142786200Y-113500000D02*
X143036200Y-113750000D01*
D59*
X116000000Y-117388551D02*
X116000000Y-118500000D01*
X125000000Y-77510000D02*
X124472500Y-77510000D01*
D60*
X151786200Y-106000000D02*
X151286200Y-106500000D01*
D59*
X118362800Y-115478550D02*
X119257474Y-115478550D01*
X118921450Y-109078550D02*
X119500000Y-108500000D01*
D60*
X161510000Y-71490000D02*
X161510000Y-71260000D01*
X124250000Y-107450000D02*
X124250000Y-108200000D01*
X122250000Y-107275000D02*
X122250000Y-108200000D01*
D59*
X162000000Y-73990000D02*
X161990000Y-73990000D01*
D60*
X145286200Y-112980000D02*
X146016200Y-112980000D01*
X130260000Y-115010000D02*
X130250000Y-115000000D01*
D59*
%TO.N,5V*%
X182627000Y-116750000D02*
X181500000Y-117877000D01*
X121225000Y-53000000D02*
X121225000Y-55330200D01*
X181902300Y-107500000D02*
X181362300Y-108040000D01*
X181500000Y-87419800D02*
X182500000Y-87419800D01*
X173862500Y-55500000D02*
X172500000Y-55500000D01*
X183659600Y-77659600D02*
X181388340Y-77659600D01*
X176290000Y-108040000D02*
X175750000Y-107500000D01*
X181080200Y-87000000D02*
X180000000Y-87000000D01*
X181500000Y-87419800D02*
X181080200Y-87000000D01*
X184500000Y-95975000D02*
X182194800Y-95975000D01*
X184500000Y-71446600D02*
X182936200Y-71446600D01*
X184500000Y-107500000D02*
X181902300Y-107500000D01*
X170450000Y-55950000D02*
X170500000Y-56000000D01*
X175750000Y-64250000D02*
X177500000Y-62500000D01*
X121894800Y-60355200D02*
X121250000Y-61000000D01*
X175750000Y-65500000D02*
X175750000Y-64250000D01*
X129225000Y-55055200D02*
X129225000Y-53000000D01*
X182936200Y-71446600D02*
X181500000Y-70010400D01*
X169137500Y-55950000D02*
X170450000Y-55950000D01*
X184500000Y-86475000D02*
X183444800Y-86475000D01*
X184500000Y-78500000D02*
X183659600Y-77659600D01*
X179000000Y-86000000D02*
X175750000Y-86000000D01*
X169137500Y-54050000D02*
X170450000Y-54050000D01*
X170450000Y-54050000D02*
X170500000Y-54000000D01*
X182194800Y-95975000D02*
X181500000Y-96669800D01*
X130169800Y-56000000D02*
X129225000Y-55055200D01*
X181362300Y-108040000D02*
X176290000Y-108040000D01*
X183444800Y-86475000D02*
X182500000Y-87419800D01*
X180000000Y-87000000D02*
X179000000Y-86000000D01*
X184500000Y-116750000D02*
X182627000Y-116750000D01*
X121894800Y-56000000D02*
X121894800Y-60355200D01*
X121225000Y-55330200D02*
X121894800Y-56000000D01*
D60*
%TO.N,/stm32/PF0*%
X142981600Y-94250000D02*
X142881600Y-94150000D01*
X146262000Y-94250000D02*
X142981600Y-94250000D01*
X142881600Y-94150000D02*
X142350000Y-94150000D01*
X142350000Y-94150000D02*
X141962300Y-94537700D01*
X141962300Y-94537700D02*
X140531600Y-94537700D01*
%TO.N,/stm32/PF1*%
X142881600Y-97850000D02*
X140993900Y-97850000D01*
X145272500Y-94750000D02*
X142881600Y-97140900D01*
X146262000Y-94750000D02*
X145272500Y-94750000D01*
X142881600Y-97850000D02*
X142143900Y-97850000D01*
X142881600Y-97140900D02*
X142881600Y-97850000D01*
X140993900Y-97850000D02*
X140531600Y-97387700D01*
%TO.N,/stm32/PC14*%
X143011000Y-90031000D02*
X143751000Y-90031000D01*
X143950000Y-90230000D02*
X144970000Y-91250000D01*
X144970000Y-91250000D02*
X146262000Y-91250000D01*
X143751000Y-90031000D02*
X143950000Y-90230000D01*
X142500000Y-89520000D02*
X143011000Y-90031000D01*
%TO.N,/stm32/PC15*%
X143970000Y-91750000D02*
X143950000Y-91730000D01*
X143230000Y-91730000D02*
X142500000Y-92460000D01*
X146262000Y-91750000D02*
X143970000Y-91750000D01*
X143950000Y-91730000D02*
X143230000Y-91730000D01*
%TO.N,NRST*%
X137480000Y-100500000D02*
X138000000Y-101020000D01*
X148000000Y-98000000D02*
X144980000Y-101020000D01*
X146262000Y-95250000D02*
X147199500Y-95250000D01*
X144980000Y-101020000D02*
X139500000Y-101020000D01*
X138000000Y-101020000D02*
X139500000Y-101020000D01*
X148000000Y-96050500D02*
X148000000Y-98000000D01*
X135000000Y-100500000D02*
X137480000Y-100500000D01*
X147199500Y-95250000D02*
X148000000Y-96050500D01*
%TO.N,3V3*%
X142786200Y-109230000D02*
X143016200Y-109230000D01*
X138108900Y-93040000D02*
X137131600Y-92062700D01*
X145286200Y-112020000D02*
X144786200Y-112020000D01*
X135980000Y-106520000D02*
X135990000Y-106510000D01*
X156046200Y-115760000D02*
X156786200Y-116500000D01*
X146262000Y-93250000D02*
X144182600Y-93250000D01*
X156036200Y-115760000D02*
X156046200Y-115760000D01*
X138000000Y-114010000D02*
X138000000Y-114000000D01*
X133660000Y-111810000D02*
X132970000Y-112500000D01*
X138000000Y-114000000D02*
X137500000Y-113500000D01*
X132970000Y-112500000D02*
X132970000Y-111780000D01*
X144066200Y-112020000D02*
X144036200Y-111990000D01*
X132970000Y-114000000D02*
X133750000Y-114000000D01*
X145286200Y-112020000D02*
X147552400Y-112020000D01*
X144786200Y-112020000D02*
X144786200Y-111500000D01*
X143952600Y-93020000D02*
X139293900Y-93020000D01*
X144786200Y-112020000D02*
X144066200Y-112020000D01*
X157286200Y-109230000D02*
X158016200Y-109230000D01*
X137162700Y-92062700D02*
X137100000Y-92000000D01*
X132970000Y-114805000D02*
X132765000Y-115010000D01*
X158016200Y-109230000D02*
X158286200Y-109500000D01*
X132970000Y-111780000D02*
X133240000Y-111510000D01*
X115000000Y-84790000D02*
X114750000Y-84540000D01*
X147552400Y-112020000D02*
X147572400Y-112000000D01*
X139000000Y-93040000D02*
X138108900Y-93040000D01*
D59*
X134500000Y-82480000D02*
X133520000Y-82480000D01*
D60*
X132000000Y-104020000D02*
X131990000Y-104010000D01*
X132970000Y-113510000D02*
X132970000Y-112500000D01*
X132000000Y-105010000D02*
X132000000Y-104020000D01*
X132970000Y-113510000D02*
X132970000Y-114000000D01*
X144182600Y-93250000D02*
X143952600Y-93020000D01*
X133740000Y-111810000D02*
X133660000Y-111810000D01*
X134990000Y-106520000D02*
X135980000Y-106520000D01*
D59*
X121900000Y-92500000D02*
X124500000Y-92500000D01*
D60*
X124470000Y-113470000D02*
X125250000Y-114250000D01*
X132970000Y-114000000D02*
X132970000Y-114805000D01*
X143016200Y-109230000D02*
X143786200Y-110000000D01*
X137131600Y-92062700D02*
X136062700Y-92062700D01*
D59*
X133520000Y-82480000D02*
X133500000Y-82500000D01*
D60*
X124450000Y-113470000D02*
X124470000Y-113470000D01*
%TO.N,5V_USB*%
X128575000Y-105550000D02*
X128750000Y-105725000D01*
X126750000Y-105550000D02*
X128575000Y-105550000D01*
D61*
%TO.N,VBUS*%
X117886901Y-109878551D02*
X116787800Y-110977652D01*
D60*
X121000000Y-109500000D02*
X120621449Y-109878551D01*
X120621449Y-109878551D02*
X118362800Y-109878551D01*
X129000000Y-111000000D02*
X128655000Y-110655000D01*
D61*
X116787800Y-113540652D02*
X117925699Y-114678551D01*
D60*
X123250000Y-105725000D02*
X123250000Y-108989000D01*
X128774000Y-112524000D02*
X129500000Y-113250000D01*
X134480000Y-114520000D02*
X134000000Y-115000000D01*
X128655000Y-110655000D02*
X128655000Y-110163813D01*
X129424454Y-111000000D02*
X128774000Y-111650454D01*
X124075000Y-105725000D02*
X124250000Y-105550000D01*
X129637500Y-111000000D02*
X129000000Y-111000000D01*
X118362800Y-109878551D02*
X117886901Y-109878551D01*
X128774000Y-111650454D02*
X128774000Y-112524000D01*
X129637500Y-111000000D02*
X129424454Y-111000000D01*
X128655000Y-110163813D02*
X127480187Y-108989000D01*
X121511000Y-108989000D02*
X123250000Y-108989000D01*
X134480000Y-114010000D02*
X134480000Y-114520000D01*
X121000000Y-109500000D02*
X121511000Y-108989000D01*
X127480187Y-108989000D02*
X123250000Y-108989000D01*
D61*
X117925699Y-114678551D02*
X118362800Y-114678551D01*
D60*
X123250000Y-105725000D02*
X124075000Y-105725000D01*
X122250000Y-105725000D02*
X123250000Y-105725000D01*
X118878551Y-109878551D02*
X118362800Y-109878551D01*
D61*
X116787800Y-110977652D02*
X116787800Y-113540652D01*
D60*
%TO.N,SensorAIn*%
X147572400Y-109460000D02*
X145681600Y-109460000D01*
X135050000Y-124000000D02*
X135050000Y-128235000D01*
X144536200Y-109250000D02*
X145431600Y-109250000D01*
X145681600Y-109460000D02*
X145451600Y-109230000D01*
X135050000Y-128235000D02*
X135315000Y-128500000D01*
X135050000Y-124000000D02*
X136250000Y-124000000D01*
X145431600Y-109250000D02*
X145451600Y-109230000D01*
X136250000Y-124000000D02*
X136500000Y-123750000D01*
%TO.N,SensorDIn*%
X155546200Y-109990000D02*
X154786200Y-109230000D01*
X156449000Y-120051000D02*
X156449000Y-125449000D01*
X156449000Y-125449000D02*
X159040000Y-128040000D01*
X156500000Y-120000000D02*
X156449000Y-120051000D01*
X159040000Y-128040000D02*
X159040000Y-128500000D01*
X156500000Y-118000000D02*
X156500000Y-120000000D01*
X152730000Y-109230000D02*
X152500000Y-109460000D01*
X154786200Y-109230000D02*
X152730000Y-109230000D01*
%TO.N,SensorAFilt*%
X149020000Y-104500000D02*
X150250000Y-103270000D01*
X148306200Y-105500000D02*
X149020000Y-104786200D01*
X147306200Y-106500000D02*
X148306200Y-105500000D01*
X149020000Y-104786200D02*
X149020000Y-104500000D01*
X150250000Y-103270000D02*
X150250000Y-99238000D01*
X147276200Y-106500000D02*
X147306200Y-106500000D01*
%TO.N,SensorBFilt*%
X150286200Y-106040000D02*
X150826200Y-105500000D01*
X150750000Y-99238000D02*
X150750000Y-103612189D01*
X150286200Y-106500000D02*
X150286200Y-106040000D01*
X150826200Y-103688389D02*
X150750000Y-103612189D01*
X150826200Y-105500000D02*
X150826200Y-103688389D01*
%TO.N,SensorDFilt*%
X154540000Y-105000000D02*
X151750000Y-102210000D01*
X154500000Y-105040000D02*
X154540000Y-105000000D01*
X154500000Y-105990000D02*
X154500000Y-105040000D01*
X151750000Y-102210000D02*
X151750000Y-99238000D01*
%TO.N,SensorCFilt*%
X151520000Y-104000000D02*
X151250000Y-103730000D01*
X153000000Y-105480000D02*
X151520000Y-104000000D01*
X153000000Y-105490000D02*
X153000000Y-105480000D01*
X151250000Y-103730000D02*
X151250000Y-99238000D01*
%TO.N,USER_BTN*%
X137935000Y-88180000D02*
X136600000Y-89515000D01*
X144692000Y-88180000D02*
X137935000Y-88180000D01*
X144692000Y-88180000D02*
X146262000Y-89750000D01*
X134000000Y-89500000D02*
X136420000Y-89500000D01*
X136420000Y-89500000D02*
X136600000Y-89680000D01*
%TO.N,BOOT*%
X120299000Y-87549000D02*
X120299000Y-94899000D01*
X125990000Y-96500000D02*
X126000000Y-96490000D01*
X124500000Y-96500000D02*
X125990000Y-96500000D01*
X126000000Y-96490000D02*
X126010000Y-96490000D01*
X121900000Y-96500000D02*
X124500000Y-96500000D01*
X120299000Y-94899000D02*
X121900000Y-96500000D01*
X126010000Y-96490000D02*
X127000000Y-95500000D01*
X155500000Y-91000000D02*
X155750000Y-90750000D01*
X155750000Y-90750000D02*
X157738000Y-90750000D01*
X114750000Y-82000000D02*
X120299000Y-87549000D01*
%TO.N,USART2_TX*%
X147516775Y-102483225D02*
X147500000Y-102500000D01*
X140450000Y-103500000D02*
X143250000Y-103500000D01*
X147966450Y-102500000D02*
X147500000Y-102500000D01*
X135240000Y-108710000D02*
X140450000Y-103500000D01*
X149250000Y-101216450D02*
X149250000Y-99238000D01*
X149250000Y-101216450D02*
X147966450Y-102500000D01*
%TO.N,USART2_RX*%
X134740000Y-108240000D02*
X134740000Y-108710000D01*
X148033550Y-103000000D02*
X149750000Y-101283550D01*
X136001222Y-107001222D02*
X136000000Y-107000000D01*
X138905555Y-104155555D02*
X136441000Y-106620110D01*
X136441000Y-106696811D02*
X136176811Y-106961000D01*
X149750000Y-101283550D02*
X149750000Y-99238000D01*
X136000000Y-107000000D02*
X135250000Y-107750000D01*
X136441000Y-106620110D02*
X136441000Y-106696811D01*
X136100110Y-106961000D02*
X136059888Y-107001222D01*
X135230000Y-107750000D02*
X134740000Y-108240000D01*
X135250000Y-107750000D02*
X135230000Y-107750000D01*
X136176811Y-106961000D02*
X136100110Y-106961000D01*
X136059888Y-107001222D02*
X136001222Y-107001222D01*
%TO.N,SWDIO*%
X146199500Y-87001000D02*
X150649500Y-91451000D01*
X124831000Y-87001000D02*
X146199500Y-87001000D01*
X114750000Y-76920000D02*
X124831000Y-87001000D01*
X157048000Y-91250000D02*
X157738000Y-91250000D01*
X156847000Y-91451000D02*
X157048000Y-91250000D01*
X150649500Y-91451000D02*
X156847000Y-91451000D01*
%TO.N,SensorD_0.5V*%
X157286200Y-110740000D02*
X157286200Y-110250000D01*
X157296200Y-110750000D02*
X157296200Y-111470000D01*
X152500000Y-110730000D02*
X152721000Y-110951000D01*
X157296200Y-110750000D02*
X157286200Y-110740000D01*
X157266200Y-110720000D02*
X157296200Y-110750000D01*
X157276200Y-110730000D02*
X157296200Y-110750000D01*
X152500000Y-110730000D02*
X157276200Y-110730000D01*
%TO.N,SensorAOut*%
X147572400Y-108190000D02*
X147572400Y-107223800D01*
X145531600Y-108190000D02*
X145451600Y-108270000D01*
X144556200Y-108270000D02*
X144536200Y-108250000D01*
X145451600Y-108270000D02*
X144556200Y-108270000D01*
X147572400Y-107223800D02*
X148296200Y-106500000D01*
X133900000Y-120000000D02*
X136000000Y-120000000D01*
X147572400Y-108190000D02*
X145531600Y-108190000D01*
%TO.N,SensorDOut*%
X157750000Y-123900000D02*
X157650000Y-124000000D01*
X154806200Y-108270000D02*
X155786200Y-109250000D01*
X154500000Y-107010000D02*
X154500000Y-107770000D01*
X157750000Y-122500000D02*
X157750000Y-123900000D01*
X154786200Y-108270000D02*
X154806200Y-108270000D01*
X154500000Y-107770000D02*
X154000000Y-108270000D01*
X154000000Y-108270000D02*
X152580000Y-108270000D01*
X154786200Y-108270000D02*
X154000000Y-108270000D01*
X152580000Y-108270000D02*
X152500000Y-108190000D01*
%TO.N,SensorA_0.5V*%
X147572400Y-110730000D02*
X143296200Y-110730000D01*
X143296200Y-110730000D02*
X142786200Y-111240000D01*
X142786200Y-111240000D02*
X142786200Y-110250000D01*
X142786200Y-111990000D02*
X142786200Y-111240000D01*
%TO.N,Net-(J1-CC1)*%
X118362800Y-111028551D02*
X120421449Y-111028551D01*
X120421449Y-111028551D02*
X120950000Y-110500000D01*
D62*
%TO.N,USB_D+*%
X130000000Y-110050000D02*
X130728550Y-110778550D01*
X119500000Y-112645251D02*
X119500000Y-112450000D01*
X124886822Y-112400000D02*
X126308272Y-113821450D01*
X119262300Y-112028551D02*
X118362800Y-112028551D01*
X126308272Y-113821450D02*
X127291728Y-113821450D01*
X127291728Y-113821450D02*
X128290000Y-112823178D01*
X120700000Y-112450000D02*
X120750000Y-112400000D01*
X129637500Y-110050000D02*
X130000000Y-110050000D01*
X128290000Y-112823178D02*
X128290000Y-110315001D01*
X119500000Y-112266251D02*
X119262300Y-112028551D01*
X118362800Y-113028552D02*
X119116699Y-113028552D01*
X130728550Y-110778550D02*
X132004759Y-110778550D01*
X128290000Y-110315001D02*
X128024999Y-110050000D01*
X119500000Y-112450000D02*
X120700000Y-112450000D01*
X132273309Y-110510000D02*
X132004759Y-110778550D01*
X119116699Y-113028552D02*
X119500000Y-112645251D01*
X128024999Y-110050000D02*
X127362500Y-110050000D01*
X120750000Y-112400000D02*
X124886822Y-112400000D01*
X132940000Y-110510000D02*
X132273309Y-110510000D01*
X119500000Y-112450000D02*
X119500000Y-112266251D01*
%TO.N,USB_D-*%
X117287800Y-111849651D02*
X117287800Y-112207451D01*
X126491728Y-113378550D02*
X126969728Y-113378550D01*
X130000000Y-111950000D02*
X129637500Y-111950000D01*
X126166201Y-111972382D02*
X126226729Y-112032910D01*
X118362800Y-111528550D02*
X119368997Y-111528550D01*
X127713557Y-112773266D02*
X127777995Y-112708827D01*
X118362800Y-111528550D02*
X117608901Y-111528550D01*
X126969728Y-113378550D02*
X127108272Y-113378550D01*
X132500000Y-111000000D02*
X132278550Y-111221450D01*
X126986843Y-112772895D02*
X127047374Y-112712365D01*
X127289486Y-112712366D02*
X127410916Y-112833796D01*
X125928520Y-112815342D02*
X125989050Y-112875872D01*
X132940000Y-111010000D02*
X132930000Y-111000000D01*
X119368997Y-111528550D02*
X119670224Y-111829777D01*
X125625881Y-112270590D02*
X125924087Y-111972381D01*
X119670224Y-111829777D02*
X124942955Y-111829777D01*
X126226728Y-112275022D02*
X125928521Y-112573230D01*
X127108273Y-113136436D02*
X126986844Y-113015007D01*
X117608900Y-112528551D02*
X118362800Y-112528551D01*
X117608901Y-111528550D02*
X117287800Y-111849651D01*
X132930000Y-111000000D02*
X132500000Y-111000000D01*
X125989050Y-112875872D02*
X126491728Y-113378550D01*
X132278550Y-111221450D02*
X130728550Y-111221450D01*
X130728550Y-111221450D02*
X130000000Y-111950000D01*
X117287800Y-112207451D02*
X117608900Y-112528551D01*
X127777995Y-112365495D02*
X127362500Y-111950000D01*
X124942955Y-111829777D02*
X125383767Y-112270589D01*
X127653030Y-112833795D02*
X127713557Y-112773266D01*
X127777995Y-112708827D02*
X127777995Y-112365495D01*
X127047374Y-112712365D02*
G75*
G02*
X127289456Y-112712395I121026J-121035D01*
G01*
X125924087Y-111972381D02*
G75*
G02*
X126166157Y-111972425I121013J-121019D01*
G01*
X127410916Y-112833796D02*
G75*
G03*
X127653057Y-112833823I121084J121096D01*
G01*
X125383767Y-112270589D02*
G75*
G03*
X125625857Y-112270566I121033J121089D01*
G01*
X127108272Y-113378550D02*
G75*
G03*
X127108266Y-113136443I-121072J121050D01*
G01*
X126226729Y-112032910D02*
G75*
G02*
X126226763Y-112275057I-121029J-121090D01*
G01*
X126986844Y-113015007D02*
G75*
G02*
X126986892Y-112772945I121056J121007D01*
G01*
X125928521Y-112573230D02*
G75*
G03*
X125928506Y-112815355I121079J-121070D01*
G01*
D60*
%TO.N,Net-(J1-CC2)*%
X121000000Y-114000000D02*
X118391350Y-114000000D01*
X118391350Y-114000000D02*
X118362800Y-114028550D01*
D59*
%TO.N,Net-(Q1-S)*%
X164999000Y-99040000D02*
X164999000Y-100288500D01*
X164999000Y-100288500D02*
X163787500Y-101500000D01*
%TO.N,Net-(Q2-S)*%
X163233740Y-64500000D02*
X163233740Y-65733740D01*
X163233740Y-65733740D02*
X164000000Y-66500000D01*
%TO.N,Net-(Q3-S)*%
X164999000Y-79538500D02*
X163787500Y-80750000D01*
X164999000Y-78540000D02*
X164999000Y-79538500D01*
%TO.N,Net-(Q4-S)*%
X164000000Y-105000000D02*
X165000000Y-106000000D01*
X163787500Y-105000000D02*
X164000000Y-105000000D01*
D60*
%TO.N,!CTS_STM*%
X147775322Y-101599000D02*
X146875322Y-101599000D01*
X139464322Y-109010000D02*
X135740000Y-109010000D01*
X148250000Y-101124322D02*
X147775322Y-101599000D01*
X148250000Y-99238000D02*
X148250000Y-101124322D01*
X146875322Y-101599000D02*
X139464322Y-109010000D01*
D59*
%TO.N,Motor3b_PWM*%
X157738000Y-94750000D02*
X159437638Y-94750000D01*
X168000000Y-93500000D02*
X167000000Y-92500000D01*
X167000000Y-92500000D02*
X165510000Y-92500000D01*
X168000000Y-95000000D02*
X168000000Y-93500000D01*
X160687638Y-96000000D02*
X167000000Y-96000000D01*
X167000000Y-96000000D02*
X168000000Y-95000000D01*
X159437638Y-94750000D02*
X160687638Y-96000000D01*
%TO.N,Motor4a_PWM*%
X130510000Y-76000000D02*
X127638900Y-73128900D01*
X140331100Y-86000000D02*
X149750000Y-86000000D01*
X130510000Y-76000000D02*
X130510000Y-76178900D01*
X130510000Y-76178900D02*
X140331100Y-86000000D01*
X150250000Y-86500000D02*
X150250000Y-87762000D01*
X127638900Y-73128900D02*
X127460000Y-73128900D01*
X149750000Y-86000000D02*
X150250000Y-86500000D01*
%TO.N,Motor1b_PWM*%
X162500000Y-72500000D02*
X161520000Y-72500000D01*
X161520000Y-72500000D02*
X161510000Y-72510000D01*
X151750000Y-86250000D02*
X151750000Y-85750000D01*
X151750000Y-87762000D02*
X151750000Y-86250000D01*
X151750000Y-85750000D02*
X152000000Y-85500000D01*
%TO.N,Motor2a_PWM*%
X161000000Y-114490000D02*
X161000000Y-109125500D01*
X165050300Y-115672600D02*
X162182600Y-115672600D01*
X162182600Y-115672600D02*
X162000000Y-115490000D01*
X162000000Y-115490000D02*
X161000000Y-114490000D01*
X161000000Y-109125500D02*
X152250000Y-100375500D01*
X152250000Y-100375500D02*
X152250000Y-99238000D01*
D60*
%TO.N,!RTS_STM*%
X139390000Y-109510000D02*
X136040000Y-109510000D01*
X148750000Y-101050000D02*
X147900000Y-101900000D01*
X147000000Y-101900000D02*
X139390000Y-109510000D01*
X147900000Y-101900000D02*
X147000000Y-101900000D01*
X148750000Y-99238000D02*
X148750000Y-101050000D01*
D59*
%TO.N,Motor3a_PWM*%
X161740000Y-94250000D02*
X157738000Y-94250000D01*
X162000000Y-93990000D02*
X161740000Y-94250000D01*
X164999000Y-93960000D02*
X162030000Y-93960000D01*
X162030000Y-93960000D02*
X162000000Y-93990000D01*
%TO.N,Net-(VBAT1-Pin_1)*%
X184440000Y-55400000D02*
X184500000Y-55460000D01*
X178237500Y-55400000D02*
X184440000Y-55400000D01*
X178137500Y-55500000D02*
X178237500Y-55400000D01*
%TO.N,Motor2b_PWM*%
X162000000Y-111240000D02*
X162000000Y-109416980D01*
X162010000Y-111250000D02*
X162000000Y-111240000D01*
X162000000Y-109416980D02*
X152750000Y-100166980D01*
X152750000Y-100166980D02*
X152750000Y-99238000D01*
X163000000Y-111250000D02*
X162010000Y-111250000D01*
%TO.N,Motor1a_PWM*%
X164999000Y-73460000D02*
X163550000Y-73460000D01*
X162000000Y-87125500D02*
X158875500Y-90250000D01*
X158875500Y-90250000D02*
X157738000Y-90250000D01*
X162000000Y-75010000D02*
X162000000Y-87125500D01*
X163550000Y-73460000D02*
X162000000Y-75010000D01*
D60*
%TO.N,SensorBIn*%
X140600000Y-120000000D02*
X140600000Y-119170000D01*
X145681600Y-114540000D02*
X145451600Y-114770000D01*
X147572400Y-114540000D02*
X145681600Y-114540000D01*
X139750000Y-125225000D02*
X139750000Y-123000000D01*
X145286200Y-114770000D02*
X140600000Y-119456200D01*
X140600000Y-122150000D02*
X140600000Y-120000000D01*
X139750000Y-123000000D02*
X140600000Y-122150000D01*
X140600000Y-119456200D02*
X140600000Y-120000000D01*
X143025000Y-128500000D02*
X139750000Y-125225000D01*
%TO.N,SensorBOut*%
X148283600Y-115810000D02*
X149266200Y-114827400D01*
X149266200Y-114827400D02*
X149266200Y-106500000D01*
X145451600Y-115730000D02*
X147492400Y-115730000D01*
X147572400Y-115810000D02*
X148283600Y-115810000D01*
X147492400Y-115730000D02*
X147572400Y-115810000D01*
X141750000Y-118980000D02*
X145000000Y-115730000D01*
X145000000Y-115730000D02*
X145286200Y-115730000D01*
X141750000Y-124000000D02*
X141750000Y-118980000D01*
%TO.N,SensorCIn*%
X148600000Y-117751800D02*
X151811800Y-114540000D01*
X152731000Y-114771000D02*
X152500000Y-114540000D01*
X151000000Y-128500000D02*
X148549000Y-126049000D01*
X148600000Y-120000000D02*
X148600000Y-117751800D01*
X154701600Y-114771000D02*
X152731000Y-114771000D01*
X151811800Y-114540000D02*
X152500000Y-114540000D01*
X148549000Y-126049000D02*
X148549000Y-120051000D01*
X148549000Y-120051000D02*
X148600000Y-120000000D01*
%TO.N,SensorCOut*%
X152500000Y-115810000D02*
X154622600Y-115810000D01*
X152213800Y-115810000D02*
X152500000Y-115810000D01*
X152000000Y-107500000D02*
X152010000Y-107500000D01*
X149750000Y-118273800D02*
X152213800Y-115810000D01*
X154622600Y-115810000D02*
X154701600Y-115731000D01*
X152500000Y-115810000D02*
X151810000Y-115810000D01*
X149750000Y-124000000D02*
X149750000Y-118273800D01*
X152010000Y-107500000D02*
X153000000Y-106510000D01*
X151810000Y-115810000D02*
X151500000Y-115500000D01*
D59*
%TO.N,Motor4b_PWM*%
X125500000Y-76000000D02*
X125990000Y-76490000D01*
X139000000Y-86500000D02*
X149000000Y-86500000D01*
X125500000Y-75500000D02*
X125500000Y-76000000D01*
D60*
X149750000Y-87762000D02*
X149750000Y-86824500D01*
X149750000Y-86824500D02*
X149425500Y-86500000D01*
X149425500Y-86500000D02*
X149000000Y-86500000D01*
D59*
%TO.N,Net-(Q6-S)*%
X165050300Y-120752600D02*
X165050300Y-122487200D01*
X165050300Y-122487200D02*
X163787500Y-123750000D01*
%TO.N,Net-(Q7-S)*%
X163787500Y-84287500D02*
X164500000Y-85000000D01*
X163787500Y-83750000D02*
X163787500Y-84287500D01*
%TO.N,Net-(Q8-S)*%
X120000000Y-76000000D02*
X120037500Y-76000000D01*
X120037500Y-76000000D02*
X121037500Y-77000000D01*
D60*
%TO.N,SensorB_0.5V*%
X144036200Y-113990000D02*
X144036200Y-113500000D01*
X144036200Y-113500000D02*
X144036200Y-113010000D01*
X147342400Y-113500000D02*
X144036200Y-113500000D01*
X147572400Y-113270000D02*
X147342400Y-113500000D01*
%TO.N,SensorC_0.5V*%
X154786200Y-113260000D02*
X154806200Y-113260000D01*
X154786200Y-113490000D02*
X156036200Y-114740000D01*
X154776200Y-113270000D02*
X154786200Y-113260000D01*
X154786200Y-113260000D02*
X154786200Y-113490000D01*
X152500000Y-113270000D02*
X154776200Y-113270000D01*
%TO.N,Net-(IC2-SUSPENDB)*%
X137980000Y-112010000D02*
X136240000Y-112010000D01*
X136240000Y-112010000D02*
X135740000Y-111510000D01*
%TO.N,Net-(IC2-VBUS)*%
X135500000Y-114010000D02*
X135500000Y-114030000D01*
X134240000Y-112750000D02*
X135500000Y-114010000D01*
X134240000Y-111810000D02*
X134240000Y-112750000D01*
X135500000Y-114030000D02*
X136980000Y-115510000D01*
%TO.N,Net-(IC2-RSTB)*%
X135980000Y-113010000D02*
X136980000Y-114010000D01*
X134740000Y-112760000D02*
X134990000Y-113010000D01*
X134990000Y-113010000D02*
X135980000Y-113010000D01*
X134740000Y-111810000D02*
X134740000Y-112760000D01*
D59*
%TO.N,Net-(Q5-S)*%
X132540000Y-73128900D02*
X133385200Y-73128900D01*
X133385200Y-73128900D02*
X135000000Y-71514100D01*
%TO.N,Net-(U2-OUT)*%
X157770000Y-55950000D02*
X157455000Y-55635000D01*
X166862500Y-55950000D02*
X157770000Y-55950000D01*
%TO.N,/motors1/Motor1b-*%
X181500000Y-69350000D02*
X180650000Y-69350000D01*
X184500000Y-68906600D02*
X181943400Y-68906600D01*
X181943400Y-68906600D02*
X181500000Y-69350000D01*
X180650000Y-69350000D02*
X180500000Y-69500000D01*
%TO.N,/motors1/Motor1a-*%
X181780000Y-78320000D02*
X181388340Y-78320000D01*
X184500000Y-81040000D02*
X181780000Y-78320000D01*
X181388340Y-78320000D02*
X178481300Y-78320000D01*
X178481300Y-78320000D02*
X176161300Y-76000000D01*
%TO.N,/motors2/Motor4a-*%
X130915100Y-56084900D02*
X130915100Y-61051500D01*
X130915100Y-61051500D02*
X130000000Y-61966600D01*
X130830200Y-56000000D02*
X130915100Y-56084900D01*
X131765000Y-55065200D02*
X130830200Y-56000000D01*
X131765000Y-53000000D02*
X131765000Y-55065200D01*
%TO.N,/motors2/Motor4b-*%
X123765000Y-54790200D02*
X122555200Y-56000000D01*
X122555200Y-56000000D02*
X122555200Y-56944800D01*
X122555200Y-56944800D02*
X122500000Y-57000000D01*
X123765000Y-53000000D02*
X123765000Y-54790200D01*
%TO.N,/motors1/Motor2a-*%
X184500000Y-119290000D02*
X182252600Y-119290000D01*
X180712600Y-118212600D02*
X176212600Y-118212600D01*
X182252600Y-119290000D02*
X181500000Y-118537400D01*
X181037400Y-118537400D02*
X180712600Y-118212600D01*
X181500000Y-118537400D02*
X181037400Y-118537400D01*
%TO.N,/motors1/Motor2b-*%
X184500000Y-110040000D02*
X182701900Y-110040000D01*
X181580950Y-108919050D02*
X181411900Y-108750000D01*
X181580950Y-108919050D02*
X181362300Y-108700400D01*
X181411900Y-108750000D02*
X180500000Y-108750000D01*
X182701900Y-110040000D02*
X181580950Y-108919050D01*
%TO.N,/motors2/Motor3a-*%
X176991500Y-97330200D02*
X176161300Y-96500000D01*
X181500000Y-97330200D02*
X176991500Y-97330200D01*
X182684800Y-98515000D02*
X181500000Y-97330200D01*
X184500000Y-98515000D02*
X182684800Y-98515000D01*
%TO.N,/motors2/Motor3b-*%
X181500000Y-88080200D02*
X180580200Y-88080200D01*
X182434800Y-89015000D02*
X181500000Y-88080200D01*
X180580200Y-88080200D02*
X180500000Y-88000000D01*
X184500000Y-89015000D02*
X182434800Y-89015000D01*
D60*
%TO.N,Net-(D9-A)*%
X134965000Y-105525000D02*
X134990000Y-105500000D01*
X133490000Y-105525000D02*
X134965000Y-105525000D01*
%TO.N,Net-(R9-Pad2)*%
X134500000Y-85000000D02*
X134000000Y-85500000D01*
X134500000Y-83500000D02*
X134500000Y-85000000D01*
%TO.N,Net-(D9-K)*%
X134240000Y-107245000D02*
X134240000Y-108710000D01*
X133490000Y-106495000D02*
X134240000Y-107245000D01*
%TO.N,Net-(D10-A)*%
X130980000Y-106485000D02*
X131005000Y-106510000D01*
X130980000Y-105010000D02*
X130980000Y-106485000D01*
%TO.N,Net-(D10-K)*%
X131975000Y-106945000D02*
X133740000Y-108710000D01*
X131975000Y-106510000D02*
X131975000Y-106945000D01*
%TD*%
M02*
