M48
; DRILL file {KiCad 9.0.4} date 2026-04-13T15:36:15-0400
; FORMAT={-:-/ absolute / inch / decimal}
; #@! TF.CreationDate,2026-04-13T15:36:15-04:00
; #@! TF.GenerationSoftware,Kicad,Pcbnew,9.0.4
; #@! TF.FileFunction,Plated,1,4,PTH
FMAT,2
INCH
; #@! TA.AperFunction,Plated,PTH,ViaDrill
T1C0.0118
; #@! TA.AperFunction,Plated,PTH,ViaDrill
T2C0.0157
; #@! TA.AperFunction,Plated,PTH,ComponentDrill
T3C0.0350
; #@! TA.AperFunction,Plated,PTH,ComponentDrill
T4C0.0394
%
G90
G05
T1
X4.5472Y-2.3228
X4.7094Y-4.5606
X4.7244Y-2.9921
X4.813Y-4.2598
X4.8213Y-4.311
X4.8213Y-4.3504
X4.8228Y-2.2441
X4.8381Y-4.498
X4.8917Y-4.2598
X4.9311Y-3.8681
X4.9311Y-4.498
X4.9606Y-4.3701
X5.0Y-3.7598
X5.0984Y-4.4587
X5.1083Y-4.2421
X5.128Y-4.5276
X5.1673Y-4.4685
X5.1965Y-4.0949
X5.1969Y-4.3307
X5.2657Y-4.4882
X5.2756Y-4.5276
X5.2953Y-4.3406
X5.3445Y-3.5925
X5.3539Y-4.1933
X5.3543Y-4.7244
X5.374Y-4.872
X5.3937Y-4.3701
X5.4035Y-3.7992
X5.4134Y-4.4685
X5.4331Y-3.7106
X5.4626Y-4.0354
X5.4626Y-4.5472
X5.4687Y-4.1006
X5.4921Y-3.7598
X5.4921Y-3.7992
X5.502Y-4.4094
X5.5709Y-3.5622
X5.5709Y-3.6024
X5.6313Y-4.4783
X5.6398Y-4.0748
X5.651Y-4.5571
X5.6609Y-4.3307
X5.6904Y-4.2618
X5.6904Y-4.3012
X5.7002Y-4.3898
X5.7087Y-3.6909
X5.7495Y-4.4488
X5.8071Y-3.1201
X5.8071Y-4.0354
X5.8281Y-4.0551
X5.9055Y-4.1142
X5.9561Y-4.1929
X5.9646Y-4.5472
X5.9843Y-3.3661
X5.9843Y-4.2323
X6.0236Y-4.1142
X6.0743Y-4.3898
X6.122Y-3.5827
X6.1239Y-4.3303
X6.1333Y-4.3012
X6.1417Y-4.1535
X6.1614Y-4.6457
X6.1727Y-4.5866
X6.2106Y-4.8228
X6.2317Y-4.311
X6.2317Y-4.4488
X6.3386Y-2.7854
X6.3386Y-3.7402
X6.3976Y-2.8543
X6.4272Y-3.6417
T2
X4.5669Y-4.1732
X4.5669Y-4.6654
X4.626Y-3.1988
X4.7047Y-4.2717
X4.8228Y-3.4843
X4.9016Y-3.6417
X4.9213Y-3.0709
X4.9409Y-2.9724
X5.0787Y-2.9724
X5.2559Y-3.248
X5.3543Y-3.622
X5.374Y-2.9331
X5.4724Y-3.4055
X6.3583Y-2.8937
X6.3976Y-4.4488
X6.3976Y-4.626
X6.4173Y-4.3799
X6.4567Y-2.6181
X6.4764Y-3.3465
X6.4961Y-4.1732
X6.5748Y-3.6417
X6.6142Y-2.5197
X6.6142Y-3.248
X6.6142Y-3.4252
X6.6142Y-4.0748
X6.6142Y-4.9016
X6.6339Y-4.1732
X6.7126Y-2.126
X6.7126Y-2.1654
X6.7126Y-2.2047
X6.7913Y-2.185
X6.9882Y-2.4606
X7.1063Y-2.7362
X7.1063Y-3.4646
X7.1063Y-4.2815
T3
X5.5661Y-2.1904
X5.5661Y-2.2904
X5.5661Y-2.3904
X5.5661Y-2.4904
X5.5661Y-2.5904
X5.5661Y-2.6904
X5.5661Y-2.7904
X6.1661Y-2.1904
X6.1661Y-2.2904
X6.1661Y-2.3904
X6.1661Y-2.4904
X6.1661Y-2.5904
X6.1661Y-2.6904
X6.1661Y-2.7904
T4
X4.5374Y-3.0283
X4.5374Y-3.1283
X4.5374Y-3.2283
X4.5374Y-3.3283
X4.7726Y-2.0866
X4.8726Y-2.0866
X5.0876Y-2.0866
X5.1876Y-2.0866
X5.2274Y-5.0591
X5.3274Y-5.0591
X5.5309Y-5.0591
X5.6309Y-5.0591
X5.8449Y-5.0591
X5.9449Y-5.0591
X6.1614Y-5.0591
X6.2614Y-5.0591
X7.2638Y-2.1835
X7.2638Y-2.2835
X7.2638Y-2.7129
X7.2638Y-2.8129
X7.2638Y-3.0906
X7.2638Y-3.1906
X7.2638Y-3.4045
X7.2638Y-3.5045
X7.2638Y-3.7785
X7.2638Y-3.8785
X7.2638Y-4.2323
X7.2638Y-4.3323
X7.2638Y-4.5965
X7.2638Y-4.6965
M30
