%TF.GenerationSoftware,KiCad,Pcbnew,9.0.4*%
%TF.CreationDate,2026-04-13T15:36:15-04:00*%
%TF.ProjectId,MotorDriver2,4d6f746f-7244-4726-9976-6572322e6b69,rev?*%
%TF.SameCoordinates,Original*%
%TF.FileFunction,Copper,L3,Inr*%
%TF.FilePolarity,Positive*%
%FSLAX46Y46*%
G04 Gerber Fmt 4.6, Leading zero omitted, Abs format (unit mm)*
G04 Created by KiCad (PCBNEW 9.0.4) date 2026-04-13 15:36:15*
%MOMM*%
%LPD*%
G01*
G04 APERTURE LIST*
%TA.AperFunction,ComponentPad*%
%ADD10R,1.700000X1.700000*%
%TD*%
%TA.AperFunction,ComponentPad*%
%ADD11C,1.700000*%
%TD*%
%TA.AperFunction,ComponentPad*%
%ADD12C,1.524000*%
%TD*%
%TA.AperFunction,ViaPad*%
%ADD13C,0.400000*%
%TD*%
%TA.AperFunction,ViaPad*%
%ADD14C,0.500000*%
%TD*%
G04 APERTURE END LIST*
D10*
%TO.N,SWDIO*%
%TO.C,J6*%
X115250000Y-76920000D03*
D11*
%TO.N,GND*%
X115250000Y-79460000D03*
%TO.N,BOOT*%
X115250000Y-82000000D03*
%TO.N,3V3*%
X115250000Y-84540000D03*
%TD*%
D10*
%TO.N,5V*%
%TO.C,Conn7*%
X129225000Y-53000000D03*
D11*
%TO.N,/motors2/Motor4a-*%
X131765000Y-53000000D03*
%TD*%
D10*
%TO.N,SensorAIn*%
%TO.C,J2*%
X135315000Y-128500000D03*
D11*
%TO.N,GND*%
X132775000Y-128500000D03*
%TD*%
D10*
%TO.N,Net-(VBAT1-Pin_1)*%
%TO.C,VBAT1*%
X184500000Y-55460000D03*
D11*
%TO.N,GND*%
X184500000Y-58000000D03*
%TD*%
D12*
%TO.N,unconnected-(U3-GPIO2_A0_D0-Pad1)_1*%
%TO.C,U3*%
X141380000Y-55635000D03*
%TO.N,unconnected-(U3-GPIO3_A1_D1-Pad2)_1*%
X141380000Y-58175000D03*
%TO.N,CS*%
X141380000Y-60715000D03*
%TO.N,unconnected-(U3-GPIO5_A3_D3-Pad4)*%
X141380000Y-63255000D03*
%TO.N,unconnected-(U3-GPIO6_D4_SDA-Pad5)_1*%
X141380000Y-65795000D03*
%TO.N,unconnected-(U3-GPIO7_D5_SCL-Pad6)*%
X141380000Y-68335000D03*
%TO.N,unconnected-(U3-GPIO21_D6_TX-Pad7)_1*%
X141380000Y-70875000D03*
%TO.N,unconnected-(U3-GPIO20_D7_RX-Pad8)_1*%
X156620000Y-70875000D03*
%TO.N,SPI2_SCK*%
X156620000Y-68335000D03*
%TO.N,SPI2_MISO*%
X156620000Y-65795000D03*
%TO.N,SPI2_MOSI*%
X156620000Y-63255000D03*
%TO.N,3V3*%
X156620000Y-60715000D03*
%TO.N,GND*%
X156620000Y-58175000D03*
%TO.N,Net-(U2-OUT)*%
X156620000Y-55635000D03*
%TD*%
D10*
%TO.N,SensorBIn*%
%TO.C,J4*%
X143025000Y-128500000D03*
D11*
%TO.N,GND*%
X140485000Y-128500000D03*
%TD*%
D10*
%TO.N,SensorCIn*%
%TO.C,J5*%
X151000000Y-128500000D03*
D11*
%TO.N,GND*%
X148460000Y-128500000D03*
%TD*%
D10*
%TO.N,SensorDIn*%
%TO.C,J3*%
X159040000Y-128500000D03*
D11*
%TO.N,GND*%
X156500000Y-128500000D03*
%TD*%
D10*
%TO.N,5V*%
%TO.C,Conn3*%
X184500000Y-116750000D03*
D11*
%TO.N,/motors1/Motor2a-*%
X184500000Y-119290000D03*
%TD*%
D10*
%TO.N,5V*%
%TO.C,Conn1*%
X184500000Y-78500000D03*
D11*
%TO.N,/motors1/Motor1a-*%
X184500000Y-81040000D03*
%TD*%
D10*
%TO.N,5V*%
%TO.C,Conn2*%
X184500000Y-71446600D03*
D11*
%TO.N,/motors1/Motor1b-*%
X184500000Y-68906600D03*
%TD*%
D10*
%TO.N,5V*%
%TO.C,Conn6*%
X184500000Y-86475000D03*
D11*
%TO.N,/motors2/Motor3b-*%
X184500000Y-89015000D03*
%TD*%
D10*
%TO.N,5V*%
%TO.C,Conn4*%
X184500000Y-107500000D03*
D11*
%TO.N,/motors1/Motor2b-*%
X184500000Y-110040000D03*
%TD*%
D10*
%TO.N,5V*%
%TO.C,Conn5*%
X184500000Y-95975000D03*
D11*
%TO.N,/motors2/Motor3a-*%
X184500000Y-98515000D03*
%TD*%
D10*
%TO.N,5V*%
%TO.C,Conn8*%
X121225000Y-53000000D03*
D11*
%TO.N,/motors2/Motor4b-*%
X123765000Y-53000000D03*
%TD*%
D13*
%TO.N,GND*%
X161000000Y-95000000D03*
X163250000Y-92500000D03*
%TO.N,3V3*%
X147500000Y-79250000D03*
%TO.N,GND*%
X122460000Y-110500000D03*
X122250000Y-108200000D03*
X139500000Y-95500000D03*
X124250000Y-108200000D03*
D14*
X116000000Y-106000000D03*
D13*
X126000000Y-111000000D03*
D14*
X119500000Y-108500000D03*
X168000000Y-124500000D03*
X116000000Y-118500000D03*
D13*
X125250000Y-98250000D03*
X151286200Y-106500000D03*
X141500000Y-90480000D03*
X154286200Y-111500000D03*
D14*
X168000000Y-87000000D03*
X117500000Y-81250000D03*
X168000000Y-103500000D03*
X129000000Y-75500000D03*
X162500000Y-117500000D03*
D13*
X137250000Y-96500000D03*
X156000000Y-105500000D03*
X139750000Y-112000000D03*
D14*
X161500000Y-73500000D03*
D13*
X119618325Y-115839401D03*
X115500000Y-59000000D03*
D14*
X170500000Y-55000000D03*
D13*
X137000000Y-111000000D03*
D14*
X168500000Y-106000000D03*
D13*
X143536200Y-115750000D03*
X134500000Y-110250000D03*
D14*
X125000000Y-78000000D03*
D13*
X122888400Y-114250000D03*
X135750000Y-91250000D03*
X150000000Y-104500000D03*
X138750000Y-115500000D03*
X145000000Y-93750000D03*
X146036200Y-113000000D03*
D14*
X136500000Y-74500000D03*
D13*
X141500000Y-91500000D03*
X132000000Y-110000000D03*
X158286200Y-113000000D03*
D14*
X168000000Y-64000000D03*
D13*
X138750000Y-102500000D03*
X161000000Y-70750000D03*
X153000000Y-104500000D03*
X143036200Y-113750000D03*
X138000000Y-94250000D03*
X122460000Y-109500000D03*
X131250000Y-113500000D03*
D14*
X168000000Y-82500000D03*
D13*
X139500000Y-96500000D03*
D14*
X162500000Y-113000000D03*
D13*
X129750000Y-107750000D03*
X130250000Y-115000000D03*
D14*
%TO.N,5V*%
X170500000Y-54000000D03*
X172500000Y-55500000D03*
X170500000Y-56000000D03*
X177500000Y-62500000D03*
D13*
%TO.N,3V3*%
X137500000Y-113500000D03*
X144786200Y-111500000D03*
D14*
X122500000Y-88500000D03*
X136000000Y-92000000D03*
D13*
X156786200Y-116500000D03*
D14*
X133500000Y-82500000D03*
D13*
X133750000Y-114000000D03*
X158286200Y-109500000D03*
D14*
X124500000Y-92500000D03*
D13*
X131990000Y-104010000D03*
X143786200Y-110000000D03*
X125250000Y-114250000D03*
X135990000Y-106510000D03*
%TO.N,VBUS*%
X134000000Y-115000000D03*
X129500000Y-113250000D03*
%TO.N,SensorAIn*%
X136500000Y-123750000D03*
X144536200Y-109250000D03*
%TO.N,SensorDIn*%
X156500000Y-118000000D03*
X155546200Y-109990000D03*
%TO.N,BOOT*%
X155500000Y-91000000D03*
X127000000Y-95500000D03*
%TO.N,USART2_TX*%
X147500000Y-102500000D03*
X143250000Y-103500000D03*
%TO.N,USART2_RX*%
X138905555Y-104155555D03*
X148033550Y-103000000D03*
%TO.N,SensorAOut*%
X136000000Y-120000000D03*
X144536200Y-108250000D03*
%TO.N,SensorDOut*%
X155786200Y-109250000D03*
X157750000Y-122500000D03*
D14*
%TO.N,Net-(Q2-S)*%
X164000000Y-66500000D03*
%TO.N,Net-(Q4-S)*%
X165000000Y-106000000D03*
%TO.N,Motor3b_PWM*%
X167000000Y-92500000D03*
D13*
%TO.N,Motor1b_PWM*%
X162500000Y-72500000D03*
X152000000Y-85500000D03*
D14*
%TO.N,Motor2b_PWM*%
X163000000Y-111250000D03*
D13*
%TO.N,SensorCOut*%
X152000000Y-107500000D03*
X151500000Y-115500000D03*
D14*
%TO.N,Motor4b_PWM*%
X139000000Y-86500000D03*
X125500000Y-75500000D03*
%TO.N,Net-(Q7-S)*%
X164500000Y-85000000D03*
D13*
%TO.N,Net-(Q8-S)*%
X120000000Y-76000000D03*
D14*
%TO.N,/motors1/Motor1b-*%
X180500000Y-69500000D03*
D13*
%TO.N,/motors2/Motor4b-*%
X122500000Y-57000000D03*
D14*
%TO.N,/motors1/Motor2b-*%
X180500000Y-108750000D03*
%TO.N,/motors2/Motor3b-*%
X180500000Y-88000000D03*
%TD*%
%TA.AperFunction,Conductor*%
%TO.N,3V3*%
G36*
X124454310Y-78519685D02*
G01*
X124474953Y-78536320D01*
X124521580Y-78582948D01*
X124521584Y-78582951D01*
X124644498Y-78665080D01*
X124644511Y-78665087D01*
X124781082Y-78721656D01*
X124781087Y-78721658D01*
X124781091Y-78721658D01*
X124781092Y-78721659D01*
X124926079Y-78750500D01*
X124926082Y-78750500D01*
X125073920Y-78750500D01*
X125171462Y-78731096D01*
X125218913Y-78721658D01*
X125355495Y-78665084D01*
X125478416Y-78582951D01*
X125525047Y-78536320D01*
X125586370Y-78502834D01*
X125612729Y-78500000D01*
X168876000Y-78500000D01*
X168943039Y-78519685D01*
X168988794Y-78572489D01*
X169000000Y-78624000D01*
X169000000Y-105209192D01*
X168980315Y-105276231D01*
X168927511Y-105321986D01*
X168858353Y-105331930D01*
X168828548Y-105323753D01*
X168718917Y-105278343D01*
X168718907Y-105278340D01*
X168573920Y-105249500D01*
X168573918Y-105249500D01*
X168426082Y-105249500D01*
X168426080Y-105249500D01*
X168281092Y-105278340D01*
X168281082Y-105278343D01*
X168144511Y-105334912D01*
X168144498Y-105334919D01*
X168021584Y-105417048D01*
X168021580Y-105417051D01*
X167917051Y-105521580D01*
X167917048Y-105521584D01*
X167834919Y-105644498D01*
X167834912Y-105644511D01*
X167778343Y-105781082D01*
X167778340Y-105781092D01*
X167749500Y-105926079D01*
X167749500Y-105926082D01*
X167749500Y-106073918D01*
X167749500Y-106073920D01*
X167749499Y-106073920D01*
X167778340Y-106218907D01*
X167778343Y-106218917D01*
X167834912Y-106355488D01*
X167834919Y-106355501D01*
X167917048Y-106478415D01*
X167917051Y-106478419D01*
X168021580Y-106582948D01*
X168021584Y-106582951D01*
X168144498Y-106665080D01*
X168144511Y-106665087D01*
X168239258Y-106704332D01*
X168281087Y-106721658D01*
X168281091Y-106721658D01*
X168281092Y-106721659D01*
X168426079Y-106750500D01*
X168426082Y-106750500D01*
X168573920Y-106750500D01*
X168671462Y-106731096D01*
X168718913Y-106721658D01*
X168828547Y-106676245D01*
X168898017Y-106668777D01*
X168960496Y-106700052D01*
X168996148Y-106760141D01*
X169000000Y-106790807D01*
X169000000Y-124376000D01*
X168997449Y-124384685D01*
X168998738Y-124393647D01*
X168987759Y-124417687D01*
X168980315Y-124443039D01*
X168973474Y-124448966D01*
X168969713Y-124457203D01*
X168947478Y-124471492D01*
X168927511Y-124488794D01*
X168916996Y-124491081D01*
X168910935Y-124494977D01*
X168876000Y-124500000D01*
X168866967Y-124500000D01*
X168799928Y-124480315D01*
X168754173Y-124427511D01*
X168745350Y-124400191D01*
X168724249Y-124294114D01*
X168721658Y-124281087D01*
X168686640Y-124196545D01*
X168665087Y-124144511D01*
X168665080Y-124144498D01*
X168582951Y-124021584D01*
X168582948Y-124021580D01*
X168478419Y-123917051D01*
X168478415Y-123917048D01*
X168355501Y-123834919D01*
X168355488Y-123834912D01*
X168218917Y-123778343D01*
X168218907Y-123778340D01*
X168073920Y-123749500D01*
X168073918Y-123749500D01*
X167926082Y-123749500D01*
X167926080Y-123749500D01*
X167781092Y-123778340D01*
X167781082Y-123778343D01*
X167644511Y-123834912D01*
X167644498Y-123834919D01*
X167521584Y-123917048D01*
X167521580Y-123917051D01*
X167417051Y-124021580D01*
X167417048Y-124021584D01*
X167334919Y-124144498D01*
X167334912Y-124144511D01*
X167278343Y-124281082D01*
X167278340Y-124281094D01*
X167254650Y-124400191D01*
X167222265Y-124462102D01*
X167161549Y-124496676D01*
X167133033Y-124500000D01*
X137040019Y-124500000D01*
X136972980Y-124480315D01*
X136927225Y-124427511D01*
X136917281Y-124358353D01*
X136946306Y-124294797D01*
X136952338Y-124288319D01*
X137044111Y-124196545D01*
X137044114Y-124196542D01*
X137120775Y-124081811D01*
X137173580Y-123954328D01*
X137197333Y-123834916D01*
X137200500Y-123818995D01*
X137200500Y-123681004D01*
X137173581Y-123545677D01*
X137173580Y-123545676D01*
X137173580Y-123545672D01*
X137173578Y-123545667D01*
X137120778Y-123418195D01*
X137120771Y-123418182D01*
X137044114Y-123303458D01*
X137044111Y-123303454D01*
X136946545Y-123205888D01*
X136946541Y-123205885D01*
X136831817Y-123129228D01*
X136831804Y-123129221D01*
X136704332Y-123076421D01*
X136704322Y-123076418D01*
X136568995Y-123049500D01*
X136568993Y-123049500D01*
X136431007Y-123049500D01*
X136431005Y-123049500D01*
X136295677Y-123076418D01*
X136295667Y-123076421D01*
X136168195Y-123129221D01*
X136168182Y-123129228D01*
X136053458Y-123205885D01*
X136053454Y-123205888D01*
X135955888Y-123303454D01*
X135955885Y-123303458D01*
X135879228Y-123418182D01*
X135879221Y-123418195D01*
X135826421Y-123545667D01*
X135826418Y-123545677D01*
X135799500Y-123681004D01*
X135799500Y-123681007D01*
X135799500Y-123818993D01*
X135799500Y-123818995D01*
X135799499Y-123818995D01*
X135826418Y-123954322D01*
X135826421Y-123954332D01*
X135879221Y-124081804D01*
X135879228Y-124081817D01*
X135955885Y-124196541D01*
X135955888Y-124196545D01*
X136047662Y-124288319D01*
X136081147Y-124349642D01*
X136076163Y-124419334D01*
X136034291Y-124475267D01*
X135968827Y-124499684D01*
X135959981Y-124500000D01*
X120624000Y-124500000D01*
X120556961Y-124480315D01*
X120511206Y-124427511D01*
X120500000Y-124376000D01*
X120500000Y-122568995D01*
X157049499Y-122568995D01*
X157076418Y-122704322D01*
X157076421Y-122704332D01*
X157129221Y-122831804D01*
X157129228Y-122831817D01*
X157205885Y-122946541D01*
X157205888Y-122946545D01*
X157303454Y-123044111D01*
X157303458Y-123044114D01*
X157418182Y-123120771D01*
X157418195Y-123120778D01*
X157545667Y-123173578D01*
X157545672Y-123173580D01*
X157545676Y-123173580D01*
X157545677Y-123173581D01*
X157681004Y-123200500D01*
X157681007Y-123200500D01*
X157818995Y-123200500D01*
X157910041Y-123182389D01*
X157954328Y-123173580D01*
X158061411Y-123129225D01*
X158081804Y-123120778D01*
X158081804Y-123120777D01*
X158081811Y-123120775D01*
X158196542Y-123044114D01*
X158294114Y-122946542D01*
X158370775Y-122831811D01*
X158423580Y-122704328D01*
X158450500Y-122568993D01*
X158450500Y-122431007D01*
X158450500Y-122431004D01*
X158423581Y-122295677D01*
X158423580Y-122295676D01*
X158423580Y-122295672D01*
X158423578Y-122295667D01*
X158370778Y-122168195D01*
X158370771Y-122168182D01*
X158294114Y-122053458D01*
X158294111Y-122053454D01*
X158196545Y-121955888D01*
X158196541Y-121955885D01*
X158081817Y-121879228D01*
X158081804Y-121879221D01*
X157954332Y-121826421D01*
X157954322Y-121826418D01*
X157818995Y-121799500D01*
X157818993Y-121799500D01*
X157681007Y-121799500D01*
X157681005Y-121799500D01*
X157545677Y-121826418D01*
X157545667Y-121826421D01*
X157418195Y-121879221D01*
X157418182Y-121879228D01*
X157303458Y-121955885D01*
X157303454Y-121955888D01*
X157205888Y-122053454D01*
X157205885Y-122053458D01*
X157129228Y-122168182D01*
X157129221Y-122168195D01*
X157076421Y-122295667D01*
X157076418Y-122295677D01*
X157049500Y-122431004D01*
X157049500Y-122431007D01*
X157049500Y-122568993D01*
X157049500Y-122568995D01*
X157049499Y-122568995D01*
X120500000Y-122568995D01*
X120500000Y-120068995D01*
X135299499Y-120068995D01*
X135326418Y-120204322D01*
X135326421Y-120204332D01*
X135379221Y-120331804D01*
X135379228Y-120331817D01*
X135455885Y-120446541D01*
X135455888Y-120446545D01*
X135553454Y-120544111D01*
X135553458Y-120544114D01*
X135668182Y-120620771D01*
X135668195Y-120620778D01*
X135795667Y-120673578D01*
X135795672Y-120673580D01*
X135795676Y-120673580D01*
X135795677Y-120673581D01*
X135931004Y-120700500D01*
X135931007Y-120700500D01*
X136068995Y-120700500D01*
X136160041Y-120682389D01*
X136204328Y-120673580D01*
X136331811Y-120620775D01*
X136446542Y-120544114D01*
X136544114Y-120446542D01*
X136620775Y-120331811D01*
X136673580Y-120204328D01*
X136700500Y-120068993D01*
X136700500Y-119931007D01*
X136700500Y-119931004D01*
X136673581Y-119795677D01*
X136673580Y-119795676D01*
X136673580Y-119795672D01*
X136673578Y-119795667D01*
X136620778Y-119668195D01*
X136620771Y-119668182D01*
X136544114Y-119553458D01*
X136544111Y-119553454D01*
X136446545Y-119455888D01*
X136446541Y-119455885D01*
X136331817Y-119379228D01*
X136331804Y-119379221D01*
X136204332Y-119326421D01*
X136204322Y-119326418D01*
X136068995Y-119299500D01*
X136068993Y-119299500D01*
X135931007Y-119299500D01*
X135931005Y-119299500D01*
X135795677Y-119326418D01*
X135795667Y-119326421D01*
X135668195Y-119379221D01*
X135668182Y-119379228D01*
X135553458Y-119455885D01*
X135553454Y-119455888D01*
X135455888Y-119553454D01*
X135455885Y-119553458D01*
X135379228Y-119668182D01*
X135379221Y-119668195D01*
X135326421Y-119795667D01*
X135326418Y-119795677D01*
X135299500Y-119931004D01*
X135299500Y-119931007D01*
X135299500Y-120068993D01*
X135299500Y-120068995D01*
X135299499Y-120068995D01*
X120500000Y-120068995D01*
X120500000Y-118068995D01*
X155799499Y-118068995D01*
X155826418Y-118204322D01*
X155826421Y-118204332D01*
X155879221Y-118331804D01*
X155879228Y-118331817D01*
X155955885Y-118446541D01*
X155955888Y-118446545D01*
X156053454Y-118544111D01*
X156053458Y-118544114D01*
X156168182Y-118620771D01*
X156168195Y-118620778D01*
X156295667Y-118673578D01*
X156295672Y-118673580D01*
X156295676Y-118673580D01*
X156295677Y-118673581D01*
X156431004Y-118700500D01*
X156431007Y-118700500D01*
X156568995Y-118700500D01*
X156660041Y-118682389D01*
X156704328Y-118673580D01*
X156831811Y-118620775D01*
X156946542Y-118544114D01*
X157044114Y-118446542D01*
X157120775Y-118331811D01*
X157173580Y-118204328D01*
X157200500Y-118068993D01*
X157200500Y-117931007D01*
X157200500Y-117931004D01*
X157173581Y-117795677D01*
X157173580Y-117795676D01*
X157173580Y-117795672D01*
X157141787Y-117718917D01*
X157120778Y-117668195D01*
X157120771Y-117668182D01*
X157057786Y-117573920D01*
X161749499Y-117573920D01*
X161778340Y-117718907D01*
X161778343Y-117718917D01*
X161834912Y-117855488D01*
X161834919Y-117855501D01*
X161917048Y-117978415D01*
X161917051Y-117978419D01*
X162021580Y-118082948D01*
X162021584Y-118082951D01*
X162144498Y-118165080D01*
X162144511Y-118165087D01*
X162239258Y-118204332D01*
X162281087Y-118221658D01*
X162281091Y-118221658D01*
X162281092Y-118221659D01*
X162426079Y-118250500D01*
X162426082Y-118250500D01*
X162573920Y-118250500D01*
X162671462Y-118231096D01*
X162718913Y-118221658D01*
X162855495Y-118165084D01*
X162978416Y-118082951D01*
X163082951Y-117978416D01*
X163165084Y-117855495D01*
X163221658Y-117718913D01*
X163250500Y-117573918D01*
X163250500Y-117426082D01*
X163250500Y-117426079D01*
X163221659Y-117281092D01*
X163221658Y-117281091D01*
X163221658Y-117281087D01*
X163221656Y-117281082D01*
X163165087Y-117144511D01*
X163165080Y-117144498D01*
X163082951Y-117021584D01*
X163082948Y-117021580D01*
X162978419Y-116917051D01*
X162978415Y-116917048D01*
X162855501Y-116834919D01*
X162855488Y-116834912D01*
X162718917Y-116778343D01*
X162718907Y-116778340D01*
X162573920Y-116749500D01*
X162573918Y-116749500D01*
X162426082Y-116749500D01*
X162426080Y-116749500D01*
X162281092Y-116778340D01*
X162281082Y-116778343D01*
X162144511Y-116834912D01*
X162144498Y-116834919D01*
X162021584Y-116917048D01*
X162021580Y-116917051D01*
X161917051Y-117021580D01*
X161917048Y-117021584D01*
X161834919Y-117144498D01*
X161834912Y-117144511D01*
X161778343Y-117281082D01*
X161778340Y-117281092D01*
X161749500Y-117426079D01*
X161749500Y-117426082D01*
X161749500Y-117573918D01*
X161749500Y-117573920D01*
X161749499Y-117573920D01*
X157057786Y-117573920D01*
X157044114Y-117553458D01*
X157044111Y-117553454D01*
X156946545Y-117455888D01*
X156946541Y-117455885D01*
X156831817Y-117379228D01*
X156831804Y-117379221D01*
X156704332Y-117326421D01*
X156704322Y-117326418D01*
X156568995Y-117299500D01*
X156568993Y-117299500D01*
X156431007Y-117299500D01*
X156431005Y-117299500D01*
X156295677Y-117326418D01*
X156295667Y-117326421D01*
X156168195Y-117379221D01*
X156168182Y-117379228D01*
X156053458Y-117455885D01*
X156053454Y-117455888D01*
X155955888Y-117553454D01*
X155955885Y-117553458D01*
X155879228Y-117668182D01*
X155879221Y-117668195D01*
X155826421Y-117795667D01*
X155826418Y-117795677D01*
X155799500Y-117931004D01*
X155799500Y-117931007D01*
X155799500Y-118068993D01*
X155799500Y-118068995D01*
X155799499Y-118068995D01*
X120500000Y-118068995D01*
X120500000Y-115068995D01*
X129549499Y-115068995D01*
X129576418Y-115204322D01*
X129576421Y-115204332D01*
X129629221Y-115331804D01*
X129629228Y-115331817D01*
X129705885Y-115446541D01*
X129705888Y-115446545D01*
X129803454Y-115544111D01*
X129803458Y-115544114D01*
X129918182Y-115620771D01*
X129918195Y-115620778D01*
X130045667Y-115673578D01*
X130045672Y-115673580D01*
X130045676Y-115673580D01*
X130045677Y-115673581D01*
X130181004Y-115700500D01*
X130181007Y-115700500D01*
X130318995Y-115700500D01*
X130417005Y-115681004D01*
X130454328Y-115673580D01*
X130581811Y-115620775D01*
X130696542Y-115544114D01*
X130794114Y-115446542D01*
X130870775Y-115331811D01*
X130923580Y-115204328D01*
X130932389Y-115160041D01*
X130950500Y-115068995D01*
X133299499Y-115068995D01*
X133326418Y-115204322D01*
X133326421Y-115204332D01*
X133379221Y-115331804D01*
X133379228Y-115331817D01*
X133455885Y-115446541D01*
X133455888Y-115446545D01*
X133553454Y-115544111D01*
X133553458Y-115544114D01*
X133668182Y-115620771D01*
X133668195Y-115620778D01*
X133795667Y-115673578D01*
X133795672Y-115673580D01*
X133795676Y-115673580D01*
X133795677Y-115673581D01*
X133931004Y-115700500D01*
X133931007Y-115700500D01*
X134068995Y-115700500D01*
X134167005Y-115681004D01*
X134204328Y-115673580D01*
X134331811Y-115620775D01*
X134409305Y-115568995D01*
X138049499Y-115568995D01*
X138076418Y-115704322D01*
X138076421Y-115704332D01*
X138129221Y-115831804D01*
X138129228Y-115831817D01*
X138205885Y-115946541D01*
X138205888Y-115946545D01*
X138303454Y-116044111D01*
X138303458Y-116044114D01*
X138418182Y-116120771D01*
X138418195Y-116120778D01*
X138545667Y-116173578D01*
X138545672Y-116173580D01*
X138545676Y-116173580D01*
X138545677Y-116173581D01*
X138681004Y-116200500D01*
X138681007Y-116200500D01*
X138818995Y-116200500D01*
X138910041Y-116182389D01*
X138954328Y-116173580D01*
X139081811Y-116120775D01*
X139196542Y-116044114D01*
X139294114Y-115946542D01*
X139370775Y-115831811D01*
X139376084Y-115818995D01*
X142835699Y-115818995D01*
X142862618Y-115954322D01*
X142862621Y-115954332D01*
X142915421Y-116081804D01*
X142915428Y-116081817D01*
X142992085Y-116196541D01*
X142992088Y-116196545D01*
X143089654Y-116294111D01*
X143089658Y-116294114D01*
X143204382Y-116370771D01*
X143204395Y-116370778D01*
X143331867Y-116423578D01*
X143331872Y-116423580D01*
X143331876Y-116423580D01*
X143331877Y-116423581D01*
X143467204Y-116450500D01*
X143467207Y-116450500D01*
X143605195Y-116450500D01*
X143696241Y-116432389D01*
X143740528Y-116423580D01*
X143868011Y-116370775D01*
X143982742Y-116294114D01*
X144080314Y-116196542D01*
X144156975Y-116081811D01*
X144209780Y-115954328D01*
X144234149Y-115831817D01*
X144236700Y-115818995D01*
X144236700Y-115681004D01*
X144214419Y-115568995D01*
X150799499Y-115568995D01*
X150826418Y-115704322D01*
X150826421Y-115704332D01*
X150879221Y-115831804D01*
X150879228Y-115831817D01*
X150955885Y-115946541D01*
X150955888Y-115946545D01*
X151053454Y-116044111D01*
X151053458Y-116044114D01*
X151168182Y-116120771D01*
X151168195Y-116120778D01*
X151295667Y-116173578D01*
X151295672Y-116173580D01*
X151295676Y-116173580D01*
X151295677Y-116173581D01*
X151431004Y-116200500D01*
X151431007Y-116200500D01*
X151568995Y-116200500D01*
X151660041Y-116182389D01*
X151704328Y-116173580D01*
X151831811Y-116120775D01*
X151946542Y-116044114D01*
X152044114Y-115946542D01*
X152120775Y-115831811D01*
X152173580Y-115704328D01*
X152200500Y-115568993D01*
X152200500Y-115431007D01*
X152200500Y-115431004D01*
X152173581Y-115295677D01*
X152173580Y-115295676D01*
X152173580Y-115295672D01*
X152173578Y-115295667D01*
X152120778Y-115168195D01*
X152120771Y-115168182D01*
X152044114Y-115053458D01*
X152044111Y-115053454D01*
X151946545Y-114955888D01*
X151946541Y-114955885D01*
X151831817Y-114879228D01*
X151831804Y-114879221D01*
X151704332Y-114826421D01*
X151704322Y-114826418D01*
X151568995Y-114799500D01*
X151568993Y-114799500D01*
X151431007Y-114799500D01*
X151431005Y-114799500D01*
X151295677Y-114826418D01*
X151295667Y-114826421D01*
X151168195Y-114879221D01*
X151168182Y-114879228D01*
X151053458Y-114955885D01*
X151053454Y-114955888D01*
X150955888Y-115053454D01*
X150955885Y-115053458D01*
X150879228Y-115168182D01*
X150879221Y-115168195D01*
X150826421Y-115295667D01*
X150826418Y-115295677D01*
X150799500Y-115431004D01*
X150799500Y-115431007D01*
X150799500Y-115568993D01*
X150799500Y-115568995D01*
X150799499Y-115568995D01*
X144214419Y-115568995D01*
X144209781Y-115545677D01*
X144209780Y-115545676D01*
X144209780Y-115545672D01*
X144209135Y-115544114D01*
X144179417Y-115472367D01*
X144156976Y-115418192D01*
X144156975Y-115418189D01*
X144156973Y-115418186D01*
X144156971Y-115418182D01*
X144080314Y-115303458D01*
X144080311Y-115303454D01*
X143982745Y-115205888D01*
X143982741Y-115205885D01*
X143868017Y-115129228D01*
X143868004Y-115129221D01*
X143740532Y-115076421D01*
X143740522Y-115076418D01*
X143605195Y-115049500D01*
X143605193Y-115049500D01*
X143467207Y-115049500D01*
X143467205Y-115049500D01*
X143331877Y-115076418D01*
X143331867Y-115076421D01*
X143204395Y-115129221D01*
X143204382Y-115129228D01*
X143089658Y-115205885D01*
X143089654Y-115205888D01*
X142992088Y-115303454D01*
X142992085Y-115303458D01*
X142915428Y-115418182D01*
X142915421Y-115418195D01*
X142862621Y-115545667D01*
X142862618Y-115545677D01*
X142835700Y-115681004D01*
X142835700Y-115681007D01*
X142835700Y-115818993D01*
X142835700Y-115818995D01*
X142835699Y-115818995D01*
X139376084Y-115818995D01*
X139423580Y-115704328D01*
X139434243Y-115650723D01*
X139450500Y-115568995D01*
X139450500Y-115431004D01*
X139423581Y-115295677D01*
X139423580Y-115295676D01*
X139423580Y-115295672D01*
X139423578Y-115295667D01*
X139370778Y-115168195D01*
X139370771Y-115168182D01*
X139294114Y-115053458D01*
X139294111Y-115053454D01*
X139196545Y-114955888D01*
X139196541Y-114955885D01*
X139081817Y-114879228D01*
X139081804Y-114879221D01*
X138954332Y-114826421D01*
X138954322Y-114826418D01*
X138818995Y-114799500D01*
X138818993Y-114799500D01*
X138681007Y-114799500D01*
X138681005Y-114799500D01*
X138545677Y-114826418D01*
X138545667Y-114826421D01*
X138418195Y-114879221D01*
X138418182Y-114879228D01*
X138303458Y-114955885D01*
X138303454Y-114955888D01*
X138205888Y-115053454D01*
X138205885Y-115053458D01*
X138129228Y-115168182D01*
X138129221Y-115168195D01*
X138076421Y-115295667D01*
X138076418Y-115295677D01*
X138049500Y-115431004D01*
X138049500Y-115431007D01*
X138049500Y-115568993D01*
X138049500Y-115568995D01*
X138049499Y-115568995D01*
X134409305Y-115568995D01*
X134446542Y-115544114D01*
X134544114Y-115446542D01*
X134574752Y-115400688D01*
X134604597Y-115356024D01*
X134620771Y-115331817D01*
X134620771Y-115331816D01*
X134620775Y-115331811D01*
X134673580Y-115204328D01*
X134682389Y-115160041D01*
X134700500Y-115068995D01*
X134700500Y-114931004D01*
X134673581Y-114795677D01*
X134673580Y-114795676D01*
X134673580Y-114795672D01*
X134672933Y-114794111D01*
X134620778Y-114668195D01*
X134620771Y-114668182D01*
X134544114Y-114553458D01*
X134544111Y-114553454D01*
X134446545Y-114455888D01*
X134446541Y-114455885D01*
X134331817Y-114379228D01*
X134331804Y-114379221D01*
X134204332Y-114326421D01*
X134204322Y-114326418D01*
X134068995Y-114299500D01*
X134068993Y-114299500D01*
X133931007Y-114299500D01*
X133931005Y-114299500D01*
X133795677Y-114326418D01*
X133795667Y-114326421D01*
X133668195Y-114379221D01*
X133668182Y-114379228D01*
X133553458Y-114455885D01*
X133553454Y-114455888D01*
X133455888Y-114553454D01*
X133455885Y-114553458D01*
X133379228Y-114668182D01*
X133379221Y-114668195D01*
X133326421Y-114795667D01*
X133326418Y-114795677D01*
X133299500Y-114931004D01*
X133299500Y-114931007D01*
X133299500Y-115068993D01*
X133299500Y-115068995D01*
X133299499Y-115068995D01*
X130950500Y-115068995D01*
X130950500Y-114931004D01*
X130923581Y-114795677D01*
X130923580Y-114795676D01*
X130923580Y-114795672D01*
X130922933Y-114794111D01*
X130870778Y-114668195D01*
X130870771Y-114668182D01*
X130794114Y-114553458D01*
X130794111Y-114553454D01*
X130696545Y-114455888D01*
X130696541Y-114455885D01*
X130581817Y-114379228D01*
X130581804Y-114379221D01*
X130454332Y-114326421D01*
X130454322Y-114326418D01*
X130318995Y-114299500D01*
X130318993Y-114299500D01*
X130181007Y-114299500D01*
X130181005Y-114299500D01*
X130045677Y-114326418D01*
X130045667Y-114326421D01*
X129918195Y-114379221D01*
X129918182Y-114379228D01*
X129803458Y-114455885D01*
X129803454Y-114455888D01*
X129705888Y-114553454D01*
X129705885Y-114553458D01*
X129629228Y-114668182D01*
X129629221Y-114668195D01*
X129576421Y-114795667D01*
X129576418Y-114795677D01*
X129549500Y-114931004D01*
X129549500Y-114931007D01*
X129549500Y-115068993D01*
X129549500Y-115068995D01*
X129549499Y-115068995D01*
X120500000Y-115068995D01*
X120500000Y-114318995D01*
X122187899Y-114318995D01*
X122214818Y-114454322D01*
X122214821Y-114454332D01*
X122267621Y-114581804D01*
X122267628Y-114581817D01*
X122344285Y-114696541D01*
X122344288Y-114696545D01*
X122441854Y-114794111D01*
X122441858Y-114794114D01*
X122556582Y-114870771D01*
X122556595Y-114870778D01*
X122684067Y-114923578D01*
X122684072Y-114923580D01*
X122684076Y-114923580D01*
X122684077Y-114923581D01*
X122819404Y-114950500D01*
X122819407Y-114950500D01*
X122957395Y-114950500D01*
X123055405Y-114931004D01*
X123092728Y-114923580D01*
X123199811Y-114879225D01*
X123220204Y-114870778D01*
X123220204Y-114870777D01*
X123220211Y-114870775D01*
X123220217Y-114870771D01*
X123293488Y-114821813D01*
X123326881Y-114799500D01*
X123334942Y-114794114D01*
X123432514Y-114696542D01*
X123509175Y-114581811D01*
X123561980Y-114454328D01*
X123570789Y-114410041D01*
X123588900Y-114318995D01*
X123588900Y-114181004D01*
X123561981Y-114045677D01*
X123561980Y-114045676D01*
X123561980Y-114045672D01*
X123524146Y-113954332D01*
X123509178Y-113918195D01*
X123509171Y-113918182D01*
X123432514Y-113803458D01*
X123432511Y-113803454D01*
X123334945Y-113705888D01*
X123334941Y-113705885D01*
X123220217Y-113629228D01*
X123220204Y-113629221D01*
X123092732Y-113576421D01*
X123092722Y-113576418D01*
X122957395Y-113549500D01*
X122957393Y-113549500D01*
X122819407Y-113549500D01*
X122819405Y-113549500D01*
X122684077Y-113576418D01*
X122684067Y-113576421D01*
X122556595Y-113629221D01*
X122556582Y-113629228D01*
X122441858Y-113705885D01*
X122441854Y-113705888D01*
X122344288Y-113803454D01*
X122344285Y-113803458D01*
X122267628Y-113918182D01*
X122267621Y-113918195D01*
X122214821Y-114045667D01*
X122214818Y-114045677D01*
X122187900Y-114181004D01*
X122187900Y-114181007D01*
X122187900Y-114318993D01*
X122187900Y-114318995D01*
X122187899Y-114318995D01*
X120500000Y-114318995D01*
X120500000Y-113318995D01*
X128799499Y-113318995D01*
X128826418Y-113454322D01*
X128826421Y-113454332D01*
X128879221Y-113581804D01*
X128879228Y-113581817D01*
X128955885Y-113696541D01*
X128955888Y-113696545D01*
X129053454Y-113794111D01*
X129053458Y-113794114D01*
X129168182Y-113870771D01*
X129168195Y-113870778D01*
X129282640Y-113918182D01*
X129295672Y-113923580D01*
X129295676Y-113923580D01*
X129295677Y-113923581D01*
X129431004Y-113950500D01*
X129431007Y-113950500D01*
X129568995Y-113950500D01*
X129660041Y-113932389D01*
X129704328Y-113923580D01*
X129831811Y-113870775D01*
X129946542Y-113794114D01*
X130044114Y-113696542D01*
X130120775Y-113581811D01*
X130126084Y-113568995D01*
X130549499Y-113568995D01*
X130576418Y-113704322D01*
X130576421Y-113704332D01*
X130629221Y-113831804D01*
X130629228Y-113831817D01*
X130705885Y-113946541D01*
X130705888Y-113946545D01*
X130803454Y-114044111D01*
X130803458Y-114044114D01*
X130918182Y-114120771D01*
X130918195Y-114120778D01*
X131045667Y-114173578D01*
X131045672Y-114173580D01*
X131045676Y-114173580D01*
X131045677Y-114173581D01*
X131181004Y-114200500D01*
X131181007Y-114200500D01*
X131318995Y-114200500D01*
X131417005Y-114181004D01*
X131454328Y-114173580D01*
X131581811Y-114120775D01*
X131696542Y-114044114D01*
X131794114Y-113946542D01*
X131870775Y-113831811D01*
X131876084Y-113818995D01*
X142335699Y-113818995D01*
X142362618Y-113954322D01*
X142362621Y-113954332D01*
X142415421Y-114081804D01*
X142415428Y-114081817D01*
X142492085Y-114196541D01*
X142492088Y-114196545D01*
X142589654Y-114294111D01*
X142589658Y-114294114D01*
X142704382Y-114370771D01*
X142704395Y-114370778D01*
X142831867Y-114423578D01*
X142831872Y-114423580D01*
X142831876Y-114423580D01*
X142831877Y-114423581D01*
X142967204Y-114450500D01*
X142967207Y-114450500D01*
X143105195Y-114450500D01*
X143196241Y-114432389D01*
X143240528Y-114423580D01*
X143347611Y-114379225D01*
X143368004Y-114370778D01*
X143368004Y-114370777D01*
X143368011Y-114370775D01*
X143482742Y-114294114D01*
X143580314Y-114196542D01*
X143656975Y-114081811D01*
X143709780Y-113954328D01*
X143734149Y-113831817D01*
X143736700Y-113818995D01*
X143736700Y-113681004D01*
X143709781Y-113545677D01*
X143709780Y-113545676D01*
X143709780Y-113545672D01*
X143681922Y-113478416D01*
X143656978Y-113418195D01*
X143656971Y-113418182D01*
X143580314Y-113303458D01*
X143580311Y-113303454D01*
X143482745Y-113205888D01*
X143482741Y-113205885D01*
X143368017Y-113129228D01*
X143368004Y-113129221D01*
X143240532Y-113076421D01*
X143240522Y-113076418D01*
X143203204Y-113068995D01*
X145335699Y-113068995D01*
X145362618Y-113204322D01*
X145362621Y-113204332D01*
X145415421Y-113331804D01*
X145415428Y-113331817D01*
X145492085Y-113446541D01*
X145492088Y-113446545D01*
X145589654Y-113544111D01*
X145589658Y-113544114D01*
X145704382Y-113620771D01*
X145704395Y-113620778D01*
X145811368Y-113665087D01*
X145831872Y-113673580D01*
X145831876Y-113673580D01*
X145831877Y-113673581D01*
X145967204Y-113700500D01*
X145967207Y-113700500D01*
X146105195Y-113700500D01*
X146203205Y-113681004D01*
X146240528Y-113673580D01*
X146347611Y-113629225D01*
X146368004Y-113620778D01*
X146368004Y-113620777D01*
X146368011Y-113620775D01*
X146482742Y-113544114D01*
X146580314Y-113446542D01*
X146656975Y-113331811D01*
X146709780Y-113204328D01*
X146718589Y-113160041D01*
X146736700Y-113068995D01*
X157585699Y-113068995D01*
X157612618Y-113204322D01*
X157612621Y-113204332D01*
X157665421Y-113331804D01*
X157665428Y-113331817D01*
X157742085Y-113446541D01*
X157742088Y-113446545D01*
X157839654Y-113544111D01*
X157839658Y-113544114D01*
X157954382Y-113620771D01*
X157954395Y-113620778D01*
X158061368Y-113665087D01*
X158081872Y-113673580D01*
X158081876Y-113673580D01*
X158081877Y-113673581D01*
X158217204Y-113700500D01*
X158217207Y-113700500D01*
X158355195Y-113700500D01*
X158453205Y-113681004D01*
X158490528Y-113673580D01*
X158597611Y-113629225D01*
X158618004Y-113620778D01*
X158618004Y-113620777D01*
X158618011Y-113620775D01*
X158732742Y-113544114D01*
X158830314Y-113446542D01*
X158906975Y-113331811D01*
X158959780Y-113204328D01*
X158968589Y-113160041D01*
X158985720Y-113073920D01*
X161749499Y-113073920D01*
X161778340Y-113218907D01*
X161778343Y-113218917D01*
X161834912Y-113355488D01*
X161834919Y-113355501D01*
X161917048Y-113478415D01*
X161917051Y-113478419D01*
X162021580Y-113582948D01*
X162021584Y-113582951D01*
X162144498Y-113665080D01*
X162144511Y-113665087D01*
X162281082Y-113721656D01*
X162281087Y-113721658D01*
X162281091Y-113721658D01*
X162281092Y-113721659D01*
X162426079Y-113750500D01*
X162426082Y-113750500D01*
X162573920Y-113750500D01*
X162671462Y-113731096D01*
X162718913Y-113721658D01*
X162855495Y-113665084D01*
X162978416Y-113582951D01*
X163082951Y-113478416D01*
X163165084Y-113355495D01*
X163221658Y-113218913D01*
X163239498Y-113129228D01*
X163250500Y-113073920D01*
X163250500Y-112926079D01*
X163221659Y-112781092D01*
X163221658Y-112781091D01*
X163221658Y-112781087D01*
X163190509Y-112705886D01*
X163165087Y-112644511D01*
X163165080Y-112644498D01*
X163082951Y-112521584D01*
X163082948Y-112521580D01*
X162978419Y-112417051D01*
X162978415Y-112417048D01*
X162855501Y-112334919D01*
X162855488Y-112334912D01*
X162718917Y-112278343D01*
X162718907Y-112278340D01*
X162573920Y-112249500D01*
X162573918Y-112249500D01*
X162426082Y-112249500D01*
X162426080Y-112249500D01*
X162281092Y-112278340D01*
X162281082Y-112278343D01*
X162144511Y-112334912D01*
X162144498Y-112334919D01*
X162021584Y-112417048D01*
X162021580Y-112417051D01*
X161917051Y-112521580D01*
X161917048Y-112521584D01*
X161834919Y-112644498D01*
X161834912Y-112644511D01*
X161778343Y-112781082D01*
X161778340Y-112781092D01*
X161749500Y-112926079D01*
X161749500Y-112926082D01*
X161749500Y-113073918D01*
X161749500Y-113073920D01*
X161749499Y-113073920D01*
X158985720Y-113073920D01*
X158986700Y-113068995D01*
X158986700Y-112931004D01*
X158959781Y-112795677D01*
X158959780Y-112795676D01*
X158959780Y-112795672D01*
X158953737Y-112781082D01*
X158906978Y-112668195D01*
X158906971Y-112668182D01*
X158830314Y-112553458D01*
X158830311Y-112553454D01*
X158732745Y-112455888D01*
X158732741Y-112455885D01*
X158618017Y-112379228D01*
X158618004Y-112379221D01*
X158490532Y-112326421D01*
X158490522Y-112326418D01*
X158355195Y-112299500D01*
X158355193Y-112299500D01*
X158217207Y-112299500D01*
X158217205Y-112299500D01*
X158081877Y-112326418D01*
X158081867Y-112326421D01*
X157954395Y-112379221D01*
X157954382Y-112379228D01*
X157839658Y-112455885D01*
X157839654Y-112455888D01*
X157742088Y-112553454D01*
X157742085Y-112553458D01*
X157665428Y-112668182D01*
X157665421Y-112668195D01*
X157612621Y-112795667D01*
X157612618Y-112795677D01*
X157585700Y-112931004D01*
X157585700Y-112931007D01*
X157585700Y-113068993D01*
X157585700Y-113068995D01*
X157585699Y-113068995D01*
X146736700Y-113068995D01*
X146736700Y-112931004D01*
X146709781Y-112795677D01*
X146709780Y-112795676D01*
X146709780Y-112795672D01*
X146703737Y-112781082D01*
X146656978Y-112668195D01*
X146656971Y-112668182D01*
X146580314Y-112553458D01*
X146580311Y-112553454D01*
X146482745Y-112455888D01*
X146482741Y-112455885D01*
X146368017Y-112379228D01*
X146368004Y-112379221D01*
X146240532Y-112326421D01*
X146240522Y-112326418D01*
X146105195Y-112299500D01*
X146105193Y-112299500D01*
X145967207Y-112299500D01*
X145967205Y-112299500D01*
X145831877Y-112326418D01*
X145831867Y-112326421D01*
X145704395Y-112379221D01*
X145704382Y-112379228D01*
X145589658Y-112455885D01*
X145589654Y-112455888D01*
X145492088Y-112553454D01*
X145492085Y-112553458D01*
X145415428Y-112668182D01*
X145415421Y-112668195D01*
X145362621Y-112795667D01*
X145362618Y-112795677D01*
X145335700Y-112931004D01*
X145335700Y-112931007D01*
X145335700Y-113068993D01*
X145335700Y-113068995D01*
X145335699Y-113068995D01*
X143203204Y-113068995D01*
X143105195Y-113049500D01*
X143105193Y-113049500D01*
X142967207Y-113049500D01*
X142967205Y-113049500D01*
X142831877Y-113076418D01*
X142831867Y-113076421D01*
X142704395Y-113129221D01*
X142704382Y-113129228D01*
X142589658Y-113205885D01*
X142589654Y-113205888D01*
X142492088Y-113303454D01*
X142492085Y-113303458D01*
X142415428Y-113418182D01*
X142415421Y-113418195D01*
X142362621Y-113545667D01*
X142362618Y-113545677D01*
X142335700Y-113681004D01*
X142335700Y-113681007D01*
X142335700Y-113818993D01*
X142335700Y-113818995D01*
X142335699Y-113818995D01*
X131876084Y-113818995D01*
X131923580Y-113704328D01*
X131934243Y-113650723D01*
X131950500Y-113568995D01*
X131950500Y-113431004D01*
X131923581Y-113295677D01*
X131923580Y-113295676D01*
X131923580Y-113295672D01*
X131891787Y-113218917D01*
X131870778Y-113168195D01*
X131870771Y-113168182D01*
X131794114Y-113053458D01*
X131794111Y-113053454D01*
X131696545Y-112955888D01*
X131696541Y-112955885D01*
X131581817Y-112879228D01*
X131581804Y-112879221D01*
X131454332Y-112826421D01*
X131454322Y-112826418D01*
X131318995Y-112799500D01*
X131318993Y-112799500D01*
X131181007Y-112799500D01*
X131181005Y-112799500D01*
X131045677Y-112826418D01*
X131045667Y-112826421D01*
X130918195Y-112879221D01*
X130918182Y-112879228D01*
X130803458Y-112955885D01*
X130803454Y-112955888D01*
X130705888Y-113053454D01*
X130705885Y-113053458D01*
X130629228Y-113168182D01*
X130629221Y-113168195D01*
X130576421Y-113295667D01*
X130576418Y-113295677D01*
X130549500Y-113431004D01*
X130549500Y-113431007D01*
X130549500Y-113568993D01*
X130549500Y-113568995D01*
X130549499Y-113568995D01*
X130126084Y-113568995D01*
X130173580Y-113454328D01*
X130193238Y-113355501D01*
X130200500Y-113318995D01*
X130200500Y-113181004D01*
X130173581Y-113045677D01*
X130173580Y-113045676D01*
X130173580Y-113045672D01*
X130173578Y-113045667D01*
X130120778Y-112918195D01*
X130120771Y-112918182D01*
X130044114Y-112803458D01*
X130044111Y-112803454D01*
X129946545Y-112705888D01*
X129946541Y-112705885D01*
X129831817Y-112629228D01*
X129831804Y-112629221D01*
X129704332Y-112576421D01*
X129704322Y-112576418D01*
X129568995Y-112549500D01*
X129568993Y-112549500D01*
X129431007Y-112549500D01*
X129431005Y-112549500D01*
X129295677Y-112576418D01*
X129295667Y-112576421D01*
X129168195Y-112629221D01*
X129168182Y-112629228D01*
X129053458Y-112705885D01*
X129053454Y-112705888D01*
X128955888Y-112803454D01*
X128955885Y-112803458D01*
X128879228Y-112918182D01*
X128879221Y-112918195D01*
X128826421Y-113045667D01*
X128826418Y-113045677D01*
X128799500Y-113181004D01*
X128799500Y-113181007D01*
X128799500Y-113318993D01*
X128799500Y-113318995D01*
X128799499Y-113318995D01*
X120500000Y-113318995D01*
X120500000Y-112068995D01*
X139049499Y-112068995D01*
X139076418Y-112204322D01*
X139076421Y-112204332D01*
X139129221Y-112331804D01*
X139129228Y-112331817D01*
X139205885Y-112446541D01*
X139205888Y-112446545D01*
X139303454Y-112544111D01*
X139303458Y-112544114D01*
X139418182Y-112620771D01*
X139418195Y-112620778D01*
X139532640Y-112668182D01*
X139545672Y-112673580D01*
X139545676Y-112673580D01*
X139545677Y-112673581D01*
X139681004Y-112700500D01*
X139681007Y-112700500D01*
X139818995Y-112700500D01*
X139910041Y-112682389D01*
X139954328Y-112673580D01*
X140061411Y-112629225D01*
X140081804Y-112620778D01*
X140081804Y-112620777D01*
X140081811Y-112620775D01*
X140196542Y-112544114D01*
X140294114Y-112446542D01*
X140370775Y-112331811D01*
X140423580Y-112204328D01*
X140450500Y-112068993D01*
X140450500Y-111931007D01*
X140450500Y-111931004D01*
X140423581Y-111795677D01*
X140423580Y-111795676D01*
X140423580Y-111795672D01*
X140395722Y-111728416D01*
X140370778Y-111668195D01*
X140370771Y-111668182D01*
X140304496Y-111568995D01*
X153585699Y-111568995D01*
X153612618Y-111704322D01*
X153612621Y-111704332D01*
X153665421Y-111831804D01*
X153665428Y-111831817D01*
X153742085Y-111946541D01*
X153742088Y-111946545D01*
X153839654Y-112044111D01*
X153839658Y-112044114D01*
X153954382Y-112120771D01*
X153954395Y-112120778D01*
X154081867Y-112173578D01*
X154081872Y-112173580D01*
X154081876Y-112173580D01*
X154081877Y-112173581D01*
X154217204Y-112200500D01*
X154217207Y-112200500D01*
X154355195Y-112200500D01*
X154446241Y-112182389D01*
X154490528Y-112173580D01*
X154618011Y-112120775D01*
X154732742Y-112044114D01*
X154830314Y-111946542D01*
X154906975Y-111831811D01*
X154959780Y-111704328D01*
X154986700Y-111568993D01*
X154986700Y-111431007D01*
X154986700Y-111431004D01*
X154965399Y-111323920D01*
X162249499Y-111323920D01*
X162278340Y-111468907D01*
X162278343Y-111468917D01*
X162334912Y-111605488D01*
X162334919Y-111605501D01*
X162417048Y-111728415D01*
X162417051Y-111728419D01*
X162521580Y-111832948D01*
X162521584Y-111832951D01*
X162644498Y-111915080D01*
X162644511Y-111915087D01*
X162781082Y-111971656D01*
X162781087Y-111971658D01*
X162781091Y-111971658D01*
X162781092Y-111971659D01*
X162926079Y-112000500D01*
X162926082Y-112000500D01*
X163073920Y-112000500D01*
X163171462Y-111981096D01*
X163218913Y-111971658D01*
X163355495Y-111915084D01*
X163478416Y-111832951D01*
X163582951Y-111728416D01*
X163665084Y-111605495D01*
X163721658Y-111468913D01*
X163739498Y-111379228D01*
X163750500Y-111323920D01*
X163750500Y-111176079D01*
X163721659Y-111031092D01*
X163721658Y-111031091D01*
X163721658Y-111031087D01*
X163690509Y-110955886D01*
X163665087Y-110894511D01*
X163665080Y-110894498D01*
X163582951Y-110771584D01*
X163582948Y-110771580D01*
X163478419Y-110667051D01*
X163478415Y-110667048D01*
X163355501Y-110584919D01*
X163355488Y-110584912D01*
X163218917Y-110528343D01*
X163218907Y-110528340D01*
X163073920Y-110499500D01*
X163073918Y-110499500D01*
X162926082Y-110499500D01*
X162926080Y-110499500D01*
X162781092Y-110528340D01*
X162781082Y-110528343D01*
X162644511Y-110584912D01*
X162644498Y-110584919D01*
X162521584Y-110667048D01*
X162521580Y-110667051D01*
X162417051Y-110771580D01*
X162417048Y-110771584D01*
X162334919Y-110894498D01*
X162334912Y-110894511D01*
X162278343Y-111031082D01*
X162278340Y-111031092D01*
X162249500Y-111176079D01*
X162249500Y-111176082D01*
X162249500Y-111323918D01*
X162249500Y-111323920D01*
X162249499Y-111323920D01*
X154965399Y-111323920D01*
X154959781Y-111295677D01*
X154959780Y-111295676D01*
X154959780Y-111295672D01*
X154959778Y-111295667D01*
X154927377Y-111217442D01*
X154906976Y-111168192D01*
X154906975Y-111168189D01*
X154906973Y-111168186D01*
X154906971Y-111168182D01*
X154830314Y-111053458D01*
X154830311Y-111053454D01*
X154732745Y-110955888D01*
X154732741Y-110955885D01*
X154618017Y-110879228D01*
X154618004Y-110879221D01*
X154490532Y-110826421D01*
X154490522Y-110826418D01*
X154355195Y-110799500D01*
X154355193Y-110799500D01*
X154217207Y-110799500D01*
X154217205Y-110799500D01*
X154081877Y-110826418D01*
X154081867Y-110826421D01*
X153954395Y-110879221D01*
X153954382Y-110879228D01*
X153839658Y-110955885D01*
X153839654Y-110955888D01*
X153742088Y-111053454D01*
X153742085Y-111053458D01*
X153665428Y-111168182D01*
X153665421Y-111168195D01*
X153612621Y-111295667D01*
X153612618Y-111295677D01*
X153585700Y-111431004D01*
X153585700Y-111431007D01*
X153585700Y-111568993D01*
X153585700Y-111568995D01*
X153585699Y-111568995D01*
X140304496Y-111568995D01*
X140294114Y-111553458D01*
X140294111Y-111553454D01*
X140196545Y-111455888D01*
X140196541Y-111455885D01*
X140081817Y-111379228D01*
X140081804Y-111379221D01*
X139954332Y-111326421D01*
X139954322Y-111326418D01*
X139818995Y-111299500D01*
X139818993Y-111299500D01*
X139681007Y-111299500D01*
X139681005Y-111299500D01*
X139545677Y-111326418D01*
X139545667Y-111326421D01*
X139418195Y-111379221D01*
X139418182Y-111379228D01*
X139303458Y-111455885D01*
X139303454Y-111455888D01*
X139205888Y-111553454D01*
X139205885Y-111553458D01*
X139129228Y-111668182D01*
X139129221Y-111668195D01*
X139076421Y-111795667D01*
X139076418Y-111795677D01*
X139049500Y-111931004D01*
X139049500Y-111931007D01*
X139049500Y-112068993D01*
X139049500Y-112068995D01*
X139049499Y-112068995D01*
X120500000Y-112068995D01*
X120500000Y-108268995D01*
X121549499Y-108268995D01*
X121576418Y-108404322D01*
X121576421Y-108404332D01*
X121629221Y-108531804D01*
X121629228Y-108531817D01*
X121705885Y-108646541D01*
X121705888Y-108646545D01*
X121803454Y-108744111D01*
X121803458Y-108744114D01*
X121918185Y-108820773D01*
X121920859Y-108822202D01*
X121921998Y-108823320D01*
X121923254Y-108824160D01*
X121923094Y-108824398D01*
X121970707Y-108871160D01*
X121986174Y-108939296D01*
X121962348Y-109004978D01*
X121950097Y-109019245D01*
X121915889Y-109053453D01*
X121915885Y-109053458D01*
X121839228Y-109168182D01*
X121839221Y-109168195D01*
X121786421Y-109295667D01*
X121786418Y-109295677D01*
X121759500Y-109431004D01*
X121759500Y-109431007D01*
X121759500Y-109568993D01*
X121759500Y-109568995D01*
X121759499Y-109568995D01*
X121786418Y-109704322D01*
X121786421Y-109704332D01*
X121839221Y-109831804D01*
X121839228Y-109831817D01*
X121905573Y-109931109D01*
X121926451Y-109997787D01*
X121907966Y-110065167D01*
X121905573Y-110068891D01*
X121839228Y-110168182D01*
X121839221Y-110168195D01*
X121786421Y-110295667D01*
X121786418Y-110295677D01*
X121759500Y-110431004D01*
X121759500Y-110431007D01*
X121759500Y-110568993D01*
X121759500Y-110568995D01*
X121759499Y-110568995D01*
X121786418Y-110704322D01*
X121786421Y-110704332D01*
X121839221Y-110831804D01*
X121839228Y-110831817D01*
X121915885Y-110946541D01*
X121915888Y-110946545D01*
X122013454Y-111044111D01*
X122013458Y-111044114D01*
X122128182Y-111120771D01*
X122128195Y-111120778D01*
X122242640Y-111168182D01*
X122255672Y-111173580D01*
X122255676Y-111173580D01*
X122255677Y-111173581D01*
X122391004Y-111200500D01*
X122391007Y-111200500D01*
X122528995Y-111200500D01*
X122620041Y-111182389D01*
X122664328Y-111173580D01*
X122791811Y-111120775D01*
X122869305Y-111068995D01*
X125299499Y-111068995D01*
X125326418Y-111204322D01*
X125326421Y-111204332D01*
X125379221Y-111331804D01*
X125379228Y-111331817D01*
X125455885Y-111446541D01*
X125455888Y-111446545D01*
X125553454Y-111544111D01*
X125553458Y-111544114D01*
X125668182Y-111620771D01*
X125668195Y-111620778D01*
X125782640Y-111668182D01*
X125795672Y-111673580D01*
X125795676Y-111673580D01*
X125795677Y-111673581D01*
X125931004Y-111700500D01*
X125931007Y-111700500D01*
X126068995Y-111700500D01*
X126160041Y-111682389D01*
X126204328Y-111673580D01*
X126331811Y-111620775D01*
X126446542Y-111544114D01*
X126544114Y-111446542D01*
X126620775Y-111331811D01*
X126673580Y-111204328D01*
X126700500Y-111068995D01*
X136299499Y-111068995D01*
X136326418Y-111204322D01*
X136326421Y-111204332D01*
X136379221Y-111331804D01*
X136379228Y-111331817D01*
X136455885Y-111446541D01*
X136455888Y-111446545D01*
X136553454Y-111544111D01*
X136553458Y-111544114D01*
X136668182Y-111620771D01*
X136668195Y-111620778D01*
X136782640Y-111668182D01*
X136795672Y-111673580D01*
X136795676Y-111673580D01*
X136795677Y-111673581D01*
X136931004Y-111700500D01*
X136931007Y-111700500D01*
X137068995Y-111700500D01*
X137160041Y-111682389D01*
X137204328Y-111673580D01*
X137331811Y-111620775D01*
X137446542Y-111544114D01*
X137544114Y-111446542D01*
X137620775Y-111331811D01*
X137673580Y-111204328D01*
X137700500Y-111068993D01*
X137700500Y-110931007D01*
X137700500Y-110931004D01*
X137673581Y-110795677D01*
X137673580Y-110795676D01*
X137673580Y-110795672D01*
X137672933Y-110794111D01*
X137620778Y-110668195D01*
X137620771Y-110668182D01*
X137544114Y-110553458D01*
X137544111Y-110553454D01*
X137446545Y-110455888D01*
X137446541Y-110455885D01*
X137331817Y-110379228D01*
X137331804Y-110379221D01*
X137204332Y-110326421D01*
X137204322Y-110326418D01*
X137068995Y-110299500D01*
X137068993Y-110299500D01*
X136931007Y-110299500D01*
X136931005Y-110299500D01*
X136795677Y-110326418D01*
X136795667Y-110326421D01*
X136668195Y-110379221D01*
X136668182Y-110379228D01*
X136553458Y-110455885D01*
X136553454Y-110455888D01*
X136455888Y-110553454D01*
X136455885Y-110553458D01*
X136379228Y-110668182D01*
X136379221Y-110668195D01*
X136326421Y-110795667D01*
X136326418Y-110795677D01*
X136299500Y-110931004D01*
X136299500Y-110931007D01*
X136299500Y-111068993D01*
X136299500Y-111068995D01*
X136299499Y-111068995D01*
X126700500Y-111068995D01*
X126700500Y-111068993D01*
X126700500Y-110931007D01*
X126700500Y-110931004D01*
X126673581Y-110795677D01*
X126673580Y-110795676D01*
X126673580Y-110795672D01*
X126672933Y-110794111D01*
X126620778Y-110668195D01*
X126620771Y-110668182D01*
X126544114Y-110553458D01*
X126544111Y-110553454D01*
X126446545Y-110455888D01*
X126446541Y-110455885D01*
X126331817Y-110379228D01*
X126331804Y-110379221D01*
X126204332Y-110326421D01*
X126204322Y-110326418D01*
X126068995Y-110299500D01*
X126068993Y-110299500D01*
X125931007Y-110299500D01*
X125931005Y-110299500D01*
X125795677Y-110326418D01*
X125795667Y-110326421D01*
X125668195Y-110379221D01*
X125668182Y-110379228D01*
X125553458Y-110455885D01*
X125553454Y-110455888D01*
X125455888Y-110553454D01*
X125455885Y-110553458D01*
X125379228Y-110668182D01*
X125379221Y-110668195D01*
X125326421Y-110795667D01*
X125326418Y-110795677D01*
X125299500Y-110931004D01*
X125299500Y-110931007D01*
X125299500Y-111068993D01*
X125299500Y-111068995D01*
X125299499Y-111068995D01*
X122869305Y-111068995D01*
X122906542Y-111044114D01*
X123004114Y-110946542D01*
X123054743Y-110870771D01*
X123064597Y-110856024D01*
X123080771Y-110831817D01*
X123080771Y-110831816D01*
X123080775Y-110831811D01*
X123133580Y-110704328D01*
X123150201Y-110620771D01*
X123160500Y-110568995D01*
X123160500Y-110431004D01*
X123133581Y-110295677D01*
X123133580Y-110295676D01*
X123133580Y-110295672D01*
X123095746Y-110204332D01*
X123080778Y-110168195D01*
X123080776Y-110168191D01*
X123080775Y-110168189D01*
X123014495Y-110068995D01*
X131299499Y-110068995D01*
X131326418Y-110204322D01*
X131326421Y-110204332D01*
X131379221Y-110331804D01*
X131379228Y-110331817D01*
X131455885Y-110446541D01*
X131455888Y-110446545D01*
X131553454Y-110544111D01*
X131553458Y-110544114D01*
X131668182Y-110620771D01*
X131668195Y-110620778D01*
X131782640Y-110668182D01*
X131795672Y-110673580D01*
X131795676Y-110673580D01*
X131795677Y-110673581D01*
X131931004Y-110700500D01*
X131931007Y-110700500D01*
X132068995Y-110700500D01*
X132160041Y-110682389D01*
X132204328Y-110673580D01*
X132331811Y-110620775D01*
X132446542Y-110544114D01*
X132544114Y-110446542D01*
X132620775Y-110331811D01*
X132626084Y-110318995D01*
X133799499Y-110318995D01*
X133826418Y-110454322D01*
X133826421Y-110454332D01*
X133879221Y-110581804D01*
X133879228Y-110581817D01*
X133955885Y-110696541D01*
X133955888Y-110696545D01*
X134053454Y-110794111D01*
X134053458Y-110794114D01*
X134168182Y-110870771D01*
X134168195Y-110870778D01*
X134295667Y-110923578D01*
X134295672Y-110923580D01*
X134295676Y-110923580D01*
X134295677Y-110923581D01*
X134431004Y-110950500D01*
X134431007Y-110950500D01*
X134568995Y-110950500D01*
X134667005Y-110931004D01*
X134704328Y-110923580D01*
X134811411Y-110879225D01*
X134831804Y-110870778D01*
X134831804Y-110870777D01*
X134831811Y-110870775D01*
X134890135Y-110831804D01*
X134905088Y-110821813D01*
X134938481Y-110799500D01*
X134946542Y-110794114D01*
X135044114Y-110696542D01*
X135120775Y-110581811D01*
X135173580Y-110454328D01*
X135182389Y-110410041D01*
X135200500Y-110318995D01*
X135200500Y-110181004D01*
X135176230Y-110058995D01*
X154845699Y-110058995D01*
X154872618Y-110194322D01*
X154872621Y-110194332D01*
X154925421Y-110321804D01*
X154925428Y-110321817D01*
X155002085Y-110436541D01*
X155002088Y-110436545D01*
X155099654Y-110534111D01*
X155099658Y-110534114D01*
X155214382Y-110610771D01*
X155214395Y-110610778D01*
X155341867Y-110663578D01*
X155341872Y-110663580D01*
X155341876Y-110663580D01*
X155341877Y-110663581D01*
X155477204Y-110690500D01*
X155477207Y-110690500D01*
X155615195Y-110690500D01*
X155733093Y-110667048D01*
X155750528Y-110663580D01*
X155878011Y-110610775D01*
X155992742Y-110534114D01*
X156090314Y-110436542D01*
X156166975Y-110321811D01*
X156168142Y-110318995D01*
X156219778Y-110194332D01*
X156219780Y-110194328D01*
X156228589Y-110150041D01*
X156246700Y-110058995D01*
X156246700Y-109921007D01*
X156236708Y-109870778D01*
X156236261Y-109868530D01*
X156242487Y-109798941D01*
X156270194Y-109756661D01*
X156330314Y-109696542D01*
X156406975Y-109581811D01*
X156459780Y-109454328D01*
X156468589Y-109410041D01*
X156486700Y-109318995D01*
X156486700Y-109181004D01*
X156459781Y-109045677D01*
X156459780Y-109045676D01*
X156459780Y-109045672D01*
X156442924Y-109004978D01*
X156406978Y-108918195D01*
X156406971Y-108918182D01*
X156330314Y-108803458D01*
X156330311Y-108803454D01*
X156232745Y-108705888D01*
X156232741Y-108705885D01*
X156118017Y-108629228D01*
X156118004Y-108629221D01*
X155990532Y-108576421D01*
X155990522Y-108576418D01*
X155855195Y-108549500D01*
X155855193Y-108549500D01*
X155717207Y-108549500D01*
X155717205Y-108549500D01*
X155581877Y-108576418D01*
X155581867Y-108576421D01*
X155454395Y-108629221D01*
X155454382Y-108629228D01*
X155339658Y-108705885D01*
X155339654Y-108705888D01*
X155242088Y-108803454D01*
X155242085Y-108803458D01*
X155165428Y-108918182D01*
X155165421Y-108918195D01*
X155112621Y-109045667D01*
X155112618Y-109045677D01*
X155085700Y-109181004D01*
X155085700Y-109181007D01*
X155085700Y-109318993D01*
X155087177Y-109326418D01*
X155096138Y-109371470D01*
X155089909Y-109441061D01*
X155062202Y-109483341D01*
X155002085Y-109543458D01*
X154925428Y-109658182D01*
X154925421Y-109658195D01*
X154872621Y-109785667D01*
X154872618Y-109785677D01*
X154845700Y-109921004D01*
X154845700Y-109921007D01*
X154845700Y-110058993D01*
X154845700Y-110058995D01*
X154845699Y-110058995D01*
X135176230Y-110058995D01*
X135173581Y-110045677D01*
X135173580Y-110045676D01*
X135173580Y-110045672D01*
X135154662Y-110000000D01*
X135120778Y-109918195D01*
X135120771Y-109918182D01*
X135044114Y-109803458D01*
X135044111Y-109803454D01*
X134946545Y-109705888D01*
X134946541Y-109705885D01*
X134831817Y-109629228D01*
X134831804Y-109629221D01*
X134704332Y-109576421D01*
X134704322Y-109576418D01*
X134568995Y-109549500D01*
X134568993Y-109549500D01*
X134431007Y-109549500D01*
X134431005Y-109549500D01*
X134295677Y-109576418D01*
X134295667Y-109576421D01*
X134168195Y-109629221D01*
X134168182Y-109629228D01*
X134053458Y-109705885D01*
X134053454Y-109705888D01*
X133955888Y-109803454D01*
X133955885Y-109803458D01*
X133879228Y-109918182D01*
X133879221Y-109918195D01*
X133826421Y-110045667D01*
X133826418Y-110045677D01*
X133799500Y-110181004D01*
X133799500Y-110181007D01*
X133799500Y-110318993D01*
X133799500Y-110318995D01*
X133799499Y-110318995D01*
X132626084Y-110318995D01*
X132673580Y-110204328D01*
X132700500Y-110068993D01*
X132700500Y-109931007D01*
X132700500Y-109931004D01*
X132673581Y-109795677D01*
X132673580Y-109795676D01*
X132673580Y-109795672D01*
X132657419Y-109756656D01*
X132620778Y-109668195D01*
X132620771Y-109668182D01*
X132544114Y-109553458D01*
X132544111Y-109553454D01*
X132446545Y-109455888D01*
X132446541Y-109455885D01*
X132331817Y-109379228D01*
X132331804Y-109379221D01*
X132204332Y-109326421D01*
X132204322Y-109326418D01*
X132068995Y-109299500D01*
X132068993Y-109299500D01*
X131931007Y-109299500D01*
X131931005Y-109299500D01*
X131795677Y-109326418D01*
X131795667Y-109326421D01*
X131668195Y-109379221D01*
X131668182Y-109379228D01*
X131553458Y-109455885D01*
X131553454Y-109455888D01*
X131455888Y-109553454D01*
X131455885Y-109553458D01*
X131379228Y-109668182D01*
X131379221Y-109668195D01*
X131326421Y-109795667D01*
X131326418Y-109795677D01*
X131299500Y-109931004D01*
X131299500Y-109931007D01*
X131299500Y-110068993D01*
X131299500Y-110068995D01*
X131299499Y-110068995D01*
X123014495Y-110068995D01*
X123014425Y-110068890D01*
X123008452Y-110049813D01*
X122997946Y-110032805D01*
X122998225Y-110017152D01*
X122993548Y-110002214D01*
X122998836Y-109982934D01*
X122999194Y-109962946D01*
X123011209Y-109937831D01*
X123012032Y-109934834D01*
X123014426Y-109931109D01*
X123064597Y-109856024D01*
X123080771Y-109831817D01*
X123080771Y-109831816D01*
X123080775Y-109831811D01*
X123133580Y-109704328D01*
X123142759Y-109658182D01*
X123160500Y-109568995D01*
X123160500Y-109431004D01*
X123133581Y-109295677D01*
X123133580Y-109295676D01*
X123133580Y-109295672D01*
X123133578Y-109295667D01*
X123080778Y-109168195D01*
X123080771Y-109168182D01*
X123004114Y-109053458D01*
X123004111Y-109053454D01*
X122906545Y-108955888D01*
X122906541Y-108955885D01*
X122791817Y-108879228D01*
X122789135Y-108877795D01*
X122787992Y-108876673D01*
X122786746Y-108875840D01*
X122786903Y-108875603D01*
X122739289Y-108828834D01*
X122723826Y-108760697D01*
X122747655Y-108695017D01*
X122759904Y-108680752D01*
X122794111Y-108646545D01*
X122794114Y-108646542D01*
X122870775Y-108531811D01*
X122923580Y-108404328D01*
X122950500Y-108268995D01*
X123549499Y-108268995D01*
X123576418Y-108404322D01*
X123576421Y-108404332D01*
X123629221Y-108531804D01*
X123629228Y-108531817D01*
X123705885Y-108646541D01*
X123705888Y-108646545D01*
X123803454Y-108744111D01*
X123803458Y-108744114D01*
X123918182Y-108820771D01*
X123918195Y-108820778D01*
X124045667Y-108873578D01*
X124045672Y-108873580D01*
X124045676Y-108873580D01*
X124045677Y-108873581D01*
X124181004Y-108900500D01*
X124181007Y-108900500D01*
X124318995Y-108900500D01*
X124410041Y-108882389D01*
X124454328Y-108873580D01*
X124581811Y-108820775D01*
X124696542Y-108744114D01*
X124794114Y-108646542D01*
X124870775Y-108531811D01*
X124923580Y-108404328D01*
X124950500Y-108268993D01*
X124950500Y-108131007D01*
X124950500Y-108131004D01*
X124923581Y-107995677D01*
X124923580Y-107995676D01*
X124923580Y-107995672D01*
X124923578Y-107995667D01*
X124870778Y-107868195D01*
X124870771Y-107868182D01*
X124837905Y-107818995D01*
X129049499Y-107818995D01*
X129076418Y-107954322D01*
X129076421Y-107954332D01*
X129129221Y-108081804D01*
X129129228Y-108081817D01*
X129205885Y-108196541D01*
X129205888Y-108196545D01*
X129303454Y-108294111D01*
X129303458Y-108294114D01*
X129418182Y-108370771D01*
X129418195Y-108370778D01*
X129545667Y-108423578D01*
X129545672Y-108423580D01*
X129545676Y-108423580D01*
X129545677Y-108423581D01*
X129681004Y-108450500D01*
X129681007Y-108450500D01*
X129818995Y-108450500D01*
X129910041Y-108432389D01*
X129954328Y-108423580D01*
X130081811Y-108370775D01*
X130159305Y-108318995D01*
X143835699Y-108318995D01*
X143862618Y-108454322D01*
X143862621Y-108454332D01*
X143915421Y-108581804D01*
X143915428Y-108581817D01*
X143981773Y-108681109D01*
X144002651Y-108747787D01*
X143984166Y-108815167D01*
X143981773Y-108818891D01*
X143915428Y-108918182D01*
X143915421Y-108918195D01*
X143862621Y-109045667D01*
X143862618Y-109045677D01*
X143835700Y-109181004D01*
X143835700Y-109181007D01*
X143835700Y-109318993D01*
X143835700Y-109318995D01*
X143835699Y-109318995D01*
X143862618Y-109454322D01*
X143862621Y-109454332D01*
X143915421Y-109581804D01*
X143915428Y-109581817D01*
X143992085Y-109696541D01*
X143992088Y-109696545D01*
X144089654Y-109794111D01*
X144089658Y-109794114D01*
X144204382Y-109870771D01*
X144204395Y-109870778D01*
X144318840Y-109918182D01*
X144331872Y-109923580D01*
X144331876Y-109923580D01*
X144331877Y-109923581D01*
X144467204Y-109950500D01*
X144467207Y-109950500D01*
X144605195Y-109950500D01*
X144703205Y-109931004D01*
X144740528Y-109923580D01*
X144868011Y-109870775D01*
X144982742Y-109794114D01*
X145080314Y-109696542D01*
X145156975Y-109581811D01*
X145209780Y-109454328D01*
X145218589Y-109410041D01*
X145236700Y-109318995D01*
X145236700Y-109181004D01*
X145209781Y-109045677D01*
X145209780Y-109045676D01*
X145209780Y-109045672D01*
X145192924Y-109004978D01*
X145156978Y-108918195D01*
X145156976Y-108918191D01*
X145156975Y-108918189D01*
X145090625Y-108818890D01*
X145069748Y-108752214D01*
X145088232Y-108684834D01*
X145090626Y-108681109D01*
X145113723Y-108646542D01*
X145156975Y-108581811D01*
X145209780Y-108454328D01*
X145236700Y-108318993D01*
X145236700Y-108181007D01*
X145236700Y-108181004D01*
X145209781Y-108045677D01*
X145209780Y-108045676D01*
X145209780Y-108045672D01*
X145209133Y-108044111D01*
X145156978Y-107918195D01*
X145156971Y-107918182D01*
X145080314Y-107803458D01*
X145080311Y-107803454D01*
X144982745Y-107705888D01*
X144982741Y-107705885D01*
X144868017Y-107629228D01*
X144868004Y-107629221D01*
X144740532Y-107576421D01*
X144740522Y-107576418D01*
X144605195Y-107549500D01*
X144605193Y-107549500D01*
X144467207Y-107549500D01*
X144467205Y-107549500D01*
X144331877Y-107576418D01*
X144331867Y-107576421D01*
X144204395Y-107629221D01*
X144204382Y-107629228D01*
X144089658Y-107705885D01*
X144089654Y-107705888D01*
X143992088Y-107803454D01*
X143992085Y-107803458D01*
X143915428Y-107918182D01*
X143915421Y-107918195D01*
X143862621Y-108045667D01*
X143862618Y-108045677D01*
X143835700Y-108181004D01*
X143835700Y-108181007D01*
X143835700Y-108318993D01*
X143835700Y-108318995D01*
X143835699Y-108318995D01*
X130159305Y-108318995D01*
X130196542Y-108294114D01*
X130294114Y-108196542D01*
X130344743Y-108120771D01*
X130354597Y-108106024D01*
X130370771Y-108081817D01*
X130370771Y-108081816D01*
X130370775Y-108081811D01*
X130423580Y-107954328D01*
X130447949Y-107831817D01*
X130450500Y-107818995D01*
X130450500Y-107681004D01*
X130423581Y-107545677D01*
X130423580Y-107545676D01*
X130423580Y-107545672D01*
X130404455Y-107499500D01*
X130370778Y-107418195D01*
X130370771Y-107418182D01*
X130294114Y-107303458D01*
X130294111Y-107303454D01*
X130196545Y-107205888D01*
X130196541Y-107205885D01*
X130081817Y-107129228D01*
X130081804Y-107129221D01*
X129954332Y-107076421D01*
X129954322Y-107076418D01*
X129818995Y-107049500D01*
X129818993Y-107049500D01*
X129681007Y-107049500D01*
X129681005Y-107049500D01*
X129545677Y-107076418D01*
X129545667Y-107076421D01*
X129418195Y-107129221D01*
X129418182Y-107129228D01*
X129303458Y-107205885D01*
X129303454Y-107205888D01*
X129205888Y-107303454D01*
X129205885Y-107303458D01*
X129129228Y-107418182D01*
X129129221Y-107418195D01*
X129076421Y-107545667D01*
X129076418Y-107545677D01*
X129049500Y-107681004D01*
X129049500Y-107681007D01*
X129049500Y-107818993D01*
X129049500Y-107818995D01*
X129049499Y-107818995D01*
X124837905Y-107818995D01*
X124794113Y-107753456D01*
X124696545Y-107655888D01*
X124696541Y-107655885D01*
X124581817Y-107579228D01*
X124581804Y-107579221D01*
X124454332Y-107526421D01*
X124454322Y-107526418D01*
X124318995Y-107499500D01*
X124318993Y-107499500D01*
X124181007Y-107499500D01*
X124181005Y-107499500D01*
X124045677Y-107526418D01*
X124045667Y-107526421D01*
X123918195Y-107579221D01*
X123918182Y-107579228D01*
X123803458Y-107655885D01*
X123803454Y-107655888D01*
X123705888Y-107753454D01*
X123705885Y-107753458D01*
X123629228Y-107868182D01*
X123629221Y-107868195D01*
X123576421Y-107995667D01*
X123576418Y-107995677D01*
X123549500Y-108131004D01*
X123549500Y-108131007D01*
X123549500Y-108268993D01*
X123549500Y-108268995D01*
X123549499Y-108268995D01*
X122950500Y-108268995D01*
X122950500Y-108268993D01*
X122950500Y-108131007D01*
X122950500Y-108131004D01*
X122923581Y-107995677D01*
X122923580Y-107995676D01*
X122923580Y-107995672D01*
X122923578Y-107995667D01*
X122870778Y-107868195D01*
X122870771Y-107868182D01*
X122794114Y-107753458D01*
X122794111Y-107753454D01*
X122696545Y-107655888D01*
X122696541Y-107655885D01*
X122581817Y-107579228D01*
X122581804Y-107579221D01*
X122454332Y-107526421D01*
X122454322Y-107526418D01*
X122318995Y-107499500D01*
X122318993Y-107499500D01*
X122181007Y-107499500D01*
X122181005Y-107499500D01*
X122045677Y-107526418D01*
X122045667Y-107526421D01*
X121918195Y-107579221D01*
X121918182Y-107579228D01*
X121803458Y-107655885D01*
X121803454Y-107655888D01*
X121705888Y-107753454D01*
X121705885Y-107753458D01*
X121629228Y-107868182D01*
X121629221Y-107868195D01*
X121576421Y-107995667D01*
X121576418Y-107995677D01*
X121549500Y-108131004D01*
X121549500Y-108131007D01*
X121549500Y-108268993D01*
X121549500Y-108268995D01*
X121549499Y-108268995D01*
X120500000Y-108268995D01*
X120500000Y-106568995D01*
X150585699Y-106568995D01*
X150612618Y-106704322D01*
X150612621Y-106704332D01*
X150665421Y-106831804D01*
X150665428Y-106831817D01*
X150742085Y-106946541D01*
X150742088Y-106946545D01*
X150839654Y-107044111D01*
X150839658Y-107044114D01*
X150954382Y-107120771D01*
X150954395Y-107120778D01*
X151068840Y-107168182D01*
X151081872Y-107173580D01*
X151174160Y-107191937D01*
X151218855Y-107200828D01*
X151280766Y-107233213D01*
X151315340Y-107293928D01*
X151316282Y-107346635D01*
X151302051Y-107418182D01*
X151299500Y-107431007D01*
X151299500Y-107568993D01*
X151299500Y-107568995D01*
X151299499Y-107568995D01*
X151326418Y-107704322D01*
X151326421Y-107704332D01*
X151379221Y-107831804D01*
X151379228Y-107831817D01*
X151455885Y-107946541D01*
X151455888Y-107946545D01*
X151553454Y-108044111D01*
X151553458Y-108044114D01*
X151668182Y-108120771D01*
X151668195Y-108120778D01*
X151795667Y-108173578D01*
X151795672Y-108173580D01*
X151795676Y-108173580D01*
X151795677Y-108173581D01*
X151931004Y-108200500D01*
X151931007Y-108200500D01*
X152068995Y-108200500D01*
X152167005Y-108181004D01*
X152204328Y-108173580D01*
X152331811Y-108120775D01*
X152446542Y-108044114D01*
X152544114Y-107946542D01*
X152620775Y-107831811D01*
X152673580Y-107704328D01*
X152683216Y-107655885D01*
X152700500Y-107568995D01*
X152700500Y-107431004D01*
X152673581Y-107295677D01*
X152673580Y-107295676D01*
X152673580Y-107295672D01*
X152647709Y-107233213D01*
X152620778Y-107168195D01*
X152620771Y-107168182D01*
X152544114Y-107053458D01*
X152544111Y-107053454D01*
X152446545Y-106955888D01*
X152446541Y-106955885D01*
X152331817Y-106879228D01*
X152331804Y-106879221D01*
X152204332Y-106826421D01*
X152204322Y-106826418D01*
X152067343Y-106799171D01*
X152005432Y-106766786D01*
X151970858Y-106706070D01*
X151969918Y-106653362D01*
X151986700Y-106568995D01*
X151986700Y-106431004D01*
X151959781Y-106295677D01*
X151959780Y-106295676D01*
X151959780Y-106295672D01*
X151927987Y-106218917D01*
X151906978Y-106168195D01*
X151906971Y-106168182D01*
X151830314Y-106053458D01*
X151830311Y-106053454D01*
X151732745Y-105955888D01*
X151732741Y-105955885D01*
X151618017Y-105879228D01*
X151618004Y-105879221D01*
X151490532Y-105826421D01*
X151490522Y-105826418D01*
X151355195Y-105799500D01*
X151355193Y-105799500D01*
X151217207Y-105799500D01*
X151217205Y-105799500D01*
X151081877Y-105826418D01*
X151081867Y-105826421D01*
X150954395Y-105879221D01*
X150954382Y-105879228D01*
X150839658Y-105955885D01*
X150839654Y-105955888D01*
X150742088Y-106053454D01*
X150742085Y-106053458D01*
X150665428Y-106168182D01*
X150665421Y-106168195D01*
X150612621Y-106295667D01*
X150612618Y-106295677D01*
X150585700Y-106431004D01*
X150585700Y-106431007D01*
X150585700Y-106568993D01*
X150585700Y-106568995D01*
X150585699Y-106568995D01*
X120500000Y-106568995D01*
X120500000Y-105568995D01*
X155299499Y-105568995D01*
X155326418Y-105704322D01*
X155326421Y-105704332D01*
X155379221Y-105831804D01*
X155379228Y-105831817D01*
X155455885Y-105946541D01*
X155455888Y-105946545D01*
X155553454Y-106044111D01*
X155553458Y-106044114D01*
X155668182Y-106120771D01*
X155668195Y-106120778D01*
X155782640Y-106168182D01*
X155795672Y-106173580D01*
X155795676Y-106173580D01*
X155795677Y-106173581D01*
X155931004Y-106200500D01*
X155931007Y-106200500D01*
X156068995Y-106200500D01*
X156160041Y-106182389D01*
X156204328Y-106173580D01*
X156331811Y-106120775D01*
X156401934Y-106073920D01*
X164249499Y-106073920D01*
X164278340Y-106218907D01*
X164278343Y-106218917D01*
X164334912Y-106355488D01*
X164334919Y-106355501D01*
X164417048Y-106478415D01*
X164417051Y-106478419D01*
X164521580Y-106582948D01*
X164521584Y-106582951D01*
X164644498Y-106665080D01*
X164644511Y-106665087D01*
X164739258Y-106704332D01*
X164781087Y-106721658D01*
X164781091Y-106721658D01*
X164781092Y-106721659D01*
X164926079Y-106750500D01*
X164926082Y-106750500D01*
X165073920Y-106750500D01*
X165171462Y-106731096D01*
X165218913Y-106721658D01*
X165324547Y-106677902D01*
X165355488Y-106665087D01*
X165355488Y-106665086D01*
X165355495Y-106665084D01*
X165478416Y-106582951D01*
X165582951Y-106478416D01*
X165665084Y-106355495D01*
X165721658Y-106218913D01*
X165741179Y-106120778D01*
X165750500Y-106073920D01*
X165750500Y-105926079D01*
X165721659Y-105781092D01*
X165721658Y-105781091D01*
X165721658Y-105781087D01*
X165689865Y-105704332D01*
X165665087Y-105644511D01*
X165665080Y-105644498D01*
X165582951Y-105521584D01*
X165582948Y-105521580D01*
X165478419Y-105417051D01*
X165478415Y-105417048D01*
X165355501Y-105334919D01*
X165355488Y-105334912D01*
X165218917Y-105278343D01*
X165218907Y-105278340D01*
X165073920Y-105249500D01*
X165073918Y-105249500D01*
X164926082Y-105249500D01*
X164926080Y-105249500D01*
X164781092Y-105278340D01*
X164781082Y-105278343D01*
X164644511Y-105334912D01*
X164644498Y-105334919D01*
X164521584Y-105417048D01*
X164521580Y-105417051D01*
X164417051Y-105521580D01*
X164417048Y-105521584D01*
X164334919Y-105644498D01*
X164334912Y-105644511D01*
X164278343Y-105781082D01*
X164278340Y-105781092D01*
X164249500Y-105926079D01*
X164249500Y-105926082D01*
X164249500Y-106073918D01*
X164249500Y-106073920D01*
X164249499Y-106073920D01*
X156401934Y-106073920D01*
X156446542Y-106044114D01*
X156544114Y-105946542D01*
X156589097Y-105879221D01*
X156607888Y-105851099D01*
X156620772Y-105831815D01*
X156620775Y-105831811D01*
X156673580Y-105704328D01*
X156700500Y-105568993D01*
X156700500Y-105431007D01*
X156700500Y-105431004D01*
X156673581Y-105295677D01*
X156673580Y-105295676D01*
X156673580Y-105295672D01*
X156634159Y-105200500D01*
X156620778Y-105168195D01*
X156620771Y-105168182D01*
X156544114Y-105053458D01*
X156544111Y-105053454D01*
X156446545Y-104955888D01*
X156446541Y-104955885D01*
X156331817Y-104879228D01*
X156331804Y-104879221D01*
X156204332Y-104826421D01*
X156204322Y-104826418D01*
X156068995Y-104799500D01*
X156068993Y-104799500D01*
X155931007Y-104799500D01*
X155931005Y-104799500D01*
X155795677Y-104826418D01*
X155795667Y-104826421D01*
X155668195Y-104879221D01*
X155668182Y-104879228D01*
X155553458Y-104955885D01*
X155553454Y-104955888D01*
X155455888Y-105053454D01*
X155455885Y-105053458D01*
X155379228Y-105168182D01*
X155379221Y-105168195D01*
X155326421Y-105295667D01*
X155326418Y-105295677D01*
X155299500Y-105431004D01*
X155299500Y-105431007D01*
X155299500Y-105568993D01*
X155299500Y-105568995D01*
X155299499Y-105568995D01*
X120500000Y-105568995D01*
X120500000Y-104224550D01*
X138205054Y-104224550D01*
X138231973Y-104359877D01*
X138231976Y-104359887D01*
X138284776Y-104487359D01*
X138284783Y-104487372D01*
X138361440Y-104602096D01*
X138361443Y-104602100D01*
X138459009Y-104699666D01*
X138459013Y-104699669D01*
X138573737Y-104776326D01*
X138573750Y-104776333D01*
X138694672Y-104826420D01*
X138701227Y-104829135D01*
X138701231Y-104829135D01*
X138701232Y-104829136D01*
X138836559Y-104856055D01*
X138836562Y-104856055D01*
X138974550Y-104856055D01*
X139065596Y-104837944D01*
X139109883Y-104829135D01*
X139237366Y-104776330D01*
X139352097Y-104699669D01*
X139449669Y-104602097D01*
X139471787Y-104568995D01*
X149299499Y-104568995D01*
X149326418Y-104704322D01*
X149326421Y-104704332D01*
X149379221Y-104831804D01*
X149379228Y-104831817D01*
X149455885Y-104946541D01*
X149455888Y-104946545D01*
X149553454Y-105044111D01*
X149553458Y-105044114D01*
X149668182Y-105120771D01*
X149668195Y-105120778D01*
X149782640Y-105168182D01*
X149795672Y-105173580D01*
X149795676Y-105173580D01*
X149795677Y-105173581D01*
X149931004Y-105200500D01*
X149931007Y-105200500D01*
X150068995Y-105200500D01*
X150160041Y-105182389D01*
X150204328Y-105173580D01*
X150331811Y-105120775D01*
X150446542Y-105044114D01*
X150544114Y-104946542D01*
X150620775Y-104831811D01*
X150621884Y-104829135D01*
X150643756Y-104776330D01*
X150673580Y-104704328D01*
X150693915Y-104602097D01*
X150700500Y-104568995D01*
X152299499Y-104568995D01*
X152326418Y-104704322D01*
X152326421Y-104704332D01*
X152379221Y-104831804D01*
X152379228Y-104831817D01*
X152455885Y-104946541D01*
X152455888Y-104946545D01*
X152553454Y-105044111D01*
X152553458Y-105044114D01*
X152668182Y-105120771D01*
X152668195Y-105120778D01*
X152782640Y-105168182D01*
X152795672Y-105173580D01*
X152795676Y-105173580D01*
X152795677Y-105173581D01*
X152931004Y-105200500D01*
X152931007Y-105200500D01*
X153068995Y-105200500D01*
X153160041Y-105182389D01*
X153204328Y-105173580D01*
X153331811Y-105120775D01*
X153446542Y-105044114D01*
X153544114Y-104946542D01*
X153620775Y-104831811D01*
X153621884Y-104829135D01*
X153643756Y-104776330D01*
X153673580Y-104704328D01*
X153693915Y-104602097D01*
X153700500Y-104568995D01*
X153700500Y-104431004D01*
X153673581Y-104295677D01*
X153673580Y-104295676D01*
X153673580Y-104295672D01*
X153654869Y-104250500D01*
X153620778Y-104168195D01*
X153620771Y-104168182D01*
X153544114Y-104053458D01*
X153544111Y-104053454D01*
X153446545Y-103955888D01*
X153446541Y-103955885D01*
X153331817Y-103879228D01*
X153331804Y-103879221D01*
X153204332Y-103826421D01*
X153204322Y-103826418D01*
X153068995Y-103799500D01*
X153068993Y-103799500D01*
X152931007Y-103799500D01*
X152931005Y-103799500D01*
X152795677Y-103826418D01*
X152795667Y-103826421D01*
X152668195Y-103879221D01*
X152668182Y-103879228D01*
X152553458Y-103955885D01*
X152553454Y-103955888D01*
X152455888Y-104053454D01*
X152455885Y-104053458D01*
X152379228Y-104168182D01*
X152379221Y-104168195D01*
X152326421Y-104295667D01*
X152326418Y-104295677D01*
X152299500Y-104431004D01*
X152299500Y-104431007D01*
X152299500Y-104568993D01*
X152299500Y-104568995D01*
X152299499Y-104568995D01*
X150700500Y-104568995D01*
X150700500Y-104431004D01*
X150673581Y-104295677D01*
X150673580Y-104295676D01*
X150673580Y-104295672D01*
X150654869Y-104250500D01*
X150620778Y-104168195D01*
X150620771Y-104168182D01*
X150544114Y-104053458D01*
X150544111Y-104053454D01*
X150446545Y-103955888D01*
X150446541Y-103955885D01*
X150331817Y-103879228D01*
X150331804Y-103879221D01*
X150204332Y-103826421D01*
X150204322Y-103826418D01*
X150068995Y-103799500D01*
X150068993Y-103799500D01*
X149931007Y-103799500D01*
X149931005Y-103799500D01*
X149795677Y-103826418D01*
X149795667Y-103826421D01*
X149668195Y-103879221D01*
X149668182Y-103879228D01*
X149553458Y-103955885D01*
X149553454Y-103955888D01*
X149455888Y-104053454D01*
X149455885Y-104053458D01*
X149379228Y-104168182D01*
X149379221Y-104168195D01*
X149326421Y-104295667D01*
X149326418Y-104295677D01*
X149299500Y-104431004D01*
X149299500Y-104431007D01*
X149299500Y-104568993D01*
X149299500Y-104568995D01*
X149299499Y-104568995D01*
X139471787Y-104568995D01*
X139526330Y-104487366D01*
X139579135Y-104359883D01*
X139587944Y-104315596D01*
X139606055Y-104224550D01*
X139606055Y-104086559D01*
X139579136Y-103951232D01*
X139579135Y-103951231D01*
X139579135Y-103951227D01*
X139577196Y-103946545D01*
X139526333Y-103823750D01*
X139526326Y-103823737D01*
X139449669Y-103709013D01*
X139449666Y-103709009D01*
X139352100Y-103611443D01*
X139352096Y-103611440D01*
X139288574Y-103568995D01*
X142549499Y-103568995D01*
X142576418Y-103704322D01*
X142576421Y-103704332D01*
X142629221Y-103831804D01*
X142629228Y-103831817D01*
X142705885Y-103946541D01*
X142705888Y-103946545D01*
X142803454Y-104044111D01*
X142803458Y-104044114D01*
X142918182Y-104120771D01*
X142918195Y-104120778D01*
X143025168Y-104165087D01*
X143045672Y-104173580D01*
X143045676Y-104173580D01*
X143045677Y-104173581D01*
X143181004Y-104200500D01*
X143181007Y-104200500D01*
X143318995Y-104200500D01*
X143410041Y-104182389D01*
X143454328Y-104173580D01*
X143581811Y-104120775D01*
X143696542Y-104044114D01*
X143794114Y-103946542D01*
X143870775Y-103831811D01*
X143874117Y-103823744D01*
X143917537Y-103718917D01*
X143923580Y-103704328D01*
X143949520Y-103573920D01*
X143950500Y-103568995D01*
X143950500Y-103431004D01*
X143923581Y-103295677D01*
X143923580Y-103295676D01*
X143923580Y-103295672D01*
X143902861Y-103245651D01*
X143870778Y-103168195D01*
X143870771Y-103168182D01*
X143794114Y-103053458D01*
X143794111Y-103053454D01*
X143696545Y-102955888D01*
X143696541Y-102955885D01*
X143581817Y-102879228D01*
X143581804Y-102879221D01*
X143454332Y-102826421D01*
X143454322Y-102826418D01*
X143318995Y-102799500D01*
X143318993Y-102799500D01*
X143181007Y-102799500D01*
X143181005Y-102799500D01*
X143045677Y-102826418D01*
X143045667Y-102826421D01*
X142918195Y-102879221D01*
X142918182Y-102879228D01*
X142803458Y-102955885D01*
X142803454Y-102955888D01*
X142705888Y-103053454D01*
X142705885Y-103053458D01*
X142629228Y-103168182D01*
X142629221Y-103168195D01*
X142576421Y-103295667D01*
X142576418Y-103295677D01*
X142549500Y-103431004D01*
X142549500Y-103431007D01*
X142549500Y-103568993D01*
X142549500Y-103568995D01*
X142549499Y-103568995D01*
X139288574Y-103568995D01*
X139237368Y-103534780D01*
X139237364Y-103534778D01*
X139109887Y-103481976D01*
X139109877Y-103481973D01*
X138974550Y-103455055D01*
X138974548Y-103455055D01*
X138836562Y-103455055D01*
X138836560Y-103455055D01*
X138701232Y-103481973D01*
X138701222Y-103481976D01*
X138573750Y-103534776D01*
X138573737Y-103534783D01*
X138459013Y-103611440D01*
X138459009Y-103611443D01*
X138361443Y-103709009D01*
X138361440Y-103709013D01*
X138284783Y-103823737D01*
X138284776Y-103823750D01*
X138231976Y-103951222D01*
X138231973Y-103951232D01*
X138205055Y-104086559D01*
X138205055Y-104086562D01*
X138205055Y-104224548D01*
X138205055Y-104224550D01*
X138205054Y-104224550D01*
X120500000Y-104224550D01*
X120500000Y-102568995D01*
X138049499Y-102568995D01*
X138076418Y-102704322D01*
X138076421Y-102704332D01*
X138129221Y-102831804D01*
X138129228Y-102831817D01*
X138205885Y-102946541D01*
X138205888Y-102946545D01*
X138303454Y-103044111D01*
X138303458Y-103044114D01*
X138418182Y-103120771D01*
X138418195Y-103120778D01*
X138532640Y-103168182D01*
X138545672Y-103173580D01*
X138545676Y-103173580D01*
X138545677Y-103173581D01*
X138681004Y-103200500D01*
X138681007Y-103200500D01*
X138818995Y-103200500D01*
X138910041Y-103182389D01*
X138954328Y-103173580D01*
X139081811Y-103120775D01*
X139196542Y-103044114D01*
X139294114Y-102946542D01*
X139370775Y-102831811D01*
X139423580Y-102704328D01*
X139450500Y-102568995D01*
X146799499Y-102568995D01*
X146826418Y-102704322D01*
X146826421Y-102704332D01*
X146879221Y-102831804D01*
X146879228Y-102831817D01*
X146955885Y-102946541D01*
X146955888Y-102946545D01*
X147053454Y-103044111D01*
X147053458Y-103044114D01*
X147168182Y-103120771D01*
X147168195Y-103120778D01*
X147225478Y-103144505D01*
X147295672Y-103173580D01*
X147295679Y-103173581D01*
X147298519Y-103174443D01*
X147299829Y-103175302D01*
X147301300Y-103175911D01*
X147301184Y-103176189D01*
X147356958Y-103212739D01*
X147377086Y-103245651D01*
X147412773Y-103331807D01*
X147412778Y-103331817D01*
X147489435Y-103446541D01*
X147489438Y-103446545D01*
X147587004Y-103544111D01*
X147587008Y-103544114D01*
X147701732Y-103620771D01*
X147701745Y-103620778D01*
X147829217Y-103673578D01*
X147829222Y-103673580D01*
X147829226Y-103673580D01*
X147829227Y-103673581D01*
X147964554Y-103700500D01*
X147964557Y-103700500D01*
X148102545Y-103700500D01*
X148193591Y-103682389D01*
X148237878Y-103673580D01*
X148365361Y-103620775D01*
X148435484Y-103573920D01*
X167249499Y-103573920D01*
X167278340Y-103718907D01*
X167278343Y-103718917D01*
X167334912Y-103855488D01*
X167334919Y-103855501D01*
X167417048Y-103978415D01*
X167417051Y-103978419D01*
X167521580Y-104082948D01*
X167521584Y-104082951D01*
X167644498Y-104165080D01*
X167644511Y-104165087D01*
X167781082Y-104221656D01*
X167781087Y-104221658D01*
X167781091Y-104221658D01*
X167781092Y-104221659D01*
X167926079Y-104250500D01*
X167926082Y-104250500D01*
X168073920Y-104250500D01*
X168204384Y-104224548D01*
X168218913Y-104221658D01*
X168334989Y-104173578D01*
X168355488Y-104165087D01*
X168355488Y-104165086D01*
X168355495Y-104165084D01*
X168478416Y-104082951D01*
X168582951Y-103978416D01*
X168665084Y-103855495D01*
X168721658Y-103718913D01*
X168741179Y-103620778D01*
X168750500Y-103573920D01*
X168750500Y-103426079D01*
X168721659Y-103281092D01*
X168721658Y-103281091D01*
X168721658Y-103281087D01*
X168706980Y-103245651D01*
X168665087Y-103144511D01*
X168665080Y-103144498D01*
X168582951Y-103021584D01*
X168582948Y-103021580D01*
X168478419Y-102917051D01*
X168478415Y-102917048D01*
X168355501Y-102834919D01*
X168355488Y-102834912D01*
X168218917Y-102778343D01*
X168218907Y-102778340D01*
X168073920Y-102749500D01*
X168073918Y-102749500D01*
X167926082Y-102749500D01*
X167926080Y-102749500D01*
X167781092Y-102778340D01*
X167781082Y-102778343D01*
X167644511Y-102834912D01*
X167644498Y-102834919D01*
X167521584Y-102917048D01*
X167521580Y-102917051D01*
X167417051Y-103021580D01*
X167417048Y-103021584D01*
X167334919Y-103144498D01*
X167334912Y-103144511D01*
X167278343Y-103281082D01*
X167278340Y-103281092D01*
X167249500Y-103426079D01*
X167249500Y-103426082D01*
X167249500Y-103573918D01*
X167249500Y-103573920D01*
X167249499Y-103573920D01*
X148435484Y-103573920D01*
X148480092Y-103544114D01*
X148577664Y-103446542D01*
X148605500Y-103404881D01*
X148641438Y-103351099D01*
X148654322Y-103331815D01*
X148654325Y-103331811D01*
X148707130Y-103204328D01*
X148734050Y-103068993D01*
X148734050Y-102931007D01*
X148734050Y-102931004D01*
X148707131Y-102795677D01*
X148707130Y-102795676D01*
X148707130Y-102795672D01*
X148669296Y-102704332D01*
X148654328Y-102668195D01*
X148654321Y-102668182D01*
X148577664Y-102553458D01*
X148577661Y-102553454D01*
X148480095Y-102455888D01*
X148480091Y-102455885D01*
X148365367Y-102379228D01*
X148365354Y-102379221D01*
X148237875Y-102326418D01*
X148235016Y-102325551D01*
X148233703Y-102324690D01*
X148232251Y-102324089D01*
X148232365Y-102323813D01*
X148176581Y-102287248D01*
X148156464Y-102254352D01*
X148120775Y-102168189D01*
X148120773Y-102168186D01*
X148120771Y-102168182D01*
X148044114Y-102053458D01*
X148044111Y-102053454D01*
X147946545Y-101955888D01*
X147946541Y-101955885D01*
X147831817Y-101879228D01*
X147831804Y-101879221D01*
X147704332Y-101826421D01*
X147704322Y-101826418D01*
X147568995Y-101799500D01*
X147568993Y-101799500D01*
X147431007Y-101799500D01*
X147431005Y-101799500D01*
X147295677Y-101826418D01*
X147295667Y-101826421D01*
X147168195Y-101879221D01*
X147168182Y-101879228D01*
X147053458Y-101955885D01*
X147053454Y-101955888D01*
X146955888Y-102053454D01*
X146955885Y-102053458D01*
X146879228Y-102168182D01*
X146879221Y-102168195D01*
X146826421Y-102295667D01*
X146826418Y-102295677D01*
X146799500Y-102431004D01*
X146799500Y-102431007D01*
X146799500Y-102568993D01*
X146799500Y-102568995D01*
X146799499Y-102568995D01*
X139450500Y-102568995D01*
X139450500Y-102568993D01*
X139450500Y-102431007D01*
X139450500Y-102431004D01*
X139423581Y-102295677D01*
X139423580Y-102295676D01*
X139423580Y-102295672D01*
X139406462Y-102254346D01*
X139370778Y-102168195D01*
X139370771Y-102168182D01*
X139294114Y-102053458D01*
X139294111Y-102053454D01*
X139196545Y-101955888D01*
X139196541Y-101955885D01*
X139081817Y-101879228D01*
X139081804Y-101879221D01*
X138954332Y-101826421D01*
X138954322Y-101826418D01*
X138818995Y-101799500D01*
X138818993Y-101799500D01*
X138681007Y-101799500D01*
X138681005Y-101799500D01*
X138545677Y-101826418D01*
X138545667Y-101826421D01*
X138418195Y-101879221D01*
X138418182Y-101879228D01*
X138303458Y-101955885D01*
X138303454Y-101955888D01*
X138205888Y-102053454D01*
X138205885Y-102053458D01*
X138129228Y-102168182D01*
X138129221Y-102168195D01*
X138076421Y-102295667D01*
X138076418Y-102295677D01*
X138049500Y-102431004D01*
X138049500Y-102431007D01*
X138049500Y-102568993D01*
X138049500Y-102568995D01*
X138049499Y-102568995D01*
X120500000Y-102568995D01*
X120500000Y-98318995D01*
X124549499Y-98318995D01*
X124576418Y-98454322D01*
X124576421Y-98454332D01*
X124629221Y-98581804D01*
X124629228Y-98581817D01*
X124705885Y-98696541D01*
X124705888Y-98696545D01*
X124803454Y-98794111D01*
X124803458Y-98794114D01*
X124918182Y-98870771D01*
X124918195Y-98870778D01*
X125045667Y-98923578D01*
X125045672Y-98923580D01*
X125045676Y-98923580D01*
X125045677Y-98923581D01*
X125181004Y-98950500D01*
X125181007Y-98950500D01*
X125318995Y-98950500D01*
X125410041Y-98932389D01*
X125454328Y-98923580D01*
X125581811Y-98870775D01*
X125696542Y-98794114D01*
X125794114Y-98696542D01*
X125870775Y-98581811D01*
X125923580Y-98454328D01*
X125950500Y-98318993D01*
X125950500Y-98181007D01*
X125950500Y-98181004D01*
X125923581Y-98045677D01*
X125923580Y-98045676D01*
X125923580Y-98045672D01*
X125923578Y-98045667D01*
X125870778Y-97918195D01*
X125870771Y-97918182D01*
X125794114Y-97803458D01*
X125794111Y-97803454D01*
X125696545Y-97705888D01*
X125696541Y-97705885D01*
X125581817Y-97629228D01*
X125581804Y-97629221D01*
X125454332Y-97576421D01*
X125454322Y-97576418D01*
X125318995Y-97549500D01*
X125318993Y-97549500D01*
X125181007Y-97549500D01*
X125181005Y-97549500D01*
X125045677Y-97576418D01*
X125045667Y-97576421D01*
X124918195Y-97629221D01*
X124918182Y-97629228D01*
X124803458Y-97705885D01*
X124803454Y-97705888D01*
X124705888Y-97803454D01*
X124705885Y-97803458D01*
X124629228Y-97918182D01*
X124629221Y-97918195D01*
X124576421Y-98045667D01*
X124576418Y-98045677D01*
X124549500Y-98181004D01*
X124549500Y-98181007D01*
X124549500Y-98318993D01*
X124549500Y-98318995D01*
X124549499Y-98318995D01*
X120500000Y-98318995D01*
X120500000Y-96568995D01*
X136549499Y-96568995D01*
X136576418Y-96704322D01*
X136576421Y-96704332D01*
X136629221Y-96831804D01*
X136629228Y-96831817D01*
X136705885Y-96946541D01*
X136705888Y-96946545D01*
X136803454Y-97044111D01*
X136803458Y-97044114D01*
X136918182Y-97120771D01*
X136918195Y-97120778D01*
X137045667Y-97173578D01*
X137045672Y-97173580D01*
X137045676Y-97173580D01*
X137045677Y-97173581D01*
X137181004Y-97200500D01*
X137181007Y-97200500D01*
X137318995Y-97200500D01*
X137410041Y-97182389D01*
X137454328Y-97173580D01*
X137581811Y-97120775D01*
X137696542Y-97044114D01*
X137794114Y-96946542D01*
X137870775Y-96831811D01*
X137923580Y-96704328D01*
X137950500Y-96568993D01*
X137950500Y-96431007D01*
X137950500Y-96431004D01*
X137923581Y-96295677D01*
X137923580Y-96295676D01*
X137923580Y-96295672D01*
X137884159Y-96200500D01*
X137870778Y-96168195D01*
X137870771Y-96168182D01*
X137794114Y-96053458D01*
X137794111Y-96053454D01*
X137696545Y-95955888D01*
X137696541Y-95955885D01*
X137581817Y-95879228D01*
X137581804Y-95879221D01*
X137454332Y-95826421D01*
X137454322Y-95826418D01*
X137318995Y-95799500D01*
X137318993Y-95799500D01*
X137181007Y-95799500D01*
X137181005Y-95799500D01*
X137045677Y-95826418D01*
X137045667Y-95826421D01*
X136918195Y-95879221D01*
X136918182Y-95879228D01*
X136803458Y-95955885D01*
X136803454Y-95955888D01*
X136705888Y-96053454D01*
X136705885Y-96053458D01*
X136629228Y-96168182D01*
X136629221Y-96168195D01*
X136576421Y-96295667D01*
X136576418Y-96295677D01*
X136549500Y-96431004D01*
X136549500Y-96431007D01*
X136549500Y-96568993D01*
X136549500Y-96568995D01*
X136549499Y-96568995D01*
X120500000Y-96568995D01*
X120500000Y-95568995D01*
X126299499Y-95568995D01*
X126326418Y-95704322D01*
X126326421Y-95704332D01*
X126379221Y-95831804D01*
X126379228Y-95831817D01*
X126455885Y-95946541D01*
X126455888Y-95946545D01*
X126553454Y-96044111D01*
X126553458Y-96044114D01*
X126668182Y-96120771D01*
X126668195Y-96120778D01*
X126782640Y-96168182D01*
X126795672Y-96173580D01*
X126795676Y-96173580D01*
X126795677Y-96173581D01*
X126931004Y-96200500D01*
X126931007Y-96200500D01*
X127068995Y-96200500D01*
X127160041Y-96182389D01*
X127204328Y-96173580D01*
X127331811Y-96120775D01*
X127446542Y-96044114D01*
X127544114Y-95946542D01*
X127620775Y-95831811D01*
X127673580Y-95704328D01*
X127700500Y-95568995D01*
X138799499Y-95568995D01*
X138826418Y-95704322D01*
X138826421Y-95704332D01*
X138879221Y-95831804D01*
X138879228Y-95831817D01*
X138945573Y-95931109D01*
X138966451Y-95997787D01*
X138947966Y-96065167D01*
X138945573Y-96068891D01*
X138879228Y-96168182D01*
X138879221Y-96168195D01*
X138826421Y-96295667D01*
X138826418Y-96295677D01*
X138799500Y-96431004D01*
X138799500Y-96431007D01*
X138799500Y-96568993D01*
X138799500Y-96568995D01*
X138799499Y-96568995D01*
X138826418Y-96704322D01*
X138826421Y-96704332D01*
X138879221Y-96831804D01*
X138879228Y-96831817D01*
X138955885Y-96946541D01*
X138955888Y-96946545D01*
X139053454Y-97044111D01*
X139053458Y-97044114D01*
X139168182Y-97120771D01*
X139168195Y-97120778D01*
X139295667Y-97173578D01*
X139295672Y-97173580D01*
X139295676Y-97173580D01*
X139295677Y-97173581D01*
X139431004Y-97200500D01*
X139431007Y-97200500D01*
X139568995Y-97200500D01*
X139660041Y-97182389D01*
X139704328Y-97173580D01*
X139831811Y-97120775D01*
X139946542Y-97044114D01*
X140044114Y-96946542D01*
X140120775Y-96831811D01*
X140173580Y-96704328D01*
X140200500Y-96568993D01*
X140200500Y-96431007D01*
X140200500Y-96431004D01*
X140173581Y-96295677D01*
X140173580Y-96295676D01*
X140173580Y-96295672D01*
X140134159Y-96200500D01*
X140120778Y-96168195D01*
X140120776Y-96168191D01*
X140120775Y-96168189D01*
X140054425Y-96068890D01*
X140033548Y-96002214D01*
X140052032Y-95934834D01*
X140054426Y-95931109D01*
X140089094Y-95879225D01*
X140120775Y-95831811D01*
X140173580Y-95704328D01*
X140200500Y-95568993D01*
X140200500Y-95431007D01*
X140200500Y-95431004D01*
X140173581Y-95295677D01*
X140173580Y-95295676D01*
X140173580Y-95295672D01*
X140135746Y-95204332D01*
X140120778Y-95168195D01*
X140120771Y-95168182D01*
X140054496Y-95068995D01*
X160299499Y-95068995D01*
X160326418Y-95204322D01*
X160326421Y-95204332D01*
X160379221Y-95331804D01*
X160379228Y-95331817D01*
X160455885Y-95446541D01*
X160455888Y-95446545D01*
X160553454Y-95544111D01*
X160553458Y-95544114D01*
X160668182Y-95620771D01*
X160668195Y-95620778D01*
X160795667Y-95673578D01*
X160795672Y-95673580D01*
X160795676Y-95673580D01*
X160795677Y-95673581D01*
X160931004Y-95700500D01*
X160931007Y-95700500D01*
X161068995Y-95700500D01*
X161160041Y-95682389D01*
X161204328Y-95673580D01*
X161331811Y-95620775D01*
X161446542Y-95544114D01*
X161544114Y-95446542D01*
X161620775Y-95331811D01*
X161673580Y-95204328D01*
X161700500Y-95068993D01*
X161700500Y-94931007D01*
X161700500Y-94931004D01*
X161673581Y-94795677D01*
X161673580Y-94795676D01*
X161673580Y-94795672D01*
X161672933Y-94794111D01*
X161620778Y-94668195D01*
X161620771Y-94668182D01*
X161544114Y-94553458D01*
X161544111Y-94553454D01*
X161446545Y-94455888D01*
X161446541Y-94455885D01*
X161331817Y-94379228D01*
X161331804Y-94379221D01*
X161204332Y-94326421D01*
X161204322Y-94326418D01*
X161068995Y-94299500D01*
X161068993Y-94299500D01*
X160931007Y-94299500D01*
X160931005Y-94299500D01*
X160795677Y-94326418D01*
X160795667Y-94326421D01*
X160668195Y-94379221D01*
X160668182Y-94379228D01*
X160553458Y-94455885D01*
X160553454Y-94455888D01*
X160455888Y-94553454D01*
X160455885Y-94553458D01*
X160379228Y-94668182D01*
X160379221Y-94668195D01*
X160326421Y-94795667D01*
X160326418Y-94795677D01*
X160299500Y-94931004D01*
X160299500Y-94931007D01*
X160299500Y-95068993D01*
X160299500Y-95068995D01*
X160299499Y-95068995D01*
X140054496Y-95068995D01*
X140044114Y-95053458D01*
X140044111Y-95053454D01*
X139946545Y-94955888D01*
X139946541Y-94955885D01*
X139831817Y-94879228D01*
X139831804Y-94879221D01*
X139704332Y-94826421D01*
X139704322Y-94826418D01*
X139568995Y-94799500D01*
X139568993Y-94799500D01*
X139431007Y-94799500D01*
X139431005Y-94799500D01*
X139295677Y-94826418D01*
X139295667Y-94826421D01*
X139168195Y-94879221D01*
X139168182Y-94879228D01*
X139053458Y-94955885D01*
X139053454Y-94955888D01*
X138955888Y-95053454D01*
X138955885Y-95053458D01*
X138879228Y-95168182D01*
X138879221Y-95168195D01*
X138826421Y-95295667D01*
X138826418Y-95295677D01*
X138799500Y-95431004D01*
X138799500Y-95431007D01*
X138799500Y-95568993D01*
X138799500Y-95568995D01*
X138799499Y-95568995D01*
X127700500Y-95568995D01*
X127700500Y-95568993D01*
X127700500Y-95431007D01*
X127700500Y-95431004D01*
X127673581Y-95295677D01*
X127673580Y-95295676D01*
X127673580Y-95295672D01*
X127635746Y-95204332D01*
X127620778Y-95168195D01*
X127620771Y-95168182D01*
X127544114Y-95053458D01*
X127544111Y-95053454D01*
X127446545Y-94955888D01*
X127446541Y-94955885D01*
X127331817Y-94879228D01*
X127331804Y-94879221D01*
X127204332Y-94826421D01*
X127204322Y-94826418D01*
X127068995Y-94799500D01*
X127068993Y-94799500D01*
X126931007Y-94799500D01*
X126931005Y-94799500D01*
X126795677Y-94826418D01*
X126795667Y-94826421D01*
X126668195Y-94879221D01*
X126668182Y-94879228D01*
X126553458Y-94955885D01*
X126553454Y-94955888D01*
X126455888Y-95053454D01*
X126455885Y-95053458D01*
X126379228Y-95168182D01*
X126379221Y-95168195D01*
X126326421Y-95295667D01*
X126326418Y-95295677D01*
X126299500Y-95431004D01*
X126299500Y-95431007D01*
X126299500Y-95568993D01*
X126299500Y-95568995D01*
X126299499Y-95568995D01*
X120500000Y-95568995D01*
X120500000Y-94318995D01*
X137299499Y-94318995D01*
X137326418Y-94454322D01*
X137326421Y-94454332D01*
X137379221Y-94581804D01*
X137379228Y-94581817D01*
X137455885Y-94696541D01*
X137455888Y-94696545D01*
X137553454Y-94794111D01*
X137553458Y-94794114D01*
X137668182Y-94870771D01*
X137668195Y-94870778D01*
X137795667Y-94923578D01*
X137795672Y-94923580D01*
X137795676Y-94923580D01*
X137795677Y-94923581D01*
X137931004Y-94950500D01*
X137931007Y-94950500D01*
X138068995Y-94950500D01*
X138167005Y-94931004D01*
X138204328Y-94923580D01*
X138311411Y-94879225D01*
X138331804Y-94870778D01*
X138331804Y-94870777D01*
X138331811Y-94870775D01*
X138446542Y-94794114D01*
X138544114Y-94696542D01*
X138620775Y-94581811D01*
X138673580Y-94454328D01*
X138682389Y-94410041D01*
X138700500Y-94318995D01*
X138700500Y-94181004D01*
X138673581Y-94045677D01*
X138673580Y-94045676D01*
X138673580Y-94045672D01*
X138635746Y-93954332D01*
X138620778Y-93918195D01*
X138620771Y-93918182D01*
X138554496Y-93818995D01*
X144299499Y-93818995D01*
X144326418Y-93954322D01*
X144326421Y-93954332D01*
X144379221Y-94081804D01*
X144379228Y-94081817D01*
X144455885Y-94196541D01*
X144455888Y-94196545D01*
X144553454Y-94294111D01*
X144553458Y-94294114D01*
X144668182Y-94370771D01*
X144668195Y-94370778D01*
X144795667Y-94423578D01*
X144795672Y-94423580D01*
X144795676Y-94423580D01*
X144795677Y-94423581D01*
X144931004Y-94450500D01*
X144931007Y-94450500D01*
X145068995Y-94450500D01*
X145160041Y-94432389D01*
X145204328Y-94423580D01*
X145311411Y-94379225D01*
X145331804Y-94370778D01*
X145331804Y-94370777D01*
X145331811Y-94370775D01*
X145446542Y-94294114D01*
X145544114Y-94196542D01*
X145620775Y-94081811D01*
X145673580Y-93954328D01*
X145700500Y-93818993D01*
X145700500Y-93681007D01*
X145700500Y-93681004D01*
X145673581Y-93545677D01*
X145673580Y-93545676D01*
X145673580Y-93545672D01*
X145673578Y-93545667D01*
X145620778Y-93418195D01*
X145620771Y-93418182D01*
X145544114Y-93303458D01*
X145544111Y-93303454D01*
X145446545Y-93205888D01*
X145446541Y-93205885D01*
X145331817Y-93129228D01*
X145331804Y-93129221D01*
X145204332Y-93076421D01*
X145204322Y-93076418D01*
X145068995Y-93049500D01*
X145068993Y-93049500D01*
X144931007Y-93049500D01*
X144931005Y-93049500D01*
X144795677Y-93076418D01*
X144795667Y-93076421D01*
X144668195Y-93129221D01*
X144668182Y-93129228D01*
X144553458Y-93205885D01*
X144553454Y-93205888D01*
X144455888Y-93303454D01*
X144455885Y-93303458D01*
X144379228Y-93418182D01*
X144379221Y-93418195D01*
X144326421Y-93545667D01*
X144326418Y-93545677D01*
X144299500Y-93681004D01*
X144299500Y-93681007D01*
X144299500Y-93818993D01*
X144299500Y-93818995D01*
X144299499Y-93818995D01*
X138554496Y-93818995D01*
X138544114Y-93803458D01*
X138544111Y-93803454D01*
X138446545Y-93705888D01*
X138446541Y-93705885D01*
X138331817Y-93629228D01*
X138331804Y-93629221D01*
X138204332Y-93576421D01*
X138204322Y-93576418D01*
X138068995Y-93549500D01*
X138068993Y-93549500D01*
X137931007Y-93549500D01*
X137931005Y-93549500D01*
X137795677Y-93576418D01*
X137795667Y-93576421D01*
X137668195Y-93629221D01*
X137668182Y-93629228D01*
X137553458Y-93705885D01*
X137553454Y-93705888D01*
X137455888Y-93803454D01*
X137455885Y-93803458D01*
X137379228Y-93918182D01*
X137379221Y-93918195D01*
X137326421Y-94045667D01*
X137326418Y-94045677D01*
X137299500Y-94181004D01*
X137299500Y-94181007D01*
X137299500Y-94318993D01*
X137299500Y-94318995D01*
X137299499Y-94318995D01*
X120500000Y-94318995D01*
X120500000Y-92568995D01*
X162549499Y-92568995D01*
X162576418Y-92704322D01*
X162576421Y-92704332D01*
X162629221Y-92831804D01*
X162629228Y-92831817D01*
X162705885Y-92946541D01*
X162705888Y-92946545D01*
X162803454Y-93044111D01*
X162803458Y-93044114D01*
X162918182Y-93120771D01*
X162918195Y-93120778D01*
X163025168Y-93165087D01*
X163045672Y-93173580D01*
X163045676Y-93173580D01*
X163045677Y-93173581D01*
X163181004Y-93200500D01*
X163181007Y-93200500D01*
X163318995Y-93200500D01*
X163410041Y-93182389D01*
X163454328Y-93173580D01*
X163561411Y-93129225D01*
X163581804Y-93120778D01*
X163581804Y-93120777D01*
X163581811Y-93120775D01*
X163696542Y-93044114D01*
X163794114Y-92946542D01*
X163870775Y-92831811D01*
X163923580Y-92704328D01*
X163949520Y-92573920D01*
X166249499Y-92573920D01*
X166278340Y-92718907D01*
X166278343Y-92718917D01*
X166334912Y-92855488D01*
X166334919Y-92855501D01*
X166417048Y-92978415D01*
X166417051Y-92978419D01*
X166521580Y-93082948D01*
X166521584Y-93082951D01*
X166644498Y-93165080D01*
X166644511Y-93165087D01*
X166781082Y-93221656D01*
X166781087Y-93221658D01*
X166781091Y-93221658D01*
X166781092Y-93221659D01*
X166926079Y-93250500D01*
X166926082Y-93250500D01*
X167073920Y-93250500D01*
X167171462Y-93231096D01*
X167218913Y-93221658D01*
X167355495Y-93165084D01*
X167478416Y-93082951D01*
X167582951Y-92978416D01*
X167665084Y-92855495D01*
X167721658Y-92718913D01*
X167750500Y-92573918D01*
X167750500Y-92426082D01*
X167750500Y-92426079D01*
X167721659Y-92281092D01*
X167721658Y-92281091D01*
X167721658Y-92281087D01*
X167677128Y-92173581D01*
X167665087Y-92144511D01*
X167665080Y-92144498D01*
X167582951Y-92021584D01*
X167582948Y-92021580D01*
X167478419Y-91917051D01*
X167478415Y-91917048D01*
X167355501Y-91834919D01*
X167355488Y-91834912D01*
X167218917Y-91778343D01*
X167218907Y-91778340D01*
X167073920Y-91749500D01*
X167073918Y-91749500D01*
X166926082Y-91749500D01*
X166926080Y-91749500D01*
X166781092Y-91778340D01*
X166781082Y-91778343D01*
X166644511Y-91834912D01*
X166644498Y-91834919D01*
X166521584Y-91917048D01*
X166521580Y-91917051D01*
X166417051Y-92021580D01*
X166417048Y-92021584D01*
X166334919Y-92144498D01*
X166334912Y-92144511D01*
X166278343Y-92281082D01*
X166278340Y-92281092D01*
X166249500Y-92426079D01*
X166249500Y-92426082D01*
X166249500Y-92573918D01*
X166249500Y-92573920D01*
X166249499Y-92573920D01*
X163949520Y-92573920D01*
X163950500Y-92568995D01*
X163950500Y-92431004D01*
X163923581Y-92295677D01*
X163923580Y-92295676D01*
X163923580Y-92295672D01*
X163884159Y-92200500D01*
X163870778Y-92168195D01*
X163870771Y-92168182D01*
X163794114Y-92053458D01*
X163794111Y-92053454D01*
X163696545Y-91955888D01*
X163696541Y-91955885D01*
X163581817Y-91879228D01*
X163581804Y-91879221D01*
X163454332Y-91826421D01*
X163454322Y-91826418D01*
X163318995Y-91799500D01*
X163318993Y-91799500D01*
X163181007Y-91799500D01*
X163181005Y-91799500D01*
X163045677Y-91826418D01*
X163045667Y-91826421D01*
X162918195Y-91879221D01*
X162918182Y-91879228D01*
X162803458Y-91955885D01*
X162803454Y-91955888D01*
X162705888Y-92053454D01*
X162705885Y-92053458D01*
X162629228Y-92168182D01*
X162629221Y-92168195D01*
X162576421Y-92295667D01*
X162576418Y-92295677D01*
X162549500Y-92431004D01*
X162549500Y-92431007D01*
X162549500Y-92568993D01*
X162549500Y-92568995D01*
X162549499Y-92568995D01*
X120500000Y-92568995D01*
X120500000Y-91318995D01*
X135049499Y-91318995D01*
X135076418Y-91454322D01*
X135076421Y-91454332D01*
X135129221Y-91581804D01*
X135129228Y-91581817D01*
X135205885Y-91696541D01*
X135205888Y-91696545D01*
X135303454Y-91794111D01*
X135303458Y-91794114D01*
X135418182Y-91870771D01*
X135418195Y-91870778D01*
X135545667Y-91923578D01*
X135545672Y-91923580D01*
X135545676Y-91923580D01*
X135545677Y-91923581D01*
X135681004Y-91950500D01*
X135681007Y-91950500D01*
X135818995Y-91950500D01*
X135910041Y-91932389D01*
X135954328Y-91923580D01*
X136061411Y-91879225D01*
X136081804Y-91870778D01*
X136081804Y-91870777D01*
X136081811Y-91870775D01*
X136196542Y-91794114D01*
X136294114Y-91696542D01*
X136370775Y-91581811D01*
X136423580Y-91454328D01*
X136447949Y-91331817D01*
X136450500Y-91318995D01*
X136450500Y-91181004D01*
X136423581Y-91045677D01*
X136423580Y-91045676D01*
X136423580Y-91045672D01*
X136400520Y-90990000D01*
X136370778Y-90918195D01*
X136370771Y-90918182D01*
X136294114Y-90803458D01*
X136294111Y-90803454D01*
X136196545Y-90705888D01*
X136196541Y-90705885D01*
X136081817Y-90629228D01*
X136081804Y-90629221D01*
X135954332Y-90576421D01*
X135954322Y-90576418D01*
X135818995Y-90549500D01*
X135818993Y-90549500D01*
X135681007Y-90549500D01*
X135681005Y-90549500D01*
X135545677Y-90576418D01*
X135545667Y-90576421D01*
X135418195Y-90629221D01*
X135418182Y-90629228D01*
X135303458Y-90705885D01*
X135303454Y-90705888D01*
X135205888Y-90803454D01*
X135205885Y-90803458D01*
X135129228Y-90918182D01*
X135129221Y-90918195D01*
X135076421Y-91045667D01*
X135076418Y-91045677D01*
X135049500Y-91181004D01*
X135049500Y-91181007D01*
X135049500Y-91318993D01*
X135049500Y-91318995D01*
X135049499Y-91318995D01*
X120500000Y-91318995D01*
X120500000Y-90548995D01*
X140799499Y-90548995D01*
X140826418Y-90684322D01*
X140826421Y-90684332D01*
X140879221Y-90811804D01*
X140879228Y-90811817D01*
X140952255Y-90921109D01*
X140973133Y-90987787D01*
X140954648Y-91055167D01*
X140952255Y-91058891D01*
X140879228Y-91168182D01*
X140879221Y-91168195D01*
X140826421Y-91295667D01*
X140826418Y-91295677D01*
X140799500Y-91431004D01*
X140799500Y-91431007D01*
X140799500Y-91568993D01*
X140799500Y-91568995D01*
X140799499Y-91568995D01*
X140826418Y-91704322D01*
X140826421Y-91704332D01*
X140879221Y-91831804D01*
X140879228Y-91831817D01*
X140955885Y-91946541D01*
X140955888Y-91946545D01*
X141053454Y-92044111D01*
X141053458Y-92044114D01*
X141168182Y-92120771D01*
X141168195Y-92120778D01*
X141282640Y-92168182D01*
X141295672Y-92173580D01*
X141295676Y-92173580D01*
X141295677Y-92173581D01*
X141431004Y-92200500D01*
X141431007Y-92200500D01*
X141568995Y-92200500D01*
X141660041Y-92182389D01*
X141704328Y-92173580D01*
X141831811Y-92120775D01*
X141946542Y-92044114D01*
X142044114Y-91946542D01*
X142120775Y-91831811D01*
X142173580Y-91704328D01*
X142197949Y-91581817D01*
X142200500Y-91568995D01*
X142200500Y-91431004D01*
X142173581Y-91295677D01*
X142173580Y-91295676D01*
X142173580Y-91295672D01*
X142135746Y-91204332D01*
X142120778Y-91168195D01*
X142120776Y-91168191D01*
X142120775Y-91168189D01*
X142054495Y-91068995D01*
X154799499Y-91068995D01*
X154826418Y-91204322D01*
X154826421Y-91204332D01*
X154879221Y-91331804D01*
X154879228Y-91331817D01*
X154955885Y-91446541D01*
X154955888Y-91446545D01*
X155053454Y-91544111D01*
X155053458Y-91544114D01*
X155168182Y-91620771D01*
X155168195Y-91620778D01*
X155295667Y-91673578D01*
X155295672Y-91673580D01*
X155295676Y-91673580D01*
X155295677Y-91673581D01*
X155431004Y-91700500D01*
X155431007Y-91700500D01*
X155568995Y-91700500D01*
X155660041Y-91682389D01*
X155704328Y-91673580D01*
X155831811Y-91620775D01*
X155946542Y-91544114D01*
X156044114Y-91446542D01*
X156120775Y-91331811D01*
X156173580Y-91204328D01*
X156200500Y-91068993D01*
X156200500Y-90931007D01*
X156200500Y-90931004D01*
X156173581Y-90795677D01*
X156173580Y-90795676D01*
X156173580Y-90795672D01*
X156173578Y-90795667D01*
X156120778Y-90668195D01*
X156120771Y-90668182D01*
X156044114Y-90553458D01*
X156044111Y-90553454D01*
X155946545Y-90455888D01*
X155946541Y-90455885D01*
X155831817Y-90379228D01*
X155831804Y-90379221D01*
X155704332Y-90326421D01*
X155704322Y-90326418D01*
X155568995Y-90299500D01*
X155568993Y-90299500D01*
X155431007Y-90299500D01*
X155431005Y-90299500D01*
X155295677Y-90326418D01*
X155295667Y-90326421D01*
X155168195Y-90379221D01*
X155168182Y-90379228D01*
X155053458Y-90455885D01*
X155053454Y-90455888D01*
X154955888Y-90553454D01*
X154955885Y-90553458D01*
X154879228Y-90668182D01*
X154879221Y-90668195D01*
X154826421Y-90795667D01*
X154826418Y-90795677D01*
X154799500Y-90931004D01*
X154799500Y-90931007D01*
X154799500Y-91068993D01*
X154799500Y-91068995D01*
X154799499Y-91068995D01*
X142054495Y-91068995D01*
X142047743Y-91058890D01*
X142041770Y-91039813D01*
X142031264Y-91022805D01*
X142031543Y-91007152D01*
X142026866Y-90992214D01*
X142032154Y-90972934D01*
X142032512Y-90952946D01*
X142044527Y-90927831D01*
X142045350Y-90924834D01*
X142047744Y-90921109D01*
X142091233Y-90856024D01*
X142099540Y-90843590D01*
X142120775Y-90811811D01*
X142173580Y-90684328D01*
X142195044Y-90576421D01*
X142200500Y-90548995D01*
X142200500Y-90411004D01*
X142173581Y-90275677D01*
X142173580Y-90275676D01*
X142173580Y-90275672D01*
X142173578Y-90275667D01*
X142120778Y-90148195D01*
X142120771Y-90148182D01*
X142044114Y-90033458D01*
X142044111Y-90033454D01*
X141946545Y-89935888D01*
X141946541Y-89935885D01*
X141831817Y-89859228D01*
X141831804Y-89859221D01*
X141704332Y-89806421D01*
X141704322Y-89806418D01*
X141568995Y-89779500D01*
X141568993Y-89779500D01*
X141431007Y-89779500D01*
X141431005Y-89779500D01*
X141295677Y-89806418D01*
X141295667Y-89806421D01*
X141168195Y-89859221D01*
X141168182Y-89859228D01*
X141053458Y-89935885D01*
X141053454Y-89935888D01*
X140955888Y-90033454D01*
X140955885Y-90033458D01*
X140879228Y-90148182D01*
X140879221Y-90148195D01*
X140826421Y-90275667D01*
X140826418Y-90275677D01*
X140799500Y-90411004D01*
X140799500Y-90411007D01*
X140799500Y-90548993D01*
X140799500Y-90548995D01*
X140799499Y-90548995D01*
X120500000Y-90548995D01*
X120500000Y-86573920D01*
X138249499Y-86573920D01*
X138278340Y-86718907D01*
X138278343Y-86718917D01*
X138334912Y-86855488D01*
X138334919Y-86855501D01*
X138417048Y-86978415D01*
X138417051Y-86978419D01*
X138521580Y-87082948D01*
X138521584Y-87082951D01*
X138644498Y-87165080D01*
X138644511Y-87165087D01*
X138781082Y-87221656D01*
X138781087Y-87221658D01*
X138781091Y-87221658D01*
X138781092Y-87221659D01*
X138926079Y-87250500D01*
X138926082Y-87250500D01*
X139073920Y-87250500D01*
X139171462Y-87231096D01*
X139218913Y-87221658D01*
X139355495Y-87165084D01*
X139478416Y-87082951D01*
X139487447Y-87073920D01*
X167249499Y-87073920D01*
X167278340Y-87218907D01*
X167278343Y-87218917D01*
X167334912Y-87355488D01*
X167334919Y-87355501D01*
X167417048Y-87478415D01*
X167417051Y-87478419D01*
X167521580Y-87582948D01*
X167521584Y-87582951D01*
X167644498Y-87665080D01*
X167644511Y-87665087D01*
X167781082Y-87721656D01*
X167781087Y-87721658D01*
X167781091Y-87721658D01*
X167781092Y-87721659D01*
X167926079Y-87750500D01*
X167926082Y-87750500D01*
X168073920Y-87750500D01*
X168171462Y-87731096D01*
X168218913Y-87721658D01*
X168355495Y-87665084D01*
X168478416Y-87582951D01*
X168582951Y-87478416D01*
X168665084Y-87355495D01*
X168721658Y-87218913D01*
X168732366Y-87165080D01*
X168750500Y-87073920D01*
X168750500Y-86926079D01*
X168721659Y-86781092D01*
X168721658Y-86781091D01*
X168721658Y-86781087D01*
X168721656Y-86781082D01*
X168665087Y-86644511D01*
X168665080Y-86644498D01*
X168582951Y-86521584D01*
X168582948Y-86521580D01*
X168478419Y-86417051D01*
X168478415Y-86417048D01*
X168355501Y-86334919D01*
X168355488Y-86334912D01*
X168218917Y-86278343D01*
X168218907Y-86278340D01*
X168073920Y-86249500D01*
X168073918Y-86249500D01*
X167926082Y-86249500D01*
X167926080Y-86249500D01*
X167781092Y-86278340D01*
X167781082Y-86278343D01*
X167644511Y-86334912D01*
X167644498Y-86334919D01*
X167521584Y-86417048D01*
X167521580Y-86417051D01*
X167417051Y-86521580D01*
X167417048Y-86521584D01*
X167334919Y-86644498D01*
X167334912Y-86644511D01*
X167278343Y-86781082D01*
X167278340Y-86781092D01*
X167249500Y-86926079D01*
X167249500Y-86926082D01*
X167249500Y-87073918D01*
X167249500Y-87073920D01*
X167249499Y-87073920D01*
X139487447Y-87073920D01*
X139582951Y-86978416D01*
X139665084Y-86855495D01*
X139721658Y-86718913D01*
X139736459Y-86644505D01*
X139750500Y-86573920D01*
X139750500Y-86426079D01*
X139721659Y-86281092D01*
X139721658Y-86281091D01*
X139721658Y-86281087D01*
X139677128Y-86173581D01*
X139665087Y-86144511D01*
X139665080Y-86144498D01*
X139582951Y-86021584D01*
X139582948Y-86021580D01*
X139478419Y-85917051D01*
X139478415Y-85917048D01*
X139355501Y-85834919D01*
X139355488Y-85834912D01*
X139218917Y-85778343D01*
X139218907Y-85778340D01*
X139073920Y-85749500D01*
X139073918Y-85749500D01*
X138926082Y-85749500D01*
X138926080Y-85749500D01*
X138781092Y-85778340D01*
X138781082Y-85778343D01*
X138644511Y-85834912D01*
X138644498Y-85834919D01*
X138521584Y-85917048D01*
X138521580Y-85917051D01*
X138417051Y-86021580D01*
X138417048Y-86021584D01*
X138334919Y-86144498D01*
X138334912Y-86144511D01*
X138278343Y-86281082D01*
X138278340Y-86281092D01*
X138249500Y-86426079D01*
X138249500Y-86426082D01*
X138249500Y-86573918D01*
X138249500Y-86573920D01*
X138249499Y-86573920D01*
X120500000Y-86573920D01*
X120500000Y-85568995D01*
X151299499Y-85568995D01*
X151326418Y-85704322D01*
X151326421Y-85704332D01*
X151379221Y-85831804D01*
X151379228Y-85831817D01*
X151455885Y-85946541D01*
X151455888Y-85946545D01*
X151553454Y-86044111D01*
X151553458Y-86044114D01*
X151668182Y-86120771D01*
X151668195Y-86120778D01*
X151795667Y-86173578D01*
X151795672Y-86173580D01*
X151795676Y-86173580D01*
X151795677Y-86173581D01*
X151931004Y-86200500D01*
X151931007Y-86200500D01*
X152068995Y-86200500D01*
X152160041Y-86182389D01*
X152204328Y-86173580D01*
X152331811Y-86120775D01*
X152446542Y-86044114D01*
X152544114Y-85946542D01*
X152620775Y-85831811D01*
X152673580Y-85704328D01*
X152700500Y-85568993D01*
X152700500Y-85431007D01*
X152700500Y-85431004D01*
X152673581Y-85295677D01*
X152673580Y-85295676D01*
X152673580Y-85295672D01*
X152641787Y-85218917D01*
X152620778Y-85168195D01*
X152620771Y-85168182D01*
X152557786Y-85073920D01*
X163749499Y-85073920D01*
X163778340Y-85218907D01*
X163778343Y-85218917D01*
X163834912Y-85355488D01*
X163834919Y-85355501D01*
X163917048Y-85478415D01*
X163917051Y-85478419D01*
X164021580Y-85582948D01*
X164021584Y-85582951D01*
X164144498Y-85665080D01*
X164144511Y-85665087D01*
X164239258Y-85704332D01*
X164281087Y-85721658D01*
X164281091Y-85721658D01*
X164281092Y-85721659D01*
X164426079Y-85750500D01*
X164426082Y-85750500D01*
X164573920Y-85750500D01*
X164671462Y-85731096D01*
X164718913Y-85721658D01*
X164855495Y-85665084D01*
X164978416Y-85582951D01*
X165082951Y-85478416D01*
X165165084Y-85355495D01*
X165221658Y-85218913D01*
X165250500Y-85073918D01*
X165250500Y-84926082D01*
X165250500Y-84926079D01*
X165221659Y-84781092D01*
X165221658Y-84781091D01*
X165221658Y-84781087D01*
X165221656Y-84781082D01*
X165165087Y-84644511D01*
X165165080Y-84644498D01*
X165082951Y-84521584D01*
X165082948Y-84521580D01*
X164978419Y-84417051D01*
X164978415Y-84417048D01*
X164855501Y-84334919D01*
X164855488Y-84334912D01*
X164718917Y-84278343D01*
X164718907Y-84278340D01*
X164573920Y-84249500D01*
X164573918Y-84249500D01*
X164426082Y-84249500D01*
X164426080Y-84249500D01*
X164281092Y-84278340D01*
X164281082Y-84278343D01*
X164144511Y-84334912D01*
X164144498Y-84334919D01*
X164021584Y-84417048D01*
X164021580Y-84417051D01*
X163917051Y-84521580D01*
X163917048Y-84521584D01*
X163834919Y-84644498D01*
X163834912Y-84644511D01*
X163778343Y-84781082D01*
X163778340Y-84781092D01*
X163749500Y-84926079D01*
X163749500Y-84926082D01*
X163749500Y-85073918D01*
X163749500Y-85073920D01*
X163749499Y-85073920D01*
X152557786Y-85073920D01*
X152544114Y-85053458D01*
X152544111Y-85053454D01*
X152446545Y-84955888D01*
X152446541Y-84955885D01*
X152331817Y-84879228D01*
X152331804Y-84879221D01*
X152204332Y-84826421D01*
X152204322Y-84826418D01*
X152068995Y-84799500D01*
X152068993Y-84799500D01*
X151931007Y-84799500D01*
X151931005Y-84799500D01*
X151795677Y-84826418D01*
X151795667Y-84826421D01*
X151668195Y-84879221D01*
X151668182Y-84879228D01*
X151553458Y-84955885D01*
X151553454Y-84955888D01*
X151455888Y-85053454D01*
X151455885Y-85053458D01*
X151379228Y-85168182D01*
X151379221Y-85168195D01*
X151326421Y-85295667D01*
X151326418Y-85295677D01*
X151299500Y-85431004D01*
X151299500Y-85431007D01*
X151299500Y-85568993D01*
X151299500Y-85568995D01*
X151299499Y-85568995D01*
X120500000Y-85568995D01*
X120500000Y-82573920D01*
X167249499Y-82573920D01*
X167278340Y-82718907D01*
X167278343Y-82718917D01*
X167334912Y-82855488D01*
X167334919Y-82855501D01*
X167417048Y-82978415D01*
X167417051Y-82978419D01*
X167521580Y-83082948D01*
X167521584Y-83082951D01*
X167644498Y-83165080D01*
X167644511Y-83165087D01*
X167781082Y-83221656D01*
X167781087Y-83221658D01*
X167781091Y-83221658D01*
X167781092Y-83221659D01*
X167926079Y-83250500D01*
X167926082Y-83250500D01*
X168073920Y-83250500D01*
X168171462Y-83231096D01*
X168218913Y-83221658D01*
X168355495Y-83165084D01*
X168478416Y-83082951D01*
X168582951Y-82978416D01*
X168665084Y-82855495D01*
X168721658Y-82718913D01*
X168750500Y-82573918D01*
X168750500Y-82426082D01*
X168750500Y-82426079D01*
X168721659Y-82281092D01*
X168721658Y-82281091D01*
X168721658Y-82281087D01*
X168721656Y-82281082D01*
X168665087Y-82144511D01*
X168665080Y-82144498D01*
X168582951Y-82021584D01*
X168582948Y-82021580D01*
X168478419Y-81917051D01*
X168478415Y-81917048D01*
X168355501Y-81834919D01*
X168355488Y-81834912D01*
X168218917Y-81778343D01*
X168218907Y-81778340D01*
X168073920Y-81749500D01*
X168073918Y-81749500D01*
X167926082Y-81749500D01*
X167926080Y-81749500D01*
X167781092Y-81778340D01*
X167781082Y-81778343D01*
X167644511Y-81834912D01*
X167644498Y-81834919D01*
X167521584Y-81917048D01*
X167521580Y-81917051D01*
X167417051Y-82021580D01*
X167417048Y-82021584D01*
X167334919Y-82144498D01*
X167334912Y-82144511D01*
X167278343Y-82281082D01*
X167278340Y-82281092D01*
X167249500Y-82426079D01*
X167249500Y-82426082D01*
X167249500Y-82573918D01*
X167249500Y-82573920D01*
X167249499Y-82573920D01*
X120500000Y-82573920D01*
X120500000Y-78624000D01*
X120519685Y-78556961D01*
X120572489Y-78511206D01*
X120624000Y-78500000D01*
X124387271Y-78500000D01*
X124454310Y-78519685D01*
G37*
%TD.AperFunction*%
%TD*%
%TA.AperFunction,Conductor*%
%TO.N,5V*%
G36*
X188006922Y-50401279D02*
G01*
X188119518Y-50413966D01*
X188146583Y-50420143D01*
X188246927Y-50455255D01*
X188271941Y-50467301D01*
X188361955Y-50523860D01*
X188383662Y-50541172D01*
X188458827Y-50616337D01*
X188476140Y-50638046D01*
X188532697Y-50728056D01*
X188544745Y-50753074D01*
X188579855Y-50853414D01*
X188586033Y-50880484D01*
X188598720Y-50993077D01*
X188599500Y-51006961D01*
X188599500Y-57500000D01*
X185757539Y-57500000D01*
X185751557Y-57481588D01*
X185751555Y-57481585D01*
X185751555Y-57481583D01*
X185655048Y-57292179D01*
X185530109Y-57120213D01*
X185416569Y-57006673D01*
X185383084Y-56945350D01*
X185388068Y-56875658D01*
X185429940Y-56819725D01*
X185460915Y-56802810D01*
X185592331Y-56753796D01*
X185707546Y-56667546D01*
X185793796Y-56552331D01*
X185844091Y-56417483D01*
X185850500Y-56357873D01*
X185850499Y-54562128D01*
X185845299Y-54513757D01*
X185844091Y-54502516D01*
X185793797Y-54367671D01*
X185793793Y-54367664D01*
X185707547Y-54252455D01*
X185707544Y-54252452D01*
X185592335Y-54166206D01*
X185592328Y-54166202D01*
X185457482Y-54115908D01*
X185457483Y-54115908D01*
X185397883Y-54109501D01*
X185397881Y-54109500D01*
X185397873Y-54109500D01*
X185397864Y-54109500D01*
X183602129Y-54109500D01*
X183602123Y-54109501D01*
X183542516Y-54115908D01*
X183407671Y-54166202D01*
X183407664Y-54166206D01*
X183292455Y-54252452D01*
X183292452Y-54252455D01*
X183206206Y-54367664D01*
X183206202Y-54367671D01*
X183155908Y-54502517D01*
X183150243Y-54555213D01*
X183149501Y-54562123D01*
X183149500Y-54562135D01*
X183149500Y-56357870D01*
X183149501Y-56357876D01*
X183155908Y-56417483D01*
X183206202Y-56552328D01*
X183206206Y-56552335D01*
X183292452Y-56667544D01*
X183292455Y-56667547D01*
X183407664Y-56753793D01*
X183407671Y-56753797D01*
X183539082Y-56802810D01*
X183595016Y-56844681D01*
X183619433Y-56910145D01*
X183604582Y-56978418D01*
X183583431Y-57006673D01*
X183469889Y-57120215D01*
X183344951Y-57292179D01*
X183248444Y-57481583D01*
X183242460Y-57500000D01*
X157753301Y-57500000D01*
X157686262Y-57480315D01*
X157652983Y-57448886D01*
X157637453Y-57427511D01*
X157582981Y-57352536D01*
X157442464Y-57212019D01*
X157281694Y-57095213D01*
X157125218Y-57015484D01*
X157074423Y-56967510D01*
X157057628Y-56899689D01*
X157080165Y-56833554D01*
X157125218Y-56794515D01*
X157281694Y-56714787D01*
X157442464Y-56597981D01*
X157582981Y-56457464D01*
X157699787Y-56296694D01*
X157790005Y-56119632D01*
X157851413Y-55930636D01*
X157882500Y-55734361D01*
X157882500Y-55535639D01*
X157851413Y-55339364D01*
X157812278Y-55218917D01*
X157790006Y-55150370D01*
X157790005Y-55150367D01*
X157751053Y-55073920D01*
X169749499Y-55073920D01*
X169778340Y-55218907D01*
X169778343Y-55218917D01*
X169834912Y-55355488D01*
X169834919Y-55355501D01*
X169917048Y-55478415D01*
X169917051Y-55478419D01*
X170021580Y-55582948D01*
X170021584Y-55582951D01*
X170144498Y-55665080D01*
X170144511Y-55665087D01*
X170200133Y-55688126D01*
X170281087Y-55721658D01*
X170281091Y-55721658D01*
X170281092Y-55721659D01*
X170426079Y-55750500D01*
X170426082Y-55750500D01*
X170573920Y-55750500D01*
X170671462Y-55731096D01*
X170718913Y-55721658D01*
X170855495Y-55665084D01*
X170978416Y-55582951D01*
X171082951Y-55478416D01*
X171165084Y-55355495D01*
X171171767Y-55339362D01*
X171218515Y-55226501D01*
X171221658Y-55218913D01*
X171235293Y-55150367D01*
X171250500Y-55073920D01*
X171250500Y-54926079D01*
X171221659Y-54781092D01*
X171221658Y-54781091D01*
X171221658Y-54781087D01*
X171218515Y-54773498D01*
X171165087Y-54644511D01*
X171165080Y-54644498D01*
X171082951Y-54521584D01*
X171082948Y-54521580D01*
X170978419Y-54417051D01*
X170978415Y-54417048D01*
X170855501Y-54334919D01*
X170855488Y-54334912D01*
X170718917Y-54278343D01*
X170718907Y-54278340D01*
X170573920Y-54249500D01*
X170573918Y-54249500D01*
X170426082Y-54249500D01*
X170426080Y-54249500D01*
X170281092Y-54278340D01*
X170281082Y-54278343D01*
X170144511Y-54334912D01*
X170144498Y-54334919D01*
X170021584Y-54417048D01*
X170021580Y-54417051D01*
X169917051Y-54521580D01*
X169917048Y-54521584D01*
X169834919Y-54644498D01*
X169834912Y-54644511D01*
X169778343Y-54781082D01*
X169778340Y-54781092D01*
X169749500Y-54926079D01*
X169749500Y-54926082D01*
X169749500Y-55073918D01*
X169749500Y-55073920D01*
X169749499Y-55073920D01*
X157751053Y-55073920D01*
X157701305Y-54976285D01*
X157701304Y-54976283D01*
X157699788Y-54973308D01*
X157699786Y-54973305D01*
X157582981Y-54812536D01*
X157442464Y-54672019D01*
X157281694Y-54555213D01*
X157215694Y-54521584D01*
X157104632Y-54464994D01*
X157104629Y-54464993D01*
X156915637Y-54403587D01*
X156817498Y-54388043D01*
X156719361Y-54372500D01*
X156520639Y-54372500D01*
X156455214Y-54382862D01*
X156324362Y-54403587D01*
X156135370Y-54464993D01*
X156135367Y-54464994D01*
X155958305Y-54555213D01*
X155797533Y-54672021D01*
X155657021Y-54812533D01*
X155540213Y-54973305D01*
X155449994Y-55150367D01*
X155449993Y-55150370D01*
X155388587Y-55339362D01*
X155357500Y-55535639D01*
X155357500Y-55734360D01*
X155388587Y-55930637D01*
X155449993Y-56119629D01*
X155449994Y-56119632D01*
X155540213Y-56296694D01*
X155657019Y-56457464D01*
X155797536Y-56597981D01*
X155958306Y-56714787D01*
X156034865Y-56753796D01*
X156114780Y-56794515D01*
X156165576Y-56842490D01*
X156182371Y-56910311D01*
X156159833Y-56976446D01*
X156114780Y-57015485D01*
X155958305Y-57095213D01*
X155797533Y-57212021D01*
X155657021Y-57352533D01*
X155587017Y-57448886D01*
X155531687Y-57491551D01*
X155486699Y-57500000D01*
X142513301Y-57500000D01*
X142446262Y-57480315D01*
X142412983Y-57448886D01*
X142397453Y-57427511D01*
X142342981Y-57352536D01*
X142202464Y-57212019D01*
X142041694Y-57095213D01*
X141885218Y-57015484D01*
X141834423Y-56967510D01*
X141817628Y-56899689D01*
X141840165Y-56833554D01*
X141885218Y-56794515D01*
X142041694Y-56714787D01*
X142202464Y-56597981D01*
X142342981Y-56457464D01*
X142459787Y-56296694D01*
X142550005Y-56119632D01*
X142611413Y-55930636D01*
X142642500Y-55734361D01*
X142642500Y-55535639D01*
X142611413Y-55339364D01*
X142572278Y-55218917D01*
X142550006Y-55150370D01*
X142550005Y-55150367D01*
X142504035Y-55060149D01*
X142459787Y-54973306D01*
X142342981Y-54812536D01*
X142202464Y-54672019D01*
X142041694Y-54555213D01*
X141975694Y-54521584D01*
X141864632Y-54464994D01*
X141864629Y-54464993D01*
X141675637Y-54403587D01*
X141577498Y-54388043D01*
X141479361Y-54372500D01*
X141280639Y-54372500D01*
X141215214Y-54382862D01*
X141084362Y-54403587D01*
X140895370Y-54464993D01*
X140895367Y-54464994D01*
X140718305Y-54555213D01*
X140557533Y-54672021D01*
X140417021Y-54812533D01*
X140300213Y-54973305D01*
X140209994Y-55150367D01*
X140209993Y-55150370D01*
X140148587Y-55339362D01*
X140117500Y-55535639D01*
X140117500Y-55734360D01*
X140148587Y-55930637D01*
X140209993Y-56119629D01*
X140209994Y-56119632D01*
X140300213Y-56296694D01*
X140417019Y-56457464D01*
X140557536Y-56597981D01*
X140718306Y-56714787D01*
X140794865Y-56753796D01*
X140874780Y-56794515D01*
X140925576Y-56842490D01*
X140942371Y-56910311D01*
X140919833Y-56976446D01*
X140874780Y-57015485D01*
X140718305Y-57095213D01*
X140557533Y-57212021D01*
X140417021Y-57352533D01*
X140347017Y-57448886D01*
X140291687Y-57491551D01*
X140246699Y-57500000D01*
X123236688Y-57500000D01*
X123169649Y-57480315D01*
X123123894Y-57427511D01*
X123113950Y-57358353D01*
X123122127Y-57328548D01*
X123173578Y-57204332D01*
X123173580Y-57204328D01*
X123190313Y-57120208D01*
X123200500Y-57068995D01*
X123200500Y-56931004D01*
X123173581Y-56795677D01*
X123173580Y-56795676D01*
X123173580Y-56795672D01*
X123156235Y-56753797D01*
X123120778Y-56668195D01*
X123120771Y-56668182D01*
X123044114Y-56553458D01*
X123044111Y-56553454D01*
X122946545Y-56455888D01*
X122946541Y-56455885D01*
X122831817Y-56379228D01*
X122831804Y-56379221D01*
X122704332Y-56326421D01*
X122704322Y-56326418D01*
X122568995Y-56299500D01*
X122568993Y-56299500D01*
X122431007Y-56299500D01*
X122431005Y-56299500D01*
X122295677Y-56326418D01*
X122295667Y-56326421D01*
X122168195Y-56379221D01*
X122168182Y-56379228D01*
X122053458Y-56455885D01*
X122053454Y-56455888D01*
X121955888Y-56553454D01*
X121955885Y-56553458D01*
X121879228Y-56668182D01*
X121879221Y-56668195D01*
X121826421Y-56795667D01*
X121826418Y-56795677D01*
X121799500Y-56931004D01*
X121799500Y-56931007D01*
X121799500Y-57068993D01*
X121799500Y-57068995D01*
X121799499Y-57068995D01*
X121826418Y-57204322D01*
X121826421Y-57204332D01*
X121877873Y-57328548D01*
X121885342Y-57398017D01*
X121854067Y-57460496D01*
X121793978Y-57496148D01*
X121763312Y-57500000D01*
X112524500Y-57500000D01*
X112457461Y-57480315D01*
X112411706Y-57427511D01*
X112400500Y-57376000D01*
X112400500Y-55076481D01*
X115223499Y-55076481D01*
X115253339Y-55226491D01*
X115253342Y-55226501D01*
X115311873Y-55367809D01*
X115311875Y-55367812D01*
X115396849Y-55494985D01*
X115396855Y-55494993D01*
X115505006Y-55603144D01*
X115505014Y-55603150D01*
X115632187Y-55688124D01*
X115632190Y-55688126D01*
X115773498Y-55746657D01*
X115773503Y-55746659D01*
X115773507Y-55746659D01*
X115773508Y-55746660D01*
X115923518Y-55776500D01*
X115923521Y-55776500D01*
X116076481Y-55776500D01*
X116207187Y-55750500D01*
X116226497Y-55746659D01*
X116367811Y-55688125D01*
X116494990Y-55603147D01*
X116603147Y-55494990D01*
X116688125Y-55367811D01*
X116693227Y-55355495D01*
X116746657Y-55226501D01*
X116746659Y-55226497D01*
X116761802Y-55150368D01*
X116776500Y-55076481D01*
X116776500Y-54923518D01*
X116746660Y-54773508D01*
X116746659Y-54773507D01*
X116746659Y-54773503D01*
X116704624Y-54672021D01*
X116688126Y-54632190D01*
X116688124Y-54632187D01*
X116603150Y-54505014D01*
X116603144Y-54505006D01*
X116494993Y-54396855D01*
X116494985Y-54396849D01*
X116367812Y-54311875D01*
X116367809Y-54311873D01*
X116226501Y-54253342D01*
X116226491Y-54253339D01*
X116076481Y-54223500D01*
X116076479Y-54223500D01*
X115923521Y-54223500D01*
X115923519Y-54223500D01*
X115773508Y-54253339D01*
X115773498Y-54253342D01*
X115632190Y-54311873D01*
X115632187Y-54311875D01*
X115505014Y-54396849D01*
X115505006Y-54396855D01*
X115396855Y-54505006D01*
X115396849Y-54505014D01*
X115311875Y-54632187D01*
X115311873Y-54632190D01*
X115253342Y-54773498D01*
X115253339Y-54773508D01*
X115223500Y-54923518D01*
X115223500Y-54923521D01*
X115223500Y-55076479D01*
X115223500Y-55076481D01*
X115223499Y-55076481D01*
X112400500Y-55076481D01*
X112400500Y-52102155D01*
X119875000Y-52102155D01*
X119875000Y-52750000D01*
X120791988Y-52750000D01*
X120759075Y-52807007D01*
X120725000Y-52934174D01*
X120725000Y-53065826D01*
X120759075Y-53192993D01*
X120791988Y-53250000D01*
X119875000Y-53250000D01*
X119875000Y-53897844D01*
X119881401Y-53957372D01*
X119881403Y-53957379D01*
X119931645Y-54092086D01*
X119931649Y-54092093D01*
X120017809Y-54207187D01*
X120017812Y-54207190D01*
X120132906Y-54293350D01*
X120132913Y-54293354D01*
X120267620Y-54343596D01*
X120267627Y-54343598D01*
X120327155Y-54349999D01*
X120327172Y-54350000D01*
X120975000Y-54350000D01*
X120975000Y-53433012D01*
X121032007Y-53465925D01*
X121159174Y-53500000D01*
X121290826Y-53500000D01*
X121417993Y-53465925D01*
X121475000Y-53433012D01*
X121475000Y-54350000D01*
X122122828Y-54350000D01*
X122122844Y-54349999D01*
X122182372Y-54343598D01*
X122182379Y-54343596D01*
X122317086Y-54293354D01*
X122317093Y-54293350D01*
X122432187Y-54207190D01*
X122432190Y-54207187D01*
X122518350Y-54092093D01*
X122518354Y-54092086D01*
X122567422Y-53960529D01*
X122609293Y-53904595D01*
X122674757Y-53880178D01*
X122743030Y-53895030D01*
X122771285Y-53916181D01*
X122885213Y-54030109D01*
X123057179Y-54155048D01*
X123057181Y-54155049D01*
X123057184Y-54155051D01*
X123246588Y-54251557D01*
X123448757Y-54317246D01*
X123658713Y-54350500D01*
X123658714Y-54350500D01*
X123871286Y-54350500D01*
X123871287Y-54350500D01*
X124081243Y-54317246D01*
X124283412Y-54251557D01*
X124472816Y-54155051D01*
X124559471Y-54092093D01*
X124644786Y-54030109D01*
X124644788Y-54030106D01*
X124644792Y-54030104D01*
X124795104Y-53879792D01*
X124795106Y-53879788D01*
X124795109Y-53879786D01*
X124920048Y-53707820D01*
X124920047Y-53707820D01*
X124920051Y-53707816D01*
X125016557Y-53518412D01*
X125082246Y-53316243D01*
X125115500Y-53106287D01*
X125115500Y-52893713D01*
X125082246Y-52683757D01*
X125016557Y-52481588D01*
X124920051Y-52292184D01*
X124920049Y-52292181D01*
X124920048Y-52292179D01*
X124832542Y-52171736D01*
X124795109Y-52120214D01*
X124795105Y-52120209D01*
X124777051Y-52102155D01*
X127875000Y-52102155D01*
X127875000Y-52750000D01*
X128791988Y-52750000D01*
X128759075Y-52807007D01*
X128725000Y-52934174D01*
X128725000Y-53065826D01*
X128759075Y-53192993D01*
X128791988Y-53250000D01*
X127875000Y-53250000D01*
X127875000Y-53897844D01*
X127881401Y-53957372D01*
X127881403Y-53957379D01*
X127931645Y-54092086D01*
X127931649Y-54092093D01*
X128017809Y-54207187D01*
X128017812Y-54207190D01*
X128132906Y-54293350D01*
X128132913Y-54293354D01*
X128267620Y-54343596D01*
X128267627Y-54343598D01*
X128327155Y-54349999D01*
X128327172Y-54350000D01*
X128975000Y-54350000D01*
X128975000Y-53433012D01*
X129032007Y-53465925D01*
X129159174Y-53500000D01*
X129290826Y-53500000D01*
X129417993Y-53465925D01*
X129475000Y-53433012D01*
X129475000Y-54350000D01*
X130122828Y-54350000D01*
X130122844Y-54349999D01*
X130182372Y-54343598D01*
X130182379Y-54343596D01*
X130317086Y-54293354D01*
X130317093Y-54293350D01*
X130432187Y-54207190D01*
X130432190Y-54207187D01*
X130518350Y-54092093D01*
X130518354Y-54092086D01*
X130567422Y-53960529D01*
X130609293Y-53904595D01*
X130674757Y-53880178D01*
X130743030Y-53895030D01*
X130771285Y-53916181D01*
X130885213Y-54030109D01*
X131057179Y-54155048D01*
X131057181Y-54155049D01*
X131057184Y-54155051D01*
X131246588Y-54251557D01*
X131448757Y-54317246D01*
X131658713Y-54350500D01*
X131658714Y-54350500D01*
X131871286Y-54350500D01*
X131871287Y-54350500D01*
X132081243Y-54317246D01*
X132283412Y-54251557D01*
X132472816Y-54155051D01*
X132559471Y-54092093D01*
X132644786Y-54030109D01*
X132644788Y-54030106D01*
X132644792Y-54030104D01*
X132795104Y-53879792D01*
X132795106Y-53879788D01*
X132795109Y-53879786D01*
X132920048Y-53707820D01*
X132920047Y-53707820D01*
X132920051Y-53707816D01*
X133016557Y-53518412D01*
X133082246Y-53316243D01*
X133115500Y-53106287D01*
X133115500Y-52893713D01*
X133082246Y-52683757D01*
X133016557Y-52481588D01*
X132920051Y-52292184D01*
X132920049Y-52292181D01*
X132920048Y-52292179D01*
X132795109Y-52120213D01*
X132644786Y-51969890D01*
X132472820Y-51844951D01*
X132283414Y-51748444D01*
X132283413Y-51748443D01*
X132283412Y-51748443D01*
X132081243Y-51682754D01*
X132081241Y-51682753D01*
X132081240Y-51682753D01*
X131919957Y-51657208D01*
X131871287Y-51649500D01*
X131658713Y-51649500D01*
X131610042Y-51657208D01*
X131448760Y-51682753D01*
X131246585Y-51748444D01*
X131057179Y-51844951D01*
X130885215Y-51969889D01*
X130771285Y-52083819D01*
X130709962Y-52117303D01*
X130640270Y-52112319D01*
X130584337Y-52070447D01*
X130567422Y-52039470D01*
X130518354Y-51907913D01*
X130518350Y-51907906D01*
X130432190Y-51792812D01*
X130432187Y-51792809D01*
X130317093Y-51706649D01*
X130317086Y-51706645D01*
X130182379Y-51656403D01*
X130182372Y-51656401D01*
X130122844Y-51650000D01*
X129475000Y-51650000D01*
X129475000Y-52566988D01*
X129417993Y-52534075D01*
X129290826Y-52500000D01*
X129159174Y-52500000D01*
X129032007Y-52534075D01*
X128975000Y-52566988D01*
X128975000Y-51650000D01*
X128327155Y-51650000D01*
X128267627Y-51656401D01*
X128267620Y-51656403D01*
X128132913Y-51706645D01*
X128132906Y-51706649D01*
X128017812Y-51792809D01*
X128017809Y-51792812D01*
X127931649Y-51907906D01*
X127931645Y-51907913D01*
X127881403Y-52042620D01*
X127881401Y-52042627D01*
X127875000Y-52102155D01*
X124777051Y-52102155D01*
X124644786Y-51969890D01*
X124472820Y-51844951D01*
X124283414Y-51748444D01*
X124283413Y-51748443D01*
X124283412Y-51748443D01*
X124081243Y-51682754D01*
X124081241Y-51682753D01*
X124081240Y-51682753D01*
X123919957Y-51657208D01*
X123871287Y-51649500D01*
X123658713Y-51649500D01*
X123610042Y-51657208D01*
X123448760Y-51682753D01*
X123246585Y-51748444D01*
X123057179Y-51844951D01*
X122885215Y-51969889D01*
X122771285Y-52083819D01*
X122709962Y-52117303D01*
X122640270Y-52112319D01*
X122584337Y-52070447D01*
X122567422Y-52039470D01*
X122518354Y-51907913D01*
X122518350Y-51907906D01*
X122432190Y-51792812D01*
X122432187Y-51792809D01*
X122317093Y-51706649D01*
X122317086Y-51706645D01*
X122182379Y-51656403D01*
X122182372Y-51656401D01*
X122122844Y-51650000D01*
X121475000Y-51650000D01*
X121475000Y-52566988D01*
X121417993Y-52534075D01*
X121290826Y-52500000D01*
X121159174Y-52500000D01*
X121032007Y-52534075D01*
X120975000Y-52566988D01*
X120975000Y-51650000D01*
X120327155Y-51650000D01*
X120267627Y-51656401D01*
X120267620Y-51656403D01*
X120132913Y-51706645D01*
X120132906Y-51706649D01*
X120017812Y-51792809D01*
X120017809Y-51792812D01*
X119931649Y-51907906D01*
X119931645Y-51907913D01*
X119881403Y-52042620D01*
X119881401Y-52042627D01*
X119875000Y-52102155D01*
X112400500Y-52102155D01*
X112400500Y-51006961D01*
X112401280Y-50993078D01*
X112413966Y-50880485D01*
X112413966Y-50880479D01*
X112420142Y-50853418D01*
X112455256Y-50753068D01*
X112467299Y-50728062D01*
X112523863Y-50638040D01*
X112541168Y-50616341D01*
X112616341Y-50541168D01*
X112638040Y-50523863D01*
X112728062Y-50467299D01*
X112753068Y-50455256D01*
X112853418Y-50420142D01*
X112880481Y-50413966D01*
X112977769Y-50403004D01*
X112993078Y-50401280D01*
X113006961Y-50400500D01*
X113057583Y-50400500D01*
X187942417Y-50400500D01*
X187993039Y-50400500D01*
X188006922Y-50401279D01*
G37*
%TD.AperFunction*%
%TD*%
%TA.AperFunction,Conductor*%
%TO.N,5V*%
G36*
X188006922Y-50401279D02*
G01*
X188119518Y-50413966D01*
X188146583Y-50420143D01*
X188246927Y-50455255D01*
X188271941Y-50467301D01*
X188361955Y-50523860D01*
X188383662Y-50541172D01*
X188458827Y-50616337D01*
X188476140Y-50638046D01*
X188532697Y-50728056D01*
X188544745Y-50753074D01*
X188579855Y-50853414D01*
X188586033Y-50880484D01*
X188598720Y-50993077D01*
X188599500Y-51006961D01*
X188599500Y-130993038D01*
X188598720Y-131006922D01*
X188586033Y-131119515D01*
X188579855Y-131146585D01*
X188544745Y-131246925D01*
X188532697Y-131271943D01*
X188476140Y-131361953D01*
X188458827Y-131383662D01*
X188383662Y-131458827D01*
X188361953Y-131476140D01*
X188271943Y-131532697D01*
X188246925Y-131544745D01*
X188146585Y-131579855D01*
X188119516Y-131586033D01*
X188034855Y-131595572D01*
X188006921Y-131598720D01*
X187993039Y-131599500D01*
X173624000Y-131599500D01*
X173556961Y-131579815D01*
X173511206Y-131527011D01*
X173500000Y-131475500D01*
X173500000Y-124076481D01*
X185223499Y-124076481D01*
X185253339Y-124226491D01*
X185253342Y-124226501D01*
X185311873Y-124367809D01*
X185311875Y-124367812D01*
X185396849Y-124494985D01*
X185396855Y-124494993D01*
X185505006Y-124603144D01*
X185505014Y-124603150D01*
X185632187Y-124688124D01*
X185632190Y-124688126D01*
X185773498Y-124746657D01*
X185773503Y-124746659D01*
X185773507Y-124746659D01*
X185773508Y-124746660D01*
X185923518Y-124776500D01*
X185923521Y-124776500D01*
X186076481Y-124776500D01*
X186177404Y-124756424D01*
X186226497Y-124746659D01*
X186367811Y-124688125D01*
X186494990Y-124603147D01*
X186603147Y-124494990D01*
X186688125Y-124367811D01*
X186746659Y-124226497D01*
X186776500Y-124076479D01*
X186776500Y-123923521D01*
X186776500Y-123923518D01*
X186746660Y-123773508D01*
X186746659Y-123773507D01*
X186746659Y-123773503D01*
X186746657Y-123773498D01*
X186688126Y-123632190D01*
X186688124Y-123632187D01*
X186603150Y-123505014D01*
X186603144Y-123505006D01*
X186494993Y-123396855D01*
X186494985Y-123396849D01*
X186367812Y-123311875D01*
X186367809Y-123311873D01*
X186226501Y-123253342D01*
X186226491Y-123253339D01*
X186076481Y-123223500D01*
X186076479Y-123223500D01*
X185923521Y-123223500D01*
X185923519Y-123223500D01*
X185773508Y-123253339D01*
X185773498Y-123253342D01*
X185632190Y-123311873D01*
X185632187Y-123311875D01*
X185505014Y-123396849D01*
X185505006Y-123396855D01*
X185396855Y-123505006D01*
X185396849Y-123505014D01*
X185311875Y-123632187D01*
X185311873Y-123632190D01*
X185253342Y-123773498D01*
X185253339Y-123773508D01*
X185223500Y-123923518D01*
X185223500Y-123923521D01*
X185223500Y-124076479D01*
X185223500Y-124076481D01*
X185223499Y-124076481D01*
X173500000Y-124076481D01*
X173500000Y-119183713D01*
X183149500Y-119183713D01*
X183149500Y-119396286D01*
X183182753Y-119606239D01*
X183248444Y-119808414D01*
X183344951Y-119997820D01*
X183469890Y-120169786D01*
X183620213Y-120320109D01*
X183792179Y-120445048D01*
X183792181Y-120445049D01*
X183792184Y-120445051D01*
X183981588Y-120541557D01*
X184183757Y-120607246D01*
X184393713Y-120640500D01*
X184393714Y-120640500D01*
X184606286Y-120640500D01*
X184606287Y-120640500D01*
X184816243Y-120607246D01*
X185018412Y-120541557D01*
X185207816Y-120445051D01*
X185229789Y-120429086D01*
X185379786Y-120320109D01*
X185379788Y-120320106D01*
X185379792Y-120320104D01*
X185530104Y-120169792D01*
X185530106Y-120169788D01*
X185530109Y-120169786D01*
X185655048Y-119997820D01*
X185655047Y-119997820D01*
X185655051Y-119997816D01*
X185751557Y-119808412D01*
X185817246Y-119606243D01*
X185850500Y-119396287D01*
X185850500Y-119183713D01*
X185817246Y-118973757D01*
X185751557Y-118771588D01*
X185655051Y-118582184D01*
X185655049Y-118582181D01*
X185655048Y-118582179D01*
X185530109Y-118410213D01*
X185416181Y-118296285D01*
X185382696Y-118234962D01*
X185387680Y-118165270D01*
X185429552Y-118109337D01*
X185460529Y-118092422D01*
X185592086Y-118043354D01*
X185592093Y-118043350D01*
X185707187Y-117957190D01*
X185707190Y-117957187D01*
X185793350Y-117842093D01*
X185793354Y-117842086D01*
X185843596Y-117707379D01*
X185843598Y-117707372D01*
X185849999Y-117647844D01*
X185850000Y-117647827D01*
X185850000Y-117000000D01*
X184933012Y-117000000D01*
X184965925Y-116942993D01*
X185000000Y-116815826D01*
X185000000Y-116684174D01*
X184965925Y-116557007D01*
X184933012Y-116500000D01*
X185850000Y-116500000D01*
X185850000Y-115852172D01*
X185849999Y-115852155D01*
X185843598Y-115792627D01*
X185843596Y-115792620D01*
X185793354Y-115657913D01*
X185793350Y-115657906D01*
X185707190Y-115542812D01*
X185707187Y-115542809D01*
X185592093Y-115456649D01*
X185592086Y-115456645D01*
X185457379Y-115406403D01*
X185457372Y-115406401D01*
X185397844Y-115400000D01*
X184750000Y-115400000D01*
X184750000Y-116316988D01*
X184692993Y-116284075D01*
X184565826Y-116250000D01*
X184434174Y-116250000D01*
X184307007Y-116284075D01*
X184250000Y-116316988D01*
X184250000Y-115400000D01*
X183602155Y-115400000D01*
X183542627Y-115406401D01*
X183542620Y-115406403D01*
X183407913Y-115456645D01*
X183407906Y-115456649D01*
X183292812Y-115542809D01*
X183292809Y-115542812D01*
X183206649Y-115657906D01*
X183206645Y-115657913D01*
X183156403Y-115792620D01*
X183156401Y-115792627D01*
X183150000Y-115852155D01*
X183150000Y-116500000D01*
X184066988Y-116500000D01*
X184034075Y-116557007D01*
X184000000Y-116684174D01*
X184000000Y-116815826D01*
X184034075Y-116942993D01*
X184066988Y-117000000D01*
X183150000Y-117000000D01*
X183150000Y-117647844D01*
X183156401Y-117707372D01*
X183156403Y-117707379D01*
X183206645Y-117842086D01*
X183206649Y-117842093D01*
X183292809Y-117957187D01*
X183292812Y-117957190D01*
X183407906Y-118043350D01*
X183407913Y-118043354D01*
X183539470Y-118092422D01*
X183595404Y-118134293D01*
X183619821Y-118199758D01*
X183604969Y-118268031D01*
X183583819Y-118296285D01*
X183469889Y-118410215D01*
X183344951Y-118582179D01*
X183248444Y-118771585D01*
X183182753Y-118973760D01*
X183149500Y-119183713D01*
X173500000Y-119183713D01*
X173500000Y-109933713D01*
X183149500Y-109933713D01*
X183149500Y-110146286D01*
X183182753Y-110356239D01*
X183248444Y-110558414D01*
X183344951Y-110747820D01*
X183469890Y-110919786D01*
X183620213Y-111070109D01*
X183792179Y-111195048D01*
X183792181Y-111195049D01*
X183792184Y-111195051D01*
X183981588Y-111291557D01*
X184183757Y-111357246D01*
X184393713Y-111390500D01*
X184393714Y-111390500D01*
X184606286Y-111390500D01*
X184606287Y-111390500D01*
X184816243Y-111357246D01*
X185018412Y-111291557D01*
X185207816Y-111195051D01*
X185229789Y-111179086D01*
X185379786Y-111070109D01*
X185379788Y-111070106D01*
X185379792Y-111070104D01*
X185530104Y-110919792D01*
X185530106Y-110919788D01*
X185530109Y-110919786D01*
X185655048Y-110747820D01*
X185655047Y-110747820D01*
X185655051Y-110747816D01*
X185751557Y-110558412D01*
X185817246Y-110356243D01*
X185850500Y-110146287D01*
X185850500Y-109933713D01*
X185817246Y-109723757D01*
X185751557Y-109521588D01*
X185655051Y-109332184D01*
X185655049Y-109332181D01*
X185655048Y-109332179D01*
X185530109Y-109160213D01*
X185416181Y-109046285D01*
X185382696Y-108984962D01*
X185387680Y-108915270D01*
X185429552Y-108859337D01*
X185460529Y-108842422D01*
X185592086Y-108793354D01*
X185592093Y-108793350D01*
X185707187Y-108707190D01*
X185707190Y-108707187D01*
X185793350Y-108592093D01*
X185793354Y-108592086D01*
X185843596Y-108457379D01*
X185843598Y-108457372D01*
X185849999Y-108397844D01*
X185850000Y-108397827D01*
X185850000Y-107750000D01*
X184933012Y-107750000D01*
X184965925Y-107692993D01*
X185000000Y-107565826D01*
X185000000Y-107434174D01*
X184965925Y-107307007D01*
X184933012Y-107250000D01*
X185850000Y-107250000D01*
X185850000Y-106602172D01*
X185849999Y-106602155D01*
X185843598Y-106542627D01*
X185843596Y-106542620D01*
X185793354Y-106407913D01*
X185793350Y-106407906D01*
X185707190Y-106292812D01*
X185707187Y-106292809D01*
X185592093Y-106206649D01*
X185592086Y-106206645D01*
X185457379Y-106156403D01*
X185457372Y-106156401D01*
X185397844Y-106150000D01*
X184750000Y-106150000D01*
X184750000Y-107066988D01*
X184692993Y-107034075D01*
X184565826Y-107000000D01*
X184434174Y-107000000D01*
X184307007Y-107034075D01*
X184250000Y-107066988D01*
X184250000Y-106150000D01*
X183602155Y-106150000D01*
X183542627Y-106156401D01*
X183542620Y-106156403D01*
X183407913Y-106206645D01*
X183407906Y-106206649D01*
X183292812Y-106292809D01*
X183292809Y-106292812D01*
X183206649Y-106407906D01*
X183206645Y-106407913D01*
X183156403Y-106542620D01*
X183156401Y-106542627D01*
X183150000Y-106602155D01*
X183150000Y-107250000D01*
X184066988Y-107250000D01*
X184034075Y-107307007D01*
X184000000Y-107434174D01*
X184000000Y-107565826D01*
X184034075Y-107692993D01*
X184066988Y-107750000D01*
X183150000Y-107750000D01*
X183150000Y-108397844D01*
X183156401Y-108457372D01*
X183156403Y-108457379D01*
X183206645Y-108592086D01*
X183206649Y-108592093D01*
X183292809Y-108707187D01*
X183292812Y-108707190D01*
X183407906Y-108793350D01*
X183407913Y-108793354D01*
X183539470Y-108842422D01*
X183595404Y-108884293D01*
X183619821Y-108949758D01*
X183604969Y-109018031D01*
X183583819Y-109046285D01*
X183469889Y-109160215D01*
X183344951Y-109332179D01*
X183248444Y-109521585D01*
X183182753Y-109723760D01*
X183149500Y-109933713D01*
X173500000Y-109933713D01*
X173500000Y-108823920D01*
X179749499Y-108823920D01*
X179778340Y-108968907D01*
X179778343Y-108968917D01*
X179834912Y-109105488D01*
X179834919Y-109105501D01*
X179917048Y-109228415D01*
X179917051Y-109228419D01*
X180021580Y-109332948D01*
X180021584Y-109332951D01*
X180144498Y-109415080D01*
X180144511Y-109415087D01*
X180281082Y-109471656D01*
X180281087Y-109471658D01*
X180281091Y-109471658D01*
X180281092Y-109471659D01*
X180426079Y-109500500D01*
X180426082Y-109500500D01*
X180573920Y-109500500D01*
X180671462Y-109481096D01*
X180718913Y-109471658D01*
X180855495Y-109415084D01*
X180978416Y-109332951D01*
X181082951Y-109228416D01*
X181165084Y-109105495D01*
X181221658Y-108968913D01*
X181238360Y-108884949D01*
X181250500Y-108823920D01*
X181250500Y-108676079D01*
X181221659Y-108531092D01*
X181221658Y-108531091D01*
X181221658Y-108531087D01*
X181221656Y-108531082D01*
X181165087Y-108394511D01*
X181165080Y-108394498D01*
X181082951Y-108271584D01*
X181082948Y-108271580D01*
X180978419Y-108167051D01*
X180978415Y-108167048D01*
X180855501Y-108084919D01*
X180855488Y-108084912D01*
X180718917Y-108028343D01*
X180718907Y-108028340D01*
X180573920Y-107999500D01*
X180573918Y-107999500D01*
X180426082Y-107999500D01*
X180426080Y-107999500D01*
X180281092Y-108028340D01*
X180281082Y-108028343D01*
X180144511Y-108084912D01*
X180144498Y-108084919D01*
X180021584Y-108167048D01*
X180021580Y-108167051D01*
X179917051Y-108271580D01*
X179917048Y-108271584D01*
X179834919Y-108394498D01*
X179834912Y-108394511D01*
X179778343Y-108531082D01*
X179778340Y-108531092D01*
X179749500Y-108676079D01*
X179749500Y-108676082D01*
X179749500Y-108823918D01*
X179749500Y-108823920D01*
X179749499Y-108823920D01*
X173500000Y-108823920D01*
X173500000Y-98408713D01*
X183149500Y-98408713D01*
X183149500Y-98621286D01*
X183182753Y-98831239D01*
X183248444Y-99033414D01*
X183344951Y-99222820D01*
X183469890Y-99394786D01*
X183620213Y-99545109D01*
X183792179Y-99670048D01*
X183792181Y-99670049D01*
X183792184Y-99670051D01*
X183981588Y-99766557D01*
X184183757Y-99832246D01*
X184393713Y-99865500D01*
X184393714Y-99865500D01*
X184606286Y-99865500D01*
X184606287Y-99865500D01*
X184816243Y-99832246D01*
X185018412Y-99766557D01*
X185207816Y-99670051D01*
X185229789Y-99654086D01*
X185379786Y-99545109D01*
X185379788Y-99545106D01*
X185379792Y-99545104D01*
X185530104Y-99394792D01*
X185530106Y-99394788D01*
X185530109Y-99394786D01*
X185655048Y-99222820D01*
X185655047Y-99222820D01*
X185655051Y-99222816D01*
X185751557Y-99033412D01*
X185817246Y-98831243D01*
X185850500Y-98621287D01*
X185850500Y-98408713D01*
X185817246Y-98198757D01*
X185751557Y-97996588D01*
X185655051Y-97807184D01*
X185655049Y-97807181D01*
X185655048Y-97807179D01*
X185530109Y-97635213D01*
X185416181Y-97521285D01*
X185382696Y-97459962D01*
X185387680Y-97390270D01*
X185429552Y-97334337D01*
X185460529Y-97317422D01*
X185592086Y-97268354D01*
X185592093Y-97268350D01*
X185707187Y-97182190D01*
X185707190Y-97182187D01*
X185793350Y-97067093D01*
X185793354Y-97067086D01*
X185843596Y-96932379D01*
X185843598Y-96932372D01*
X185849999Y-96872844D01*
X185850000Y-96872827D01*
X185850000Y-96225000D01*
X184933012Y-96225000D01*
X184965925Y-96167993D01*
X185000000Y-96040826D01*
X185000000Y-95909174D01*
X184965925Y-95782007D01*
X184933012Y-95725000D01*
X185850000Y-95725000D01*
X185850000Y-95077172D01*
X185849999Y-95077155D01*
X185843598Y-95017627D01*
X185843596Y-95017620D01*
X185793354Y-94882913D01*
X185793350Y-94882906D01*
X185707190Y-94767812D01*
X185707187Y-94767809D01*
X185592093Y-94681649D01*
X185592086Y-94681645D01*
X185457379Y-94631403D01*
X185457372Y-94631401D01*
X185397844Y-94625000D01*
X184750000Y-94625000D01*
X184750000Y-95541988D01*
X184692993Y-95509075D01*
X184565826Y-95475000D01*
X184434174Y-95475000D01*
X184307007Y-95509075D01*
X184250000Y-95541988D01*
X184250000Y-94625000D01*
X183602155Y-94625000D01*
X183542627Y-94631401D01*
X183542620Y-94631403D01*
X183407913Y-94681645D01*
X183407906Y-94681649D01*
X183292812Y-94767809D01*
X183292809Y-94767812D01*
X183206649Y-94882906D01*
X183206645Y-94882913D01*
X183156403Y-95017620D01*
X183156401Y-95017627D01*
X183150000Y-95077155D01*
X183150000Y-95725000D01*
X184066988Y-95725000D01*
X184034075Y-95782007D01*
X184000000Y-95909174D01*
X184000000Y-96040826D01*
X184034075Y-96167993D01*
X184066988Y-96225000D01*
X183150000Y-96225000D01*
X183150000Y-96872844D01*
X183156401Y-96932372D01*
X183156403Y-96932379D01*
X183206645Y-97067086D01*
X183206649Y-97067093D01*
X183292809Y-97182187D01*
X183292812Y-97182190D01*
X183407906Y-97268350D01*
X183407913Y-97268354D01*
X183539470Y-97317422D01*
X183595404Y-97359293D01*
X183619821Y-97424758D01*
X183604969Y-97493031D01*
X183583819Y-97521285D01*
X183469889Y-97635215D01*
X183344951Y-97807179D01*
X183248444Y-97996585D01*
X183182753Y-98198760D01*
X183149500Y-98408713D01*
X173500000Y-98408713D01*
X173500000Y-88908713D01*
X183149500Y-88908713D01*
X183149500Y-89121286D01*
X183182753Y-89331239D01*
X183248444Y-89533414D01*
X183344951Y-89722820D01*
X183469890Y-89894786D01*
X183620213Y-90045109D01*
X183792179Y-90170048D01*
X183792181Y-90170049D01*
X183792184Y-90170051D01*
X183981588Y-90266557D01*
X184183757Y-90332246D01*
X184393713Y-90365500D01*
X184393714Y-90365500D01*
X184606286Y-90365500D01*
X184606287Y-90365500D01*
X184816243Y-90332246D01*
X185018412Y-90266557D01*
X185207816Y-90170051D01*
X185229789Y-90154086D01*
X185379786Y-90045109D01*
X185379788Y-90045106D01*
X185379792Y-90045104D01*
X185530104Y-89894792D01*
X185530106Y-89894788D01*
X185530109Y-89894786D01*
X185655048Y-89722820D01*
X185655047Y-89722820D01*
X185655051Y-89722816D01*
X185751557Y-89533412D01*
X185817246Y-89331243D01*
X185850500Y-89121287D01*
X185850500Y-88908713D01*
X185817246Y-88698757D01*
X185751557Y-88496588D01*
X185655051Y-88307184D01*
X185655049Y-88307181D01*
X185655048Y-88307179D01*
X185530109Y-88135213D01*
X185416181Y-88021285D01*
X185382696Y-87959962D01*
X185387680Y-87890270D01*
X185429552Y-87834337D01*
X185460529Y-87817422D01*
X185592086Y-87768354D01*
X185592093Y-87768350D01*
X185707187Y-87682190D01*
X185707190Y-87682187D01*
X185793350Y-87567093D01*
X185793354Y-87567086D01*
X185843596Y-87432379D01*
X185843598Y-87432372D01*
X185849999Y-87372844D01*
X185850000Y-87372827D01*
X185850000Y-86725000D01*
X184933012Y-86725000D01*
X184965925Y-86667993D01*
X185000000Y-86540826D01*
X185000000Y-86409174D01*
X184965925Y-86282007D01*
X184933012Y-86225000D01*
X185850000Y-86225000D01*
X185850000Y-85577172D01*
X185849999Y-85577155D01*
X185843598Y-85517627D01*
X185843596Y-85517620D01*
X185793354Y-85382913D01*
X185793350Y-85382906D01*
X185707190Y-85267812D01*
X185707187Y-85267809D01*
X185592093Y-85181649D01*
X185592086Y-85181645D01*
X185457379Y-85131403D01*
X185457372Y-85131401D01*
X185397844Y-85125000D01*
X184750000Y-85125000D01*
X184750000Y-86041988D01*
X184692993Y-86009075D01*
X184565826Y-85975000D01*
X184434174Y-85975000D01*
X184307007Y-86009075D01*
X184250000Y-86041988D01*
X184250000Y-85125000D01*
X183602155Y-85125000D01*
X183542627Y-85131401D01*
X183542620Y-85131403D01*
X183407913Y-85181645D01*
X183407906Y-85181649D01*
X183292812Y-85267809D01*
X183292809Y-85267812D01*
X183206649Y-85382906D01*
X183206645Y-85382913D01*
X183156403Y-85517620D01*
X183156401Y-85517627D01*
X183150000Y-85577155D01*
X183150000Y-86225000D01*
X184066988Y-86225000D01*
X184034075Y-86282007D01*
X184000000Y-86409174D01*
X184000000Y-86540826D01*
X184034075Y-86667993D01*
X184066988Y-86725000D01*
X183150000Y-86725000D01*
X183150000Y-87372844D01*
X183156401Y-87432372D01*
X183156403Y-87432379D01*
X183206645Y-87567086D01*
X183206649Y-87567093D01*
X183292809Y-87682187D01*
X183292812Y-87682190D01*
X183407906Y-87768350D01*
X183407913Y-87768354D01*
X183539470Y-87817422D01*
X183595404Y-87859293D01*
X183619821Y-87924758D01*
X183604969Y-87993031D01*
X183583819Y-88021285D01*
X183469889Y-88135215D01*
X183344951Y-88307179D01*
X183248444Y-88496585D01*
X183182753Y-88698760D01*
X183149500Y-88908713D01*
X173500000Y-88908713D01*
X173500000Y-88073920D01*
X179749499Y-88073920D01*
X179778340Y-88218907D01*
X179778343Y-88218917D01*
X179834912Y-88355488D01*
X179834919Y-88355501D01*
X179917048Y-88478415D01*
X179917051Y-88478419D01*
X180021580Y-88582948D01*
X180021584Y-88582951D01*
X180144498Y-88665080D01*
X180144511Y-88665087D01*
X180225806Y-88698760D01*
X180281087Y-88721658D01*
X180281091Y-88721658D01*
X180281092Y-88721659D01*
X180426079Y-88750500D01*
X180426082Y-88750500D01*
X180573920Y-88750500D01*
X180671462Y-88731096D01*
X180718913Y-88721658D01*
X180855495Y-88665084D01*
X180978416Y-88582951D01*
X181082951Y-88478416D01*
X181165084Y-88355495D01*
X181221658Y-88218913D01*
X181238307Y-88135215D01*
X181250500Y-88073920D01*
X181250500Y-87926079D01*
X181221659Y-87781092D01*
X181221658Y-87781091D01*
X181221658Y-87781087D01*
X181214350Y-87763443D01*
X181165087Y-87644511D01*
X181165080Y-87644498D01*
X181082951Y-87521584D01*
X181082948Y-87521580D01*
X180978419Y-87417051D01*
X180978415Y-87417048D01*
X180855501Y-87334919D01*
X180855488Y-87334912D01*
X180718917Y-87278343D01*
X180718907Y-87278340D01*
X180573920Y-87249500D01*
X180573918Y-87249500D01*
X180426082Y-87249500D01*
X180426080Y-87249500D01*
X180281092Y-87278340D01*
X180281082Y-87278343D01*
X180144511Y-87334912D01*
X180144498Y-87334919D01*
X180021584Y-87417048D01*
X180021580Y-87417051D01*
X179917051Y-87521580D01*
X179917048Y-87521584D01*
X179834919Y-87644498D01*
X179834912Y-87644511D01*
X179778343Y-87781082D01*
X179778340Y-87781092D01*
X179749500Y-87926079D01*
X179749500Y-87926082D01*
X179749500Y-88073918D01*
X179749500Y-88073920D01*
X179749499Y-88073920D01*
X173500000Y-88073920D01*
X173500000Y-80933713D01*
X183149500Y-80933713D01*
X183149500Y-81146286D01*
X183182753Y-81356239D01*
X183248444Y-81558414D01*
X183344951Y-81747820D01*
X183469890Y-81919786D01*
X183620213Y-82070109D01*
X183792179Y-82195048D01*
X183792181Y-82195049D01*
X183792184Y-82195051D01*
X183981588Y-82291557D01*
X184183757Y-82357246D01*
X184393713Y-82390500D01*
X184393714Y-82390500D01*
X184606286Y-82390500D01*
X184606287Y-82390500D01*
X184816243Y-82357246D01*
X185018412Y-82291557D01*
X185207816Y-82195051D01*
X185229789Y-82179086D01*
X185379786Y-82070109D01*
X185379788Y-82070106D01*
X185379792Y-82070104D01*
X185530104Y-81919792D01*
X185530106Y-81919788D01*
X185530109Y-81919786D01*
X185655048Y-81747820D01*
X185655047Y-81747820D01*
X185655051Y-81747816D01*
X185751557Y-81558412D01*
X185817246Y-81356243D01*
X185850500Y-81146287D01*
X185850500Y-80933713D01*
X185817246Y-80723757D01*
X185751557Y-80521588D01*
X185655051Y-80332184D01*
X185655049Y-80332181D01*
X185655048Y-80332179D01*
X185530109Y-80160213D01*
X185416181Y-80046285D01*
X185382696Y-79984962D01*
X185387680Y-79915270D01*
X185429552Y-79859337D01*
X185460529Y-79842422D01*
X185592086Y-79793354D01*
X185592093Y-79793350D01*
X185707187Y-79707190D01*
X185707190Y-79707187D01*
X185793350Y-79592093D01*
X185793354Y-79592086D01*
X185843596Y-79457379D01*
X185843598Y-79457372D01*
X185849999Y-79397844D01*
X185850000Y-79397827D01*
X185850000Y-78750000D01*
X184933012Y-78750000D01*
X184965925Y-78692993D01*
X185000000Y-78565826D01*
X185000000Y-78434174D01*
X184965925Y-78307007D01*
X184933012Y-78250000D01*
X185850000Y-78250000D01*
X185850000Y-77602172D01*
X185849999Y-77602155D01*
X185843598Y-77542627D01*
X185843596Y-77542620D01*
X185793354Y-77407913D01*
X185793350Y-77407906D01*
X185707190Y-77292812D01*
X185707187Y-77292809D01*
X185592093Y-77206649D01*
X185592086Y-77206645D01*
X185457379Y-77156403D01*
X185457372Y-77156401D01*
X185397844Y-77150000D01*
X184750000Y-77150000D01*
X184750000Y-78066988D01*
X184692993Y-78034075D01*
X184565826Y-78000000D01*
X184434174Y-78000000D01*
X184307007Y-78034075D01*
X184250000Y-78066988D01*
X184250000Y-77150000D01*
X183602155Y-77150000D01*
X183542627Y-77156401D01*
X183542620Y-77156403D01*
X183407913Y-77206645D01*
X183407906Y-77206649D01*
X183292812Y-77292809D01*
X183292809Y-77292812D01*
X183206649Y-77407906D01*
X183206645Y-77407913D01*
X183156403Y-77542620D01*
X183156401Y-77542627D01*
X183150000Y-77602155D01*
X183150000Y-78250000D01*
X184066988Y-78250000D01*
X184034075Y-78307007D01*
X184000000Y-78434174D01*
X184000000Y-78565826D01*
X184034075Y-78692993D01*
X184066988Y-78750000D01*
X183150000Y-78750000D01*
X183150000Y-79397844D01*
X183156401Y-79457372D01*
X183156403Y-79457379D01*
X183206645Y-79592086D01*
X183206649Y-79592093D01*
X183292809Y-79707187D01*
X183292812Y-79707190D01*
X183407906Y-79793350D01*
X183407913Y-79793354D01*
X183539470Y-79842422D01*
X183595404Y-79884293D01*
X183619821Y-79949758D01*
X183604969Y-80018031D01*
X183583819Y-80046285D01*
X183469889Y-80160215D01*
X183344951Y-80332179D01*
X183248444Y-80521585D01*
X183182753Y-80723760D01*
X183149500Y-80933713D01*
X173500000Y-80933713D01*
X173500000Y-69573920D01*
X179749499Y-69573920D01*
X179778340Y-69718907D01*
X179778343Y-69718917D01*
X179834912Y-69855488D01*
X179834919Y-69855501D01*
X179917048Y-69978415D01*
X179917051Y-69978419D01*
X180021580Y-70082948D01*
X180021584Y-70082951D01*
X180144498Y-70165080D01*
X180144511Y-70165087D01*
X180281082Y-70221656D01*
X180281087Y-70221658D01*
X180281091Y-70221658D01*
X180281092Y-70221659D01*
X180426079Y-70250500D01*
X180426082Y-70250500D01*
X180573920Y-70250500D01*
X180707913Y-70223846D01*
X180718913Y-70221658D01*
X180855495Y-70165084D01*
X180978416Y-70082951D01*
X181082951Y-69978416D01*
X181165084Y-69855495D01*
X181221658Y-69718913D01*
X181231096Y-69671462D01*
X181250500Y-69573920D01*
X181250500Y-69426079D01*
X181221659Y-69281092D01*
X181221658Y-69281091D01*
X181221658Y-69281087D01*
X181197531Y-69222839D01*
X181165087Y-69144511D01*
X181165080Y-69144498D01*
X181082951Y-69021584D01*
X181082948Y-69021580D01*
X180978418Y-68917050D01*
X180950721Y-68898544D01*
X180950720Y-68898543D01*
X180855501Y-68834919D01*
X180855488Y-68834912D01*
X180771958Y-68800313D01*
X183149500Y-68800313D01*
X183149500Y-69012887D01*
X183182754Y-69222843D01*
X183201680Y-69281092D01*
X183248444Y-69425014D01*
X183344951Y-69614420D01*
X183469890Y-69786386D01*
X183583818Y-69900314D01*
X183617303Y-69961637D01*
X183612319Y-70031329D01*
X183570447Y-70087262D01*
X183539471Y-70104177D01*
X183407912Y-70153246D01*
X183407906Y-70153249D01*
X183292812Y-70239409D01*
X183292809Y-70239412D01*
X183206649Y-70354506D01*
X183206645Y-70354513D01*
X183156403Y-70489220D01*
X183156401Y-70489227D01*
X183150000Y-70548755D01*
X183150000Y-71196600D01*
X184066988Y-71196600D01*
X184034075Y-71253607D01*
X184000000Y-71380774D01*
X184000000Y-71512426D01*
X184034075Y-71639593D01*
X184066988Y-71696600D01*
X183150000Y-71696600D01*
X183150000Y-72344444D01*
X183156401Y-72403972D01*
X183156403Y-72403979D01*
X183206645Y-72538686D01*
X183206649Y-72538693D01*
X183292809Y-72653787D01*
X183292812Y-72653790D01*
X183407906Y-72739950D01*
X183407913Y-72739954D01*
X183542620Y-72790196D01*
X183542627Y-72790198D01*
X183602155Y-72796599D01*
X183602172Y-72796600D01*
X184250000Y-72796600D01*
X184250000Y-71879612D01*
X184307007Y-71912525D01*
X184434174Y-71946600D01*
X184565826Y-71946600D01*
X184692993Y-71912525D01*
X184750000Y-71879612D01*
X184750000Y-72796600D01*
X185397828Y-72796600D01*
X185397844Y-72796599D01*
X185457372Y-72790198D01*
X185457379Y-72790196D01*
X185592086Y-72739954D01*
X185592093Y-72739950D01*
X185707187Y-72653790D01*
X185707190Y-72653787D01*
X185793350Y-72538693D01*
X185793354Y-72538686D01*
X185843596Y-72403979D01*
X185843598Y-72403972D01*
X185849999Y-72344444D01*
X185850000Y-72344427D01*
X185850000Y-71696600D01*
X184933012Y-71696600D01*
X184965925Y-71639593D01*
X185000000Y-71512426D01*
X185000000Y-71380774D01*
X184965925Y-71253607D01*
X184933012Y-71196600D01*
X185850000Y-71196600D01*
X185850000Y-70548772D01*
X185849999Y-70548755D01*
X185843598Y-70489227D01*
X185843596Y-70489220D01*
X185793354Y-70354513D01*
X185793350Y-70354506D01*
X185707190Y-70239412D01*
X185707187Y-70239409D01*
X185592093Y-70153249D01*
X185592088Y-70153246D01*
X185460528Y-70104177D01*
X185404595Y-70062305D01*
X185380178Y-69996841D01*
X185395030Y-69928568D01*
X185416175Y-69900320D01*
X185530104Y-69786392D01*
X185655051Y-69614416D01*
X185751557Y-69425012D01*
X185817246Y-69222843D01*
X185850500Y-69012887D01*
X185850500Y-68800313D01*
X185817246Y-68590357D01*
X185751557Y-68388188D01*
X185655051Y-68198784D01*
X185655049Y-68198781D01*
X185655048Y-68198779D01*
X185530109Y-68026813D01*
X185379786Y-67876490D01*
X185207820Y-67751551D01*
X185018414Y-67655044D01*
X185018413Y-67655043D01*
X185018412Y-67655043D01*
X184816243Y-67589354D01*
X184816241Y-67589353D01*
X184816240Y-67589353D01*
X184654957Y-67563808D01*
X184606287Y-67556100D01*
X184393713Y-67556100D01*
X184345042Y-67563808D01*
X184183760Y-67589353D01*
X183981585Y-67655044D01*
X183792179Y-67751551D01*
X183620213Y-67876490D01*
X183469890Y-68026813D01*
X183344951Y-68198779D01*
X183248444Y-68388185D01*
X183182753Y-68590360D01*
X183157548Y-68749500D01*
X183149500Y-68800313D01*
X180771958Y-68800313D01*
X180718917Y-68778343D01*
X180718907Y-68778340D01*
X180573920Y-68749500D01*
X180573918Y-68749500D01*
X180426082Y-68749500D01*
X180426080Y-68749500D01*
X180281092Y-68778340D01*
X180281082Y-68778343D01*
X180144511Y-68834912D01*
X180144498Y-68834919D01*
X180021584Y-68917048D01*
X180021580Y-68917051D01*
X179917051Y-69021580D01*
X179917048Y-69021584D01*
X179834919Y-69144498D01*
X179834912Y-69144511D01*
X179778343Y-69281082D01*
X179778340Y-69281092D01*
X179749500Y-69426079D01*
X179749500Y-69426082D01*
X179749500Y-69573918D01*
X179749500Y-69573920D01*
X179749499Y-69573920D01*
X173500000Y-69573920D01*
X173500000Y-57500000D01*
X173500000Y-54562135D01*
X183149500Y-54562135D01*
X183149500Y-56357870D01*
X183149501Y-56357876D01*
X183155908Y-56417483D01*
X183206202Y-56552328D01*
X183206206Y-56552335D01*
X183292452Y-56667544D01*
X183292455Y-56667547D01*
X183407664Y-56753793D01*
X183407671Y-56753797D01*
X183539082Y-56802810D01*
X183595016Y-56844681D01*
X183619433Y-56910145D01*
X183604582Y-56978418D01*
X183583431Y-57006673D01*
X183469889Y-57120215D01*
X183344951Y-57292179D01*
X183248444Y-57481585D01*
X183182753Y-57683760D01*
X183149500Y-57893713D01*
X183149500Y-58106286D01*
X183182753Y-58316239D01*
X183248444Y-58518414D01*
X183344951Y-58707820D01*
X183469890Y-58879786D01*
X183620213Y-59030109D01*
X183792179Y-59155048D01*
X183792181Y-59155049D01*
X183792184Y-59155051D01*
X183981588Y-59251557D01*
X184183757Y-59317246D01*
X184393713Y-59350500D01*
X184393714Y-59350500D01*
X184606286Y-59350500D01*
X184606287Y-59350500D01*
X184816243Y-59317246D01*
X185018412Y-59251557D01*
X185207816Y-59155051D01*
X185229789Y-59139086D01*
X185379786Y-59030109D01*
X185379788Y-59030106D01*
X185379792Y-59030104D01*
X185530104Y-58879792D01*
X185530106Y-58879788D01*
X185530109Y-58879786D01*
X185655048Y-58707820D01*
X185655047Y-58707820D01*
X185655051Y-58707816D01*
X185751557Y-58518412D01*
X185817246Y-58316243D01*
X185850500Y-58106287D01*
X185850500Y-57893713D01*
X185817246Y-57683757D01*
X185751557Y-57481588D01*
X185655051Y-57292184D01*
X185655049Y-57292181D01*
X185655048Y-57292179D01*
X185530109Y-57120213D01*
X185416569Y-57006673D01*
X185383084Y-56945350D01*
X185388068Y-56875658D01*
X185429940Y-56819725D01*
X185460915Y-56802810D01*
X185592331Y-56753796D01*
X185707546Y-56667546D01*
X185793796Y-56552331D01*
X185844091Y-56417483D01*
X185850500Y-56357873D01*
X185850499Y-54562128D01*
X185844091Y-54502517D01*
X185793796Y-54367669D01*
X185793795Y-54367668D01*
X185793793Y-54367664D01*
X185707547Y-54252455D01*
X185707544Y-54252452D01*
X185592335Y-54166206D01*
X185592328Y-54166202D01*
X185457482Y-54115908D01*
X185457483Y-54115908D01*
X185397883Y-54109501D01*
X185397881Y-54109500D01*
X185397873Y-54109500D01*
X185397864Y-54109500D01*
X183602129Y-54109500D01*
X183602123Y-54109501D01*
X183542516Y-54115908D01*
X183407671Y-54166202D01*
X183407664Y-54166206D01*
X183292455Y-54252452D01*
X183292452Y-54252455D01*
X183206206Y-54367664D01*
X183206202Y-54367671D01*
X183155908Y-54502517D01*
X183149501Y-54562116D01*
X183149501Y-54562123D01*
X183149500Y-54562135D01*
X173500000Y-54562135D01*
X173500000Y-50400500D01*
X187942417Y-50400500D01*
X187993039Y-50400500D01*
X188006922Y-50401279D01*
G37*
%TD.AperFunction*%
%TD*%
M02*
