%TF.GenerationSoftware,KiCad,Pcbnew,9.0.4*%
%TF.CreationDate,2026-04-13T15:36:15-04:00*%
%TF.ProjectId,MotorDriver2,4d6f746f-7244-4726-9976-6572322e6b69,rev?*%
%TF.SameCoordinates,Original*%
%TF.FileFunction,Soldermask,Bot*%
%TF.FilePolarity,Negative*%
%FSLAX46Y46*%
G04 Gerber Fmt 4.6, Leading zero omitted, Abs format (unit mm)*
G04 Created by KiCad (PCBNEW 9.0.4) date 2026-04-13 15:36:15*
%MOMM*%
%LPD*%
G01*
G04 APERTURE LIST*
%ADD10R,1.700000X1.700000*%
%ADD11C,1.700000*%
%ADD12C,1.300000*%
%ADD13C,1.524000*%
%ADD14C,0.660400*%
%ADD15R,3.505200X1.041400*%
%ADD16R,7.696200X10.718800*%
%ADD17R,1.041400X3.505200*%
%ADD18R,10.718800X7.696200*%
G04 APERTURE END LIST*
D10*
%TO.C,J6*%
X115250000Y-76920000D03*
D11*
X115250000Y-79460000D03*
X115250000Y-82000000D03*
X115250000Y-84540000D03*
%TD*%
D12*
%TO.C,H3*%
X116000000Y-55000000D03*
%TD*%
D10*
%TO.C,Conn7*%
X129225000Y-53000000D03*
D11*
X131765000Y-53000000D03*
%TD*%
D10*
%TO.C,J2*%
X135315000Y-128500000D03*
D11*
X132775000Y-128500000D03*
%TD*%
D10*
%TO.C,VBAT1*%
X184500000Y-55460000D03*
D11*
X184500000Y-58000000D03*
%TD*%
D12*
%TO.C,H2*%
X186000000Y-124000000D03*
%TD*%
D13*
%TO.C,U3*%
X141380000Y-55635000D03*
X141380000Y-58175000D03*
X141380000Y-60715000D03*
X141380000Y-63255000D03*
X141380000Y-65795000D03*
X141380000Y-68335000D03*
X141380000Y-70875000D03*
X156620000Y-70875000D03*
X156620000Y-68335000D03*
X156620000Y-65795000D03*
X156620000Y-63255000D03*
X156620000Y-60715000D03*
X156620000Y-58175000D03*
X156620000Y-55635000D03*
%TD*%
D10*
%TO.C,J4*%
X143025000Y-128500000D03*
D11*
X140485000Y-128500000D03*
%TD*%
D10*
%TO.C,J5*%
X151000000Y-128500000D03*
D11*
X148460000Y-128500000D03*
%TD*%
D14*
%TO.C,J1*%
X117287800Y-109388550D03*
X117287800Y-115168552D03*
%TD*%
D10*
%TO.C,J3*%
X159040000Y-128500000D03*
D11*
X156500000Y-128500000D03*
%TD*%
D10*
%TO.C,Conn3*%
X184500000Y-116750000D03*
D11*
X184500000Y-119290000D03*
%TD*%
D12*
%TO.C,H1*%
X115000000Y-124000000D03*
%TD*%
D10*
%TO.C,Conn1*%
X184500000Y-78500000D03*
D11*
X184500000Y-81040000D03*
%TD*%
D10*
%TO.C,Conn2*%
X184500000Y-71446600D03*
D11*
X184500000Y-68906600D03*
%TD*%
D15*
%TO.C,Q2*%
X164567340Y-72540000D03*
D16*
X175729640Y-70000000D03*
D15*
X164567340Y-67460000D03*
%TD*%
%TO.C,Q7*%
X164980240Y-91105600D03*
D16*
X176142540Y-88565600D03*
D15*
X164980240Y-86025600D03*
%TD*%
D10*
%TO.C,Conn6*%
X184500000Y-86475000D03*
D11*
X184500000Y-89015000D03*
%TD*%
D10*
%TO.C,Conn4*%
X184500000Y-107500000D03*
D11*
X184500000Y-110040000D03*
%TD*%
D15*
%TO.C,Q4*%
X165000000Y-112290000D03*
D16*
X176162300Y-109750000D03*
D15*
X165000000Y-107210000D03*
%TD*%
D17*
%TO.C,Q8*%
X124540000Y-73162300D03*
D18*
X122000000Y-62000000D03*
D17*
X119460000Y-73162300D03*
%TD*%
D10*
%TO.C,Conn5*%
X184500000Y-95975000D03*
D11*
X184500000Y-98515000D03*
%TD*%
D10*
%TO.C,Conn8*%
X121225000Y-53000000D03*
D11*
X123765000Y-53000000D03*
%TD*%
M02*
