ISO-10303-21;
HEADER;
FILE_DESCRIPTION (( 'STEP AP214' ),
    '1' );
FILE_NAME ('ESDAxxxM2.STEP',
    '2023-12-16T12:35:32',
    ( '' ),
    ( '' ),
    'SwSTEP 2.0',
    'SolidWorks 2021',
    '' );
FILE_SCHEMA (( 'AUTOMOTIVE_DESIGN' ));
ENDSEC;

DATA;
#1 = ADVANCED_FACE ( 'NONE', ( #536 ), #3, .T. ) ;
#2 = CARTESIAN_POINT ( 'NONE',  ( 0.4500000000000001776, 0.000000000000000000, 0.2499999999999998890 ) ) ;
#3 = PLANE ( 'NONE',  #498 ) ;
#4 = SURFACE_STYLE_FILL_AREA ( #463 ) ;
#5 = VERTEX_POINT ( 'NONE', #133 ) ;
#6 = PRODUCT_DEFINITION_SHAPE ( 'NONE', 'NONE',  #643 ) ;
#7 = VECTOR ( 'NONE', #451, 1000.000000000000000 ) ;
#8 = CARTESIAN_POINT ( 'NONE',  ( 0.2000000000000000944, 0.000000000000000000, 0.2499999999999999445 ) ) ;
#9 = DIRECTION ( 'NONE',  ( -1.000000000000000000, 0.000000000000000000, -0.000000000000000000 ) ) ;
#10 = ORIENTED_EDGE ( 'NONE', *, *, #733, .F. ) ;
#11 = VERTEX_POINT ( 'NONE', #616 ) ;
#12 = LINE ( 'NONE', #223, #380 ) ;
#13 = CARTESIAN_POINT ( 'NONE',  ( -0.4999999999999998890, 2.166190378969060415, -0.2999999999999997669 ) ) ;
#14 = VERTEX_POINT ( 'NONE', #477 ) ;
#15 = VECTOR ( 'NONE', #576, 1000.000000000000000 ) ;
#16 = FACE_OUTER_BOUND ( 'NONE', #753, .T. ) ;
#17 = CARTESIAN_POINT ( 'NONE',  ( -0.4499999999999999556, 0.6590169943749475401, 0.2500000000000000000 ) ) ;
#18 = VERTEX_POINT ( 'NONE', #255 ) ;
#19 = EDGE_CURVE ( 'NONE', #842, #79, #545, .T. ) ;
#20 = CARTESIAN_POINT ( 'NONE',  ( 5.421010862427520937E-17, 0.05000000000000000278, 0.2500000000000000000 ) ) ;
#21 = DIRECTION ( 'NONE',  ( -2.168404344971008868E-16, 0.000000000000000000, -1.000000000000000000 ) ) ;
#22 = ORIENTED_EDGE ( 'NONE', *, *, #583, .F. ) ;
#23 = EDGE_CURVE ( 'NONE', #341, #608, #817, .T. ) ;
#24 = STYLED_ITEM ( 'NONE', ( #600 ), #395 ) ;
#25 = DIRECTION ( 'NONE',  ( 0.000000000000000000, 1.000000000000000000, 0.000000000000000000 ) ) ;
#26 = CARTESIAN_POINT ( 'NONE',  ( 0.1999999999999999833, 0.1000000000000000056, -0.2500000000000000555 ) ) ;
#27 = VECTOR ( 'NONE', #259, 1000.000000000000000 ) ;
#28 = EDGE_CURVE ( 'NONE', #617, #531, #397, .T. ) ;
#29 = PLANE ( 'NONE',  #570 ) ;
#30 = DIRECTION ( 'NONE',  ( -0.000000000000000000, -1.000000000000000000, -0.000000000000000000 ) ) ;
#31 = ORIENTED_EDGE ( 'NONE', *, *, #554, .F. ) ;
#32 = DIRECTION ( 'NONE',  ( 0.000000000000000000, -0.000000000000000000, 1.000000000000000000 ) ) ;
#33 = AXIS2_PLACEMENT_3D ( 'NONE', #523, #174, #720 ) ;
#34 = CARTESIAN_POINT ( 'NONE',  ( -0.4499999999999999556, 0.000000000000000000, -0.1499999999999999667 ) ) ;
#35 = ORIENTED_EDGE ( 'NONE', *, *, #638, .T. ) ;
#36 = EDGE_CURVE ( 'NONE', #5, #196, #270, .T. ) ;
#37 = ORIENTED_EDGE ( 'NONE', *, *, #222, .F. ) ;
#38 = LINE ( 'NONE', #179, #354 ) ;
#39 = CARTESIAN_POINT ( 'NONE',  ( -0.4999999999999998890, 0.5000000000000000000, 0.3000000000000002109 ) ) ;
#40 = EDGE_CURVE ( 'NONE', #41, #842, #137, .T. ) ;
#41 = VERTEX_POINT ( 'NONE', #605 ) ;
#42 = DIRECTION ( 'NONE',  ( 0.000000000000000000, -1.000000000000000000, 0.000000000000000000 ) ) ;
#43 = LINE ( 'NONE', #593, #60 ) ;
#44 = CARTESIAN_POINT ( 'NONE',  ( -0.1999999999999999278, 0.1000000000000000056, -0.2500000000000000000 ) ) ;
#45 = ORIENTED_EDGE ( 'NONE', *, *, #474, .F. ) ;
#46 = AXIS2_PLACEMENT_3D ( 'NONE', #239, #862, #173 ) ;
#47 = DIRECTION ( 'NONE',  ( 0.000000000000000000, 1.000000000000000000, 0.000000000000000000 ) ) ;
#48 = DIRECTION ( 'NONE',  ( 0.000000000000000000, -0.000000000000000000, 1.000000000000000000 ) ) ;
#49 = CARTESIAN_POINT ( 'NONE',  ( -0.4499999999999999556, 0.000000000000000000, -0.1499999999999999667 ) ) ;
#50 = ORIENTED_EDGE ( 'NONE', *, *, #745, .F. ) ;
#51 = VECTOR ( 'NONE', #55, 1000.000000000000000 ) ;
#52 = CARTESIAN_POINT ( 'NONE',  ( -0.1999999999999999278, 0.1000000000000000056, 0.2500000000000000000 ) ) ;
#53 = DIRECTION ( 'NONE',  ( 0.000000000000000000, 1.000000000000000000, 0.000000000000000000 ) ) ;
#54 = FACE_OUTER_BOUND ( 'NONE', #853, .T. ) ;
#55 = DIRECTION ( 'NONE',  ( -1.000000000000000000, -0.000000000000000000, 2.168404344971009361E-16 ) ) ;
#56 = VECTOR ( 'NONE', #722, 1000.000000000000000 ) ;
#57 = DIRECTION ( 'NONE',  ( 0.000000000000000000, 1.000000000000000000, 0.000000000000000000 ) ) ;
#58 = DIRECTION ( 'NONE',  ( 0.7071067811865505703, -0.000000000000000000, -0.7071067811865444641 ) ) ;
#59 = CARTESIAN_POINT ( 'NONE',  ( -0.1999999999999999278, 0.1000000000000000056, 0.2500000000000000000 ) ) ;
#60 = VECTOR ( 'NONE', #369, 1000.000000000000000 ) ;
#61 = CARTESIAN_POINT ( 'NONE',  ( 0.000000000000000000, 0.000000000000000000, 0.000000000000000000 ) ) ;
#62 = APPLICATION_CONTEXT ( 'automotive_design' ) ;
#63 = CARTESIAN_POINT ( 'NONE',  ( 0.4499999999999999556, 0.1000000000000000056, -0.2500000000000001110 ) ) ;
#64 = EDGE_CURVE ( 'NONE', #631, #637, #873, .T. ) ;
#65 = CARTESIAN_POINT ( 'NONE',  ( -0.4499999999999999556, 0.6590169943749475401, -0.1499999999999999667 ) ) ;
#66 = EDGE_CURVE ( 'NONE', #278, #41, #539, .T. ) ;
#67 = ORIENTED_EDGE ( 'NONE', *, *, #495, .F. ) ;
#68 = VERTEX_POINT ( 'NONE', #266 ) ;
#69 = UNCERTAINTY_MEASURE_WITH_UNIT (LENGTH_MEASURE( 1.000000000000000082E-05 ), #683, 'distance_accuracy_value', 'NONE');
#70 = PLANE ( 'NONE',  #847 ) ;
#71 = VECTOR ( 'NONE', #191, 1000.000000000000000 ) ;
#72 = DIRECTION ( 'NONE',  ( 0.000000000000000000, -1.000000000000000000, 0.000000000000000000 ) ) ;
#73 = VECTOR ( 'NONE', #276, 1000.000000000000000 ) ;
#74 = ORIENTED_EDGE ( 'NONE', *, *, #512, .T. ) ;
#75 = ORIENTED_EDGE ( 'NONE', *, *, #230, .F. ) ;
#76 = ADVANCED_FACE ( 'NONE', ( #199 ), #77, .F. ) ;
#77 = PLANE ( 'NONE',  #225 ) ;
#78 = FACE_OUTER_BOUND ( 'NONE', #568, .T. ) ;
#79 = VERTEX_POINT ( 'NONE', #205 ) ;
#80 = EDGE_LOOP ( 'NONE', ( #510, #346, #471, #142, #335 ) ) ;
#81 = AXIS2_PLACEMENT_3D ( 'NONE', #444, #294, #710 ) ;
#82 = SURFACE_STYLE_FILL_AREA ( #754 ) ;
#83 = AXIS2_PLACEMENT_3D ( 'NONE', #845, #703, #214 ) ;
#84 = LINE ( 'NONE', #17, #97 ) ;
#85 = ORIENTED_EDGE ( 'NONE', *, *, #697, .T. ) ;
#86 = ORIENTED_EDGE ( 'NONE', *, *, #127, .F. ) ;
#87 = FACE_OUTER_BOUND ( 'NONE', #404, .T. ) ;
#88 = CARTESIAN_POINT ( 'NONE',  ( -0.4499999999999999556, 0.1000000000000000056, 0.2500000000000000000 ) ) ;
#89 = FACE_OUTER_BOUND ( 'NONE', #497, .T. ) ;
#90 = ORIENTED_EDGE ( 'NONE', *, *, #438, .F. ) ;
#91 = VECTOR ( 'NONE', #666, 1000.000000000000000 ) ;
#92 = VECTOR ( 'NONE', #773, 1000.000000000000000 ) ;
#93 = CARTESIAN_POINT ( 'NONE',  ( 0.000000000000000000, 0.05000000000000000278, 0.000000000000000000 ) ) ;
#94 = DIRECTION ( 'NONE',  ( 0.000000000000000000, 0.000000000000000000, -1.000000000000000000 ) ) ;
#95 = VERTEX_POINT ( 'NONE', #677 ) ;
#96 = ORIENTED_EDGE ( 'NONE', *, *, #518, .T. ) ;
#97 = VECTOR ( 'NONE', #763, 1000.000000000000000 ) ;
#98 = CARTESIAN_POINT ( 'NONE',  ( 0.4500000000000000666, 0.05000000000000000278, -1.951563910473908228E-16 ) ) ;
#99 = DIRECTION ( 'NONE',  ( -1.000000000000000000, 0.000000000000000000, 1.626303258728256651E-16 ) ) ;
#100 = EDGE_CURVE ( 'NONE', #611, #125, #484, .T. ) ;
#101 = ORIENTED_EDGE ( 'NONE', *, *, #100, .F. ) ;
#102 = LINE ( 'NONE', #767, #333 ) ;
#103 = FACE_OUTER_BOUND ( 'NONE', #415, .T. ) ;
#104 = ORIENTED_EDGE ( 'NONE', *, *, #733, .T. ) ;
#105 = EDGE_CURVE ( 'NONE', #637, #574, #343, .T. ) ;
#106 = CARTESIAN_POINT ( 'NONE',  ( 0.000000000000000000, 0.000000000000000000, 0.000000000000000000 ) ) ;
#107 = LINE ( 'NONE', #579, #732 ) ;
#108 = ORIENTED_EDGE ( 'NONE', *, *, #337, .F. ) ;
#109 = FACE_OUTER_BOUND ( 'NONE', #756, .T. ) ;
#110 = MANIFOLD_SOLID_BREP ( 'Chamfer2', #642 ) ;
#111 = CARTESIAN_POINT ( 'NONE',  ( 0.5000000000000001110, 0.05000000000000000278, 0.3000000000000000999 ) ) ;
#112 = VECTOR ( 'NONE', #688, 1000.000000000000000 ) ;
#113 = ORIENTED_EDGE ( 'NONE', *, *, #105, .T. ) ;
#114 = ADVANCED_FACE ( 'NONE', ( #289 ), #827, .F. ) ;
#115 = CARTESIAN_POINT ( 'NONE',  ( 0.5000000000000001110, 0.5000000000000000000, -0.2999999999999999334 ) ) ;
#116 =( LENGTH_UNIT ( ) NAMED_UNIT ( * ) SI_UNIT ( .MILLI., .METRE. ) );
#117 = LINE ( 'NONE', #49, #490 ) ;
#118 = EDGE_LOOP ( 'NONE', ( #210, #747, #623, #86 ) ) ;
#119 = DIRECTION ( 'NONE',  ( 1.000000000000000000, 0.000000000000000000, -2.168404344971008375E-16 ) ) ;
#120 = ADVANCED_FACE ( 'NONE', ( #777 ), #624, .F. ) ;
#121 = CLOSED_SHELL ( 'NONE', ( #76, #114, #450, #160, #822, #158 ) ) ;
#122 = AXIS2_PLACEMENT_3D ( 'NONE', #235, #511, #678 ) ;
#123 = AXIS2_PLACEMENT_3D ( 'NONE', #213, #439, #846 ) ;
#124 = LINE ( 'NONE', #363, #387 ) ;
#125 = VERTEX_POINT ( 'NONE', #563 ) ;
#126 = LINE ( 'NONE', #525, #56 ) ;
#127 = EDGE_CURVE ( 'NONE', #79, #18, #772, .T. ) ;
#128 = CARTESIAN_POINT ( 'NONE',  ( -0.1999999999999999278, 0.6590169943749475401, 0.2500000000000000000 ) ) ;
#129 = VECTOR ( 'NONE', #604, 1000.000000000000000 ) ;
#130 = DIRECTION ( 'NONE',  ( 0.000000000000000000, 0.000000000000000000, 1.000000000000000000 ) ) ;
#131 = SURFACE_STYLE_USAGE ( .BOTH. , #465 ) ;
#132 = FACE_OUTER_BOUND ( 'NONE', #365, .T. ) ;
#133 = CARTESIAN_POINT ( 'NONE',  ( 0.4499999999999999556, 0.1000000000000000472, -0.2500000000000001110 ) ) ;
#134 = DIRECTION ( 'NONE',  ( -0.000000000000000000, -1.000000000000000000, -0.000000000000000000 ) ) ;
#135 = ORIENTED_EDGE ( 'NONE', *, *, #503, .F. ) ;
#136 = ADVANCED_FACE ( 'NONE', ( #838 ), #285, .T. ) ;
#137 = LINE ( 'NONE', #672, #27 ) ;
#138 = ORIENTED_EDGE ( 'NONE', *, *, #459, .T. ) ;
#139 = DIRECTION ( 'NONE',  ( 1.000000000000000000, 0.000000000000000000, 0.000000000000000000 ) ) ;
#140 = LINE ( 'NONE', #456, #690 ) ;
#141 = DIRECTION ( 'NONE',  ( -1.000000000000000000, 0.000000000000000000, 2.168404344971008375E-16 ) ) ;
#142 = ORIENTED_EDGE ( 'NONE', *, *, #40, .T. ) ;
#143 = VECTOR ( 'NONE', #537, 1000.000000000000000 ) ;
#144 = ORIENTED_EDGE ( 'NONE', *, *, #459, .F. ) ;
#145 = LINE ( 'NONE', #65, #91 ) ;
#146 = ORIENTED_EDGE ( 'NONE', *, *, #705, .F. ) ;
#147 = EDGE_CURVE ( 'NONE', #272, #637, #12, .T. ) ;
#148 = LINE ( 'NONE', #566, #748 ) ;
#149 = EDGE_LOOP ( 'NONE', ( #237, #50, #22, #457 ) ) ;
#150 = ORIENTED_EDGE ( 'NONE', *, *, #483, .T. ) ;
#151 = VECTOR ( 'NONE', #371, 1000.000000000000000 ) ;
#152 = LINE ( 'NONE', #424, #73 ) ;
#153 = EDGE_CURVE ( 'NONE', #405, #272, #152, .T. ) ;
#154 = LINE ( 'NONE', #281, #619 ) ;
#155 = ORIENTED_EDGE ( 'NONE', *, *, #290, .T. ) ;
#156 = CARTESIAN_POINT ( 'NONE',  ( 0.000000000000000000, 0.1000000000000000056, 0.000000000000000000 ) ) ;
#157 = DIRECTION ( 'NONE',  ( 0.000000000000000000, 0.000000000000000000, -1.000000000000000000 ) ) ;
#158 = ADVANCED_FACE ( 'NONE', ( #639 ), #348, .T. ) ;
#159 = CARTESIAN_POINT ( 'NONE',  ( -0.1999999999999999278, 0.6590169943749475401, -0.2500000000000000000 ) ) ;
#160 = ADVANCED_FACE ( 'NONE', ( #218 ), #629, .F. ) ;
#161 = CARTESIAN_POINT ( 'NONE',  ( 0.5000000000000001110, 0.05000000000000000278, -0.2999999999999999334 ) ) ;
#162 = ORIENTED_EDGE ( 'NONE', *, *, #264, .F. ) ;
#163 = AXIS2_PLACEMENT_3D ( 'NONE', #198, #391, #332 ) ;
#164 = CARTESIAN_POINT ( 'NONE',  ( 0.2000000000000000944, 0.6590169943749475401, 0.2499999999999999445 ) ) ;
#165 = CARTESIAN_POINT ( 'NONE',  ( 0.5000000000000001110, 0.05000000000000000278, -0.2999999999999999334 ) ) ;
#166 = PRODUCT_RELATED_PRODUCT_CATEGORY ( 'part', '', ( #200 ) ) ;
#167 = DIRECTION ( 'NONE',  ( 0.000000000000000000, 1.000000000000000000, 0.000000000000000000 ) ) ;
#168 = PLANE ( 'NONE',  #81 ) ;
#169 = ORIENTED_EDGE ( 'NONE', *, *, #871, .T. ) ;
#170 = CARTESIAN_POINT ( 'NONE',  ( 0.000000000000000000, 0.1000000000000000056, 0.000000000000000000 ) ) ;
#171 = VECTOR ( 'NONE', #292, 1000.000000000000000 ) ;
#172 = DIRECTION ( 'NONE',  ( 1.000000000000000000, -0.000000000000000000, 0.000000000000000000 ) ) ;
#173 = DIRECTION ( 'NONE',  ( 0.000000000000000000, 0.000000000000000000, -1.000000000000000000 ) ) ;
#174 = DIRECTION ( 'NONE',  ( 1.626303258728256651E-16, -0.000000000000000000, 1.000000000000000000 ) ) ;
#175 = ADVANCED_FACE ( 'NONE', ( #16 ), #488, .T. ) ;
#176 = CARTESIAN_POINT ( 'NONE',  ( 0.000000000000000000, 0.1000000000000000056, 0.000000000000000000 ) ) ;
#177 = CARTESIAN_POINT ( 'NONE',  ( 0.5000000000000001110, 0.5000000000000000000, 0.3000000000000000999 ) ) ;
#178 = EDGE_CURVE ( 'NONE', #125, #834, #633, .T. ) ;
#179 = CARTESIAN_POINT ( 'NONE',  ( 0.2000000000000000944, 0.1000000000000000472, 0.2499999999999999445 ) ) ;
#180 = MECHANICAL_DESIGN_GEOMETRIC_PRESENTATION_REPRESENTATION (  '', ( #331 ), #657 ) ;
#181 = VECTOR ( 'NONE', #233, 1000.000000000000000 ) ;
#182 = LINE ( 'NONE', #872, #51 ) ;
#183 = ORIENTED_EDGE ( 'NONE', *, *, #755, .T. ) ;
#184 = LINE ( 'NONE', #596, #741 ) ;
#185 = LINE ( 'NONE', #325, #821 ) ;
#186 = ORIENTED_EDGE ( 'NONE', *, *, #417, .F. ) ;
#187 = AXIS2_PLACEMENT_3D ( 'NONE', #192, #401, #535 ) ;
#188 = LINE ( 'NONE', #818, #613 ) ;
#189 = DIRECTION ( 'NONE',  ( 0.000000000000000000, 0.000000000000000000, 1.000000000000000000 ) ) ;
#190 = EDGE_CURVE ( 'NONE', #18, #275, #102, .T. ) ;
#191 = DIRECTION ( 'NONE',  ( 0.000000000000000000, 0.000000000000000000, -1.000000000000000000 ) ) ;
#192 = CARTESIAN_POINT ( 'NONE',  ( -0.1999999999999999278, 0.1000000000000000056, 0.2500000000000000000 ) ) ;
#193 = ORIENTED_EDGE ( 'NONE', *, *, #766, .F. ) ;
#194 = SURFACE_SIDE_STYLE ('',( #811 ) ) ;
#195 = ORIENTED_EDGE ( 'NONE', *, *, #594, .T. ) ;
#196 = VERTEX_POINT ( 'NONE', #429 ) ;
#197 = CARTESIAN_POINT ( 'NONE',  ( 0.000000000000000000, 0.000000000000000000, 0.000000000000000000 ) ) ;
#198 = CARTESIAN_POINT ( 'NONE',  ( -0.1999999999999999278, 0.1000000000000000056, 0.2500000000000000000 ) ) ;
#199 = FACE_OUTER_BOUND ( 'NONE', #813, .T. ) ;
#200 = PRODUCT ( 'ESDAxxxM2', 'ESDAxxxM2', '', ( #734 ) ) ;
#201 = CARTESIAN_POINT ( 'NONE',  ( 0.4500000000000001776, 0.6590169943749475401, 0.2499999999999998890 ) ) ;
#202 = VECTOR ( 'NONE', #291, 1000.000000000000000 ) ;
#203 = ORIENTED_EDGE ( 'NONE', *, *, #308, .F. ) ;
#204 = ORIENTED_EDGE ( 'NONE', *, *, #562, .T. ) ;
#205 = CARTESIAN_POINT ( 'NONE',  ( -0.1999999999999999278, 0.1000000000000000472, -0.2500000000000000000 ) ) ;
#206 = DIRECTION ( 'NONE',  ( -0.000000000000000000, -0.000000000000000000, 1.000000000000000000 ) ) ;
#207 = ADVANCED_FACE ( 'NONE', ( #565 ), #762, .T. ) ;
#208 = ORIENTED_EDGE ( 'NONE', *, *, #257, .F. ) ;
#209 = ORIENTED_EDGE ( 'NONE', *, *, #512, .F. ) ;
#210 = ORIENTED_EDGE ( 'NONE', *, *, #19, .F. ) ;
#211 = DIRECTION ( 'NONE',  ( -4.336808689942017736E-16, 0.000000000000000000, -1.000000000000000000 ) ) ;
#212 = ORIENTED_EDGE ( 'NONE', *, *, #589, .T. ) ;
#213 = CARTESIAN_POINT ( 'NONE',  ( 0.1999999999999999833, 0.1000000000000000056, -0.2500000000000000555 ) ) ;
#214 = DIRECTION ( 'NONE',  ( 1.000000000000000000, 0.000000000000000000, -2.168404344971009361E-16 ) ) ;
#215 = EDGE_LOOP ( 'NONE', ( #739, #250, #478, #646 ) ) ;
#216 = EDGE_LOOP ( 'NONE', ( #551, #392, #231, #340 ) ) ;
#217 = PRESENTATION_LAYER_ASSIGNMENT (  '', '', ( #870 ) ) ;
#218 = FACE_OUTER_BOUND ( 'NONE', #427, .T. ) ;
#219 = DIRECTION ( 'NONE',  ( 1.000000000000000000, 0.000000000000000000, -1.084202172485504434E-16 ) ) ;
#220 = DIRECTION ( 'NONE',  ( -1.000000000000000000, 0.000000000000000000, 4.336808689942017736E-16 ) ) ;
#221 = ADVANCED_FACE ( 'NONE', ( #443, #696, #280 ), #29, .F. ) ;
#222 = EDGE_CURVE ( 'NONE', #834, #11, #569, .T. ) ;
#223 = CARTESIAN_POINT ( 'NONE',  ( 0.5000000000000001110, 0.05000000000000000278, 0.3000000000000000999 ) ) ;
#224 = CARTESIAN_POINT ( 'NONE',  ( 0.5000000000000001110, 2.166190378969060415, 0.3000000000000000999 ) ) ;
#225 = AXIS2_PLACEMENT_3D ( 'NONE', #810, #402, #141 ) ;
#226 = ORIENTED_EDGE ( 'NONE', *, *, #474, .T. ) ;
#227 = AXIS2_PLACEMENT_3D ( 'NONE', #499, #504, #709 ) ;
#228 = DIRECTION ( 'NONE',  ( 0.000000000000000000, -0.000000000000000000, 1.000000000000000000 ) ) ;
#229 = CARTESIAN_POINT ( 'NONE',  ( 0.1999999999999999833, 0.6590169943749475401, -0.2500000000000000555 ) ) ;
#230 = EDGE_CURVE ( 'NONE', #622, #819, #362, .T. ) ;
#231 = ORIENTED_EDGE ( 'NONE', *, *, #105, .F. ) ;
#232 = VECTOR ( 'NONE', #245, 1000.000000000000000 ) ;
#233 = DIRECTION ( 'NONE',  ( -1.000000000000000000, 0.000000000000000000, 2.168404344971008375E-16 ) ) ;
#234 = CARTESIAN_POINT ( 'NONE',  ( -0.4499999999999999556, 0.6590169943749475401, 0.2500000000000000000 ) ) ;
#235 = CARTESIAN_POINT ( 'NONE',  ( -0.4499999999999999556, 0.6590169943749475401, -0.1499999999999999667 ) ) ;
#236 = CARTESIAN_POINT ( 'NONE',  ( 0.4499999999999999556, 0.6590169943749475401, -0.2500000000000001110 ) ) ;
#237 = ORIENTED_EDGE ( 'NONE', *, *, #782, .F. ) ;
#238 = ORIENTED_EDGE ( 'NONE', *, *, #308, .T. ) ;
#239 = CARTESIAN_POINT ( 'NONE',  ( -0.4999999999999998890, 2.166190378969060415, 0.3000000000000002109 ) ) ;
#240 = PRESENTATION_STYLE_ASSIGNMENT (( #582 ) ) ;
#241 = ADVANCED_FACE ( 'NONE', ( #650 ), #383, .F. ) ;
#242 = CARTESIAN_POINT ( 'NONE',  ( -0.4499999999999999556, 0.1000000000000000056, -0.1500000000000002720 ) ) ;
#243 = ORIENTED_EDGE ( 'NONE', *, *, #307, .T. ) ;
#244 = CARTESIAN_POINT ( 'NONE',  ( -0.3499999999999993672, 0.1000000000000000056, -0.2500000000000000000 ) ) ;
#245 = DIRECTION ( 'NONE',  ( 0.000000000000000000, 1.000000000000000000, 0.000000000000000000 ) ) ;
#246 = EDGE_LOOP ( 'NONE', ( #580, #108, #699, #765 ) ) ;
#247 = CARTESIAN_POINT ( 'NONE',  ( 0.5000000000000001110, 0.5000000000000000000, 0.3000000000000000999 ) ) ;
#248 = EDGE_CURVE ( 'NONE', #542, #531, #581, .T. ) ;
#249 = CARTESIAN_POINT ( 'NONE',  ( -0.1999999999999999278, 0.05000000000000000278, 0.2500000000000000000 ) ) ;
#250 = ORIENTED_EDGE ( 'NONE', *, *, #745, .T. ) ;
#251 = CARTESIAN_POINT ( 'NONE',  ( -0.4499999999999999556, 0.000000000000000000, 0.2500000000000000000 ) ) ;
#252 = DIRECTION ( 'NONE',  ( 0.000000000000000000, 1.000000000000000000, 0.000000000000000000 ) ) ;
#253 = CARTESIAN_POINT ( 'NONE',  ( 0.000000000000000000, 0.5000000000000000000, 0.000000000000000000 ) ) ;
#254 = EDGE_CURVE ( 'NONE', #410, #268, #658, .T. ) ;
#255 = CARTESIAN_POINT ( 'NONE',  ( -0.1999999999999999278, 0.000000000000000000, -0.2500000000000000000 ) ) ;
#256 = LINE ( 'NONE', #59, #143 ) ;
#257 = EDGE_CURVE ( 'NONE', #360, #95, #38, .T. ) ;
#258 = CARTESIAN_POINT ( 'NONE',  ( -0.4499999999999999556, 0.05000000000000000278, 0.2500000000000000000 ) ) ;
#259 = DIRECTION ( 'NONE',  ( 1.000000000000000000, -0.000000000000000000, 0.000000000000000000 ) ) ;
#260 = EDGE_LOOP ( 'NONE', ( #305, #288, #486, #67 ) ) ;
#261 = ORIENTED_EDGE ( 'NONE', *, *, #594, .F. ) ;
#262 = VECTOR ( 'NONE', #743, 1000.000000000000000 ) ;
#263 = CARTESIAN_POINT ( 'NONE',  ( -0.4499999999999999556, 0.05000000000000000278, -0.1500000000000002720 ) ) ;
#264 = EDGE_CURVE ( 'NONE', #627, #574, #184, .T. ) ;
#265 = VECTOR ( 'NONE', #572, 1000.000000000000000 ) ;
#266 = CARTESIAN_POINT ( 'NONE',  ( -0.1999999999999999278, 0.000000000000000000, 0.2500000000000000000 ) ) ;
#267 = ORIENTED_EDGE ( 'NONE', *, *, #628, .T. ) ;
#268 = VERTEX_POINT ( 'NONE', #377 ) ;
#269 = LINE ( 'NONE', #128, #449 ) ;
#270 = LINE ( 'NONE', #823, #412 ) ;
#271 = AXIS2_PLACEMENT_3D ( 'NONE', #197, #189, #139 ) ;
#272 = VERTEX_POINT ( 'NONE', #865 ) ;
#273 = SURFACE_STYLE_USAGE ( .BOTH. , #408 ) ;
#274 = PLANE ( 'NONE',  #534 ) ;
#275 = VERTEX_POINT ( 'NONE', #858 ) ;
#276 = DIRECTION ( 'NONE',  ( -0.000000000000000000, -1.000000000000000000, -0.000000000000000000 ) ) ;
#277 = DIRECTION ( 'NONE',  ( 0.000000000000000000, 0.000000000000000000, -1.000000000000000000 ) ) ;
#278 = VERTEX_POINT ( 'NONE', #662 ) ;
#279 = ORIENTED_EDGE ( 'NONE', *, *, #254, .T. ) ;
#280 = FACE_BOUND ( 'NONE', #437, .T. ) ;
#281 = CARTESIAN_POINT ( 'NONE',  ( 0.2000000000000000944, 0.1000000000000000056, 0.2499999999999999445 ) ) ;
#282 = ADVANCED_FACE ( 'NONE', ( #516 ), #586, .T. ) ;
#283 = LINE ( 'NONE', #13, #805 ) ;
#284 = ORIENTED_EDGE ( 'NONE', *, *, #802, .T. ) ;
#285 = PLANE ( 'NONE',  #771 ) ;
#286 = CARTESIAN_POINT ( 'NONE',  ( 0.2000000000000000389, 0.05000000000000000278, -4.336808689942018352E-17 ) ) ;
#287 = ORIENTED_EDGE ( 'NONE', *, *, #792, .F. ) ;
#288 = ORIENTED_EDGE ( 'NONE', *, *, #361, .T. ) ;
#289 = FACE_OUTER_BOUND ( 'NONE', #757, .T. ) ;
#290 = EDGE_CURVE ( 'NONE', #627, #567, #448, .T. ) ;
#291 = DIRECTION ( 'NONE',  ( -0.000000000000000000, -1.000000000000000000, -0.000000000000000000 ) ) ;
#292 = DIRECTION ( 'NONE',  ( -1.000000000000000000, 0.000000000000000000, 0.000000000000000000 ) ) ;
#293 = VECTOR ( 'NONE', #30, 1000.000000000000000 ) ;
#294 = DIRECTION ( 'NONE',  ( -1.084202172485504434E-16, 0.000000000000000000, -1.000000000000000000 ) ) ;
#295 = VECTOR ( 'NONE', #94, 1000.000000000000000 ) ;
#296 = CARTESIAN_POINT ( 'NONE',  ( 0.000000000000000000, 0.05000000000000000278, 0.2500000000000000000 ) ) ;
#297 = ADVANCED_FACE ( 'NONE', ( #109 ), #446, .F. ) ;
#298 = CARTESIAN_POINT ( 'NONE',  ( 0.5000000000000001110, 0.5000000000000000000, -0.2999999999999999334 ) ) ;
#299 = ORIENTED_EDGE ( 'NONE', *, *, #432, .F. ) ;
#300 = DIRECTION ( 'NONE',  ( 1.000000000000000000, -0.000000000000000000, -0.000000000000000000 ) ) ;
#301 =( NAMED_UNIT ( * ) PLANE_ANGLE_UNIT ( ) SI_UNIT ( $, .RADIAN. ) );
#302 = STYLED_ITEM ( 'NONE', ( #744 ), #385 ) ;
#303 = VECTOR ( 'NONE', #300, 1000.000000000000000 ) ;
#304 = DIRECTION ( 'NONE',  ( 0.000000000000000000, 0.000000000000000000, 1.000000000000000000 ) ) ;
#305 = ORIENTED_EDGE ( 'NONE', *, *, #66, .F. ) ;
#306 = FACE_OUTER_BOUND ( 'NONE', #470, .T. ) ;
#307 = EDGE_CURVE ( 'NONE', #602, #857, #787, .T. ) ;
#308 = EDGE_CURVE ( 'NONE', #829, #125, #126, .T. ) ;
#309 = VECTOR ( 'NONE', #466, 1000.000000000000000 ) ;
#310 = LINE ( 'NONE', #653, #837 ) ;
#311 = VECTOR ( 'NONE', #219, 1000.000000000000000 ) ;
#312 = ORIENTED_EDGE ( 'NONE', *, *, #708, .F. ) ;
#313 = CARTESIAN_POINT ( 'NONE',  ( -0.1999999999999999278, 0.1000000000000000056, -0.2500000000000000000 ) ) ;
#314 = FILL_AREA_STYLE ('',( #384 ) ) ;
#315 = CARTESIAN_POINT ( 'NONE',  ( -0.1999999999999999278, 0.1000000000000000056, -0.2500000000000000000 ) ) ;
#316 = ADVANCED_FACE ( 'NONE', ( #306 ), #592, .F. ) ;
#317 = DIRECTION ( 'NONE',  ( 0.000000000000000000, 1.000000000000000000, 0.000000000000000000 ) ) ;
#318 = SURFACE_STYLE_USAGE ( .BOTH. , #194 ) ;
#319 = LINE ( 'NONE', #464, #804 ) ;
#320 = DIRECTION ( 'NONE',  ( -1.000000000000000000, 0.000000000000000000, 2.168404344971009361E-16 ) ) ;
#321 = AXIS2_PLACEMENT_3D ( 'NONE', #428, #220, #700 ) ;
#322 = FILL_AREA_STYLE_COLOUR ( '', #781 ) ;
#323 = ORIENTED_EDGE ( 'NONE', *, *, #575, .T. ) ;
#324 = EDGE_CURVE ( 'NONE', #631, #627, #718, .T. ) ;
#325 = CARTESIAN_POINT ( 'NONE',  ( -0.4499999999999999556, 0.000000000000000000, 0.2500000000000000000 ) ) ;
#326 = PRESENTATION_LAYER_ASSIGNMENT (  '', '', ( #24 ) ) ;
#327 = FILL_AREA_STYLE_COLOUR ( '', #724 ) ;
#328 = FILL_AREA_STYLE ('',( #322 ) ) ;
#329 = VERTEX_POINT ( 'NONE', #251 ) ;
#330 = ORIENTED_EDGE ( 'NONE', *, *, #375, .T. ) ;
#331 = STYLED_ITEM ( 'NONE', ( #334 ), #110 ) ;
#332 = DIRECTION ( 'NONE',  ( -0.000000000000000000, 0.000000000000000000, 1.000000000000000000 ) ) ;
#333 = VECTOR ( 'NONE', #706, 1000.000000000000000 ) ;
#334 = PRESENTATION_STYLE_ASSIGNMENT (( #273 ) ) ;
#335 = ORIENTED_EDGE ( 'NONE', *, *, #19, .T. ) ;
#336 = ORIENTED_EDGE ( 'NONE', *, *, #755, .F. ) ;
#337 = EDGE_CURVE ( 'NONE', #506, #829, #796, .T. ) ;
#338 = LINE ( 'NONE', #833, #295 ) ;
#339 = VECTOR ( 'NONE', #776, 1000.000000000000000 ) ;
#340 = ORIENTED_EDGE ( 'NONE', *, *, #147, .F. ) ;
#341 = VERTEX_POINT ( 'NONE', #728 ) ;
#342 = VECTOR ( 'NONE', #211, 1000.000000000000000 ) ;
#343 = LINE ( 'NONE', #480, #71 ) ;
#344 = DIRECTION ( 'NONE',  ( 0.000000000000000000, 0.000000000000000000, 1.000000000000000000 ) ) ;
#345 = ADVANCED_FACE ( 'NONE', ( #800 ), #529, .F. ) ;
#346 = ORIENTED_EDGE ( 'NONE', *, *, #782, .T. ) ;
#347 = ORIENTED_EDGE ( 'NONE', *, *, #153, .T. ) ;
#348 = PLANE ( 'NONE',  #880 ) ;
#349 = ADVANCED_FACE ( 'NONE', ( #850 ), #655, .F. ) ;
#350 = APPLICATION_CONTEXT ( 'automotive_design' ) ;
#351 = PLANE ( 'NONE',  #83 ) ;
#352 = ORIENTED_EDGE ( 'NONE', *, *, #28, .F. ) ;
#353 = DIRECTION ( 'NONE',  ( 2.168404344971008868E-16, -0.000000000000000000, 1.000000000000000000 ) ) ;
#354 = VECTOR ( 'NONE', #119, 1000.000000000000000 ) ;
#355 = DIRECTION ( 'NONE',  ( 0.000000000000000000, -0.000000000000000000, 1.000000000000000000 ) ) ;
#356 = LINE ( 'NONE', #286, #423 ) ;
#357 = VERTEX_POINT ( 'NONE', #398 ) ;
#358 = DIRECTION ( 'NONE',  ( 0.000000000000000000, 0.000000000000000000, -1.000000000000000000 ) ) ;
#359 = CARTESIAN_POINT ( 'NONE',  ( -0.1999999999999999278, 0.1000000000000000056, -0.2500000000000000000 ) ) ;
#360 = VERTEX_POINT ( 'NONE', #469 ) ;
#361 = EDGE_CURVE ( 'NONE', #278, #626, #145, .T. ) ;
#362 = LINE ( 'NONE', #296, #171 ) ;
#363 = CARTESIAN_POINT ( 'NONE',  ( 0.2000000000000000944, 0.1000000000000000056, 0.2499999999999999445 ) ) ;
#364 = AXIS2_PLACEMENT_3D ( 'NONE', #373, #731, #130 ) ;
#365 = EDGE_LOOP ( 'NONE', ( #636, #479, #761, #90 ) ) ;
#366 = DIRECTION ( 'NONE',  ( 0.000000000000000000, -1.000000000000000000, 0.000000000000000000 ) ) ;
#367 = EDGE_LOOP ( 'NONE', ( #882, #183, #243, #10 ) ) ;
#368 = CARTESIAN_POINT ( 'NONE',  ( 0.000000000000000000, 0.05000000000000000278, -0.2500000000000000000 ) ) ;
#369 = DIRECTION ( 'NONE',  ( 0.000000000000000000, 0.000000000000000000, 1.000000000000000000 ) ) ;
#370 = COLOUR_RGB ( '',0.7960784313725489669, 0.8235294117647058432, 0.9372549019607843146 ) ;
#371 = DIRECTION ( 'NONE',  ( -4.336808689942017736E-16, 0.000000000000000000, -1.000000000000000000 ) ) ;
#372 = EDGE_LOOP ( 'NONE', ( #654, #382, #585, #400 ) ) ;
#373 = CARTESIAN_POINT ( 'NONE',  ( -0.1999999999999999278, 0.6590169943749475401, 0.2500000000000000000 ) ) ;
#374 = DIRECTION ( 'NONE',  ( 1.000000000000000000, 0.000000000000000000, -0.000000000000000000 ) ) ;
#375 = EDGE_CURVE ( 'NONE', #268, #542, #606, .T. ) ;
#376 = ORIENTED_EDGE ( 'NONE', *, *, #399, .T. ) ;
#377 = CARTESIAN_POINT ( 'NONE',  ( -0.1999999999999999278, 0.1000000000000000056, 0.2500000000000000000 ) ) ;
#378 = CLOSED_SHELL ( 'NONE', ( #674, #550, #345, #726, #120, #809, #349 ) ) ;
#379 =( GEOMETRIC_REPRESENTATION_CONTEXT ( 3 ) GLOBAL_UNCERTAINTY_ASSIGNED_CONTEXT ( ( #393 ) ) GLOBAL_UNIT_ASSIGNED_CONTEXT ( ( #532, #546, #403 ) ) REPRESENTATION_CONTEXT ( 'NONE', 'WORKASPACE' ) );
#380 = VECTOR ( 'NONE', #434, 1000.000000000000000 ) ;
#381 = DIRECTION ( 'NONE',  ( 0.000000000000000000, -1.000000000000000000, 0.000000000000000000 ) ) ;
#382 = ORIENTED_EDGE ( 'NONE', *, *, #257, .T. ) ;
#383 = PLANE ( 'NONE',  #467 ) ;
#384 = FILL_AREA_STYLE_COLOUR ( '', #370 ) ;
#385 = MANIFOLD_SOLID_BREP ( 'Chamfer1', #378 ) ;
#386 = EDGE_CURVE ( 'NONE', #617, #410, #188, .T. ) ;
#387 = VECTOR ( 'NONE', #381, 1000.000000000000000 ) ;
#388 = PLANE ( 'NONE',  #163 ) ;
#389 = ORIENTED_EDGE ( 'NONE', *, *, #36, .F. ) ;
#390 = DIRECTION ( 'NONE',  ( -1.000000000000000000, 0.000000000000000000, 0.000000000000000000 ) ) ;
#391 = DIRECTION ( 'NONE',  ( -1.000000000000000000, 0.000000000000000000, -0.000000000000000000 ) ) ;
#392 = ORIENTED_EDGE ( 'NONE', *, *, #518, .F. ) ;
#393 = UNCERTAINTY_MEASURE_WITH_UNIT (LENGTH_MEASURE( 1.000000000000000082E-05 ), #532, 'distance_accuracy_value', 'NONE');
#394 = DIRECTION ( 'NONE',  ( -0.000000000000000000, -1.000000000000000000, -0.000000000000000000 ) ) ;
#395 = MANIFOLD_SOLID_BREP ( 'Boss-Extrude2[2]', #121 ) ;
#396 = VECTOR ( 'NONE', #390, 1000.000000000000000 ) ;
#397 = LINE ( 'NONE', #549, #877 ) ;
#398 = CARTESIAN_POINT ( 'NONE',  ( -0.3499999999999995892, 0.1000000000000000472, -0.2500000000000000000 ) ) ;
#399 = EDGE_CURVE ( 'NONE', #268, #622, #256, .T. ) ;
#400 = ORIENTED_EDGE ( 'NONE', *, *, #36, .T. ) ;
#401 = DIRECTION ( 'NONE',  ( -0.000000000000000000, 0.000000000000000000, -1.000000000000000000 ) ) ;
#402 = DIRECTION ( 'NONE',  ( -2.168404344971008375E-16, 0.000000000000000000, -1.000000000000000000 ) ) ;
#403 =( NAMED_UNIT ( * ) SI_UNIT ( $, .STERADIAN. ) SOLID_ANGLE_UNIT ( ) );
#404 = EDGE_LOOP ( 'NONE', ( #769, #491, #35, #502 ) ) ;
#405 = VERTEX_POINT ( 'NONE', #540 ) ;
#406 = LINE ( 'NONE', #530, #129 ) ;
#407 =( GEOMETRIC_REPRESENTATION_CONTEXT ( 3 ) GLOBAL_UNCERTAINTY_ASSIGNED_CONTEXT ( ( #69 ) ) GLOBAL_UNIT_ASSIGNED_CONTEXT ( ( #683, #601, #673 ) ) REPRESENTATION_CONTEXT ( 'NONE', 'WORKASPACE' ) );
#408 = SURFACE_SIDE_STYLE ('',( #82 ) ) ;
#409 = FILL_AREA_STYLE_COLOUR ( '', #721 ) ;
#410 = VERTEX_POINT ( 'NONE', #807 ) ;
#411 = EDGE_LOOP ( 'NONE', ( #37, #680, #203, #835 ) ) ;
#412 = VECTOR ( 'NONE', #320, 1000.000000000000000 ) ;
#413 = CARTESIAN_POINT ( 'NONE',  ( 0.2000000000000000944, 0.1000000000000000056, 0.2499999999999999445 ) ) ;
#414 = LINE ( 'NONE', #161, #588 ) ;
#415 = EDGE_LOOP ( 'NONE', ( #826, #679, #96, #454 ) ) ;
#416 = ORIENTED_EDGE ( 'NONE', *, *, #554, .T. ) ;
#417 = EDGE_CURVE ( 'NONE', #95, #752, #738, .T. ) ;
#418 =( LENGTH_UNIT ( ) NAMED_UNIT ( * ) SI_UNIT ( .MILLI., .METRE. ) );
#419 = LINE ( 'NONE', #501, #863 ) ;
#420 = VECTOR ( 'NONE', #353, 1000.000000000000000 ) ;
#421 = ORIENTED_EDGE ( 'NONE', *, *, #583, .T. ) ;
#422 = ORIENTED_EDGE ( 'NONE', *, *, #307, .F. ) ;
#423 = VECTOR ( 'NONE', #21, 1000.000000000000000 ) ;
#424 = CARTESIAN_POINT ( 'NONE',  ( -0.4999999999999998890, 2.166190378969060415, 0.3000000000000002109 ) ) ;
#425 = DIRECTION ( 'NONE',  ( 1.000000000000000000, 0.000000000000000000, -2.168404344971008375E-16 ) ) ;
#426 = EDGE_CURVE ( 'NONE', #11, #829, #356, .T. ) ;
#427 = EDGE_LOOP ( 'NONE', ( #515, #74, #684, #779 ) ) ;
#428 = CARTESIAN_POINT ( 'NONE',  ( 0.4500000000000001776, 0.1000000000000000056, 0.2499999999999998890 ) ) ;
#429 = CARTESIAN_POINT ( 'NONE',  ( 0.1999999999999999833, 0.1000000000000000472, -0.2500000000000000555 ) ) ;
#430 = MECHANICAL_DESIGN_GEOMETRIC_PRESENTATION_REPRESENTATION (  '', ( #302 ), #379 ) ;
#431 = LINE ( 'NONE', #698, #342 ) ;
#432 = EDGE_CURVE ( 'NONE', #68, #18, #338, .T. ) ;
#433 = VECTOR ( 'NONE', #780, 1000.000000000000000 ) ;
#434 = DIRECTION ( 'NONE',  ( 1.000000000000000000, -0.000000000000000000, -1.084202172485504434E-16 ) ) ;
#435 = PLANE ( 'NONE',  #851 ) ;
#436 = ORIENTED_EDGE ( 'NONE', *, *, #663, .F. ) ;
#437 = EDGE_LOOP ( 'NONE', ( #675, #75, #764, #422, #561 ) ) ;
#438 = EDGE_CURVE ( 'NONE', #752, #881, #431, .T. ) ;
#439 = DIRECTION ( 'NONE',  ( 2.168404344971009608E-16, 0.000000000000000000, 1.000000000000000000 ) ) ;
#440 = LINE ( 'NONE', #595, #232 ) ;
#441 = ADVANCED_FACE ( 'NONE', ( #691 ), #435, .F. ) ;
#442 = ORIENTED_EDGE ( 'NONE', *, *, #40, .F. ) ;
#443 = FACE_BOUND ( 'NONE', #411, .T. ) ;
#444 = CARTESIAN_POINT ( 'NONE',  ( 0.5000000000000001110, 2.166190378969060415, 0.3000000000000000999 ) ) ;
#445 = EDGE_LOOP ( 'NONE', ( #287, #421, #695, #299, #144 ) ) ;
#446 = PLANE ( 'NONE',  #519 ) ;
#447 = PLANE ( 'NONE',  #33 ) ;
#448 = LINE ( 'NONE', #115, #433 ) ;
#449 = VECTOR ( 'NONE', #394, 1000.000000000000000 ) ;
#450 = ADVANCED_FACE ( 'NONE', ( #89 ), #351, .F. ) ;
#451 = DIRECTION ( 'NONE',  ( -0.000000000000000000, 0.000000000000000000, 1.000000000000000000 ) ) ;
#452 = DIRECTION ( 'NONE',  ( 0.000000000000000000, -0.000000000000000000, 1.000000000000000000 ) ) ;
#453 = CARTESIAN_POINT ( 'NONE',  ( -0.4999999999999998890, 0.05000000000000000278, -0.2999999999999997669 ) ) ;
#454 = ORIENTED_EDGE ( 'NONE', *, *, #483, .F. ) ;
#455 = DIRECTION ( 'NONE',  ( 0.000000000000000000, 0.000000000000000000, -1.000000000000000000 ) ) ;
#456 = CARTESIAN_POINT ( 'NONE',  ( -0.3499999999999993672, 0.05000000000000000278, -0.2500000000000000000 ) ) ;
#457 = ORIENTED_EDGE ( 'NONE', *, *, #361, .F. ) ;
#458 = CARTESIAN_POINT ( 'NONE',  ( 0.1999999999999999833, 0.1000000000000000056, -0.2500000000000000555 ) ) ;
#459 = EDGE_CURVE ( 'NONE', #329, #68, #634, .T. ) ;
#460 = VECTOR ( 'NONE', #57, 1000.000000000000000 ) ;
#461 = LINE ( 'NONE', #876, #420 ) ;
#462 = ORIENTED_EDGE ( 'NONE', *, *, #417, .T. ) ;
#463 = FILL_AREA_STYLE ('',( #409 ) ) ;
#464 = CARTESIAN_POINT ( 'NONE',  ( -0.2999999999999991562, 0.1000000000000000056, -0.3000000000000002109 ) ) ;
#465 = SURFACE_SIDE_STYLE ('',( #4 ) ) ;
#466 = DIRECTION ( 'NONE',  ( 0.000000000000000000, -1.000000000000000000, 0.000000000000000000 ) ) ;
#467 = AXIS2_PLACEMENT_3D ( 'NONE', #170, #47, #32 ) ;
#468 = CARTESIAN_POINT ( 'NONE',  ( -0.1999999999999999278, 0.1000000000000000472, 0.2500000000000000000 ) ) ;
#469 = CARTESIAN_POINT ( 'NONE',  ( 0.2000000000000000944, 0.1000000000000000472, 0.2499999999999999445 ) ) ;
#470 = EDGE_LOOP ( 'NONE', ( #717, #150, #692, #547 ) ) ;
#471 = ORIENTED_EDGE ( 'NONE', *, *, #66, .T. ) ;
#472 = APPLICATION_PROTOCOL_DEFINITION ( 'draft international standard', 'automotive_design', 1998, #350 ) ;
#473 = EDGE_CURVE ( 'NONE', #79, #357, #839, .T. ) ;
#474 = EDGE_CURVE ( 'NONE', #611, #506, #148, .T. ) ;
#475 = FACE_OUTER_BOUND ( 'NONE', #215, .T. ) ;
#476 = MECHANICAL_DESIGN_GEOMETRIC_PRESENTATION_REPRESENTATION (  '', ( #870 ), #548 ) ;
#477 = CARTESIAN_POINT ( 'NONE',  ( 0.4500000000000001776, 0.1000000000000000056, 0.2499999999999998890 ) ) ;
#478 = ORIENTED_EDGE ( 'NONE', *, *, #473, .F. ) ;
#479 = ORIENTED_EDGE ( 'NONE', *, *, #23, .F. ) ;
#480 = CARTESIAN_POINT ( 'NONE',  ( 0.5000000000000001110, 0.05000000000000000278, 0.3000000000000000999 ) ) ;
#481 = ORIENTED_EDGE ( 'NONE', *, *, #337, .T. ) ;
#482 = ORIENTED_EDGE ( 'NONE', *, *, #386, .T. ) ;
#483 = EDGE_CURVE ( 'NONE', #567, #649, #283, .T. ) ;
#484 = LINE ( 'NONE', #63, #797 ) ;
#485 = CARTESIAN_POINT ( 'NONE',  ( 0.4500000000000001776, 0.1000000000000000472, 0.2499999999999998890 ) ) ;
#486 = ORIENTED_EDGE ( 'NONE', *, *, #792, .T. ) ;
#487 = EDGE_CURVE ( 'NONE', #649, #272, #419, .T. ) ;
#488 = PLANE ( 'NONE',  #123 ) ;
#489 = DIRECTION ( 'NONE',  ( -0.000000000000000000, -0.000000000000000000, 1.000000000000000000 ) ) ;
#490 = VECTOR ( 'NONE', #656, 999.9999999999998863 ) ;
#491 = ORIENTED_EDGE ( 'NONE', *, *, #697, .F. ) ;
#492 = EDGE_LOOP ( 'NONE', ( #31, #312, #45, #591 ) ) ;
#493 = PLANE ( 'NONE',  #321 ) ;
#494 = DIRECTION ( 'NONE',  ( 4.336808689942017736E-16, -0.000000000000000000, 1.000000000000000000 ) ) ;
#495 = EDGE_CURVE ( 'NONE', #41, #329, #84, .T. ) ;
#496 = DIRECTION ( 'NONE',  ( -1.000000000000000000, -0.000000000000000000, 2.168404344971009361E-16 ) ) ;
#497 = EDGE_LOOP ( 'NONE', ( #389, #820, #284, #209 ) ) ;
#498 = AXIS2_PLACEMENT_3D ( 'NONE', #413, #737, #868 ) ;
#499 = CARTESIAN_POINT ( 'NONE',  ( 0.4500000000000001776, 0.6590169943749475401, 0.2499999999999998890 ) ) ;
#500 = AXIS2_PLACEMENT_3D ( 'NONE', #164, #557, #832 ) ;
#501 = CARTESIAN_POINT ( 'NONE',  ( -0.4999999999999998890, 0.05000000000000000278, 0.3000000000000002109 ) ) ;
#502 = ORIENTED_EDGE ( 'NONE', *, *, #100, .T. ) ;
#503 = EDGE_CURVE ( 'NONE', #405, #631, #630, .T. ) ;
#504 = DIRECTION ( 'NONE',  ( -1.000000000000000000, 0.000000000000000000, 4.336808689942017736E-16 ) ) ;
#505 = CARTESIAN_POINT ( 'NONE',  ( -0.3499999999999993672, 0.1000000000000000056, -0.2500000000000000000 ) ) ;
#506 = VERTEX_POINT ( 'NONE', #26 ) ;
#507 = VECTOR ( 'NONE', #730, 1000.000000000000000 ) ;
#508 = DIRECTION ( 'NONE',  ( 1.000000000000000000, 0.000000000000000000, -2.168404344971008868E-16 ) ) ;
#509 = DIRECTION ( 'NONE',  ( 0.000000000000000000, 0.000000000000000000, -1.000000000000000000 ) ) ;
#510 = ORIENTED_EDGE ( 'NONE', *, *, #473, .T. ) ;
#511 = DIRECTION ( 'NONE',  ( 0.7071067811865463515, 0.000000000000000000, 0.7071067811865487940 ) ) ;
#512 = EDGE_CURVE ( 'NONE', #196, #341, #694, .T. ) ;
#513 = LINE ( 'NONE', #715, #507 ) ;
#514 = ORIENTED_EDGE ( 'NONE', *, *, #324, .T. ) ;
#515 = ORIENTED_EDGE ( 'NONE', *, *, #830, .F. ) ;
#516 = FACE_OUTER_BOUND ( 'NONE', #785, .T. ) ;
#517 = CARTESIAN_POINT ( 'NONE',  ( -0.1999999999999999278, 0.05000000000000000278, -0.2500000000000000000 ) ) ;
#518 = EDGE_CURVE ( 'NONE', #574, #649, #414, .T. ) ;
#519 = AXIS2_PLACEMENT_3D ( 'NONE', #176, #712, #452 ) ;
#520 = CARTESIAN_POINT ( 'NONE',  ( 0.2000000000000000944, 0.000000000000000000, 0.2499999999999999445 ) ) ;
#521 = ORIENTED_EDGE ( 'NONE', *, *, #147, .T. ) ;
#522 = DIRECTION ( 'NONE',  ( -0.000000000000000000, -1.000000000000000000, -0.000000000000000000 ) ) ;
#523 = CARTESIAN_POINT ( 'NONE',  ( 0.5000000000000001110, 2.166190378969060415, -0.2999999999999999334 ) ) ;
#524 = VERTEX_POINT ( 'NONE', #558 ) ;
#525 = CARTESIAN_POINT ( 'NONE',  ( -5.421010862427524635E-17, 0.05000000000000000278, -0.2500000000000000000 ) ) ;
#526 = PRODUCT_DEFINITION_CONTEXT ( 'detailed design', #350, 'design' ) ;
#527 = LINE ( 'NONE', #520, #775 ) ;
#528 = EDGE_LOOP ( 'NONE', ( #555, #803, #279, #376 ) ) ;
#529 = PLANE ( 'NONE',  #364 ) ;
#530 = CARTESIAN_POINT ( 'NONE',  ( 0.2000000000000000944, 0.1000000000000000056, 0.2499999999999999445 ) ) ;
#531 = VERTEX_POINT ( 'NONE', #505 ) ;
#532 =( LENGTH_UNIT ( ) NAMED_UNIT ( * ) SI_UNIT ( .MILLI., .METRE. ) );
#533 = APPLICATION_PROTOCOL_DEFINITION ( 'draft international standard', 'automotive_design', 1998, #62 ) ;
#534 = AXIS2_PLACEMENT_3D ( 'NONE', #621, #277, #9 ) ;
#535 = DIRECTION ( 'NONE',  ( -1.000000000000000000, 0.000000000000000000, 0.000000000000000000 ) ) ;
#536 = FACE_OUTER_BOUND ( 'NONE', #560, .T. ) ;
#537 = DIRECTION ( 'NONE',  ( 0.000000000000000000, -1.000000000000000000, 0.000000000000000000 ) ) ;
#538 = DIRECTION ( 'NONE',  ( 0.000000000000000000, -0.000000000000000000, 1.000000000000000000 ) ) ;
#539 = LINE ( 'NONE', #806, #770 ) ;
#540 = CARTESIAN_POINT ( 'NONE',  ( -0.4999999999999998890, 0.5000000000000000000, 0.3000000000000002109 ) ) ;
#541 = ORIENTED_EDGE ( 'NONE', *, *, #375, .F. ) ;
#542 = VERTEX_POINT ( 'NONE', #359 ) ;
#543 = EDGE_CURVE ( 'NONE', #95, #5, #564, .T. ) ;
#544 = PLANE ( 'NONE',  #719 ) ;
#545 = LINE ( 'NONE', #468, #758 ) ;
#546 =( NAMED_UNIT ( * ) PLANE_ANGLE_UNIT ( ) SI_UNIT ( $, .RADIAN. ) );
#547 = ORIENTED_EDGE ( 'NONE', *, *, #153, .F. ) ;
#548 =( GEOMETRIC_REPRESENTATION_CONTEXT ( 3 ) GLOBAL_UNCERTAINTY_ASSIGNED_CONTEXT ( ( #759 ) ) GLOBAL_UNIT_ASSIGNED_CONTEXT ( ( #116, #301, #714 ) ) REPRESENTATION_CONTEXT ( 'NONE', 'WORKASPACE' ) );
#549 = CARTESIAN_POINT ( 'NONE',  ( -0.3499999999999993672, 0.1000000000000000056, -0.2500000000000000000 ) ) ;
#550 = ADVANCED_FACE ( 'NONE', ( #78 ), #274, .F. ) ;
#551 = ORIENTED_EDGE ( 'NONE', *, *, #487, .F. ) ;
#552 = EDGE_LOOP ( 'NONE', ( #155, #323, #790, #514 ) ) ;
#553 = CARTESIAN_POINT ( 'NONE',  ( -0.4499999999999999556, 0.05000000000000000278, 0.000000000000000000 ) ) ;
#554 = EDGE_CURVE ( 'NONE', #524, #14, #154, .T. ) ;
#555 = ORIENTED_EDGE ( 'NONE', *, *, #230, .T. ) ;
#556 = ORIENTED_EDGE ( 'NONE', *, *, #607, .F. ) ;
#557 = DIRECTION ( 'NONE',  ( 1.000000000000000000, 0.000000000000000000, -2.168404344971008868E-16 ) ) ;
#558 = CARTESIAN_POINT ( 'NONE',  ( 0.2000000000000000944, 0.1000000000000000056, 0.2499999999999999445 ) ) ;
#559 = VECTOR ( 'NONE', #42, 1000.000000000000000 ) ;
#560 = EDGE_LOOP ( 'NONE', ( #814, #436, #416, #85 ) ) ;
#561 = ORIENTED_EDGE ( 'NONE', *, *, #705, .T. ) ;
#562 = EDGE_CURVE ( 'NONE', #819, #711, #768, .T. ) ;
#563 = CARTESIAN_POINT ( 'NONE',  ( 0.4499999999999999556, 0.05000000000000000278, -0.2500000000000001110 ) ) ;
#564 = LINE ( 'NONE', #485, #339 ) ;
#565 = FACE_OUTER_BOUND ( 'NONE', #246, .T. ) ;
#566 = CARTESIAN_POINT ( 'NONE',  ( 0.1999999999999999833, 0.1000000000000000056, -0.2500000000000000555 ) ) ;
#567 = VERTEX_POINT ( 'NONE', #860 ) ;
#568 = EDGE_LOOP ( 'NONE', ( #442, #799, #138, #193 ) ) ;
#569 = LINE ( 'NONE', #20, #181 ) ;
#570 = AXIS2_PLACEMENT_3D ( 'NONE', #93, #25, #355 ) ;
#571 = DIRECTION ( 'NONE',  ( -1.000000000000000000, 0.000000000000000000, 0.000000000000000000 ) ) ;
#572 = DIRECTION ( 'NONE',  ( -0.000000000000000000, -1.000000000000000000, -0.000000000000000000 ) ) ;
#573 = FACE_OUTER_BOUND ( 'NONE', #260, .T. ) ;
#574 = VERTEX_POINT ( 'NONE', #165 ) ;
#575 = EDGE_CURVE ( 'NONE', #567, #405, #852, .T. ) ;
#576 = DIRECTION ( 'NONE',  ( 1.000000000000000000, 0.000000000000000000, 0.000000000000000000 ) ) ;
#577 = VECTOR ( 'NONE', #157, 1000.000000000000000 ) ;
#578 = VECTOR ( 'NONE', #640, 1000.000000000000000 ) ;
#579 = CARTESIAN_POINT ( 'NONE',  ( 0.4500000000000001776, 0.1000000000000000056, 0.2499999999999998890 ) ) ;
#580 = ORIENTED_EDGE ( 'NONE', *, *, #426, .T. ) ;
#581 = LINE ( 'NONE', #313, #396 ) ;
#582 = SURFACE_STYLE_USAGE ( .BOTH. , #667 ) ;
#583 = EDGE_CURVE ( 'NONE', #626, #275, #117, .T. ) ;
#584 = CARTESIAN_POINT ( 'NONE',  ( -0.3499999999999993672, 0.05000000000000000278, -0.2500000000000000000 ) ) ;
#585 = ORIENTED_EDGE ( 'NONE', *, *, #543, .T. ) ;
#586 = PLANE ( 'NONE',  #587 ) ;
#587 = AXIS2_PLACEMENT_3D ( 'NONE', #244, #854, #791 ) ;
#588 = VECTOR ( 'NONE', #99, 1000.000000000000000 ) ;
#589 = EDGE_CURVE ( 'NONE', #410, #819, #310, .T. ) ;
#590 = PLANE ( 'NONE',  #702 ) ;
#591 = ORIENTED_EDGE ( 'NONE', *, *, #638, .F. ) ;
#592 = PLANE ( 'NONE',  #46 ) ;
#593 = CARTESIAN_POINT ( 'NONE',  ( -0.1999999999999999278, 0.05000000000000000278, 0.000000000000000000 ) ) ;
#594 = EDGE_CURVE ( 'NONE', #711, #617, #440, .T. ) ;
#595 = CARTESIAN_POINT ( 'NONE',  ( -0.4499999999999999556, 0.1000000000000000056, -0.1500000000000002720 ) ) ;
#596 = CARTESIAN_POINT ( 'NONE',  ( 0.5000000000000001110, 2.166190378969060415, -0.2999999999999999334 ) ) ;
#597 = ADVANCED_FACE ( 'NONE', ( #856 ), #590, .T. ) ;
#598 = CARTESIAN_POINT ( 'NONE',  ( 0.000000000000000000, 0.1000000000000000056, 0.000000000000000000 ) ) ;
#599 = ORIENTED_EDGE ( 'NONE', *, *, #438, .T. ) ;
#600 = PRESENTATION_STYLE_ASSIGNMENT (( #131 ) ) ;
#601 =( NAMED_UNIT ( * ) PLANE_ANGLE_UNIT ( ) SI_UNIT ( $, .RADIAN. ) );
#602 = VERTEX_POINT ( 'NONE', #584 ) ;
#603 =( GEOMETRIC_REPRESENTATION_CONTEXT ( 3 ) GLOBAL_UNCERTAINTY_ASSIGNED_CONTEXT ( ( #668 ) ) GLOBAL_UNIT_ASSIGNED_CONTEXT ( ( #723, #788, #659 ) ) REPRESENTATION_CONTEXT ( 'NONE', 'WORKASPACE' ) );
#604 = DIRECTION ( 'NONE',  ( 2.168404344971008868E-16, -0.000000000000000000, 1.000000000000000000 ) ) ;
#605 = CARTESIAN_POINT ( 'NONE',  ( -0.4499999999999999556, 0.1000000000000000472, 0.2500000000000000000 ) ) ;
#606 = LINE ( 'NONE', #874, #879 ) ;
#607 = EDGE_CURVE ( 'NONE', #5, #881, #707, .T. ) ;
#608 = VERTEX_POINT ( 'NONE', #864 ) ;
#609 = CARTESIAN_POINT ( 'NONE',  ( 0.1999999999999999833, 0.05000000000000000278, -0.2500000000000000555 ) ) ;
#610 =( NAMED_UNIT ( * ) PLANE_ANGLE_UNIT ( ) SI_UNIT ( $, .RADIAN. ) );
#611 = VERTEX_POINT ( 'NONE', #784 ) ;
#612 = VECTOR ( 'NONE', #687, 1000.000000000000000 ) ;
#613 = VECTOR ( 'NONE', #206, 1000.000000000000000 ) ;
#614 = AXIS2_PLACEMENT_3D ( 'NONE', #106, #167, #228 ) ;
#615 = LINE ( 'NONE', #315, #309 ) ;
#616 = CARTESIAN_POINT ( 'NONE',  ( 0.2000000000000000944, 0.05000000000000000278, 0.2499999999999999445 ) ) ;
#617 = VERTEX_POINT ( 'NONE', #242 ) ;
#618 = ORIENTED_EDGE ( 'NONE', *, *, #386, .F. ) ;
#619 = VECTOR ( 'NONE', #425, 1000.000000000000000 ) ;
#620 =( NAMED_UNIT ( * ) SI_UNIT ( $, .STERADIAN. ) SOLID_ANGLE_UNIT ( ) );
#621 = CARTESIAN_POINT ( 'NONE',  ( -0.1999999999999999278, 0.6590169943749475401, 0.2500000000000000000 ) ) ;
#622 = VERTEX_POINT ( 'NONE', #249 ) ;
#623 = ORIENTED_EDGE ( 'NONE', *, *, #432, .T. ) ;
#624 = PLANE ( 'NONE',  #614 ) ;
#625 = CARTESIAN_POINT ( 'NONE',  ( 0.5000000000000001110, 0.5000000000000000000, 0.3000000000000000999 ) ) ;
#626 = VERTEX_POINT ( 'NONE', #34 ) ;
#627 = VERTEX_POINT ( 'NONE', #298 ) ;
#628 = EDGE_CURVE ( 'NONE', #608, #752, #527, .T. ) ;
#629 = PLANE ( 'NONE',  #500 ) ;
#630 = LINE ( 'NONE', #625, #311 ) ;
#631 = VERTEX_POINT ( 'NONE', #177 ) ;
#632 = CARTESIAN_POINT ( 'NONE',  ( 0.4500000000000001776, 0.05000000000000000278, 0.2499999999999998890 ) ) ;
#633 = LINE ( 'NONE', #98, #727 ) ;
#634 = LINE ( 'NONE', #828, #578 ) ;
#635 = ADVANCED_FACE ( 'NONE', ( #103 ), #447, .F. ) ;
#636 = ORIENTED_EDGE ( 'NONE', *, *, #628, .F. ) ;
#637 = VERTEX_POINT ( 'NONE', #111 ) ;
#638 = EDGE_CURVE ( 'NONE', #14, #611, #793, .T. ) ;
#639 = FACE_OUTER_BOUND ( 'NONE', #372, .T. ) ;
#640 = DIRECTION ( 'NONE',  ( 1.000000000000000000, -0.000000000000000000, -0.000000000000000000 ) ) ;
#641 = VECTOR ( 'NONE', #134, 1000.000000000000000 ) ;
#642 = CLOSED_SHELL ( 'NONE', ( #221, #316, #686, #441, #635, #859, #1, #836, #175, #207, #241, #136, #751, #716, #597, #297, #282 ) ) ;
#643 = PRODUCT_DEFINITION ( 'UNKNOWN', '', #783, #526 ) ;
#644 = DIRECTION ( 'NONE',  ( -2.168404344971008868E-16, 0.000000000000000000, -1.000000000000000000 ) ) ;
#645 = LINE ( 'NONE', #660, #202 ) ;
#646 = ORIENTED_EDGE ( 'NONE', *, *, #127, .T. ) ;
#647 = ORIENTED_EDGE ( 'NONE', *, *, #324, .F. ) ;
#648 = DIRECTION ( 'NONE',  ( 0.000000000000000000, -1.000000000000000000, 0.000000000000000000 ) ) ;
#649 = VERTEX_POINT ( 'NONE', #453 ) ;
#650 = FACE_OUTER_BOUND ( 'NONE', #492, .T. ) ;
#651 = CARTESIAN_POINT ( 'NONE',  ( 0.4499999999999999556, 0.000000000000000000, -0.2500000000000001110 ) ) ;
#652 = AXIS2_PLACEMENT_3D ( 'NONE', #253, #53, #48 ) ;
#653 = CARTESIAN_POINT ( 'NONE',  ( -0.4499999999999999556, 0.1000000000000000056, 0.2500000000000000000 ) ) ;
#654 = ORIENTED_EDGE ( 'NONE', *, *, #830, .T. ) ;
#655 = PLANE ( 'NONE',  #122 ) ;
#656 = DIRECTION ( 'NONE',  ( 0.7071067811865487940, -0.000000000000000000, -0.7071067811865463515 ) ) ;
#657 =( GEOMETRIC_REPRESENTATION_CONTEXT ( 3 ) GLOBAL_UNCERTAINTY_ASSIGNED_CONTEXT ( ( #735 ) ) GLOBAL_UNIT_ASSIGNED_CONTEXT ( ( #418, #610, #620 ) ) REPRESENTATION_CONTEXT ( 'NONE', 'WORKASPACE' ) );
#658 = LINE ( 'NONE', #52, #303 ) ;
#659 =( NAMED_UNIT ( * ) SI_UNIT ( $, .STERADIAN. ) SOLID_ANGLE_UNIT ( ) );
#660 = CARTESIAN_POINT ( 'NONE',  ( 0.2000000000000000944, 0.6590169943749475401, 0.2499999999999999445 ) ) ;
#661 = ORIENTED_EDGE ( 'NONE', *, *, #28, .T. ) ;
#662 = CARTESIAN_POINT ( 'NONE',  ( -0.4499999999999999556, 0.1000000000000000472, -0.1499999999999999667 ) ) ;
#663 = EDGE_CURVE ( 'NONE', #524, #11, #124, .T. ) ;
#664 = AXIS2_PLACEMENT_3D ( 'NONE', #234, #172, #509 ) ;
#665 = FACE_OUTER_BOUND ( 'NONE', #528, .T. ) ;
#666 = DIRECTION ( 'NONE',  ( 0.000000000000000000, -1.000000000000000000, -0.000000000000000000 ) ) ;
#667 = SURFACE_SIDE_STYLE ('',( #855 ) ) ;
#668 = UNCERTAINTY_MEASURE_WITH_UNIT (LENGTH_MEASURE( 1.000000000000000082E-05 ), #723, 'distance_accuracy_value', 'NONE');
#669 = CARTESIAN_POINT ( 'NONE',  ( -0.1999999999999999278, 0.6590169943749475401, -0.2500000000000000000 ) ) ;
#670 = EDGE_CURVE ( 'NONE', #360, #608, #645, .T. ) ;
#671 = DIRECTION ( 'NONE',  ( 1.000000000000000000, 0.000000000000000000, -0.000000000000000000 ) ) ;
#672 = CARTESIAN_POINT ( 'NONE',  ( -0.1999999999999999278, 0.1000000000000000472, 0.2500000000000000000 ) ) ;
#673 =( NAMED_UNIT ( * ) SI_UNIT ( $, .STERADIAN. ) SOLID_ANGLE_UNIT ( ) );
#674 = ADVANCED_FACE ( 'NONE', ( #573 ), #848, .F. ) ;
#675 = ORIENTED_EDGE ( 'NONE', *, *, #562, .F. ) ;
#676 = DIRECTION ( 'NONE',  ( 0.000000000000000000, -0.000000000000000000, 1.000000000000000000 ) ) ;
#677 = CARTESIAN_POINT ( 'NONE',  ( 0.4500000000000001776, 0.1000000000000000472, 0.2499999999999998890 ) ) ;
#678 = DIRECTION ( 'NONE',  ( 0.000000000000000000, -1.000000000000000000, 0.000000000000000000 ) ) ;
#679 = ORIENTED_EDGE ( 'NONE', *, *, #264, .T. ) ;
#680 = ORIENTED_EDGE ( 'NONE', *, *, #178, .F. ) ;
#681 = CARTESIAN_POINT ( 'NONE',  ( -0.3499999999999995892, 0.6590169943749475401, -0.2500000000000000000 ) ) ;
#682 = DIRECTION ( 'NONE',  ( 0.000000000000000000, 0.000000000000000000, -1.000000000000000000 ) ) ;
#683 =( LENGTH_UNIT ( ) NAMED_UNIT ( * ) SI_UNIT ( .MILLI., .METRE. ) );
#684 = ORIENTED_EDGE ( 'NONE', *, *, #23, .T. ) ;
#685 = ORIENTED_EDGE ( 'NONE', *, *, #254, .F. ) ;
#686 = ADVANCED_FACE ( 'NONE', ( #778 ), #168, .F. ) ;
#687 = DIRECTION ( 'NONE',  ( -0.000000000000000000, -1.000000000000000000, -0.000000000000000000 ) ) ;
#688 = DIRECTION ( 'NONE',  ( -1.000000000000000000, 0.000000000000000000, 0.000000000000000000 ) ) ;
#689 = ORIENTED_EDGE ( 'NONE', *, *, #248, .F. ) ;
#690 = VECTOR ( 'NONE', #742, 1000.000000000000000 ) ;
#691 = FACE_OUTER_BOUND ( 'NONE', #875, .T. ) ;
#692 = ORIENTED_EDGE ( 'NONE', *, *, #487, .T. ) ;
#693 = DIRECTION ( 'NONE',  ( 0.000000000000000000, -0.000000000000000000, 1.000000000000000000 ) ) ;
#694 = LINE ( 'NONE', #229, #92 ) ;
#695 = ORIENTED_EDGE ( 'NONE', *, *, #190, .F. ) ;
#696 = FACE_OUTER_BOUND ( 'NONE', #216, .T. ) ;
#697 = EDGE_CURVE ( 'NONE', #14, #834, #107, .T. ) ;
#698 = CARTESIAN_POINT ( 'NONE',  ( 0.4500000000000001776, 0.000000000000000000, 0.2499999999999998890 ) ) ;
#699 = ORIENTED_EDGE ( 'NONE', *, *, #708, .T. ) ;
#700 = DIRECTION ( 'NONE',  ( 4.336808689942017736E-16, 0.000000000000000000, 1.000000000000000000 ) ) ;
#701 = DIRECTION ( 'NONE',  ( 0.000000000000000000, 1.000000000000000000, 0.000000000000000000 ) ) ;
#702 = AXIS2_PLACEMENT_3D ( 'NONE', #44, #304, #374 ) ;
#703 = DIRECTION ( 'NONE',  ( 2.168404344971009361E-16, -0.000000000000000000, 1.000000000000000000 ) ) ;
#704 = EDGE_LOOP ( 'NONE', ( #135, #347, #521, #794 ) ) ;
#705 = EDGE_CURVE ( 'NONE', #602, #711, #513, .T. ) ;
#706 = DIRECTION ( 'NONE',  ( -1.000000000000000000, 0.000000000000000000, 0.000000000000000000 ) ) ;
#707 = LINE ( 'NONE', #236, #293 ) ;
#708 = EDGE_CURVE ( 'NONE', #506, #524, #406, .T. ) ;
#709 = DIRECTION ( 'NONE',  ( 4.336808689942017736E-16, 0.000000000000000000, 1.000000000000000000 ) ) ;
#710 = DIRECTION ( 'NONE',  ( -1.000000000000000000, 0.000000000000000000, 1.084202172485504434E-16 ) ) ;
#711 = VERTEX_POINT ( 'NONE', #263 ) ;
#712 = DIRECTION ( 'NONE',  ( 0.000000000000000000, 1.000000000000000000, 0.000000000000000000 ) ) ;
#713 = PLANE ( 'NONE',  #652 ) ;
#714 =( NAMED_UNIT ( * ) SI_UNIT ( $, .STERADIAN. ) SOLID_ANGLE_UNIT ( ) );
#715 = CARTESIAN_POINT ( 'NONE',  ( -0.2999999999999981570, 0.05000000000000000278, -0.3000000000000006550 ) ) ;
#716 = ADVANCED_FACE ( 'NONE', ( #54 ), #388, .T. ) ;
#717 = ORIENTED_EDGE ( 'NONE', *, *, #575, .F. ) ;
#718 = LINE ( 'NONE', #247, #815 ) ;
#719 = AXIS2_PLACEMENT_3D ( 'NONE', #598, #317, #676 ) ;
#720 = DIRECTION ( 'NONE',  ( 1.000000000000000000, 0.000000000000000000, -1.626303258728256651E-16 ) ) ;
#721 = COLOUR_RGB ( '',0.7960784313725489669, 0.8235294117647058432, 0.9372549019607843146 ) ;
#722 = DIRECTION ( 'NONE',  ( 1.000000000000000000, 0.000000000000000000, -2.168404344971009608E-16 ) ) ;
#723 =( LENGTH_UNIT ( ) NAMED_UNIT ( * ) SI_UNIT ( .MILLI., .METRE. ) );
#724 = COLOUR_RGB ( '',0.2509803921568627416, 0.2509803921568627416, 0.2509803921568627416 ) ;
#725 = CARTESIAN_POINT ( 'NONE',  ( 0.4500000000000001776, 0.1000000000000000056, 0.2499999999999998890 ) ) ;
#726 = ADVANCED_FACE ( 'NONE', ( #475 ), #70, .F. ) ;
#727 = VECTOR ( 'NONE', #494, 1000.000000000000000 ) ;
#728 = CARTESIAN_POINT ( 'NONE',  ( 0.1999999999999999833, 0.000000000000000000, -0.2500000000000000555 ) ) ;
#729 = FACE_OUTER_BOUND ( 'NONE', #552, .T. ) ;
#730 = DIRECTION ( 'NONE',  ( -0.7071067811865505703, -0.000000000000000000, 0.7071067811865444641 ) ) ;
#731 = DIRECTION ( 'NONE',  ( -1.000000000000000000, 0.000000000000000000, 0.000000000000000000 ) ) ;
#732 = VECTOR ( 'NONE', #366, 1000.000000000000000 ) ;
#733 = EDGE_CURVE ( 'NONE', #542, #857, #615, .T. ) ;
#734 = PRODUCT_CONTEXT ( 'NONE', #62, 'mechanical' ) ;
#735 = UNCERTAINTY_MEASURE_WITH_UNIT (LENGTH_MEASURE( 1.000000000000000082E-05 ), #418, 'distance_accuracy_value', 'NONE');
#736 = FACE_OUTER_BOUND ( 'NONE', #80, .T. ) ;
#737 = DIRECTION ( 'NONE',  ( -2.168404344971008375E-16, 0.000000000000000000, -1.000000000000000000 ) ) ;
#738 = LINE ( 'NONE', #201, #641 ) ;
#739 = ORIENTED_EDGE ( 'NONE', *, *, #190, .T. ) ;
#740 = SHAPE_DEFINITION_REPRESENTATION ( #6, #831 ) ;
#741 = VECTOR ( 'NONE', #522, 1000.000000000000000 ) ;
#742 = DIRECTION ( 'NONE',  ( 0.000000000000000000, -1.000000000000000000, 0.000000000000000000 ) ) ;
#743 = DIRECTION ( 'NONE',  ( 2.168404344971008868E-16, -0.000000000000000000, 1.000000000000000000 ) ) ;
#744 = PRESENTATION_STYLE_ASSIGNMENT (( #318 ) ) ;
#745 = EDGE_CURVE ( 'NONE', #275, #357, #749, .T. ) ;
#746 = ORIENTED_EDGE ( 'NONE', *, *, #670, .T. ) ;
#747 = ORIENTED_EDGE ( 'NONE', *, *, #766, .T. ) ;
#748 = VECTOR ( 'NONE', #496, 1000.000000000000000 ) ;
#749 = LINE ( 'NONE', #681, #460 ) ;
#750 = DIRECTION ( 'NONE',  ( -0.000000000000000000, 0.000000000000000000, 1.000000000000000000 ) ) ;
#751 = ADVANCED_FACE ( 'NONE', ( #665 ), #866, .T. ) ;
#752 = VERTEX_POINT ( 'NONE', #2 ) ;
#753 = EDGE_LOOP ( 'NONE', ( #238, #101, #226, #481 ) ) ;
#754 = FILL_AREA_STYLE ('',( #327 ) ) ;
#755 = EDGE_CURVE ( 'NONE', #531, #602, #140, .T. ) ;
#756 = EDGE_LOOP ( 'NONE', ( #618, #661, #689, #541, #685 ) ) ;
#757 = EDGE_LOOP ( 'NONE', ( #825, #462, #599, #556 ) ) ;
#758 = VECTOR ( 'NONE', #682, 1000.000000000000000 ) ;
#759 = UNCERTAINTY_MEASURE_WITH_UNIT (LENGTH_MEASURE( 1.000000000000000082E-05 ), #116, 'distance_accuracy_value', 'NONE');
#760 = CARTESIAN_POINT ( 'NONE',  ( -0.1999999999999999278, 0.1000000000000000472, -0.2500000000000000000 ) ) ;
#761 = ORIENTED_EDGE ( 'NONE', *, *, #802, .F. ) ;
#762 = PLANE ( 'NONE',  #844 ) ;
#763 = DIRECTION ( 'NONE',  ( -0.000000000000000000, -1.000000000000000000, -0.000000000000000000 ) ) ;
#764 = ORIENTED_EDGE ( 'NONE', *, *, #871, .F. ) ;
#765 = ORIENTED_EDGE ( 'NONE', *, *, #663, .T. ) ;
#766 = EDGE_CURVE ( 'NONE', #842, #68, #269, .T. ) ;
#767 = CARTESIAN_POINT ( 'NONE',  ( -0.1999999999999999278, 0.000000000000000000, -0.2500000000000000000 ) ) ;
#768 = LINE ( 'NONE', #553, #577 ) ;
#769 = ORIENTED_EDGE ( 'NONE', *, *, #178, .T. ) ;
#770 = VECTOR ( 'NONE', #750, 1000.000000000000000 ) ;
#771 = AXIS2_PLACEMENT_3D ( 'NONE', #88, #774, #358 ) ;
#772 = LINE ( 'NONE', #159, #265 ) ;
#773 = DIRECTION ( 'NONE',  ( -0.000000000000000000, -1.000000000000000000, -0.000000000000000000 ) ) ;
#774 = DIRECTION ( 'NONE',  ( 1.000000000000000000, 0.000000000000000000, 0.000000000000000000 ) ) ;
#775 = VECTOR ( 'NONE', #789, 1000.000000000000000 ) ;
#776 = DIRECTION ( 'NONE',  ( -4.336808689942017736E-16, 0.000000000000000000, -1.000000000000000000 ) ) ;
#777 = FACE_OUTER_BOUND ( 'NONE', #445, .T. ) ;
#778 = FACE_OUTER_BOUND ( 'NONE', #704, .T. ) ;
#779 = ORIENTED_EDGE ( 'NONE', *, *, #670, .F. ) ;
#780 = DIRECTION ( 'NONE',  ( -1.000000000000000000, 0.000000000000000000, 1.626303258728256651E-16 ) ) ;
#782 = EDGE_CURVE ( 'NONE', #357, #278, #319, .T. ) ;
#781 = COLOUR_RGB ( '',0.7960784313725489669, 0.8235294117647058432, 0.9372549019607843146 ) ;
#783 = PRODUCT_DEFINITION_FORMATION_WITH_SPECIFIED_SOURCE ( 'ANY', '', #200, .NOT_KNOWN. ) ;
#784 = CARTESIAN_POINT ( 'NONE',  ( 0.4499999999999999556, 0.1000000000000000056, -0.2500000000000001110 ) ) ;
#785 = EDGE_LOOP ( 'NONE', ( #352, #261, #146, #336 ) ) ;
#786 = ORIENTED_EDGE ( 'NONE', *, *, #64, .T. ) ;
#787 = LINE ( 'NONE', #368, #15 ) ;
#788 =( NAMED_UNIT ( * ) PLANE_ANGLE_UNIT ( ) SI_UNIT ( $, .RADIAN. ) );
#789 = DIRECTION ( 'NONE',  ( 1.000000000000000000, 0.000000000000000000, -2.168404344971008375E-16 ) ) ;
#790 = ORIENTED_EDGE ( 'NONE', *, *, #503, .T. ) ;
#791 = DIRECTION ( 'NONE',  ( 0.000000000000000000, 1.000000000000000000, 0.000000000000000000 ) ) ;
#792 = EDGE_CURVE ( 'NONE', #626, #329, #185, .T. ) ;
#793 = LINE ( 'NONE', #725, #151 ) ;
#794 = ORIENTED_EDGE ( 'NONE', *, *, #64, .F. ) ;
#795 = MECHANICAL_DESIGN_GEOMETRIC_PRESENTATION_REPRESENTATION (  '', ( #24 ), #407 ) ;
#796 = LINE ( 'NONE', #458, #559 ) ;
#797 = VECTOR ( 'NONE', #72, 1000.000000000000000 ) ;
#798 = DIRECTION ( 'NONE',  ( -0.000000000000000000, -0.000000000000000000, 1.000000000000000000 ) ) ;
#799 = ORIENTED_EDGE ( 'NONE', *, *, #495, .T. ) ;
#800 = FACE_OUTER_BOUND ( 'NONE', #118, .T. ) ;
#801 = CARTESIAN_POINT ( 'NONE',  ( -0.1999999999999999278, 0.1000000000000000472, 0.2500000000000000000 ) ) ;
#802 = EDGE_CURVE ( 'NONE', #881, #341, #182, .T. ) ;
#803 = ORIENTED_EDGE ( 'NONE', *, *, #589, .F. ) ;
#804 = VECTOR ( 'NONE', #808, 999.9999999999998863 ) ;
#805 = VECTOR ( 'NONE', #841, 1000.000000000000000 ) ;
#806 = CARTESIAN_POINT ( 'NONE',  ( -0.4499999999999999556, 0.1000000000000000472, 0.2500000000000000000 ) ) ;
#807 = CARTESIAN_POINT ( 'NONE',  ( -0.4499999999999999556, 0.1000000000000000056, 0.2500000000000000000 ) ) ;
#808 = DIRECTION ( 'NONE',  ( -0.7071067811865487940, -0.000000000000000000, 0.7071067811865463515 ) ) ;
#809 = ADVANCED_FACE ( 'NONE', ( #736 ), #544, .T. ) ;
#810 = CARTESIAN_POINT ( 'NONE',  ( 0.2000000000000000944, 0.6590169943749475401, 0.2499999999999999445 ) ) ;
#811 = SURFACE_STYLE_FILL_AREA ( #328 ) ;
#812 = PRESENTATION_LAYER_ASSIGNMENT (  '', '', ( #302 ) ) ;
#813 = EDGE_LOOP ( 'NONE', ( #208, #746, #267, #186 ) ) ;
#814 = ORIENTED_EDGE ( 'NONE', *, *, #222, .T. ) ;
#815 = VECTOR ( 'NONE', #455, 1000.000000000000000 ) ;
#816 = DIRECTION ( 'NONE',  ( 0.000000000000000000, -0.000000000000000000, 1.000000000000000000 ) ) ;
#817 = LINE ( 'NONE', #8, #262 ) ;
#818 = CARTESIAN_POINT ( 'NONE',  ( -0.4499999999999999556, 0.1000000000000000056, 0.2500000000000000000 ) ) ;
#819 = VERTEX_POINT ( 'NONE', #258 ) ;
#820 = ORIENTED_EDGE ( 'NONE', *, *, #607, .T. ) ;
#821 = VECTOR ( 'NONE', #798, 1000.000000000000000 ) ;
#822 = ADVANCED_FACE ( 'NONE', ( #132 ), #867, .F. ) ;
#823 = CARTESIAN_POINT ( 'NONE',  ( 0.1999999999999999833, 0.1000000000000000472, -0.2500000000000000555 ) ) ;
#824 = DIRECTION ( 'NONE',  ( 0.000000000000000000, 0.000000000000000000, -1.000000000000000000 ) ) ;
#825 = ORIENTED_EDGE ( 'NONE', *, *, #543, .F. ) ;
#826 = ORIENTED_EDGE ( 'NONE', *, *, #290, .F. ) ;
#827 = PLANE ( 'NONE',  #227 ) ;
#828 = CARTESIAN_POINT ( 'NONE',  ( -0.1999999999999999278, 0.000000000000000000, 0.2500000000000000000 ) ) ;
#829 = VERTEX_POINT ( 'NONE', #609 ) ;
#830 = EDGE_CURVE ( 'NONE', #196, #360, #461, .T. ) ;
#831 = ADVANCED_BREP_SHAPE_REPRESENTATION ( 'ESDAxxxM2', ( #110, #385, #395, #271 ), #603 ) ;
#832 = DIRECTION ( 'NONE',  ( -2.168404344971008868E-16, 0.000000000000000000, -1.000000000000000000 ) ) ;
#833 = CARTESIAN_POINT ( 'NONE',  ( -0.1999999999999999278, 0.000000000000000000, 0.2500000000000000000 ) ) ;
#834 = VERTEX_POINT ( 'NONE', #632 ) ;
#835 = ORIENTED_EDGE ( 'NONE', *, *, #426, .F. ) ;
#836 = ADVANCED_FACE ( 'NONE', ( #87 ), #493, .T. ) ;
#837 = VECTOR ( 'NONE', #648, 1000.000000000000000 ) ;
#838 = FACE_OUTER_BOUND ( 'NONE', #849, .T. ) ;
#839 = LINE ( 'NONE', #760, #112 ) ;
#840 = CARTESIAN_POINT ( 'NONE',  ( 0.2000000000000000944, 0.1000000000000000056, 0.2499999999999999445 ) ) ;
#841 = DIRECTION ( 'NONE',  ( -0.000000000000000000, -1.000000000000000000, -0.000000000000000000 ) ) ;
#842 = VERTEX_POINT ( 'NONE', #801 ) ;
#843 = PRESENTATION_LAYER_ASSIGNMENT (  '', '', ( #331 ) ) ;
#844 = AXIS2_PLACEMENT_3D ( 'NONE', #840, #508, #644 ) ;
#845 = CARTESIAN_POINT ( 'NONE',  ( 0.1999999999999999833, 0.6590169943749475401, -0.2500000000000000555 ) ) ;
#846 = DIRECTION ( 'NONE',  ( 1.000000000000000000, 0.000000000000000000, -2.168404344971009608E-16 ) ) ;
#847 = AXIS2_PLACEMENT_3D ( 'NONE', #669, #816, #671 ) ;
#848 = PLANE ( 'NONE',  #664 ) ;
#849 = EDGE_LOOP ( 'NONE', ( #204, #195, #482, #212 ) ) ;
#850 = FACE_OUTER_BOUND ( 'NONE', #149, .T. ) ;
#851 = AXIS2_PLACEMENT_3D ( 'NONE', #224, #571, #344 ) ;
#852 = LINE ( 'NONE', #39, #7 ) ;
#853 = EDGE_LOOP ( 'NONE', ( #169, #869, #330, #104 ) ) ;
#854 = DIRECTION ( 'NONE',  ( 0.7071067811865444641, -0.000000000000000000, 0.7071067811865505703 ) ) ;
#855 = SURFACE_STYLE_FILL_AREA ( #314 ) ;
#856 = FACE_OUTER_BOUND ( 'NONE', #367, .T. ) ;
#857 = VERTEX_POINT ( 'NONE', #517 ) ;
#858 = CARTESIAN_POINT ( 'NONE',  ( -0.3499999999999995892, 0.000000000000000000, -0.2500000000000000000 ) ) ;
#859 = ADVANCED_FACE ( 'NONE', ( #729 ), #713, .T. ) ;
#860 = CARTESIAN_POINT ( 'NONE',  ( -0.5000000000000001110, 0.5000000000000000000, -0.2999999999999997669 ) ) ;
#861 = AXIS2_PLACEMENT_3D ( 'NONE', #61, #252, #538 ) ;
#862 = DIRECTION ( 'NONE',  ( 1.000000000000000000, -0.000000000000000000, 0.000000000000000000 ) ) ;
#863 = VECTOR ( 'NONE', #489, 1000.000000000000000 ) ;
#864 = CARTESIAN_POINT ( 'NONE',  ( 0.2000000000000000944, 0.000000000000000000, 0.2499999999999999445 ) ) ;
#865 = CARTESIAN_POINT ( 'NONE',  ( -0.4999999999999998890, 0.05000000000000000278, 0.3000000000000002109 ) ) ;
#866 = PLANE ( 'NONE',  #187 ) ;
#867 = PLANE ( 'NONE',  #861 ) ;
#868 = DIRECTION ( 'NONE',  ( -1.000000000000000000, 0.000000000000000000, 2.168404344971008375E-16 ) ) ;
#869 = ORIENTED_EDGE ( 'NONE', *, *, #399, .F. ) ;
#870 = STYLED_ITEM ( 'NONE', ( #240 ), #831 ) ;
#871 = EDGE_CURVE ( 'NONE', #857, #622, #43, .T. ) ;
#872 = CARTESIAN_POINT ( 'NONE',  ( 0.1999999999999999833, 0.000000000000000000, -0.2500000000000000555 ) ) ;
#873 = LINE ( 'NONE', #878, #612 ) ;
#874 = CARTESIAN_POINT ( 'NONE',  ( -0.1999999999999999278, 0.1000000000000000056, 0.2500000000000000000 ) ) ;
#875 = EDGE_LOOP ( 'NONE', ( #647, #786, #113, #162 ) ) ;
#876 = CARTESIAN_POINT ( 'NONE',  ( 0.2000000000000000944, 0.1000000000000000472, 0.2499999999999999445 ) ) ;
#877 = VECTOR ( 'NONE', #58, 1000.000000000000000 ) ;
#878 = CARTESIAN_POINT ( 'NONE',  ( 0.5000000000000001110, 2.166190378969060415, 0.3000000000000000999 ) ) ;
#879 = VECTOR ( 'NONE', #824, 1000.000000000000000 ) ;
#880 = AXIS2_PLACEMENT_3D ( 'NONE', #156, #701, #693 ) ;
#881 = VERTEX_POINT ( 'NONE', #651 ) ;
#882 = ORIENTED_EDGE ( 'NONE', *, *, #248, .T. ) ;
ENDSEC;
END-ISO-10303-21;
