%TF.GenerationSoftware,KiCad,Pcbnew,9.0.4*%
%TF.CreationDate,2026-03-13T15:36:02-04:00*%
%TF.ProjectId,MotorDriver1,4d6f746f-7244-4726-9976-6572312e6b69,rev?*%
%TF.SameCoordinates,Original*%
%TF.FileFunction,Soldermask,Top*%
%TF.FilePolarity,Negative*%
%FSLAX46Y46*%
G04 Gerber Fmt 4.6, Leading zero omitted, Abs format (unit mm)*
G04 Created by KiCad (PCBNEW 9.0.4) date 2026-03-13 15:36:02*
%MOMM*%
%LPD*%
G01*
G04 APERTURE LIST*
G04 Aperture macros list*
%AMRoundRect*
0 Rectangle with rounded corners*
0 $1 Rounding radius*
0 $2 $3 $4 $5 $6 $7 $8 $9 X,Y pos of 4 corners*
0 Add a 4 corners polygon primitive as box body*
4,1,4,$2,$3,$4,$5,$6,$7,$8,$9,$2,$3,0*
0 Add four circle primitives for the rounded corners*
1,1,$1+$1,$2,$3*
1,1,$1+$1,$4,$5*
1,1,$1+$1,$6,$7*
1,1,$1+$1,$8,$9*
0 Add four rect primitives between the rounded corners*
20,1,$1+$1,$2,$3,$4,$5,0*
20,1,$1+$1,$4,$5,$6,$7,0*
20,1,$1+$1,$6,$7,$8,$9,0*
20,1,$1+$1,$8,$9,$2,$3,0*%
G04 Aperture macros list end*
%ADD10RoundRect,0.250000X-1.150000X-0.250000X1.150000X-0.250000X1.150000X0.250000X-1.150000X0.250000X0*%
%ADD11RoundRect,0.250000X-0.625000X0.312500X-0.625000X-0.312500X0.625000X-0.312500X0.625000X0.312500X0*%
%ADD12R,1.041400X3.505200*%
%ADD13R,10.718800X7.696200*%
%ADD14RoundRect,0.140000X0.170000X-0.140000X0.170000X0.140000X-0.170000X0.140000X-0.170000X-0.140000X0*%
%ADD15RoundRect,0.135000X-0.185000X0.135000X-0.185000X-0.135000X0.185000X-0.135000X0.185000X0.135000X0*%
%ADD16C,1.300000*%
%ADD17RoundRect,0.140000X-0.170000X0.140000X-0.170000X-0.140000X0.170000X-0.140000X0.170000X0.140000X0*%
%ADD18RoundRect,0.225000X0.250000X-0.225000X0.250000X0.225000X-0.250000X0.225000X-0.250000X-0.225000X0*%
%ADD19RoundRect,0.135000X-0.135000X-0.185000X0.135000X-0.185000X0.135000X0.185000X-0.135000X0.185000X0*%
%ADD20RoundRect,0.140000X0.140000X0.170000X-0.140000X0.170000X-0.140000X-0.170000X0.140000X-0.170000X0*%
%ADD21R,1.700000X1.700000*%
%ADD22C,1.700000*%
%ADD23R,1.250000X0.600000*%
%ADD24RoundRect,0.147500X-0.172500X0.147500X-0.172500X-0.147500X0.172500X-0.147500X0.172500X0.147500X0*%
%ADD25RoundRect,0.135000X0.135000X0.185000X-0.135000X0.185000X-0.135000X-0.185000X0.135000X-0.185000X0*%
%ADD26RoundRect,0.250000X1.150000X0.250000X-1.150000X0.250000X-1.150000X-0.250000X1.150000X-0.250000X0*%
%ADD27R,0.304800X0.609600*%
%ADD28RoundRect,0.102000X0.600000X-0.500000X0.600000X0.500000X-0.600000X0.500000X-0.600000X-0.500000X0*%
%ADD29R,3.500000X1.950000*%
%ADD30RoundRect,0.135000X0.185000X-0.135000X0.185000X0.135000X-0.185000X0.135000X-0.185000X-0.135000X0*%
%ADD31RoundRect,0.250000X0.312500X0.625000X-0.312500X0.625000X-0.312500X-0.625000X0.312500X-0.625000X0*%
%ADD32RoundRect,0.150000X-0.825000X-0.150000X0.825000X-0.150000X0.825000X0.150000X-0.825000X0.150000X0*%
%ADD33R,3.505200X1.041400*%
%ADD34R,7.696200X10.718800*%
%ADD35RoundRect,0.152400X1.063600X0.609600X-1.063600X0.609600X-1.063600X-0.609600X1.063600X-0.609600X0*%
%ADD36C,1.524000*%
%ADD37RoundRect,0.152400X-1.063600X-0.609600X1.063600X-0.609600X1.063600X0.609600X-1.063600X0.609600X0*%
%ADD38R,1.950000X3.500000*%
%ADD39RoundRect,0.102000X1.000000X-0.650000X1.000000X0.650000X-1.000000X0.650000X-1.000000X-0.650000X0*%
%ADD40R,2.000000X1.300000*%
%ADD41R,2.000000X2.000000*%
%ADD42R,0.609600X0.304800*%
%ADD43R,2.006600X2.159000*%
%ADD44R,1.143000X0.609600*%
%ADD45R,1.143000X0.304800*%
%ADD46RoundRect,0.087500X0.087500X-0.725000X0.087500X0.725000X-0.087500X0.725000X-0.087500X-0.725000X0*%
%ADD47R,1.460500X0.558800*%
%ADD48R,1.475000X0.300000*%
%ADD49R,0.300000X1.475000*%
G04 APERTURE END LIST*
D10*
%TO.C,SW2*%
X122200000Y-95000000D03*
X128000000Y-95000000D03*
X122200000Y-99000000D03*
X128000000Y-99000000D03*
%TD*%
D11*
%TO.C,R7*%
X151500000Y-71537500D03*
X151500000Y-74462500D03*
%TD*%
D12*
%TO.C,Q1*%
X127460000Y-73128900D03*
D13*
X130000000Y-61966600D03*
D12*
X132540000Y-73128900D03*
%TD*%
D14*
%TO.C,C3*%
X140531600Y-95497700D03*
X140531600Y-94537700D03*
%TD*%
D15*
%TO.C,R16*%
X159500000Y-115490000D03*
X159500000Y-116510000D03*
%TD*%
D16*
%TO.C,H2*%
X137500000Y-123500000D03*
%TD*%
D17*
%TO.C,C9*%
X139000000Y-93040000D03*
X139000000Y-94000000D03*
%TD*%
D18*
%TO.C,C8*%
X137131600Y-93612700D03*
X137131600Y-92062700D03*
%TD*%
D19*
%TO.C,R21*%
X161250000Y-83500000D03*
X162270000Y-83500000D03*
%TD*%
D15*
%TO.C,R18*%
X159500000Y-117980000D03*
X159500000Y-119000000D03*
%TD*%
D20*
%TO.C,C17*%
X153480000Y-112500000D03*
X152520000Y-112500000D03*
%TD*%
D15*
%TO.C,R11*%
X163000000Y-99800000D03*
X163000000Y-100820000D03*
%TD*%
%TO.C,R19*%
X146500000Y-117362100D03*
X146500000Y-118382100D03*
%TD*%
D18*
%TO.C,C13*%
X134000000Y-115275000D03*
X134000000Y-113725000D03*
%TD*%
D11*
%TO.C,R3*%
X135000000Y-71514100D03*
X135000000Y-74439100D03*
%TD*%
D21*
%TO.C,Conn2*%
X144553400Y-54127900D03*
D22*
X147093400Y-54127900D03*
%TD*%
D14*
%TO.C,C4*%
X140531600Y-97387700D03*
X140531600Y-96427700D03*
%TD*%
%TO.C,C6*%
X142500000Y-92460000D03*
X142500000Y-91500000D03*
%TD*%
D23*
%TO.C,U1*%
X136250000Y-113550000D03*
X136250000Y-114500000D03*
X136250000Y-115450000D03*
X138750000Y-115450000D03*
X138750000Y-113550000D03*
%TD*%
D17*
%TO.C,C11*%
X137150000Y-105690000D03*
X137150000Y-106650000D03*
%TD*%
D12*
%TO.C,Q2*%
X143460000Y-73128900D03*
D13*
X146000000Y-61966600D03*
D12*
X148540000Y-73128900D03*
%TD*%
D14*
%TO.C,C10*%
X141900000Y-107180000D03*
X141900000Y-106220000D03*
%TD*%
%TO.C,C19*%
X157500000Y-80230000D03*
X157500000Y-79270000D03*
%TD*%
D24*
%TO.C,D6*%
X130500000Y-88015000D03*
X130500000Y-88985000D03*
%TD*%
D25*
%TO.C,R15*%
X131593800Y-111737899D03*
X130573800Y-111737899D03*
%TD*%
D26*
%TO.C,SW3*%
X172900000Y-103500000D03*
X167100000Y-103500000D03*
X172900000Y-99500000D03*
X167100000Y-99500000D03*
%TD*%
D21*
%TO.C,J2*%
X150265000Y-121500000D03*
D22*
X147725000Y-121500000D03*
%TD*%
D27*
%TO.C,D2*%
X145989600Y-57100000D03*
X146650000Y-57100000D03*
%TD*%
D28*
%TO.C,Y2*%
X143950000Y-91730000D03*
X143950000Y-90230000D03*
%TD*%
D14*
%TO.C,C5*%
X142500000Y-90710000D03*
X142500000Y-89750000D03*
%TD*%
D29*
%TO.C,C2*%
X178000000Y-101500000D03*
X183500000Y-101500000D03*
%TD*%
D15*
%TO.C,R23*%
X166500000Y-77480000D03*
X166500000Y-78500000D03*
%TD*%
D30*
%TO.C,R10*%
X161500000Y-100820000D03*
X161500000Y-99800000D03*
%TD*%
D17*
%TO.C,C15*%
X153275000Y-81270000D03*
X153275000Y-82230000D03*
%TD*%
D31*
%TO.C,R4*%
X166495900Y-94000000D03*
X163570900Y-94000000D03*
%TD*%
D16*
%TO.C,H3*%
X180500000Y-123500000D03*
%TD*%
D32*
%TO.C,U4*%
X146250000Y-77460000D03*
X146250000Y-78730000D03*
X146250000Y-80000000D03*
X146250000Y-81270000D03*
X151200000Y-81270000D03*
X151200000Y-80000000D03*
X151200000Y-78730000D03*
X151200000Y-77460000D03*
%TD*%
D21*
%TO.C,VBAT1*%
X176960000Y-78000000D03*
D22*
X179500000Y-78000000D03*
%TD*%
D19*
%TO.C,R2*%
X164513400Y-84180000D03*
X165533400Y-84180000D03*
%TD*%
D16*
%TO.C,H1*%
X121000000Y-55500000D03*
%TD*%
D33*
%TO.C,Q3*%
X164871100Y-85640000D03*
D34*
X176033400Y-88180000D03*
D33*
X164871100Y-90720000D03*
%TD*%
D31*
%TO.C,R8*%
X166301200Y-120500000D03*
X163376200Y-120500000D03*
%TD*%
D15*
%TO.C,R22*%
X153525000Y-78855000D03*
X153525000Y-79875000D03*
%TD*%
%TO.C,R17*%
X146500000Y-115116900D03*
X146500000Y-116136900D03*
%TD*%
D27*
%TO.C,D1*%
X129639600Y-56950000D03*
X130300000Y-56950000D03*
%TD*%
D24*
%TO.C,D7*%
X164500000Y-99825000D03*
X164500000Y-100795000D03*
%TD*%
D35*
%TO.C,U3*%
X166545000Y-55880000D03*
D36*
X167380000Y-55880000D03*
D35*
X166545000Y-58420000D03*
D36*
X167380000Y-58420000D03*
D35*
X166545000Y-60960000D03*
D36*
X167380000Y-60960000D03*
D35*
X166545000Y-63500000D03*
D36*
X167380000Y-63500000D03*
D35*
X166545000Y-66040000D03*
D36*
X167380000Y-66040000D03*
D35*
X166545000Y-68580000D03*
D36*
X167380000Y-68580000D03*
D35*
X166545000Y-71120000D03*
D36*
X167380000Y-71120000D03*
X182620000Y-71120000D03*
D37*
X183455000Y-71120000D03*
D36*
X182620000Y-68580000D03*
D37*
X183455000Y-68580000D03*
D36*
X182620000Y-66040000D03*
D37*
X183455000Y-66040000D03*
D36*
X182620000Y-63500000D03*
D37*
X183455000Y-63500000D03*
D36*
X182620000Y-60960000D03*
D37*
X183455000Y-60960000D03*
D36*
X182620000Y-58420000D03*
D37*
X183455000Y-58420000D03*
D36*
X182620000Y-55880000D03*
D37*
X183455000Y-55880000D03*
%TD*%
D38*
%TO.C,C1*%
X159500000Y-60500000D03*
X159500000Y-66000000D03*
%TD*%
D39*
%TO.C,Y1*%
X142881600Y-97850000D03*
X142881600Y-94150000D03*
%TD*%
D18*
%TO.C,C14*%
X141500000Y-115275000D03*
X141500000Y-113725000D03*
%TD*%
D17*
%TO.C,C16*%
X166500000Y-81520000D03*
X166500000Y-82480000D03*
%TD*%
D19*
%TO.C,R20*%
X153608400Y-77365000D03*
X154628400Y-77365000D03*
%TD*%
D15*
%TO.C,R12*%
X130212200Y-107227899D03*
X130212200Y-108247899D03*
%TD*%
D21*
%TO.C,Conn4*%
X184000000Y-113500000D03*
D22*
X184000000Y-116040000D03*
%TD*%
D14*
%TO.C,C18*%
X144000000Y-79980000D03*
X144000000Y-79020000D03*
%TD*%
D19*
%TO.C,R6*%
X164328700Y-110631600D03*
X165348700Y-110631600D03*
%TD*%
D33*
%TO.C,Q4*%
X164837700Y-112460000D03*
D34*
X176000000Y-115000000D03*
D33*
X164837700Y-117540000D03*
%TD*%
D40*
%TO.C,VR2*%
X160500000Y-107127900D03*
D41*
X156500000Y-108277900D03*
D40*
X160500000Y-109427900D03*
%TD*%
D32*
%TO.C,U5*%
X159275000Y-77595000D03*
X159275000Y-78865000D03*
X159275000Y-80135000D03*
X159275000Y-81405000D03*
X164225000Y-81405000D03*
X164225000Y-80135000D03*
X164225000Y-78865000D03*
X164225000Y-77595000D03*
%TD*%
D17*
%TO.C,C7*%
X132500000Y-99520000D03*
X132500000Y-100480000D03*
%TD*%
D10*
%TO.C,SW1*%
X122100000Y-84000000D03*
X127900000Y-84000000D03*
X122100000Y-88000000D03*
X127900000Y-88000000D03*
%TD*%
D30*
%TO.C,R1*%
X125656800Y-73486600D03*
X125656800Y-72466600D03*
%TD*%
D42*
%TO.C,D3*%
X181500000Y-88839600D03*
X181500000Y-89500000D03*
%TD*%
D24*
%TO.C,D5*%
X131000000Y-99355000D03*
X131000000Y-100325000D03*
%TD*%
D42*
%TO.C,D4*%
X181200000Y-114839600D03*
X181200000Y-115500000D03*
%TD*%
D43*
%TO.C,J1*%
X127500000Y-104627899D03*
X127500000Y-114847899D03*
X123570000Y-104627899D03*
X123570000Y-114847899D03*
D44*
X128075000Y-106537898D03*
X128075000Y-107337899D03*
D45*
X128075000Y-108487899D03*
X128075000Y-109487899D03*
X128075000Y-109987899D03*
X128075000Y-110987899D03*
D44*
X128075000Y-112137899D03*
X128075000Y-112937898D03*
D45*
X128075000Y-111487898D03*
X128075000Y-110487900D03*
X128075000Y-108987898D03*
X128075000Y-107987900D03*
%TD*%
D14*
%TO.C,C12*%
X130593800Y-114055599D03*
X130593800Y-113095599D03*
%TD*%
D46*
%TO.C,U2*%
X138500000Y-109000000D03*
X139000000Y-109000000D03*
X139500000Y-109000000D03*
X140000000Y-109000000D03*
X140500000Y-109000000D03*
X140500000Y-104775000D03*
X140000000Y-104775000D03*
X139500000Y-104775000D03*
X139000000Y-104775000D03*
X138500000Y-104775000D03*
%TD*%
D21*
%TO.C,J3*%
X158040000Y-121500000D03*
D22*
X155500000Y-121500000D03*
%TD*%
D47*
%TO.C,U7*%
X150275850Y-114095000D03*
X150275850Y-115365000D03*
X150275850Y-116635000D03*
X150275850Y-117905000D03*
X155724150Y-117905000D03*
X155724150Y-116635000D03*
X155724150Y-115365000D03*
X155724150Y-114095000D03*
%TD*%
D40*
%TO.C,VR1*%
X147500000Y-109277900D03*
D41*
X151500000Y-108127900D03*
D40*
X147500000Y-106977900D03*
%TD*%
D21*
%TO.C,Conn3*%
X184000000Y-87225000D03*
D22*
X184000000Y-89765000D03*
%TD*%
D17*
%TO.C,C_A1*%
X148500000Y-114392100D03*
X148500000Y-115352100D03*
%TD*%
D48*
%TO.C,IC1*%
X146262000Y-89750000D03*
X146262000Y-90250000D03*
X146262000Y-90750000D03*
X146262000Y-91250000D03*
X146262000Y-91750000D03*
X146262000Y-92250000D03*
X146262000Y-92750000D03*
X146262000Y-93250000D03*
X146262000Y-93750000D03*
X146262000Y-94250000D03*
X146262000Y-94750000D03*
X146262000Y-95250000D03*
X146262000Y-95750000D03*
X146262000Y-96250000D03*
X146262000Y-96750000D03*
X146262000Y-97250000D03*
D49*
X148250000Y-99238000D03*
X148750000Y-99238000D03*
X149250000Y-99238000D03*
X149750000Y-99238000D03*
X150250000Y-99238000D03*
X150750000Y-99238000D03*
X151250000Y-99238000D03*
X151750000Y-99238000D03*
X152250000Y-99238000D03*
X152750000Y-99238000D03*
X153250000Y-99238000D03*
X153750000Y-99238000D03*
X154250000Y-99238000D03*
X154750000Y-99238000D03*
X155250000Y-99238000D03*
X155750000Y-99238000D03*
D48*
X157738000Y-97250000D03*
X157738000Y-96750000D03*
X157738000Y-96250000D03*
X157738000Y-95750000D03*
X157738000Y-95250000D03*
X157738000Y-94750000D03*
X157738000Y-94250000D03*
X157738000Y-93750000D03*
X157738000Y-93250000D03*
X157738000Y-92750000D03*
X157738000Y-92250000D03*
X157738000Y-91750000D03*
X157738000Y-91250000D03*
X157738000Y-90750000D03*
X157738000Y-90250000D03*
X157738000Y-89750000D03*
D49*
X155750000Y-87762000D03*
X155250000Y-87762000D03*
X154750000Y-87762000D03*
X154250000Y-87762000D03*
X153750000Y-87762000D03*
X153250000Y-87762000D03*
X152750000Y-87762000D03*
X152250000Y-87762000D03*
X151750000Y-87762000D03*
X151250000Y-87762000D03*
X150750000Y-87762000D03*
X150250000Y-87762000D03*
X149750000Y-87762000D03*
X149250000Y-87762000D03*
X148750000Y-87762000D03*
X148250000Y-87762000D03*
%TD*%
D30*
%TO.C,R5*%
X141828400Y-73486600D03*
X141828400Y-72466600D03*
%TD*%
D21*
%TO.C,Conn1*%
X127975000Y-54000000D03*
D22*
X130515000Y-54000000D03*
%TD*%
D15*
%TO.C,R9*%
X128400000Y-80980000D03*
X128400000Y-82000000D03*
%TD*%
D14*
%TO.C,C_D1*%
X157500000Y-116352100D03*
X157500000Y-115392100D03*
%TD*%
M02*
