M48
; DRILL file {KiCad 9.0.4} date 2026-03-13T05:34:26-0400
; FORMAT={-:-/ absolute / inch / decimal}
; #@! TF.CreationDate,2026-03-13T05:34:26-04:00
; #@! TF.GenerationSoftware,Kicad,Pcbnew,9.0.4
; #@! TF.FileFunction,Plated,1,4,PTH
FMAT,2
INCH
; #@! TA.AperFunction,Plated,PTH,ViaDrill
T1C0.0118
; #@! TA.AperFunction,Plated,PTH,ViaDrill
T2C0.0157
; #@! TA.AperFunction,Plated,PTH,ComponentDrill
T3C0.0350
; #@! TA.AperFunction,Plated,PTH,ComponentDrill
T4C0.0394
%
G90
G05
T1
X5.4921Y-3.7598
X5.4921Y-3.7992
X5.5315Y-4.3504
X5.5538Y-4.3268
X5.5709Y-3.5713
X5.5709Y-3.6024
X5.6496Y-2.9921
X5.748Y-4.0118
X5.7874Y-4.0118
X5.8661Y-4.0748
X5.8858Y-3.0906
X5.9547Y-3.3563
X6.0404Y-3.3858
X6.1811Y-4.0748
X6.3386Y-3.1496
X6.6339Y-2.9724
T2
X5.0984Y-3.189
X5.3543Y-3.622
X5.6496Y-4.1732
X5.748Y-4.4882
X5.8268Y-3.1299
X5.9843Y-4.1142
X6.0433Y-4.3898
X6.0827Y-3.2087
X6.0827Y-4.1339
X6.2795Y-2.2244
X6.3386Y-4.5472
X6.5748Y-4.1535
X6.5945Y-3.2087
X7.0079Y-4.1929
T3
X6.5898Y-2.2
X6.5898Y-2.3
X6.5898Y-2.4
X6.5898Y-2.5
X6.5898Y-2.6
X6.5898Y-2.7
X6.5898Y-2.8
X7.1898Y-2.2
X7.1898Y-2.3
X7.1898Y-2.4
X7.1898Y-2.5
X7.1898Y-2.6
X7.1898Y-2.7
X7.1898Y-2.8
T4
X5.0384Y-2.126
X5.1384Y-2.126
X5.6911Y-2.131
X5.7911Y-2.131
X5.8159Y-4.7835
X5.9159Y-4.7835
X6.122Y-4.7835
X6.222Y-4.7835
X6.9669Y-3.0709
X7.0669Y-3.0709
X7.2441Y-3.4341
X7.2441Y-3.5341
X7.2441Y-4.4685
X7.2441Y-4.5685
M30
