%TF.GenerationSoftware,KiCad,Pcbnew,9.0.4*%
%TF.CreationDate,2026-03-13T02:53:32-04:00*%
%TF.ProjectId,MotorDriver1,4d6f746f-7244-4726-9976-6572312e6b69,rev?*%
%TF.SameCoordinates,Original*%
%TF.FileFunction,Copper,L3,Inr*%
%TF.FilePolarity,Positive*%
%FSLAX46Y46*%
G04 Gerber Fmt 4.6, Leading zero omitted, Abs format (unit mm)*
G04 Created by KiCad (PCBNEW 9.0.4) date 2026-03-13 02:53:32*
%MOMM*%
%LPD*%
G01*
G04 APERTURE LIST*
%TA.AperFunction,ComponentPad*%
%ADD10R,1.700000X1.700000*%
%TD*%
%TA.AperFunction,ComponentPad*%
%ADD11C,1.700000*%
%TD*%
%TA.AperFunction,ComponentPad*%
%ADD12C,1.524000*%
%TD*%
%TA.AperFunction,ViaPad*%
%ADD13C,0.400000*%
%TD*%
%TA.AperFunction,ViaPad*%
%ADD14C,0.500000*%
%TD*%
%TA.AperFunction,Conductor*%
%ADD15C,0.400000*%
%TD*%
G04 APERTURE END LIST*
D10*
%TO.N,5V*%
%TO.C,Conn2*%
X144553400Y-54127900D03*
D11*
%TO.N,/motorDriver/Motor2-*%
X147093400Y-54127900D03*
%TD*%
D10*
%TO.N,SensorAIn*%
%TO.C,J2*%
X150265000Y-121500000D03*
D11*
%TO.N,GND*%
X147725000Y-121500000D03*
%TD*%
D10*
%TO.N,5V*%
%TO.C,VBAT1*%
X176960000Y-78000000D03*
D11*
%TO.N,GND*%
X179500000Y-78000000D03*
%TD*%
D12*
%TO.N,FDCAN_STBY_ESP*%
%TO.C,U3*%
X167380000Y-55880000D03*
%TO.N,unconnected-(U3-GPIO3_A1_D1-Pad2)_1*%
X167380000Y-58420000D03*
%TO.N,unconnected-(U3-GPIO4_A2_D2-Pad3)_1*%
X167380000Y-60960000D03*
%TO.N,unconnected-(U3-GPIO5_A3_D3-Pad4)*%
X167380000Y-63500000D03*
%TO.N,unconnected-(U3-GPIO6_D4_SDA-Pad5)_1*%
X167380000Y-66040000D03*
%TO.N,unconnected-(U3-GPIO7_D5_SCL-Pad6)*%
X167380000Y-68580000D03*
%TO.N,FDCAN_TX_ESP*%
X167380000Y-71120000D03*
%TO.N,FDCAN_RX_ESP*%
X182620000Y-71120000D03*
%TO.N,unconnected-(U3-GPIO8_D8_SCK-Pad9)*%
X182620000Y-68580000D03*
%TO.N,unconnected-(U3-GPIO9_D9_MISO-Pad10)*%
X182620000Y-66040000D03*
%TO.N,unconnected-(U3-GPIO10_D10_MOSI-Pad11)_1*%
X182620000Y-63500000D03*
%TO.N,3V3*%
X182620000Y-60960000D03*
%TO.N,GND*%
X182620000Y-58420000D03*
%TO.N,5V*%
X182620000Y-55880000D03*
%TD*%
D10*
%TO.N,5V*%
%TO.C,Conn4*%
X184000000Y-113500000D03*
D11*
%TO.N,/motorDriver/Motor4-*%
X184000000Y-116040000D03*
%TD*%
D10*
%TO.N,SensorDIn*%
%TO.C,J3*%
X158040000Y-121500000D03*
D11*
%TO.N,GND*%
X155500000Y-121500000D03*
%TD*%
D10*
%TO.N,5V*%
%TO.C,Conn3*%
X184000000Y-87225000D03*
D11*
%TO.N,/motorDriver/Motor3-*%
X184000000Y-89765000D03*
%TD*%
D10*
%TO.N,5V*%
%TO.C,Conn1*%
X127975000Y-54000000D03*
D11*
%TO.N,/motorDriver/Motor1-*%
X130515000Y-54000000D03*
%TD*%
D13*
%TO.N,GND*%
X139500000Y-95500000D03*
X139500000Y-96500000D03*
X141500000Y-91500000D03*
X141500000Y-90710000D03*
D14*
%TO.N,5V*%
X178000000Y-106500000D03*
X159500000Y-56500000D03*
X148000000Y-79500000D03*
D13*
X161000000Y-80000000D03*
D14*
%TO.N,3V3*%
X136000000Y-92000000D03*
X146000000Y-114000000D03*
X143500000Y-106000000D03*
X153500000Y-111500000D03*
X161000000Y-115500000D03*
X154500000Y-81500000D03*
X167500000Y-81500000D03*
X167000000Y-105500000D03*
X129500000Y-81000000D03*
D13*
%TO.N,!CTS*%
X141065687Y-109900000D03*
X146000000Y-101900000D03*
%TO.N,!RTS*%
X140500000Y-110500000D03*
X147000000Y-101900000D03*
%TO.N,FDCAN_STBY_STM*%
X149500000Y-78500000D03*
X153425500Y-86000000D03*
%TO.N,!DTR*%
X149000000Y-103500000D03*
X157000000Y-103500000D03*
%TO.N,FDCAN_STBY_ESP*%
X168500000Y-75500000D03*
D14*
%TO.N,Motor4_PWM*%
X152000000Y-104500000D03*
X154500000Y-105000000D03*
D13*
%TO.N,Motor2_PWM*%
X151250000Y-85250000D03*
X143500000Y-76000000D03*
%TD*%
D15*
%TO.N,5V*%
X161750000Y-77750000D02*
X161750000Y-79250000D01*
X163000000Y-76500000D02*
X161750000Y-77750000D01*
X161750000Y-79250000D02*
X161000000Y-80000000D01*
X176960000Y-78000000D02*
X176960000Y-80147240D01*
X148000000Y-79500000D02*
X148000000Y-78500000D01*
X176960000Y-76750000D02*
X180210000Y-73500000D01*
X184000000Y-73500000D02*
X186000000Y-71500000D01*
X186000000Y-58000000D02*
X183880000Y-55880000D01*
X180210000Y-73500000D02*
X184000000Y-73500000D01*
X176960000Y-80147240D02*
X184037760Y-87225000D01*
X176960000Y-78000000D02*
X170000000Y-78000000D01*
X176960000Y-78000000D02*
X176960000Y-76750000D01*
X148000000Y-78500000D02*
X150000000Y-76500000D01*
X184037760Y-87225000D02*
X184500000Y-87225000D01*
X186000000Y-71500000D02*
X186000000Y-58000000D01*
X183880000Y-55880000D02*
X182620000Y-55880000D01*
X170000000Y-78000000D02*
X168500000Y-76500000D01*
X168500000Y-76500000D02*
X163000000Y-76500000D01*
X150000000Y-76500000D02*
X163000000Y-76500000D01*
%TD*%
%TA.AperFunction,Conductor*%
%TO.N,3V3*%
G36*
X132000000Y-82000000D02*
G01*
X135500000Y-82000000D01*
X136000000Y-81500000D01*
X136000000Y-84500000D01*
X140000000Y-80500000D01*
X160457980Y-80500000D01*
X160525019Y-80519685D01*
X160545661Y-80536319D01*
X160553454Y-80544112D01*
X160668192Y-80620777D01*
X160795667Y-80673578D01*
X160795672Y-80673580D01*
X160795676Y-80673580D01*
X160795677Y-80673581D01*
X160931003Y-80700500D01*
X160931006Y-80700500D01*
X161068996Y-80700500D01*
X161160040Y-80682389D01*
X161204328Y-80673580D01*
X161268069Y-80647177D01*
X161331807Y-80620777D01*
X161331808Y-80620776D01*
X161331811Y-80620775D01*
X161446543Y-80544114D01*
X161446546Y-80544111D01*
X161454339Y-80536319D01*
X161515662Y-80502834D01*
X161542020Y-80500000D01*
X168876000Y-80500000D01*
X168943039Y-80519685D01*
X168988794Y-80572489D01*
X169000000Y-80624000D01*
X169000000Y-124376000D01*
X168980315Y-124443039D01*
X168927511Y-124488794D01*
X168876000Y-124500000D01*
X126551362Y-124500000D01*
X126484323Y-124480315D01*
X126463681Y-124463681D01*
X126036319Y-124036319D01*
X126002834Y-123974996D01*
X126000000Y-123948638D01*
X126000000Y-121393713D01*
X146374500Y-121393713D01*
X146374500Y-121606286D01*
X146407753Y-121816239D01*
X146473444Y-122018414D01*
X146569951Y-122207820D01*
X146694890Y-122379786D01*
X146845213Y-122530109D01*
X147017179Y-122655048D01*
X147017181Y-122655049D01*
X147017184Y-122655051D01*
X147206588Y-122751557D01*
X147408757Y-122817246D01*
X147618713Y-122850500D01*
X147618714Y-122850500D01*
X147831286Y-122850500D01*
X147831287Y-122850500D01*
X148041243Y-122817246D01*
X148243412Y-122751557D01*
X148432816Y-122655051D01*
X148604792Y-122530104D01*
X148718329Y-122416566D01*
X148779648Y-122383084D01*
X148849340Y-122388068D01*
X148905274Y-122429939D01*
X148922189Y-122460917D01*
X148971202Y-122592328D01*
X148971206Y-122592335D01*
X149057452Y-122707544D01*
X149057455Y-122707547D01*
X149172664Y-122793793D01*
X149172671Y-122793797D01*
X149307517Y-122844091D01*
X149307516Y-122844091D01*
X149314444Y-122844835D01*
X149367127Y-122850500D01*
X151162872Y-122850499D01*
X151222483Y-122844091D01*
X151357331Y-122793796D01*
X151472546Y-122707546D01*
X151558796Y-122592331D01*
X151609091Y-122457483D01*
X151615500Y-122397873D01*
X151615499Y-121393713D01*
X154149500Y-121393713D01*
X154149500Y-121606286D01*
X154182753Y-121816239D01*
X154248444Y-122018414D01*
X154344951Y-122207820D01*
X154469890Y-122379786D01*
X154620213Y-122530109D01*
X154792179Y-122655048D01*
X154792181Y-122655049D01*
X154792184Y-122655051D01*
X154981588Y-122751557D01*
X155183757Y-122817246D01*
X155393713Y-122850500D01*
X155393714Y-122850500D01*
X155606286Y-122850500D01*
X155606287Y-122850500D01*
X155816243Y-122817246D01*
X156018412Y-122751557D01*
X156207816Y-122655051D01*
X156379792Y-122530104D01*
X156493329Y-122416566D01*
X156554648Y-122383084D01*
X156624340Y-122388068D01*
X156680274Y-122429939D01*
X156697189Y-122460917D01*
X156746202Y-122592328D01*
X156746206Y-122592335D01*
X156832452Y-122707544D01*
X156832455Y-122707547D01*
X156947664Y-122793793D01*
X156947671Y-122793797D01*
X157082517Y-122844091D01*
X157082516Y-122844091D01*
X157089444Y-122844835D01*
X157142127Y-122850500D01*
X158937872Y-122850499D01*
X158997483Y-122844091D01*
X159132331Y-122793796D01*
X159247546Y-122707546D01*
X159333796Y-122592331D01*
X159384091Y-122457483D01*
X159390500Y-122397873D01*
X159390499Y-120602128D01*
X159384091Y-120542517D01*
X159382810Y-120539083D01*
X159333797Y-120407671D01*
X159333793Y-120407664D01*
X159247547Y-120292455D01*
X159247544Y-120292452D01*
X159132335Y-120206206D01*
X159132328Y-120206202D01*
X158997482Y-120155908D01*
X158997483Y-120155908D01*
X158937883Y-120149501D01*
X158937881Y-120149500D01*
X158937873Y-120149500D01*
X158937864Y-120149500D01*
X157142129Y-120149500D01*
X157142123Y-120149501D01*
X157082516Y-120155908D01*
X156947671Y-120206202D01*
X156947664Y-120206206D01*
X156832455Y-120292452D01*
X156832452Y-120292455D01*
X156746206Y-120407664D01*
X156746203Y-120407669D01*
X156697189Y-120539083D01*
X156655317Y-120595016D01*
X156589853Y-120619433D01*
X156521580Y-120604581D01*
X156493326Y-120583430D01*
X156379786Y-120469890D01*
X156207820Y-120344951D01*
X156018414Y-120248444D01*
X156018413Y-120248443D01*
X156018412Y-120248443D01*
X155816243Y-120182754D01*
X155816241Y-120182753D01*
X155816240Y-120182753D01*
X155654957Y-120157208D01*
X155606287Y-120149500D01*
X155393713Y-120149500D01*
X155345042Y-120157208D01*
X155183760Y-120182753D01*
X154981585Y-120248444D01*
X154792179Y-120344951D01*
X154620213Y-120469890D01*
X154469890Y-120620213D01*
X154344951Y-120792179D01*
X154248444Y-120981585D01*
X154182753Y-121183760D01*
X154149500Y-121393713D01*
X151615499Y-121393713D01*
X151615499Y-120602128D01*
X151609091Y-120542517D01*
X151607810Y-120539083D01*
X151558797Y-120407671D01*
X151558793Y-120407664D01*
X151472547Y-120292455D01*
X151472544Y-120292452D01*
X151357335Y-120206206D01*
X151357328Y-120206202D01*
X151222482Y-120155908D01*
X151222483Y-120155908D01*
X151162883Y-120149501D01*
X151162881Y-120149500D01*
X151162873Y-120149500D01*
X151162864Y-120149500D01*
X149367129Y-120149500D01*
X149367123Y-120149501D01*
X149307516Y-120155908D01*
X149172671Y-120206202D01*
X149172664Y-120206206D01*
X149057455Y-120292452D01*
X149057452Y-120292455D01*
X148971206Y-120407664D01*
X148971203Y-120407669D01*
X148922189Y-120539083D01*
X148880317Y-120595016D01*
X148814853Y-120619433D01*
X148746580Y-120604581D01*
X148718326Y-120583430D01*
X148604786Y-120469890D01*
X148432820Y-120344951D01*
X148243414Y-120248444D01*
X148243413Y-120248443D01*
X148243412Y-120248443D01*
X148041243Y-120182754D01*
X148041241Y-120182753D01*
X148041240Y-120182753D01*
X147879957Y-120157208D01*
X147831287Y-120149500D01*
X147618713Y-120149500D01*
X147570042Y-120157208D01*
X147408760Y-120182753D01*
X147206585Y-120248444D01*
X147017179Y-120344951D01*
X146845213Y-120469890D01*
X146694890Y-120620213D01*
X146569951Y-120792179D01*
X146473444Y-120981585D01*
X146407753Y-121183760D01*
X146374500Y-121393713D01*
X126000000Y-121393713D01*
X126000000Y-112558032D01*
X126469300Y-112558032D01*
X126469300Y-112697768D01*
X126487383Y-112765255D01*
X126505467Y-112832744D01*
X126505468Y-112832745D01*
X126554577Y-112917803D01*
X126575335Y-112953757D01*
X126674143Y-113052565D01*
X126759204Y-113101675D01*
X126795154Y-113122431D01*
X126795155Y-113122432D01*
X126795157Y-113122432D01*
X126795158Y-113122433D01*
X126930132Y-113158600D01*
X126930134Y-113158600D01*
X127069866Y-113158600D01*
X127069868Y-113158600D01*
X127204842Y-113122433D01*
X127325857Y-113052565D01*
X127424665Y-112953757D01*
X127494533Y-112832742D01*
X127530700Y-112697768D01*
X127530700Y-112558032D01*
X127494533Y-112423058D01*
X127494532Y-112423057D01*
X127494532Y-112423055D01*
X127494531Y-112423054D01*
X127473775Y-112387104D01*
X127424665Y-112302043D01*
X127325857Y-112203235D01*
X127289903Y-112182477D01*
X127204845Y-112133368D01*
X127204844Y-112133367D01*
X127137355Y-112115283D01*
X127069868Y-112097200D01*
X126930132Y-112097200D01*
X126876142Y-112111666D01*
X126795155Y-112133367D01*
X126795154Y-112133368D01*
X126674146Y-112203233D01*
X126674140Y-112203237D01*
X126575337Y-112302040D01*
X126575333Y-112302046D01*
X126505468Y-112423054D01*
X126505467Y-112423055D01*
X126478341Y-112524288D01*
X126469300Y-112558032D01*
X126000000Y-112558032D01*
X126000000Y-110568995D01*
X139799499Y-110568995D01*
X139826418Y-110704322D01*
X139826421Y-110704332D01*
X139879221Y-110831804D01*
X139879228Y-110831817D01*
X139955885Y-110946541D01*
X139955888Y-110946545D01*
X140053454Y-111044111D01*
X140053458Y-111044114D01*
X140168182Y-111120771D01*
X140168195Y-111120778D01*
X140295667Y-111173578D01*
X140295672Y-111173580D01*
X140295676Y-111173580D01*
X140295677Y-111173581D01*
X140431004Y-111200500D01*
X140431007Y-111200500D01*
X140568995Y-111200500D01*
X140660041Y-111182389D01*
X140704328Y-111173580D01*
X140831811Y-111120775D01*
X140946542Y-111044114D01*
X141044114Y-110946542D01*
X141120775Y-110831811D01*
X141173580Y-110704328D01*
X141180565Y-110669208D01*
X141212948Y-110607301D01*
X141266195Y-110574738D01*
X141270003Y-110573582D01*
X141270015Y-110573580D01*
X141397498Y-110520775D01*
X141512229Y-110444114D01*
X141609801Y-110346542D01*
X141686462Y-110231811D01*
X141739267Y-110104328D01*
X141766187Y-109968993D01*
X141766187Y-109831007D01*
X141766187Y-109831004D01*
X141739268Y-109695677D01*
X141739267Y-109695674D01*
X141739267Y-109695672D01*
X141739265Y-109695667D01*
X141686465Y-109568195D01*
X141686458Y-109568182D01*
X141609801Y-109453458D01*
X141609798Y-109453454D01*
X141512232Y-109355888D01*
X141512228Y-109355885D01*
X141397504Y-109279228D01*
X141397491Y-109279221D01*
X141270019Y-109226421D01*
X141270009Y-109226418D01*
X141134682Y-109199500D01*
X141134680Y-109199500D01*
X140996694Y-109199500D01*
X140996692Y-109199500D01*
X140861364Y-109226418D01*
X140861354Y-109226421D01*
X140733882Y-109279221D01*
X140733869Y-109279228D01*
X140619145Y-109355885D01*
X140619141Y-109355888D01*
X140521575Y-109453454D01*
X140521572Y-109453458D01*
X140444915Y-109568182D01*
X140444908Y-109568195D01*
X140392107Y-109695669D01*
X140392106Y-109695674D01*
X140385120Y-109730792D01*
X140352733Y-109792703D01*
X140299508Y-109825256D01*
X140295669Y-109826420D01*
X140168195Y-109879221D01*
X140168182Y-109879228D01*
X140053458Y-109955885D01*
X140053454Y-109955888D01*
X139955888Y-110053454D01*
X139955885Y-110053458D01*
X139879228Y-110168182D01*
X139879221Y-110168195D01*
X139826421Y-110295667D01*
X139826418Y-110295677D01*
X139799500Y-110431004D01*
X139799500Y-110431007D01*
X139799500Y-110568993D01*
X139799500Y-110568995D01*
X139799499Y-110568995D01*
X126000000Y-110568995D01*
X126000000Y-106778030D01*
X126469300Y-106778030D01*
X126469300Y-106917766D01*
X126487383Y-106985253D01*
X126505467Y-107052742D01*
X126505468Y-107052743D01*
X126554577Y-107137801D01*
X126575335Y-107173755D01*
X126674143Y-107272563D01*
X126759204Y-107321673D01*
X126795154Y-107342429D01*
X126795155Y-107342430D01*
X126795157Y-107342430D01*
X126795158Y-107342431D01*
X126930132Y-107378598D01*
X126930134Y-107378598D01*
X127069866Y-107378598D01*
X127069868Y-107378598D01*
X127204842Y-107342431D01*
X127325857Y-107272563D01*
X127424665Y-107173755D01*
X127494533Y-107052740D01*
X127530700Y-106917766D01*
X127530700Y-106778030D01*
X127494533Y-106643056D01*
X127494532Y-106643055D01*
X127494532Y-106643053D01*
X127494531Y-106643052D01*
X127473775Y-106607102D01*
X127424665Y-106522041D01*
X127325857Y-106423233D01*
X127289903Y-106402475D01*
X127204845Y-106353366D01*
X127204844Y-106353365D01*
X127137355Y-106335281D01*
X127069868Y-106317198D01*
X126930132Y-106317198D01*
X126876142Y-106331664D01*
X126795155Y-106353365D01*
X126795154Y-106353366D01*
X126674146Y-106423231D01*
X126674140Y-106423235D01*
X126575337Y-106522038D01*
X126575333Y-106522044D01*
X126505468Y-106643052D01*
X126505467Y-106643053D01*
X126478341Y-106744286D01*
X126469300Y-106778030D01*
X126000000Y-106778030D01*
X126000000Y-104573920D01*
X151249499Y-104573920D01*
X151278340Y-104718907D01*
X151278343Y-104718917D01*
X151334912Y-104855488D01*
X151334919Y-104855501D01*
X151417048Y-104978415D01*
X151417051Y-104978419D01*
X151521580Y-105082948D01*
X151521584Y-105082951D01*
X151644498Y-105165080D01*
X151644511Y-105165087D01*
X151781082Y-105221656D01*
X151781087Y-105221658D01*
X151781091Y-105221658D01*
X151781092Y-105221659D01*
X151926079Y-105250500D01*
X151926082Y-105250500D01*
X152073920Y-105250500D01*
X152171462Y-105231096D01*
X152218913Y-105221658D01*
X152355495Y-105165084D01*
X152478416Y-105082951D01*
X152487447Y-105073920D01*
X153749499Y-105073920D01*
X153778340Y-105218907D01*
X153778343Y-105218917D01*
X153834912Y-105355488D01*
X153834919Y-105355501D01*
X153917048Y-105478415D01*
X153917051Y-105478419D01*
X154021580Y-105582948D01*
X154021584Y-105582951D01*
X154144498Y-105665080D01*
X154144511Y-105665087D01*
X154281082Y-105721656D01*
X154281087Y-105721658D01*
X154281091Y-105721658D01*
X154281092Y-105721659D01*
X154426079Y-105750500D01*
X154426082Y-105750500D01*
X154573920Y-105750500D01*
X154671462Y-105731096D01*
X154718913Y-105721658D01*
X154855495Y-105665084D01*
X154978416Y-105582951D01*
X155082951Y-105478416D01*
X155165084Y-105355495D01*
X155221658Y-105218913D01*
X155232366Y-105165080D01*
X155250500Y-105073920D01*
X155250500Y-104926079D01*
X155221659Y-104781092D01*
X155221658Y-104781091D01*
X155221658Y-104781087D01*
X155221656Y-104781082D01*
X155165087Y-104644511D01*
X155165080Y-104644498D01*
X155082951Y-104521584D01*
X155082948Y-104521580D01*
X154978419Y-104417051D01*
X154978415Y-104417048D01*
X154855501Y-104334919D01*
X154855488Y-104334912D01*
X154718917Y-104278343D01*
X154718907Y-104278340D01*
X154573920Y-104249500D01*
X154573918Y-104249500D01*
X154426082Y-104249500D01*
X154426080Y-104249500D01*
X154281092Y-104278340D01*
X154281082Y-104278343D01*
X154144511Y-104334912D01*
X154144498Y-104334919D01*
X154021584Y-104417048D01*
X154021580Y-104417051D01*
X153917051Y-104521580D01*
X153917048Y-104521584D01*
X153834919Y-104644498D01*
X153834912Y-104644511D01*
X153778343Y-104781082D01*
X153778340Y-104781092D01*
X153749500Y-104926079D01*
X153749500Y-104926082D01*
X153749500Y-105073918D01*
X153749500Y-105073920D01*
X153749499Y-105073920D01*
X152487447Y-105073920D01*
X152582951Y-104978416D01*
X152665084Y-104855495D01*
X152721658Y-104718913D01*
X152736459Y-104644505D01*
X152750500Y-104573920D01*
X152750500Y-104426079D01*
X152721659Y-104281092D01*
X152721658Y-104281091D01*
X152721658Y-104281087D01*
X152677128Y-104173581D01*
X152665087Y-104144511D01*
X152665080Y-104144498D01*
X152582951Y-104021584D01*
X152582948Y-104021580D01*
X152478419Y-103917051D01*
X152478415Y-103917048D01*
X152355501Y-103834919D01*
X152355488Y-103834912D01*
X152218917Y-103778343D01*
X152218907Y-103778340D01*
X152073920Y-103749500D01*
X152073918Y-103749500D01*
X151926082Y-103749500D01*
X151926080Y-103749500D01*
X151781092Y-103778340D01*
X151781082Y-103778343D01*
X151644511Y-103834912D01*
X151644498Y-103834919D01*
X151521584Y-103917048D01*
X151521580Y-103917051D01*
X151417051Y-104021580D01*
X151417048Y-104021584D01*
X151334919Y-104144498D01*
X151334912Y-104144511D01*
X151278343Y-104281082D01*
X151278340Y-104281092D01*
X151249500Y-104426079D01*
X151249500Y-104426082D01*
X151249500Y-104573918D01*
X151249500Y-104573920D01*
X151249499Y-104573920D01*
X126000000Y-104573920D01*
X126000000Y-103568995D01*
X148299499Y-103568995D01*
X148326418Y-103704322D01*
X148326421Y-103704332D01*
X148379221Y-103831804D01*
X148379228Y-103831817D01*
X148455885Y-103946541D01*
X148455888Y-103946545D01*
X148553454Y-104044111D01*
X148553458Y-104044114D01*
X148668182Y-104120771D01*
X148668195Y-104120778D01*
X148795667Y-104173578D01*
X148795672Y-104173580D01*
X148795676Y-104173580D01*
X148795677Y-104173581D01*
X148931004Y-104200500D01*
X148931007Y-104200500D01*
X149068995Y-104200500D01*
X149160041Y-104182389D01*
X149204328Y-104173580D01*
X149331811Y-104120775D01*
X149446542Y-104044114D01*
X149544114Y-103946542D01*
X149620775Y-103831811D01*
X149673580Y-103704328D01*
X149700500Y-103568995D01*
X156299499Y-103568995D01*
X156326418Y-103704322D01*
X156326421Y-103704332D01*
X156379221Y-103831804D01*
X156379228Y-103831817D01*
X156455885Y-103946541D01*
X156455888Y-103946545D01*
X156553454Y-104044111D01*
X156553458Y-104044114D01*
X156668182Y-104120771D01*
X156668195Y-104120778D01*
X156795667Y-104173578D01*
X156795672Y-104173580D01*
X156795676Y-104173580D01*
X156795677Y-104173581D01*
X156931004Y-104200500D01*
X156931007Y-104200500D01*
X157068995Y-104200500D01*
X157160041Y-104182389D01*
X157204328Y-104173580D01*
X157331811Y-104120775D01*
X157446542Y-104044114D01*
X157544114Y-103946542D01*
X157620775Y-103831811D01*
X157673580Y-103704328D01*
X157700500Y-103568993D01*
X157700500Y-103431007D01*
X157700500Y-103431004D01*
X157673581Y-103295677D01*
X157673580Y-103295676D01*
X157673580Y-103295672D01*
X157673578Y-103295667D01*
X157620778Y-103168195D01*
X157620771Y-103168182D01*
X157544114Y-103053458D01*
X157544111Y-103053454D01*
X157446545Y-102955888D01*
X157446541Y-102955885D01*
X157331817Y-102879228D01*
X157331804Y-102879221D01*
X157204332Y-102826421D01*
X157204322Y-102826418D01*
X157068995Y-102799500D01*
X157068993Y-102799500D01*
X156931007Y-102799500D01*
X156931005Y-102799500D01*
X156795677Y-102826418D01*
X156795667Y-102826421D01*
X156668195Y-102879221D01*
X156668182Y-102879228D01*
X156553458Y-102955885D01*
X156553454Y-102955888D01*
X156455888Y-103053454D01*
X156455885Y-103053458D01*
X156379228Y-103168182D01*
X156379221Y-103168195D01*
X156326421Y-103295667D01*
X156326418Y-103295677D01*
X156299500Y-103431004D01*
X156299500Y-103431007D01*
X156299500Y-103568993D01*
X156299500Y-103568995D01*
X156299499Y-103568995D01*
X149700500Y-103568995D01*
X149700500Y-103568993D01*
X149700500Y-103431007D01*
X149700500Y-103431004D01*
X149673581Y-103295677D01*
X149673580Y-103295676D01*
X149673580Y-103295672D01*
X149673578Y-103295667D01*
X149620778Y-103168195D01*
X149620771Y-103168182D01*
X149544114Y-103053458D01*
X149544111Y-103053454D01*
X149446545Y-102955888D01*
X149446541Y-102955885D01*
X149331817Y-102879228D01*
X149331804Y-102879221D01*
X149204332Y-102826421D01*
X149204322Y-102826418D01*
X149068995Y-102799500D01*
X149068993Y-102799500D01*
X148931007Y-102799500D01*
X148931005Y-102799500D01*
X148795677Y-102826418D01*
X148795667Y-102826421D01*
X148668195Y-102879221D01*
X148668182Y-102879228D01*
X148553458Y-102955885D01*
X148553454Y-102955888D01*
X148455888Y-103053454D01*
X148455885Y-103053458D01*
X148379228Y-103168182D01*
X148379221Y-103168195D01*
X148326421Y-103295667D01*
X148326418Y-103295677D01*
X148299500Y-103431004D01*
X148299500Y-103431007D01*
X148299500Y-103568993D01*
X148299500Y-103568995D01*
X148299499Y-103568995D01*
X126000000Y-103568995D01*
X126000000Y-101968995D01*
X145299499Y-101968995D01*
X145326418Y-102104322D01*
X145326421Y-102104332D01*
X145379221Y-102231804D01*
X145379228Y-102231817D01*
X145455885Y-102346541D01*
X145455888Y-102346545D01*
X145553454Y-102444111D01*
X145553458Y-102444114D01*
X145668182Y-102520771D01*
X145668195Y-102520778D01*
X145795667Y-102573578D01*
X145795672Y-102573580D01*
X145795676Y-102573580D01*
X145795677Y-102573581D01*
X145931004Y-102600500D01*
X145931007Y-102600500D01*
X146068995Y-102600500D01*
X146160041Y-102582389D01*
X146204328Y-102573580D01*
X146331811Y-102520775D01*
X146431109Y-102454425D01*
X146497786Y-102433548D01*
X146565166Y-102452032D01*
X146568889Y-102454425D01*
X146668189Y-102520775D01*
X146668191Y-102520776D01*
X146668195Y-102520778D01*
X146795667Y-102573578D01*
X146795672Y-102573580D01*
X146795676Y-102573580D01*
X146795677Y-102573581D01*
X146931004Y-102600500D01*
X146931007Y-102600500D01*
X147068995Y-102600500D01*
X147160041Y-102582389D01*
X147204328Y-102573580D01*
X147331811Y-102520775D01*
X147446542Y-102444114D01*
X147544114Y-102346542D01*
X147620775Y-102231811D01*
X147673580Y-102104328D01*
X147700500Y-101968993D01*
X147700500Y-101831007D01*
X147700500Y-101831004D01*
X147673581Y-101695677D01*
X147673580Y-101695676D01*
X147673580Y-101695672D01*
X147673578Y-101695667D01*
X147620778Y-101568195D01*
X147620771Y-101568182D01*
X147544114Y-101453458D01*
X147544111Y-101453454D01*
X147446545Y-101355888D01*
X147446541Y-101355885D01*
X147331817Y-101279228D01*
X147331804Y-101279221D01*
X147204332Y-101226421D01*
X147204322Y-101226418D01*
X147068995Y-101199500D01*
X147068993Y-101199500D01*
X146931007Y-101199500D01*
X146931005Y-101199500D01*
X146795677Y-101226418D01*
X146795667Y-101226421D01*
X146668195Y-101279221D01*
X146668182Y-101279228D01*
X146568891Y-101345573D01*
X146502213Y-101366451D01*
X146434833Y-101347966D01*
X146431109Y-101345573D01*
X146331817Y-101279228D01*
X146331804Y-101279221D01*
X146204332Y-101226421D01*
X146204322Y-101226418D01*
X146068995Y-101199500D01*
X146068993Y-101199500D01*
X145931007Y-101199500D01*
X145931005Y-101199500D01*
X145795677Y-101226418D01*
X145795667Y-101226421D01*
X145668195Y-101279221D01*
X145668182Y-101279228D01*
X145553458Y-101355885D01*
X145553454Y-101355888D01*
X145455888Y-101453454D01*
X145455885Y-101453458D01*
X145379228Y-101568182D01*
X145379221Y-101568195D01*
X145326421Y-101695667D01*
X145326418Y-101695677D01*
X145299500Y-101831004D01*
X145299500Y-101831007D01*
X145299500Y-101968993D01*
X145299500Y-101968995D01*
X145299499Y-101968995D01*
X126000000Y-101968995D01*
X126000000Y-95568995D01*
X138799499Y-95568995D01*
X138826418Y-95704322D01*
X138826421Y-95704332D01*
X138879221Y-95831804D01*
X138879228Y-95831817D01*
X138945573Y-95931109D01*
X138966451Y-95997787D01*
X138947966Y-96065167D01*
X138945573Y-96068891D01*
X138879228Y-96168182D01*
X138879221Y-96168195D01*
X138826421Y-96295667D01*
X138826418Y-96295677D01*
X138799500Y-96431004D01*
X138799500Y-96431007D01*
X138799500Y-96568993D01*
X138799500Y-96568995D01*
X138799499Y-96568995D01*
X138826418Y-96704322D01*
X138826421Y-96704332D01*
X138879221Y-96831804D01*
X138879228Y-96831817D01*
X138955885Y-96946541D01*
X138955888Y-96946545D01*
X139053454Y-97044111D01*
X139053458Y-97044114D01*
X139168182Y-97120771D01*
X139168195Y-97120778D01*
X139295667Y-97173578D01*
X139295672Y-97173580D01*
X139295676Y-97173580D01*
X139295677Y-97173581D01*
X139431004Y-97200500D01*
X139431007Y-97200500D01*
X139568995Y-97200500D01*
X139660041Y-97182389D01*
X139704328Y-97173580D01*
X139831811Y-97120775D01*
X139946542Y-97044114D01*
X140044114Y-96946542D01*
X140120775Y-96831811D01*
X140173580Y-96704328D01*
X140200500Y-96568993D01*
X140200500Y-96431007D01*
X140200500Y-96431004D01*
X140173581Y-96295677D01*
X140173580Y-96295676D01*
X140173580Y-96295672D01*
X140173578Y-96295667D01*
X140120778Y-96168195D01*
X140120776Y-96168191D01*
X140120775Y-96168189D01*
X140054425Y-96068890D01*
X140033548Y-96002214D01*
X140052032Y-95934834D01*
X140054426Y-95931109D01*
X140120775Y-95831811D01*
X140173580Y-95704328D01*
X140200500Y-95568993D01*
X140200500Y-95431007D01*
X140200500Y-95431004D01*
X140173581Y-95295677D01*
X140173580Y-95295676D01*
X140173580Y-95295672D01*
X140173578Y-95295667D01*
X140120778Y-95168195D01*
X140120771Y-95168182D01*
X140044114Y-95053458D01*
X140044111Y-95053454D01*
X139946545Y-94955888D01*
X139946541Y-94955885D01*
X139831817Y-94879228D01*
X139831804Y-94879221D01*
X139704332Y-94826421D01*
X139704322Y-94826418D01*
X139568995Y-94799500D01*
X139568993Y-94799500D01*
X139431007Y-94799500D01*
X139431005Y-94799500D01*
X139295677Y-94826418D01*
X139295667Y-94826421D01*
X139168195Y-94879221D01*
X139168182Y-94879228D01*
X139053458Y-94955885D01*
X139053454Y-94955888D01*
X138955888Y-95053454D01*
X138955885Y-95053458D01*
X138879228Y-95168182D01*
X138879221Y-95168195D01*
X138826421Y-95295667D01*
X138826418Y-95295677D01*
X138799500Y-95431004D01*
X138799500Y-95431007D01*
X138799500Y-95568993D01*
X138799500Y-95568995D01*
X138799499Y-95568995D01*
X126000000Y-95568995D01*
X126000000Y-90778995D01*
X140799499Y-90778995D01*
X140826418Y-90914322D01*
X140826420Y-90914328D01*
X140879225Y-91041811D01*
X140881758Y-91046550D01*
X140895998Y-91114953D01*
X140881758Y-91163450D01*
X140879225Y-91168188D01*
X140826420Y-91295671D01*
X140826418Y-91295677D01*
X140799500Y-91431004D01*
X140799500Y-91431007D01*
X140799500Y-91568993D01*
X140799500Y-91568995D01*
X140799499Y-91568995D01*
X140826418Y-91704322D01*
X140826421Y-91704332D01*
X140879221Y-91831804D01*
X140879228Y-91831817D01*
X140955885Y-91946541D01*
X140955888Y-91946545D01*
X141053454Y-92044111D01*
X141053458Y-92044114D01*
X141168182Y-92120771D01*
X141168195Y-92120778D01*
X141295667Y-92173578D01*
X141295672Y-92173580D01*
X141295676Y-92173580D01*
X141295677Y-92173581D01*
X141431004Y-92200500D01*
X141431007Y-92200500D01*
X141568995Y-92200500D01*
X141660041Y-92182389D01*
X141704328Y-92173580D01*
X141831811Y-92120775D01*
X141946542Y-92044114D01*
X142044114Y-91946542D01*
X142120775Y-91831811D01*
X142173580Y-91704328D01*
X142200500Y-91568993D01*
X142200500Y-91431007D01*
X142200500Y-91431004D01*
X142173581Y-91295677D01*
X142173580Y-91295676D01*
X142173580Y-91295672D01*
X142120775Y-91168189D01*
X142120771Y-91168183D01*
X142118248Y-91163463D01*
X142104000Y-91095061D01*
X142118248Y-91046537D01*
X142120768Y-91041820D01*
X142120775Y-91041811D01*
X142173580Y-90914328D01*
X142200500Y-90778993D01*
X142200500Y-90641007D01*
X142200500Y-90641004D01*
X142173581Y-90505677D01*
X142173580Y-90505676D01*
X142173580Y-90505672D01*
X142173578Y-90505667D01*
X142120778Y-90378195D01*
X142120771Y-90378182D01*
X142044114Y-90263458D01*
X142044111Y-90263454D01*
X141946545Y-90165888D01*
X141946541Y-90165885D01*
X141831817Y-90089228D01*
X141831804Y-90089221D01*
X141704332Y-90036421D01*
X141704322Y-90036418D01*
X141568995Y-90009500D01*
X141568993Y-90009500D01*
X141431007Y-90009500D01*
X141431005Y-90009500D01*
X141295677Y-90036418D01*
X141295667Y-90036421D01*
X141168195Y-90089221D01*
X141168182Y-90089228D01*
X141053458Y-90165885D01*
X141053454Y-90165888D01*
X140955888Y-90263454D01*
X140955885Y-90263458D01*
X140879228Y-90378182D01*
X140879221Y-90378195D01*
X140826421Y-90505667D01*
X140826418Y-90505677D01*
X140799500Y-90641004D01*
X140799500Y-90641007D01*
X140799500Y-90778993D01*
X140799500Y-90778995D01*
X140799499Y-90778995D01*
X126000000Y-90778995D01*
X126000000Y-86068995D01*
X152724999Y-86068995D01*
X152751918Y-86204322D01*
X152751921Y-86204332D01*
X152804721Y-86331804D01*
X152804728Y-86331817D01*
X152881385Y-86446541D01*
X152881388Y-86446545D01*
X152978954Y-86544111D01*
X152978958Y-86544114D01*
X153093682Y-86620771D01*
X153093695Y-86620778D01*
X153221167Y-86673578D01*
X153221172Y-86673580D01*
X153221176Y-86673580D01*
X153221177Y-86673581D01*
X153356504Y-86700500D01*
X153356507Y-86700500D01*
X153494495Y-86700500D01*
X153585541Y-86682389D01*
X153629828Y-86673580D01*
X153757311Y-86620775D01*
X153872042Y-86544114D01*
X153969614Y-86446542D01*
X154046275Y-86331811D01*
X154099080Y-86204328D01*
X154126000Y-86068993D01*
X154126000Y-85931007D01*
X154126000Y-85931004D01*
X154099081Y-85795677D01*
X154099080Y-85795676D01*
X154099080Y-85795672D01*
X154098433Y-85794111D01*
X154046278Y-85668195D01*
X154046271Y-85668182D01*
X153969614Y-85553458D01*
X153969611Y-85553454D01*
X153872045Y-85455888D01*
X153872041Y-85455885D01*
X153757317Y-85379228D01*
X153757304Y-85379221D01*
X153629832Y-85326421D01*
X153629822Y-85326418D01*
X153494495Y-85299500D01*
X153494493Y-85299500D01*
X153356507Y-85299500D01*
X153356505Y-85299500D01*
X153221177Y-85326418D01*
X153221167Y-85326421D01*
X153093695Y-85379221D01*
X153093682Y-85379228D01*
X152978958Y-85455885D01*
X152978954Y-85455888D01*
X152881388Y-85553454D01*
X152881385Y-85553458D01*
X152804728Y-85668182D01*
X152804721Y-85668195D01*
X152751921Y-85795667D01*
X152751918Y-85795677D01*
X152725000Y-85931004D01*
X152725000Y-85931007D01*
X152725000Y-86068993D01*
X152725000Y-86068995D01*
X152724999Y-86068995D01*
X126000000Y-86068995D01*
X126000000Y-85318995D01*
X150549499Y-85318995D01*
X150576418Y-85454322D01*
X150576421Y-85454332D01*
X150629221Y-85581804D01*
X150629228Y-85581817D01*
X150705885Y-85696541D01*
X150705888Y-85696545D01*
X150803454Y-85794111D01*
X150803458Y-85794114D01*
X150918182Y-85870771D01*
X150918195Y-85870778D01*
X151045667Y-85923578D01*
X151045672Y-85923580D01*
X151045676Y-85923580D01*
X151045677Y-85923581D01*
X151181004Y-85950500D01*
X151181007Y-85950500D01*
X151318995Y-85950500D01*
X151417005Y-85931004D01*
X151454328Y-85923580D01*
X151581811Y-85870775D01*
X151696542Y-85794114D01*
X151794114Y-85696542D01*
X151870775Y-85581811D01*
X151923580Y-85454328D01*
X151932389Y-85410041D01*
X151950500Y-85318995D01*
X151950500Y-85181004D01*
X151923581Y-85045677D01*
X151923580Y-85045676D01*
X151923580Y-85045672D01*
X151923578Y-85045667D01*
X151870778Y-84918195D01*
X151870771Y-84918182D01*
X151794114Y-84803458D01*
X151794111Y-84803454D01*
X151696545Y-84705888D01*
X151696541Y-84705885D01*
X151581817Y-84629228D01*
X151581804Y-84629221D01*
X151454332Y-84576421D01*
X151454322Y-84576418D01*
X151318995Y-84549500D01*
X151318993Y-84549500D01*
X151181007Y-84549500D01*
X151181005Y-84549500D01*
X151045677Y-84576418D01*
X151045667Y-84576421D01*
X150918195Y-84629221D01*
X150918182Y-84629228D01*
X150803458Y-84705885D01*
X150803454Y-84705888D01*
X150705888Y-84803454D01*
X150705885Y-84803458D01*
X150629228Y-84918182D01*
X150629221Y-84918195D01*
X150576421Y-85045667D01*
X150576418Y-85045677D01*
X150549500Y-85181004D01*
X150549500Y-85181007D01*
X150549500Y-85318993D01*
X150549500Y-85318995D01*
X150549499Y-85318995D01*
X126000000Y-85318995D01*
X126000000Y-80624000D01*
X126019685Y-80556961D01*
X126072489Y-80511206D01*
X126124000Y-80500000D01*
X133500000Y-80500000D01*
X132000000Y-82000000D01*
G37*
%TD.AperFunction*%
%TD*%
%TA.AperFunction,Conductor*%
%TO.N,5V*%
G36*
X186004418Y-50400816D02*
G01*
X186143610Y-50410771D01*
X186209073Y-50435188D01*
X186250945Y-50491121D01*
X186258763Y-50534455D01*
X186258763Y-57376000D01*
X186239078Y-57443039D01*
X186186274Y-57488794D01*
X186134763Y-57500000D01*
X183536807Y-57500000D01*
X183469768Y-57480315D01*
X183449126Y-57463681D01*
X183442466Y-57457021D01*
X183442464Y-57457019D01*
X183281694Y-57340213D01*
X183124667Y-57260203D01*
X183073872Y-57212229D01*
X183057077Y-57144408D01*
X183079614Y-57078273D01*
X183124669Y-57039234D01*
X183281422Y-56959364D01*
X183318716Y-56932268D01*
X182704095Y-56317647D01*
X182791571Y-56294208D01*
X182892930Y-56235689D01*
X182975689Y-56152930D01*
X183034208Y-56051571D01*
X183057647Y-55964094D01*
X183672268Y-56578715D01*
X183699362Y-56541425D01*
X183789542Y-56364437D01*
X183850924Y-56175523D01*
X183850924Y-56175520D01*
X183882000Y-55979321D01*
X183882000Y-55780678D01*
X183850924Y-55584479D01*
X183850924Y-55584476D01*
X183789542Y-55395562D01*
X183699358Y-55218567D01*
X183672268Y-55181283D01*
X183057647Y-55795904D01*
X183034208Y-55708429D01*
X182975689Y-55607070D01*
X182892930Y-55524311D01*
X182791571Y-55465792D01*
X182704094Y-55442352D01*
X183318716Y-54827731D01*
X183318715Y-54827730D01*
X183281432Y-54800641D01*
X183104437Y-54710457D01*
X182915522Y-54649075D01*
X182719321Y-54618000D01*
X182520679Y-54618000D01*
X182324479Y-54649075D01*
X182324476Y-54649075D01*
X182135562Y-54710457D01*
X181958564Y-54800643D01*
X181921283Y-54827729D01*
X181921282Y-54827730D01*
X182535906Y-55442352D01*
X182448429Y-55465792D01*
X182347070Y-55524311D01*
X182264311Y-55607070D01*
X182205792Y-55708429D01*
X182182352Y-55795905D01*
X181567730Y-55181282D01*
X181567729Y-55181283D01*
X181540643Y-55218564D01*
X181450457Y-55395562D01*
X181389075Y-55584476D01*
X181389075Y-55584479D01*
X181358000Y-55780678D01*
X181358000Y-55979321D01*
X181389075Y-56175520D01*
X181389075Y-56175523D01*
X181450457Y-56364437D01*
X181540641Y-56541432D01*
X181567730Y-56578715D01*
X181567731Y-56578716D01*
X182182352Y-55964094D01*
X182205792Y-56051571D01*
X182264311Y-56152930D01*
X182347070Y-56235689D01*
X182448429Y-56294208D01*
X182535905Y-56317647D01*
X181921283Y-56932268D01*
X181921283Y-56932269D01*
X181958567Y-56959358D01*
X182115331Y-57039234D01*
X182166127Y-57087209D01*
X182182922Y-57155030D01*
X182160384Y-57221165D01*
X182115331Y-57260204D01*
X181958305Y-57340213D01*
X181797533Y-57457021D01*
X181790874Y-57463681D01*
X181729551Y-57497166D01*
X181703193Y-57500000D01*
X168296807Y-57500000D01*
X168229768Y-57480315D01*
X168209126Y-57463681D01*
X168202466Y-57457021D01*
X168202464Y-57457019D01*
X168041694Y-57340213D01*
X167885218Y-57260484D01*
X167834423Y-57212510D01*
X167817628Y-57144689D01*
X167840165Y-57078554D01*
X167885218Y-57039515D01*
X168041694Y-56959787D01*
X168202464Y-56842981D01*
X168342981Y-56702464D01*
X168459787Y-56541694D01*
X168550005Y-56364632D01*
X168611413Y-56175636D01*
X168642500Y-55979361D01*
X168642500Y-55780639D01*
X168611413Y-55584364D01*
X168558416Y-55421254D01*
X168550006Y-55395370D01*
X168550005Y-55395367D01*
X168476728Y-55251555D01*
X168459787Y-55218306D01*
X168342981Y-55057536D01*
X168202464Y-54917019D01*
X168041694Y-54800213D01*
X167864632Y-54709994D01*
X167864629Y-54709993D01*
X167675637Y-54648587D01*
X167577498Y-54633043D01*
X167479361Y-54617500D01*
X167280639Y-54617500D01*
X167215214Y-54627862D01*
X167084362Y-54648587D01*
X166895370Y-54709993D01*
X166895367Y-54709994D01*
X166718305Y-54800213D01*
X166557533Y-54917021D01*
X166417021Y-55057533D01*
X166300213Y-55218305D01*
X166209994Y-55395367D01*
X166209993Y-55395370D01*
X166148587Y-55584362D01*
X166117500Y-55780639D01*
X166117500Y-55979360D01*
X166148587Y-56175637D01*
X166209993Y-56364629D01*
X166209994Y-56364632D01*
X166300076Y-56541425D01*
X166300213Y-56541694D01*
X166417019Y-56702464D01*
X166557536Y-56842981D01*
X166718306Y-56959787D01*
X166836832Y-57020179D01*
X166874780Y-57039515D01*
X166925576Y-57087490D01*
X166942371Y-57155311D01*
X166919833Y-57221446D01*
X166874780Y-57260485D01*
X166718305Y-57340213D01*
X166557533Y-57457021D01*
X166550874Y-57463681D01*
X166489551Y-57497166D01*
X166463193Y-57500000D01*
X124382763Y-57500000D01*
X124315724Y-57480315D01*
X124269969Y-57427511D01*
X124258763Y-57376000D01*
X124258763Y-53102155D01*
X126625000Y-53102155D01*
X126625000Y-53750000D01*
X127541988Y-53750000D01*
X127509075Y-53807007D01*
X127475000Y-53934174D01*
X127475000Y-54065826D01*
X127509075Y-54192993D01*
X127541988Y-54250000D01*
X126625000Y-54250000D01*
X126625000Y-54897844D01*
X126631401Y-54957372D01*
X126631403Y-54957379D01*
X126681645Y-55092086D01*
X126681649Y-55092093D01*
X126767809Y-55207187D01*
X126767812Y-55207190D01*
X126882906Y-55293350D01*
X126882913Y-55293354D01*
X127017620Y-55343596D01*
X127017627Y-55343598D01*
X127077155Y-55349999D01*
X127077172Y-55350000D01*
X127725000Y-55350000D01*
X127725000Y-54433012D01*
X127782007Y-54465925D01*
X127909174Y-54500000D01*
X128040826Y-54500000D01*
X128167993Y-54465925D01*
X128225000Y-54433012D01*
X128225000Y-55350000D01*
X128872828Y-55350000D01*
X128872844Y-55349999D01*
X128932372Y-55343598D01*
X128932379Y-55343596D01*
X129067086Y-55293354D01*
X129067093Y-55293350D01*
X129182187Y-55207190D01*
X129182190Y-55207187D01*
X129268350Y-55092093D01*
X129268354Y-55092086D01*
X129317422Y-54960529D01*
X129359293Y-54904595D01*
X129424757Y-54880178D01*
X129493030Y-54895030D01*
X129521285Y-54916181D01*
X129635213Y-55030109D01*
X129807179Y-55155048D01*
X129807181Y-55155049D01*
X129807184Y-55155051D01*
X129996588Y-55251557D01*
X130198757Y-55317246D01*
X130408713Y-55350500D01*
X130408714Y-55350500D01*
X130621286Y-55350500D01*
X130621287Y-55350500D01*
X130831243Y-55317246D01*
X131033412Y-55251557D01*
X131222816Y-55155051D01*
X131309471Y-55092093D01*
X131394786Y-55030109D01*
X131394788Y-55030106D01*
X131394792Y-55030104D01*
X131545104Y-54879792D01*
X131545106Y-54879788D01*
X131545109Y-54879786D01*
X131670048Y-54707820D01*
X131670047Y-54707820D01*
X131670051Y-54707816D01*
X131766557Y-54518412D01*
X131832246Y-54316243D01*
X131865500Y-54106287D01*
X131865500Y-53893713D01*
X131832246Y-53683757D01*
X131766557Y-53481588D01*
X131670051Y-53292184D01*
X131670047Y-53292179D01*
X131670043Y-53292172D01*
X131624913Y-53230055D01*
X143203400Y-53230055D01*
X143203400Y-53877900D01*
X144120388Y-53877900D01*
X144087475Y-53934907D01*
X144053400Y-54062074D01*
X144053400Y-54193726D01*
X144087475Y-54320893D01*
X144120388Y-54377900D01*
X143203400Y-54377900D01*
X143203400Y-55025744D01*
X143209801Y-55085272D01*
X143209803Y-55085279D01*
X143260045Y-55219986D01*
X143260049Y-55219993D01*
X143346209Y-55335087D01*
X143346212Y-55335090D01*
X143461306Y-55421250D01*
X143461313Y-55421254D01*
X143596020Y-55471496D01*
X143596027Y-55471498D01*
X143655555Y-55477899D01*
X143655572Y-55477900D01*
X144303400Y-55477900D01*
X144303400Y-54560912D01*
X144360407Y-54593825D01*
X144487574Y-54627900D01*
X144619226Y-54627900D01*
X144746393Y-54593825D01*
X144803400Y-54560912D01*
X144803400Y-55477900D01*
X145451228Y-55477900D01*
X145451244Y-55477899D01*
X145510772Y-55471498D01*
X145510779Y-55471496D01*
X145645486Y-55421254D01*
X145645493Y-55421250D01*
X145760587Y-55335090D01*
X145760590Y-55335087D01*
X145846750Y-55219993D01*
X145846754Y-55219986D01*
X145895822Y-55088429D01*
X145937693Y-55032495D01*
X146003157Y-55008078D01*
X146071430Y-55022930D01*
X146099685Y-55044081D01*
X146213613Y-55158009D01*
X146385579Y-55282948D01*
X146385581Y-55282949D01*
X146385584Y-55282951D01*
X146574988Y-55379457D01*
X146777157Y-55445146D01*
X146987113Y-55478400D01*
X146987114Y-55478400D01*
X147199686Y-55478400D01*
X147199687Y-55478400D01*
X147409643Y-55445146D01*
X147611812Y-55379457D01*
X147801216Y-55282951D01*
X147823189Y-55266986D01*
X147973186Y-55158009D01*
X147973188Y-55158006D01*
X147973192Y-55158004D01*
X148123504Y-55007692D01*
X148123506Y-55007688D01*
X148123509Y-55007686D01*
X148248448Y-54835720D01*
X148248447Y-54835720D01*
X148248451Y-54835716D01*
X148344957Y-54646312D01*
X148410646Y-54444143D01*
X148443900Y-54234187D01*
X148443900Y-54021613D01*
X148410646Y-53811657D01*
X148344957Y-53609488D01*
X148248451Y-53420084D01*
X148248449Y-53420081D01*
X148248448Y-53420079D01*
X148123509Y-53248113D01*
X147973186Y-53097790D01*
X147801220Y-52972851D01*
X147611814Y-52876344D01*
X147611813Y-52876343D01*
X147611812Y-52876343D01*
X147409643Y-52810654D01*
X147409641Y-52810653D01*
X147409640Y-52810653D01*
X147248357Y-52785108D01*
X147199687Y-52777400D01*
X146987113Y-52777400D01*
X146938442Y-52785108D01*
X146777160Y-52810653D01*
X146574985Y-52876344D01*
X146385579Y-52972851D01*
X146213615Y-53097789D01*
X146099685Y-53211719D01*
X146038362Y-53245203D01*
X145968670Y-53240219D01*
X145912737Y-53198347D01*
X145895822Y-53167370D01*
X145846754Y-53035813D01*
X145846750Y-53035806D01*
X145760590Y-52920712D01*
X145760587Y-52920709D01*
X145645493Y-52834549D01*
X145645486Y-52834545D01*
X145510779Y-52784303D01*
X145510772Y-52784301D01*
X145451244Y-52777900D01*
X144803400Y-52777900D01*
X144803400Y-53694888D01*
X144746393Y-53661975D01*
X144619226Y-53627900D01*
X144487574Y-53627900D01*
X144360407Y-53661975D01*
X144303400Y-53694888D01*
X144303400Y-52777900D01*
X143655555Y-52777900D01*
X143596027Y-52784301D01*
X143596020Y-52784303D01*
X143461313Y-52834545D01*
X143461306Y-52834549D01*
X143346212Y-52920709D01*
X143346209Y-52920712D01*
X143260049Y-53035806D01*
X143260045Y-53035813D01*
X143209803Y-53170520D01*
X143209801Y-53170527D01*
X143203400Y-53230055D01*
X131624913Y-53230055D01*
X131545109Y-53120213D01*
X131394786Y-52969890D01*
X131222820Y-52844951D01*
X131033414Y-52748444D01*
X131033413Y-52748443D01*
X131033412Y-52748443D01*
X130831243Y-52682754D01*
X130831241Y-52682753D01*
X130831240Y-52682753D01*
X130669957Y-52657208D01*
X130621287Y-52649500D01*
X130408713Y-52649500D01*
X130360042Y-52657208D01*
X130198760Y-52682753D01*
X129996585Y-52748444D01*
X129807179Y-52844951D01*
X129635215Y-52969889D01*
X129521285Y-53083819D01*
X129459962Y-53117303D01*
X129390270Y-53112319D01*
X129334337Y-53070447D01*
X129317422Y-53039470D01*
X129268354Y-52907913D01*
X129268350Y-52907906D01*
X129182190Y-52792812D01*
X129182187Y-52792809D01*
X129067093Y-52706649D01*
X129067086Y-52706645D01*
X128932379Y-52656403D01*
X128932372Y-52656401D01*
X128872844Y-52650000D01*
X128225000Y-52650000D01*
X128225000Y-53566988D01*
X128167993Y-53534075D01*
X128040826Y-53500000D01*
X127909174Y-53500000D01*
X127782007Y-53534075D01*
X127725000Y-53566988D01*
X127725000Y-52650000D01*
X127077155Y-52650000D01*
X127017627Y-52656401D01*
X127017620Y-52656403D01*
X126882913Y-52706645D01*
X126882906Y-52706649D01*
X126767812Y-52792809D01*
X126767809Y-52792812D01*
X126681649Y-52907906D01*
X126681645Y-52907913D01*
X126631403Y-53042620D01*
X126631401Y-53042627D01*
X126625000Y-53102155D01*
X124258763Y-53102155D01*
X124258763Y-50524500D01*
X124278448Y-50457461D01*
X124331252Y-50411706D01*
X124382763Y-50400500D01*
X185942417Y-50400500D01*
X185995572Y-50400500D01*
X186004418Y-50400816D01*
G37*
%TD.AperFunction*%
%TD*%
%TA.AperFunction,Conductor*%
%TO.N,3V3*%
G36*
X181470443Y-60132070D02*
G01*
X181526376Y-60173942D01*
X181550793Y-60239406D01*
X181537594Y-60304547D01*
X181450457Y-60475562D01*
X181389075Y-60664476D01*
X181389075Y-60664479D01*
X181358000Y-60860678D01*
X181358000Y-61059321D01*
X181389075Y-61255520D01*
X181389075Y-61255523D01*
X181450457Y-61444437D01*
X181540641Y-61621432D01*
X181567730Y-61658715D01*
X182182352Y-61044093D01*
X182205792Y-61131571D01*
X182264311Y-61232930D01*
X182347070Y-61315689D01*
X182448429Y-61374208D01*
X182535904Y-61397647D01*
X181921282Y-62012269D01*
X181923232Y-62037039D01*
X181908867Y-62105416D01*
X181894873Y-62126149D01*
X172037181Y-73955383D01*
X171979142Y-73994282D01*
X171941922Y-74000000D01*
X170999991Y-74000000D01*
X146499999Y-74500000D01*
X146499998Y-74500000D01*
X145249999Y-75249999D01*
X145249998Y-75250000D01*
X144412181Y-76087818D01*
X144350858Y-76121303D01*
X144281166Y-76116319D01*
X144225233Y-76074447D01*
X144200816Y-76008983D01*
X144200500Y-76000137D01*
X144200500Y-75931004D01*
X144173581Y-75795677D01*
X144173580Y-75795676D01*
X144173580Y-75795672D01*
X144173578Y-75795667D01*
X144120778Y-75668195D01*
X144120771Y-75668182D01*
X144044114Y-75553458D01*
X144044111Y-75553454D01*
X143946545Y-75455888D01*
X143946541Y-75455885D01*
X143831817Y-75379228D01*
X143831804Y-75379221D01*
X143704332Y-75326421D01*
X143704322Y-75326418D01*
X143568995Y-75299500D01*
X143568993Y-75299500D01*
X143431007Y-75299500D01*
X143431005Y-75299500D01*
X143295677Y-75326418D01*
X143295667Y-75326421D01*
X143168195Y-75379221D01*
X143168182Y-75379228D01*
X143053458Y-75455885D01*
X143053454Y-75455888D01*
X142955888Y-75553454D01*
X142955885Y-75553458D01*
X142879228Y-75668182D01*
X142879221Y-75668195D01*
X142826421Y-75795667D01*
X142826418Y-75795677D01*
X142799500Y-75931004D01*
X142799500Y-75931007D01*
X142799500Y-76068993D01*
X142799500Y-76068995D01*
X142799499Y-76068995D01*
X142826418Y-76204322D01*
X142826421Y-76204332D01*
X142879221Y-76331804D01*
X142879228Y-76331817D01*
X142955885Y-76446541D01*
X142955888Y-76446545D01*
X143053454Y-76544111D01*
X143053458Y-76544114D01*
X143168182Y-76620771D01*
X143168195Y-76620778D01*
X143253010Y-76655909D01*
X143295672Y-76673580D01*
X143295676Y-76673580D01*
X143295677Y-76673581D01*
X143431004Y-76700500D01*
X143500137Y-76700500D01*
X143567176Y-76720185D01*
X143612931Y-76772989D01*
X143622875Y-76842147D01*
X143593850Y-76905703D01*
X143587818Y-76912181D01*
X139999999Y-80499999D01*
X140000000Y-80500000D01*
X136000000Y-84500000D01*
X136000000Y-81500000D01*
X135500000Y-82000000D01*
X132000000Y-82000000D01*
X142963681Y-71036319D01*
X143025004Y-71002834D01*
X143051362Y-71000000D01*
X165993500Y-71000000D01*
X166060539Y-71019685D01*
X166106294Y-71072489D01*
X166117500Y-71124000D01*
X166117500Y-71219360D01*
X166148587Y-71415637D01*
X166209993Y-71604629D01*
X166209994Y-71604632D01*
X166300213Y-71781694D01*
X166417019Y-71942464D01*
X166557536Y-72082981D01*
X166718306Y-72199787D01*
X166805149Y-72244035D01*
X166895367Y-72290005D01*
X166895370Y-72290006D01*
X166989866Y-72320709D01*
X167084364Y-72351413D01*
X167280639Y-72382500D01*
X167280640Y-72382500D01*
X167479360Y-72382500D01*
X167479361Y-72382500D01*
X167675636Y-72351413D01*
X167864632Y-72290005D01*
X168041694Y-72199787D01*
X168202464Y-72082981D01*
X168342981Y-71942464D01*
X168459787Y-71781694D01*
X168550005Y-71604632D01*
X168611413Y-71415636D01*
X168642500Y-71219361D01*
X168642500Y-71124000D01*
X168662185Y-71056961D01*
X168714989Y-71011206D01*
X168766500Y-71000000D01*
X170500000Y-71000000D01*
X181339430Y-60160569D01*
X181400751Y-60127086D01*
X181470443Y-60132070D01*
G37*
%TD.AperFunction*%
%TD*%
%TA.AperFunction,Conductor*%
%TO.N,5V*%
G36*
X187542539Y-76019685D02*
G01*
X187588294Y-76072489D01*
X187599500Y-76124000D01*
X187599500Y-123995572D01*
X187599184Y-124004419D01*
X187583851Y-124218788D01*
X187581333Y-124236299D01*
X187536595Y-124441960D01*
X187531611Y-124458936D01*
X187458053Y-124656150D01*
X187450703Y-124672242D01*
X187349836Y-124856968D01*
X187340271Y-124871853D01*
X187214133Y-125040353D01*
X187202547Y-125053723D01*
X187053723Y-125202547D01*
X187040353Y-125214133D01*
X186871853Y-125340271D01*
X186856968Y-125349836D01*
X186672242Y-125450703D01*
X186656150Y-125458053D01*
X186458936Y-125531611D01*
X186441960Y-125536595D01*
X186236299Y-125581333D01*
X186218788Y-125583851D01*
X186023369Y-125597828D01*
X186004417Y-125599184D01*
X185995572Y-125599500D01*
X173624000Y-125599500D01*
X173556961Y-125579815D01*
X173511206Y-125527011D01*
X173500000Y-125475500D01*
X173500000Y-115933713D01*
X182649500Y-115933713D01*
X182649500Y-116146286D01*
X182682753Y-116356239D01*
X182748444Y-116558414D01*
X182844951Y-116747820D01*
X182969890Y-116919786D01*
X183120213Y-117070109D01*
X183292179Y-117195048D01*
X183292181Y-117195049D01*
X183292184Y-117195051D01*
X183481588Y-117291557D01*
X183683757Y-117357246D01*
X183893713Y-117390500D01*
X183893714Y-117390500D01*
X184106286Y-117390500D01*
X184106287Y-117390500D01*
X184316243Y-117357246D01*
X184518412Y-117291557D01*
X184707816Y-117195051D01*
X184729789Y-117179086D01*
X184879786Y-117070109D01*
X184879788Y-117070106D01*
X184879792Y-117070104D01*
X185030104Y-116919792D01*
X185030106Y-116919788D01*
X185030109Y-116919786D01*
X185155048Y-116747820D01*
X185155047Y-116747820D01*
X185155051Y-116747816D01*
X185251557Y-116558412D01*
X185317246Y-116356243D01*
X185350500Y-116146287D01*
X185350500Y-115933713D01*
X185317246Y-115723757D01*
X185251557Y-115521588D01*
X185155051Y-115332184D01*
X185155049Y-115332181D01*
X185155048Y-115332179D01*
X185030109Y-115160213D01*
X184916181Y-115046285D01*
X184882696Y-114984962D01*
X184887680Y-114915270D01*
X184929552Y-114859337D01*
X184960529Y-114842422D01*
X185092086Y-114793354D01*
X185092093Y-114793350D01*
X185207187Y-114707190D01*
X185207190Y-114707187D01*
X185293350Y-114592093D01*
X185293354Y-114592086D01*
X185343596Y-114457379D01*
X185343598Y-114457372D01*
X185349999Y-114397844D01*
X185350000Y-114397827D01*
X185350000Y-113750000D01*
X184433012Y-113750000D01*
X184465925Y-113692993D01*
X184500000Y-113565826D01*
X184500000Y-113434174D01*
X184465925Y-113307007D01*
X184433012Y-113250000D01*
X185350000Y-113250000D01*
X185350000Y-112602172D01*
X185349999Y-112602155D01*
X185343598Y-112542627D01*
X185343596Y-112542620D01*
X185293354Y-112407913D01*
X185293350Y-112407906D01*
X185207190Y-112292812D01*
X185207187Y-112292809D01*
X185092093Y-112206649D01*
X185092086Y-112206645D01*
X184957379Y-112156403D01*
X184957372Y-112156401D01*
X184897844Y-112150000D01*
X184250000Y-112150000D01*
X184250000Y-113066988D01*
X184192993Y-113034075D01*
X184065826Y-113000000D01*
X183934174Y-113000000D01*
X183807007Y-113034075D01*
X183750000Y-113066988D01*
X183750000Y-112150000D01*
X183102155Y-112150000D01*
X183042627Y-112156401D01*
X183042620Y-112156403D01*
X182907913Y-112206645D01*
X182907906Y-112206649D01*
X182792812Y-112292809D01*
X182792809Y-112292812D01*
X182706649Y-112407906D01*
X182706645Y-112407913D01*
X182656403Y-112542620D01*
X182656401Y-112542627D01*
X182650000Y-112602155D01*
X182650000Y-113250000D01*
X183566988Y-113250000D01*
X183534075Y-113307007D01*
X183500000Y-113434174D01*
X183500000Y-113565826D01*
X183534075Y-113692993D01*
X183566988Y-113750000D01*
X182650000Y-113750000D01*
X182650000Y-114397844D01*
X182656401Y-114457372D01*
X182656403Y-114457379D01*
X182706645Y-114592086D01*
X182706649Y-114592093D01*
X182792809Y-114707187D01*
X182792812Y-114707190D01*
X182907906Y-114793350D01*
X182907913Y-114793354D01*
X183039470Y-114842422D01*
X183095404Y-114884293D01*
X183119821Y-114949758D01*
X183104969Y-115018031D01*
X183083819Y-115046285D01*
X182969889Y-115160215D01*
X182844951Y-115332179D01*
X182748444Y-115521585D01*
X182682753Y-115723760D01*
X182649500Y-115933713D01*
X173500000Y-115933713D01*
X173500000Y-89658713D01*
X182649500Y-89658713D01*
X182649500Y-89871286D01*
X182682753Y-90081239D01*
X182748444Y-90283414D01*
X182844951Y-90472820D01*
X182969890Y-90644786D01*
X183120213Y-90795109D01*
X183292179Y-90920048D01*
X183292181Y-90920049D01*
X183292184Y-90920051D01*
X183481588Y-91016557D01*
X183683757Y-91082246D01*
X183893713Y-91115500D01*
X183893714Y-91115500D01*
X184106286Y-91115500D01*
X184106287Y-91115500D01*
X184316243Y-91082246D01*
X184518412Y-91016557D01*
X184707816Y-90920051D01*
X184729789Y-90904086D01*
X184879786Y-90795109D01*
X184879788Y-90795106D01*
X184879792Y-90795104D01*
X185030104Y-90644792D01*
X185030106Y-90644788D01*
X185030109Y-90644786D01*
X185155048Y-90472820D01*
X185155047Y-90472820D01*
X185155051Y-90472816D01*
X185251557Y-90283412D01*
X185317246Y-90081243D01*
X185350500Y-89871287D01*
X185350500Y-89658713D01*
X185317246Y-89448757D01*
X185251557Y-89246588D01*
X185155051Y-89057184D01*
X185155049Y-89057181D01*
X185155048Y-89057179D01*
X185030109Y-88885213D01*
X184916181Y-88771285D01*
X184882696Y-88709962D01*
X184887680Y-88640270D01*
X184929552Y-88584337D01*
X184960529Y-88567422D01*
X185092086Y-88518354D01*
X185092093Y-88518350D01*
X185207187Y-88432190D01*
X185207190Y-88432187D01*
X185293350Y-88317093D01*
X185293354Y-88317086D01*
X185343596Y-88182379D01*
X185343598Y-88182372D01*
X185349999Y-88122844D01*
X185350000Y-88122827D01*
X185350000Y-87475000D01*
X184433012Y-87475000D01*
X184465925Y-87417993D01*
X184500000Y-87290826D01*
X184500000Y-87159174D01*
X184465925Y-87032007D01*
X184433012Y-86975000D01*
X185350000Y-86975000D01*
X185350000Y-86327172D01*
X185349999Y-86327155D01*
X185343598Y-86267627D01*
X185343596Y-86267620D01*
X185293354Y-86132913D01*
X185293350Y-86132906D01*
X185207190Y-86017812D01*
X185207187Y-86017809D01*
X185092093Y-85931649D01*
X185092086Y-85931645D01*
X184957379Y-85881403D01*
X184957372Y-85881401D01*
X184897844Y-85875000D01*
X184250000Y-85875000D01*
X184250000Y-86791988D01*
X184192993Y-86759075D01*
X184065826Y-86725000D01*
X183934174Y-86725000D01*
X183807007Y-86759075D01*
X183750000Y-86791988D01*
X183750000Y-85875000D01*
X183102155Y-85875000D01*
X183042627Y-85881401D01*
X183042620Y-85881403D01*
X182907913Y-85931645D01*
X182907906Y-85931649D01*
X182792812Y-86017809D01*
X182792809Y-86017812D01*
X182706649Y-86132906D01*
X182706645Y-86132913D01*
X182656403Y-86267620D01*
X182656401Y-86267627D01*
X182650000Y-86327155D01*
X182650000Y-86975000D01*
X183566988Y-86975000D01*
X183534075Y-87032007D01*
X183500000Y-87159174D01*
X183500000Y-87290826D01*
X183534075Y-87417993D01*
X183566988Y-87475000D01*
X182650000Y-87475000D01*
X182650000Y-88122844D01*
X182656401Y-88182372D01*
X182656403Y-88182379D01*
X182706645Y-88317086D01*
X182706649Y-88317093D01*
X182792809Y-88432187D01*
X182792812Y-88432190D01*
X182907906Y-88518350D01*
X182907913Y-88518354D01*
X183039470Y-88567422D01*
X183095404Y-88609293D01*
X183119821Y-88674758D01*
X183104969Y-88743031D01*
X183083819Y-88771285D01*
X182969889Y-88885215D01*
X182844951Y-89057179D01*
X182748444Y-89246585D01*
X182682753Y-89448760D01*
X182649500Y-89658713D01*
X173500000Y-89658713D01*
X173500000Y-77102155D01*
X175610000Y-77102155D01*
X175610000Y-77750000D01*
X176526988Y-77750000D01*
X176494075Y-77807007D01*
X176460000Y-77934174D01*
X176460000Y-78065826D01*
X176494075Y-78192993D01*
X176526988Y-78250000D01*
X175610000Y-78250000D01*
X175610000Y-78897844D01*
X175616401Y-78957372D01*
X175616403Y-78957379D01*
X175666645Y-79092086D01*
X175666649Y-79092093D01*
X175752809Y-79207187D01*
X175752812Y-79207190D01*
X175867906Y-79293350D01*
X175867913Y-79293354D01*
X176002620Y-79343596D01*
X176002627Y-79343598D01*
X176062155Y-79349999D01*
X176062172Y-79350000D01*
X176710000Y-79350000D01*
X176710000Y-78433012D01*
X176767007Y-78465925D01*
X176894174Y-78500000D01*
X177025826Y-78500000D01*
X177152993Y-78465925D01*
X177210000Y-78433012D01*
X177210000Y-79350000D01*
X177857828Y-79350000D01*
X177857844Y-79349999D01*
X177917372Y-79343598D01*
X177917379Y-79343596D01*
X178052086Y-79293354D01*
X178052093Y-79293350D01*
X178167187Y-79207190D01*
X178167190Y-79207187D01*
X178253350Y-79092093D01*
X178253354Y-79092086D01*
X178302422Y-78960529D01*
X178344293Y-78904595D01*
X178409757Y-78880178D01*
X178478030Y-78895030D01*
X178506285Y-78916181D01*
X178620213Y-79030109D01*
X178792179Y-79155048D01*
X178792181Y-79155049D01*
X178792184Y-79155051D01*
X178981588Y-79251557D01*
X179183757Y-79317246D01*
X179393713Y-79350500D01*
X179393714Y-79350500D01*
X179606286Y-79350500D01*
X179606287Y-79350500D01*
X179816243Y-79317246D01*
X180018412Y-79251557D01*
X180207816Y-79155051D01*
X180294471Y-79092093D01*
X180379786Y-79030109D01*
X180379788Y-79030106D01*
X180379792Y-79030104D01*
X180530104Y-78879792D01*
X180530106Y-78879788D01*
X180530109Y-78879786D01*
X180655048Y-78707820D01*
X180655047Y-78707820D01*
X180655051Y-78707816D01*
X180751557Y-78518412D01*
X180817246Y-78316243D01*
X180850500Y-78106287D01*
X180850500Y-77893713D01*
X180817246Y-77683757D01*
X180751557Y-77481588D01*
X180655051Y-77292184D01*
X180655049Y-77292181D01*
X180655048Y-77292179D01*
X180530109Y-77120213D01*
X180379786Y-76969890D01*
X180207820Y-76844951D01*
X180018414Y-76748444D01*
X180018413Y-76748443D01*
X180018412Y-76748443D01*
X179816243Y-76682754D01*
X179816241Y-76682753D01*
X179816240Y-76682753D01*
X179654957Y-76657208D01*
X179606287Y-76649500D01*
X179393713Y-76649500D01*
X179345042Y-76657208D01*
X179183760Y-76682753D01*
X178981585Y-76748444D01*
X178792179Y-76844951D01*
X178620215Y-76969889D01*
X178506285Y-77083819D01*
X178444962Y-77117303D01*
X178375270Y-77112319D01*
X178319337Y-77070447D01*
X178302422Y-77039470D01*
X178253354Y-76907913D01*
X178253350Y-76907906D01*
X178167190Y-76792812D01*
X178167187Y-76792809D01*
X178052093Y-76706649D01*
X178052086Y-76706645D01*
X177917379Y-76656403D01*
X177917372Y-76656401D01*
X177857844Y-76650000D01*
X177210000Y-76650000D01*
X177210000Y-77566988D01*
X177152993Y-77534075D01*
X177025826Y-77500000D01*
X176894174Y-77500000D01*
X176767007Y-77534075D01*
X176710000Y-77566988D01*
X176710000Y-76650000D01*
X176062155Y-76650000D01*
X176002627Y-76656401D01*
X176002620Y-76656403D01*
X175867913Y-76706645D01*
X175867906Y-76706649D01*
X175752812Y-76792809D01*
X175752809Y-76792812D01*
X175666649Y-76907906D01*
X175666645Y-76907913D01*
X175616403Y-77042620D01*
X175616401Y-77042627D01*
X175610000Y-77102155D01*
X173500000Y-77102155D01*
X173500000Y-76124000D01*
X173519685Y-76056961D01*
X173572489Y-76011206D01*
X173624000Y-76000000D01*
X187475500Y-76000000D01*
X187542539Y-76019685D01*
G37*
%TD.AperFunction*%
%TD*%
M02*
